<svg width="165" height="165" viewBox="0 0 165 165" fill="none" xmlns="http://www.w3.org/2000/svg">
<path d="M164.509 78.3509V87.3232C164.451 87.9385 164.381 88.5527 164.339 89.1691C164.047 93.3942 163.405 97.5688 162.402 101.68C157.742 120.77 147.675 136.387 132.04 148.293C118.532 158.581 103.184 164.026 86.2365 164.891C82.8741 165.063 79.4975 165.012 76.1274 164.737C71.7412 164.379 67.4055 163.735 63.1376 162.674C45.5733 158.307 30.8897 149.256 19.3155 135.336C7.51258 121.14 1.30016 104.715 0.383731 86.2951C0.226067 83.1135 0.290665 79.9209 0.542491 76.7327C0.861105 72.7113 1.41841 68.7304 2.32498 64.8032C6.29068 47.6337 14.8188 33.1367 27.9597 21.4032C37.2608 13.0987 47.9656 7.28503 59.9536 3.85048C64.8697 2.44249 69.8744 1.49764 74.9723 1.0586C76.0781 0.963347 77.184 0.870284 78.2898 0.777222C81.0621 0.777222 83.8332 0.777222 86.6055 0.777222C86.7303 0.800214 86.8551 0.837439 86.9811 0.842913C90.7913 1.02247 94.5643 1.50092 98.3012 2.25856C116.419 5.9307 131.668 14.6468 143.969 28.4343C152.156 37.6092 157.905 48.1702 161.347 59.976C162.799 64.9554 163.774 70.0289 164.229 75.1988C164.321 76.2499 164.417 77.3009 164.512 78.3509H164.509ZM155.487 82.8584C155.274 41.8605 122.319 9.89954 82.5511 9.85684C42.1977 9.81305 9.51295 42.4189 9.46478 82.7774C9.4177 122.557 41.3426 155.793 82.4154 155.827C122.888 155.861 155.27 123.388 155.487 82.8584Z" fill="#58534B"/>
<path d="M86.0819 32.978C94.5944 32.9322 101.92 33.5701 109.172 34.9266C112.457 35.5416 115.71 36.3104 118.938 37.1816C125.631 38.9884 132.042 41.4964 138.279 44.4536C138.741 44.6728 138.853 44.8844 138.666 45.3652C133.04 59.8821 125.755 73.5222 116.163 85.9422C112.651 90.4903 108.788 94.7397 104.479 98.5911C103.411 99.5463 103.658 99.4765 102.68 98.6369C99.739 96.1158 96.9376 93.4617 94.5854 90.3911C93.8591 89.4435 93.2356 88.4371 92.7104 87.3673C92.4735 86.8843 92.5372 86.5659 92.9182 86.1711C99.111 79.742 104.8 72.9159 109.782 65.5436C112.121 62.0826 114.242 58.5005 115.984 54.7135C116.273 54.0832 116.261 54.0494 115.576 53.8575C111.424 52.694 107.199 51.8598 102.935 51.2034C99.3333 50.6494 95.7129 50.2536 92.0757 50.029C88.0653 49.7815 84.0493 49.7062 80.0277 49.8523C75.5625 50.0137 71.1241 50.4063 66.7125 51.0911C58.4023 52.38 50.3859 54.636 42.707 58.0131C42.1863 58.2421 42.1114 58.53 42.1863 59.0326C43.5551 68.2304 46.5151 76.9614 50.3669 85.422C55.9048 97.5835 63.3111 108.576 72.3108 118.555C80.0165 127.098 88.681 134.609 98.15 141.243C98.2405 141.306 98.3265 141.378 98.4238 141.432C98.8886 141.686 98.7936 141.897 98.4238 142.183C95.0067 144.816 91.5997 147.462 88.1915 150.105C87.463 150.67 86.7132 151.212 86.0182 151.814C85.5824 152.191 85.2483 152.2 84.7544 151.893C82.2379 150.333 79.8265 148.634 77.4833 146.838C66.498 138.422 57.2737 128.41 49.3959 117.195C39.0027 102.4 31.6635 86.2409 26.9648 68.925C25.2317 62.5384 23.8841 56.0689 22.8638 49.5361C22.7722 48.9517 22.903 48.6333 23.4684 48.341C31.1741 44.3566 39.2553 41.2838 47.5923 38.8271C54.7248 36.7247 61.9825 35.1665 69.363 34.1677C72.456 33.7489 75.5625 33.4534 78.6801 33.2408C81.5228 33.0467 84.3666 33.0293 86.083 32.9802L86.0819 32.978Z" fill="#58534B"/>
<path d="M145.192 49.075C145.04 51.3882 144.691 53.671 144.307 55.9484C143.235 62.3016 141.769 68.5604 140.017 74.7562C137.37 84.122 133.9 93.1621 129.506 101.831C125.724 109.292 121.258 116.303 115.924 122.737C113.023 126.236 109.864 129.479 106.479 132.5C106.074 132.862 105.788 132.892 105.335 132.563C100.412 128.979 95.6102 125.241 90.9854 121.269C87.1263 117.954 83.3553 114.543 79.842 110.851C77.956 108.87 76.1913 106.78 74.562 104.574C74.3074 104.229 74.2526 103.989 74.5963 103.655C78.3018 100.064 81.9955 96.4603 85.686 92.8547C85.9437 92.6028 86.1242 92.5615 86.383 92.8645C89.4215 96.4234 92.561 99.8911 95.7381 103.323C98.0838 105.858 100.434 108.391 103.045 110.658C103.648 111.182 103.682 111.193 104.279 110.619C106.313 108.661 108.262 106.615 110.177 104.538C112.689 101.814 115.14 99.0342 117.519 96.1899C121.033 91.9892 124.315 87.6103 127.474 83.1327C130.937 78.2238 134.128 73.1423 136.972 67.8436C140.169 61.8911 143.007 55.7735 145.087 49.3182C145.113 49.2346 145.155 49.1553 145.191 49.075H145.192Z" fill="#58534B"/>
</svg>
