<svg width="64" height="64" viewBox="0 0 64 64" fill="none" xmlns="http://www.w3.org/2000/svg">
<path fill-rule="evenodd" clip-rule="evenodd" d="M64 32C64 49.6731 49.6731 64 32 64C14.3269 64 0 49.6731 0 32C0 14.3269 14.3269 0 32 0C49.6731 0 64 14.3269 64 32ZM62 32C62 48.5685 48.5685 62 32 62C15.4315 62 2 48.5685 2 32C2 15.4315 15.4315 2 32 2C48.5685 2 62 15.4315 62 32Z" fill="url(#paint0_linear_665_8750)"/>
<path d="M47.5006 25.0858C47.1786 24.817 46.7875 24.6441 46.3719 24.5869C45.9564 24.5296 45.5331 24.5904 45.1504 24.7621L38.0297 27.9285L33.8923 20.47C33.6946 20.1218 33.4081 19.8322 33.062 19.6307C32.7159 19.4293 32.3226 19.3231 31.9221 19.3231C31.5217 19.3231 31.1284 19.4293 30.7823 19.6307C30.4362 19.8322 30.1497 20.1218 29.952 20.47L25.8146 27.9285L18.6938 24.7621C18.3104 24.5906 17.8866 24.5298 17.4703 24.5866C17.0541 24.6433 16.6621 24.8154 16.3385 25.0833C16.015 25.3512 15.7728 25.7043 15.6395 26.1027C15.5061 26.501 15.4868 26.9287 15.5838 27.3374L19.1582 42.5781C19.2266 42.8732 19.3541 43.1513 19.5331 43.3956C19.7121 43.6399 19.9389 43.8453 20.1996 43.9995C20.5526 44.2108 20.9562 44.3226 21.3676 44.3231C21.5676 44.3227 21.7666 44.2943 21.9587 44.2387C28.4741 42.4373 35.3561 42.4373 41.8715 44.2387C42.4664 44.3951 43.0991 44.309 43.6306 43.9995C43.8929 43.8473 44.1209 43.6425 44.3001 43.3978C44.4794 43.1532 44.606 42.8741 44.672 42.5781L48.2605 27.3374C48.3564 26.9286 48.336 26.5011 48.2018 26.1032C48.0675 25.7053 47.8246 25.3529 47.5006 25.0858ZM37.5512 37.6105C37.5202 37.8879 37.3884 38.1443 37.1809 38.3311C36.9734 38.5179 36.7046 38.622 36.4254 38.6237H36.3128C33.3932 38.3282 30.4511 38.3282 27.5315 38.6237C27.2348 38.6552 26.9377 38.5677 26.7055 38.3804C26.4733 38.193 26.325 37.9212 26.2931 37.6245C26.2655 37.3264 26.3563 37.0294 26.5459 36.7977C26.7355 36.566 27.0086 36.4181 27.3063 36.3861C30.375 36.0625 33.4693 36.0625 36.538 36.3861C36.833 36.4182 37.1039 36.564 37.2931 36.7926C37.4823 37.0212 37.5749 37.3146 37.5512 37.6105Z" fill="url(#paint1_linear_665_8750)"/>
<defs>
<linearGradient id="paint0_linear_665_8750" x1="32" y1="0" x2="32" y2="64" gradientUnits="userSpaceOnUse">
<stop stop-color="#F6E0B0"/>
<stop offset="1" stop-color="#DFB772"/>
</linearGradient>
<linearGradient id="paint1_linear_665_8750" x1="32" y1="0" x2="32" y2="64" gradientUnits="userSpaceOnUse">
<stop stop-color="#F6E0B0"/>
<stop offset="1" stop-color="#DFB772"/>
</linearGradient>
</defs>
</svg>
