<svg width="14" height="14" viewBox="0 0 14 14" fill="none" xmlns="http://www.w3.org/2000/svg">
<path d="M8.27871 7.84224C7.94171 8.21161 7.47969 8.41883 6.99796 8.41665V8.41592C6.51692 8.41738 6.05625 8.20943 5.72061 7.84152L0.583333 2.24504C0.766104 2.0858 0.995076 1.99928 1.23152 2H12.7685C13.0042 2 13.2332 2.08653 13.4167 2.24504L8.27871 7.84224Z" fill="#C0C0C0"/>
<path d="M10.2643 6.97402L13.8855 3.18802V3.18874C13.8981 3.17584 13.9141 3.16867 13.9316 3.16867C13.9693 3.16795 14 3.19877 14 3.23675V10.8116C13.9986 11.4208 13.5175 11.9145 12.9233 11.9167H1.07671C0.483192 11.9152 0.00209476 11.4215 0 10.8116V3.23675C0 3.2174 0.00698254 3.19877 0.0209476 3.18515C0.0474813 3.15935 0.0893765 3.16079 0.114514 3.18802L3.73915 6.97473C3.76289 7.00268 3.76289 7.04353 3.73915 7.07148L1.20519 9.84128L1.20379 9.84272C1.03342 10.0176 1.03411 10.3014 1.20519 10.4762C1.37626 10.6511 1.65347 10.6511 1.82454 10.4762L4.34733 7.71574C4.37456 7.68779 4.41786 7.68779 4.44509 7.71574L5.03721 8.3342C5.55461 8.88171 6.26544 9.19129 7.00908 9.19416C7.73666 9.19344 8.43282 8.89174 8.94115 8.35856L9.55701 7.71574C9.58424 7.68779 9.62753 7.68779 9.65476 7.71574L12.179 10.4755C12.35 10.6504 12.6272 10.6504 12.7983 10.4755L12.7997 10.4741C12.9701 10.2992 12.9694 10.0154 12.7983 9.84057L10.2643 7.07076L10.2622 7.06861C10.2371 7.04138 10.2385 6.9991 10.2643 6.97402Z" fill="#C0C0C0"/>
</svg>
