<svg width="64" height="64" viewBox="0 0 64 64" fill="none" xmlns="http://www.w3.org/2000/svg">
<path fill-rule="evenodd" clip-rule="evenodd" d="M64 32C64 49.6731 49.6731 64 32 64C14.3269 64 0 49.6731 0 32C0 14.3269 14.3269 0 32 0C49.6731 0 64 14.3269 64 32ZM62 32C62 48.5685 48.5685 62 32 62C15.4315 62 2 48.5685 2 32C2 15.4315 15.4315 2 32 2C48.5685 2 62 15.4315 62 32Z" fill="url(#paint0_linear_665_8752)"/>
<path d="M35.1978 29.4289C34.9034 29.1346 34.5041 28.9693 34.0878 28.9693C33.6715 28.9693 33.2722 29.1346 32.9778 29.4289L31.8678 30.5374C31.5781 30.8373 31.2316 31.0765 30.8485 31.2411C30.4654 31.4056 30.0534 31.4923 29.6364 31.4959C29.2195 31.4995 28.806 31.4201 28.4201 31.2622C28.0342 31.1043 27.6836 30.8711 27.3888 30.5763C27.094 30.2815 26.8608 29.9309 26.7029 29.545C26.545 29.1591 26.4656 28.7456 26.4692 28.3287C26.4728 27.9117 26.5595 27.4997 26.724 27.1166C26.8886 26.7335 27.1278 26.387 27.4277 26.0973L36.267 17.255C38.3597 16.779 40.5492 16.9749 42.5242 17.8148C44.4992 18.6547 46.1591 20.0959 47.268 21.9335C48.3768 23.771 48.8781 25.9114 48.7005 28.0502C48.523 30.189 47.6756 32.2174 46.279 33.847L42.9694 37.199L35.1978 29.4274V29.4289ZM17.9903 19.9899C19.6149 18.3656 21.7399 17.3366 24.0216 17.0693C26.3034 16.8021 28.6087 17.3122 30.5646 18.5173L25.2061 23.8773C24.0456 25.0356 23.384 26.6018 23.3628 28.2413C23.3416 29.8808 23.9625 31.4636 25.0927 32.6515C26.223 33.8393 27.773 34.538 29.4115 34.5983C31.0501 34.6586 32.6472 34.0757 33.8617 32.9741L34.0878 32.759L40.7494 39.419L34.0878 46.0806C33.4989 46.6693 32.7004 47 31.8678 47C31.0351 47 30.2366 46.6693 29.6477 46.0806L17.9887 34.4216C16.0751 32.5078 15 29.9122 15 27.2058C15 24.4994 16.0751 21.9038 17.9887 19.9899H17.9903Z" fill="url(#paint1_linear_665_8752)"/>
<defs>
<linearGradient id="paint0_linear_665_8752" x1="32" y1="0" x2="32" y2="64" gradientUnits="userSpaceOnUse">
<stop stop-color="#F6E0B0"/>
<stop offset="1" stop-color="#DFB772"/>
</linearGradient>
<linearGradient id="paint1_linear_665_8752" x1="32" y1="0" x2="32" y2="64" gradientUnits="userSpaceOnUse">
<stop stop-color="#F6E0B0"/>
<stop offset="1" stop-color="#DFB772"/>
</linearGradient>
</defs>
</svg>
