<svg width="14" height="14" viewBox="0 0 14 14" fill="none" xmlns="http://www.w3.org/2000/svg">
<path d="M11.6153 5.61554H12.5384C12.5372 4.51421 12.0992 3.45834 11.3204 2.67958C10.5417 1.90082 9.48578 1.46278 8.38444 1.46156V2.38466C9.24103 2.38564 10.0622 2.72635 10.6679 3.33204C11.2736 3.93774 11.6144 4.75896 11.6153 5.61554Z" fill="#C0C0C0"/>
<path d="M10.0336 8.49655L8.9997 9.53043C4.99986 9.03057 4.42661 5.00029 4.42661 5.00029L5.46049 3.96641C5.59891 3.82802 5.69369 3.65205 5.73307 3.46031C5.77245 3.26858 5.75471 3.0695 5.68204 2.88776L5.17848 1.62864C5.10423 1.44306 4.97607 1.28398 4.81054 1.17193C4.64502 1.05988 4.44972 0.999997 4.24983 1H2.00067C1.85981 0.99961 1.72046 1.02904 1.5918 1.08637C1.46313 1.14369 1.34805 1.2276 1.25414 1.33259C1.16023 1.43757 1.0896 1.56125 1.04692 1.69549C1.00423 1.82973 0.990453 1.97148 1.00648 2.11142C1.33742 4.97398 3.11994 12.4493 11.9458 12.9985C12.0817 13.0059 12.2177 12.9854 12.3454 12.9384C12.4731 12.8914 12.5899 12.8188 12.6886 12.7251C12.7872 12.6314 12.8658 12.5185 12.9193 12.3934C12.9729 12.2683 13.0003 12.1335 13 11.9974V9.70767C13 9.50778 12.9401 9.31248 12.8281 9.14696C12.716 8.98143 12.5569 8.85328 12.3714 8.77902L11.1122 8.27501C10.9305 8.20234 10.7314 8.18459 10.5397 8.22397C10.3479 8.26335 10.172 8.35813 10.0336 8.49655Z" fill="#C0C0C0"/>
<path d="M9.7691 5.61553H10.6922C10.6915 5.0037 10.4481 4.41714 10.0155 3.9845C9.58284 3.55187 8.99627 3.3085 8.38443 3.30777V4.23087C8.75156 4.23124 9.10354 4.37724 9.36314 4.63683C9.62273 4.89643 9.76873 5.24841 9.7691 5.61553Z" fill="#C0C0C0"/>
</svg>
