<svg width="31" height="32" viewBox="0 0 31 32" fill="none" xmlns="http://www.w3.org/2000/svg">
<g filter="url(#filter0_f_674_9445)">
<circle cx="14.783" cy="15.04" r="5" fill="#FFD78E"/>
</g>
<circle cx="14.783" cy="15.04" r="3" fill="#FFE9AF"/>
<ellipse cx="15.8335" cy="15.5" rx="8" ry="8.5" fill="#120E0A"/>
<path d="M9.13182 9.42874C5.65896 12.9736 5.71755 18.6831 9.26242 22.156C12.8073 25.6288 18.5168 25.5703 21.9897 22.0254C25.4625 18.4805 25.4039 12.771 21.8591 9.29813C18.3142 5.82527 12.6047 5.88386 9.13182 9.42874ZM22.858 14.2141L21.4888 15.6118C21.4462 15.655 21.3931 15.6863 21.3347 15.7025C21.2763 15.7187 21.2146 15.7193 21.1559 15.7042L19.8116 15.3649C19.7235 15.343 19.6476 15.2873 19.6001 15.2098L18.1981 12.9361C18.1698 12.8903 18.1526 12.8386 18.1478 12.785C18.143 12.7314 18.1507 12.6774 18.1704 12.6274L18.6535 11.3985C18.6771 11.3384 18.717 11.2861 18.7687 11.2476C18.8204 11.209 18.8819 11.1856 18.9462 11.1801L21.3139 10.978C21.3723 10.9731 21.431 10.983 21.4845 11.0069C21.538 11.0308 21.5845 11.0679 21.6198 11.1147C22.2465 11.9375 22.6977 12.8801 22.9455 13.8843C22.9607 13.9421 22.9606 14.0029 22.9453 14.0607C22.9299 14.1185 22.8999 14.1714 22.858 14.2141ZM11.299 18.9104L12.5177 18.4022C12.5674 18.3815 12.6212 18.3726 12.6749 18.3763C12.7286 18.38 12.7806 18.3962 12.827 18.4235L15.129 19.7786C15.2074 19.8245 15.2646 19.8993 15.2884 19.9869L15.6527 21.3215C15.669 21.3799 15.6697 21.4415 15.6547 21.5003C15.6396 21.559 15.6095 21.6128 15.5671 21.6562L14.1978 23.0539C14.1565 23.0962 14.1049 23.1271 14.0482 23.1439C13.9914 23.1606 13.9313 23.1624 13.8736 23.1493C12.8646 22.9221 11.9129 22.4903 11.0774 21.8807C11.0299 21.8464 10.9918 21.8006 10.9668 21.7476C10.9418 21.6946 10.9307 21.6361 10.9345 21.5777L11.0879 19.2063C11.0922 19.1423 11.1142 19.0807 11.1515 19.0284C11.1888 18.9762 11.2399 18.9353 11.299 18.9104ZM16.3829 8.32717L17.4238 10.4415C17.4452 10.4845 17.4575 10.5315 17.4598 10.5796C17.462 10.6276 17.4543 10.6755 17.437 10.7204L16.9286 12.0141C16.9053 12.0734 16.866 12.1252 16.8151 12.1636C16.7642 12.202 16.7036 12.2256 16.6402 12.2318L13.478 12.5418C13.4278 12.5471 13.3771 12.5413 13.3293 12.5249C13.2816 12.5084 13.238 12.4818 13.2017 12.4467L12.1638 11.4299C12.1231 11.3901 12.0929 11.3408 12.0759 11.2865C12.0588 11.2321 12.0555 11.1745 12.066 11.1185L12.4808 8.93051C12.4916 8.87337 12.5166 8.81987 12.5535 8.77495C12.5904 8.73002 12.6381 8.69512 12.6921 8.67347C13.7705 8.23722 14.9342 8.05252 16.0948 8.13338C16.1556 8.13745 16.2143 8.15752 16.2649 8.19155C16.3155 8.22558 16.3562 8.27236 16.3829 8.32717ZM8.70212 12.7876L10.8815 12.3277C10.9372 12.3159 10.9949 12.3181 11.0496 12.3341C11.1042 12.35 11.1541 12.3792 11.1948 12.419L12.2327 13.4358C12.2688 13.4712 12.2967 13.5141 12.3145 13.5614C12.3323 13.6087 12.3395 13.6594 12.3356 13.7098L12.0906 16.8776C12.0857 16.9412 12.0633 17.0022 12.0259 17.0539C11.9885 17.1056 11.9376 17.1459 11.8788 17.1705L10.5936 17.7057C10.5491 17.7242 10.5012 17.7333 10.453 17.7323C10.4048 17.7312 10.3573 17.7201 10.3136 17.6997L8.17838 16.7024C8.12299 16.6766 8.07543 16.6365 8.04052 16.5864C8.00561 16.5362 7.9846 16.4777 7.97963 16.4168C7.87463 15.2572 8.03551 14.089 8.45005 13.001C8.47096 12.9472 8.50497 12.8995 8.54899 12.8623C8.59301 12.825 8.64565 12.7993 8.70212 12.7876ZM19.3475 22.1682L17.2142 21.2733C17.1657 21.2531 17.1224 21.222 17.0876 21.1825C17.0528 21.143 17.0275 21.0961 17.0136 21.0453L16.6694 19.7891C16.6531 19.7307 16.6524 19.6691 16.6674 19.6104C16.6825 19.5516 16.7126 19.4978 16.755 19.4544L19.3119 16.8445C19.3544 16.8013 19.4075 16.77 19.4659 16.7538C19.5243 16.7376 19.586 16.737 19.6447 16.7521L20.908 17.0702C20.9591 17.083 21.0065 17.1072 21.0468 17.1411C21.0871 17.175 21.1191 17.2177 21.1404 17.2658L22.0824 19.3753C22.1055 19.4269 22.1155 19.4833 22.1117 19.5397C22.1079 19.596 22.0904 19.6506 22.0607 19.6986C21.4579 20.6828 20.6401 21.5176 19.6685 22.1404C19.6213 22.1707 19.5674 22.1891 19.5114 22.1939C19.4555 22.1987 19.3993 22.1899 19.3475 22.1682Z" fill="url(#paint0_linear_674_9445)"/>
<defs>
<filter id="filter0_f_674_9445" x="1.78296" y="2.04004" width="26" height="26" filterUnits="userSpaceOnUse" color-interpolation-filters="sRGB">
<feFlood flood-opacity="0" result="BackgroundImageFix"/>
<feBlend mode="normal" in="SourceGraphic" in2="BackgroundImageFix" result="shape"/>
<feGaussianBlur stdDeviation="4" result="effect1_foregroundBlur_674_9445"/>
</filter>
<linearGradient id="paint0_linear_674_9445" x1="24.8329" y1="14.8364" x2="6.94198" y2="15.6829" gradientUnits="userSpaceOnUse">
<stop stop-color="#F6E0B0"/>
<stop offset="0.505208" stop-color="#DFB772"/>
<stop offset="1" stop-color="#F2D9A6"/>
</linearGradient>
</defs>
</svg>
