<svg width="32" height="32" viewBox="0 0 32 32" fill="none" xmlns="http://www.w3.org/2000/svg">
<g filter="url(#filter0_f_674_9536)">
<circle cx="15.7832" cy="16.0398" r="5" fill="#FFD78E"/>
</g>
<circle cx="15.7832" cy="16.0398" r="3" fill="#FFE9AF"/>
<circle cx="16" cy="15.9998" r="9" fill="#120E0A"/>
<path d="M25.1373 16.0013C25.1862 20.8263 21.1459 25.0131 15.9494 24.9918C10.7974 24.971 6.80644 20.7918 6.83363 15.9431C6.86059 11.1521 10.8433 6.9727 16.0449 6.99989C21.1806 7.02684 25.1903 11.1819 25.1373 16.0013ZM15.9903 7.87454C11.4247 7.87525 7.72952 11.51 7.73048 16.0055C7.73144 20.7013 11.7164 24.1455 16.0124 24.15C20.3475 24.1545 24.2602 20.5928 24.2544 15.9921C24.2489 11.516 20.5496 7.8736 15.9903 7.87454Z" fill="url(#paint0_linear_674_9536)"/>
<path d="M18.0299 13.0303C18.8577 13.33 19.5445 13.8343 20.1367 14.4557C20.9748 15.3356 21.4327 16.397 21.5456 17.5936C21.7894 20.1791 20.153 22.4827 17.746 23.2638C15.3076 24.055 12.6166 23.1033 11.2604 20.9774C9.90583 18.8538 10.3002 16.3176 11.5835 14.7954C10.8419 16.1668 10.7553 17.5664 11.3915 18.9954C11.8598 20.0476 12.6349 20.8057 13.6917 21.2885C15.8791 22.2875 18.4626 21.5565 19.7211 19.5808C20.4396 18.4529 20.6488 17.245 20.3058 15.9498C19.9646 14.6609 19.1821 13.7092 18.0302 13.0303L18.0299 13.0303Z" fill="url(#paint1_linear_674_9536)"/>
<path d="M17.1605 12.2878C17.1759 12.3762 17.1858 12.4365 17.1971 12.4965C17.2998 13.0405 16.9232 13.5872 16.3763 13.6879C15.7865 13.7964 15.2349 13.4499 15.1279 12.8913C15.1009 12.7511 15.0422 12.6783 14.9055 12.6242C14.4524 12.445 14.0703 12.1769 13.9146 11.6949C13.7565 11.2065 13.8539 10.7559 14.1747 10.3519C14.271 10.2309 14.3874 10.2042 14.5366 10.2548C14.8379 10.3572 14.9416 10.2803 14.957 9.95977C14.9625 9.84583 14.9647 9.73071 14.9832 9.61866C14.9917 9.56783 15.0265 9.49951 15.0684 9.48155C15.1105 9.46358 15.1868 9.48344 15.2289 9.51299C15.323 9.57894 15.4046 9.66215 15.4929 9.73638C15.5507 9.78484 15.6072 9.83638 15.6715 9.87562C15.8794 10.003 16.0415 9.95552 16.1303 9.73023C16.2288 9.4806 16.1999 9.21915 16.1741 8.9603C16.1717 8.9369 16.1583 8.91231 16.1628 8.89104C16.1732 8.84399 16.1917 8.79884 16.2069 8.75298C16.2533 8.76835 16.3185 8.76953 16.3433 8.80121C16.479 8.97448 16.6099 9.15202 16.7327 9.33451C16.8137 9.45531 16.8696 9.59289 16.9526 9.71203C17.0537 9.85718 17.1607 9.85647 17.2693 9.71416C17.348 9.61062 17.4069 9.49266 17.4827 9.38675C17.6548 9.14611 17.8251 8.90357 18.0109 8.67355C18.0559 8.61777 18.1791 8.56292 18.2308 8.58562C18.3302 8.62959 18.2696 8.73738 18.2453 8.8161C18.1661 9.07093 18.0764 9.32269 18.003 9.57894C17.9763 9.67161 17.9688 9.77586 17.9808 9.87113C17.989 9.9359 18.0328 10.0208 18.0865 10.0479C18.1322 10.0714 18.2222 10.0387 18.279 10.0075C18.4669 9.90422 18.6419 9.77586 18.8351 9.68414C19.0697 9.57256 19.3224 9.50661 19.5876 9.50448C19.6157 9.50448 19.6467 9.49881 19.6711 9.5085C19.7278 9.53095 19.8094 9.54939 19.8279 9.59171C19.8433 9.6274 19.7955 9.70589 19.7553 9.7456C19.6253 9.87373 19.4795 9.98649 19.3527 10.1172C19.2769 10.1955 19.2143 10.2912 19.1655 10.3884C19.1053 10.508 19.1491 10.6068 19.2747 10.6555C19.3635 10.69 19.4593 10.7063 19.5503 10.7361C19.9731 10.8746 20.2118 11.19 20.1798 11.5772C20.1571 11.8509 20.0017 12.0433 19.7656 12.1762C19.4959 12.328 19.1999 12.3632 18.8952 12.3523C18.8199 12.3497 18.7446 12.3447 18.6618 12.3518C19.6234 12.9159 20.3918 13.6615 20.9267 14.6345C19.9916 13.3731 18.7473 12.5941 17.1607 12.2875L17.1605 12.2878ZM16.3611 11.9289C16.0324 11.8578 15.6727 12.0247 15.6363 12.2653C15.9626 12.2774 16.313 12.1147 16.3611 11.9289Z" fill="url(#paint2_linear_674_9536)"/>
<path d="M15.9679 20.0519C14.0664 19.5146 13.4494 17.7553 13.614 16.7904C13.6994 17.0003 13.7762 17.2135 13.8715 17.4182C14.2531 18.2388 14.849 18.8387 15.7504 19.0876C16.717 19.3545 17.6531 19.3177 18.5081 18.7269C19.2288 18.2288 19.6889 17.5629 19.8486 16.705C19.8551 16.6708 19.8655 16.6372 19.884 16.6036C19.9894 17.0213 19.9268 17.4383 19.8571 17.8511C19.7057 18.7439 19.2764 19.4973 18.6038 20.1096C17.199 21.3885 15.1476 21.587 13.5069 20.6192C11.8591 19.6472 11.3285 17.7948 11.552 16.6362C11.7662 17.6792 12.2628 18.5342 13.1041 19.1841C13.9456 19.8339 14.9031 20.115 15.9679 20.0521L15.9679 20.0519Z" fill="url(#paint3_linear_674_9536)"/>
<path d="M15.0181 13.2499C15.0364 13.2778 15.0477 13.2969 15.061 13.3149C15.1984 13.5021 15.3261 13.6972 15.4761 13.8742C15.6344 14.0614 15.8269 14.2212 15.9811 14.4111C16.2201 14.7051 16.3517 15.0354 16.2367 15.4209C16.0897 15.9138 15.5348 16.098 15.1139 15.7937C14.8355 15.5923 14.6918 15.3122 14.6487 14.9848C14.5698 14.3846 14.714 13.8222 14.9794 13.2849C14.984 13.2757 14.9957 13.2698 15.0179 13.2501L15.0181 13.2499Z" fill="url(#paint4_linear_674_9536)"/>
<path d="M13.8433 13.6574C13.8681 13.3693 13.9839 13.1024 14.1552 12.8561C14.2664 12.6966 14.4092 12.6621 14.5838 12.7525C14.6192 12.7707 14.6548 12.7885 14.6909 12.8052C14.8311 12.8703 14.866 12.9721 14.7955 13.1107C14.7041 13.2913 14.5602 13.3889 14.3573 13.44C14.1814 13.4844 14.019 13.5809 13.8431 13.6574L13.8433 13.6574Z" fill="url(#paint5_linear_674_9536)"/>
<defs>
<filter id="filter0_f_674_9536" x="2.7832" y="3.03979" width="26" height="26" filterUnits="userSpaceOnUse" color-interpolation-filters="sRGB">
<feFlood flood-opacity="0" result="BackgroundImageFix"/>
<feBlend mode="normal" in="SourceGraphic" in2="BackgroundImageFix" result="shape"/>
<feGaussianBlur stdDeviation="4" result="effect1_foregroundBlur_674_9536"/>
</filter>
<linearGradient id="paint0_linear_674_9536" x1="23.2311" y1="21.9932" x2="10.0971" y2="9.58568" gradientUnits="userSpaceOnUse">
<stop stop-color="#F6E0B0"/>
<stop offset="0.505208" stop-color="#DFB772"/>
<stop offset="1" stop-color="#F2D9A6"/>
</linearGradient>
<linearGradient id="paint1_linear_674_9536" x1="23.2311" y1="21.9932" x2="10.0971" y2="9.58568" gradientUnits="userSpaceOnUse">
<stop stop-color="#F6E0B0"/>
<stop offset="0.505208" stop-color="#DFB772"/>
<stop offset="1" stop-color="#F2D9A6"/>
</linearGradient>
<linearGradient id="paint2_linear_674_9536" x1="23.2311" y1="21.9932" x2="10.0971" y2="9.58568" gradientUnits="userSpaceOnUse">
<stop stop-color="#F6E0B0"/>
<stop offset="0.505208" stop-color="#DFB772"/>
<stop offset="1" stop-color="#F2D9A6"/>
</linearGradient>
<linearGradient id="paint3_linear_674_9536" x1="23.2311" y1="21.9932" x2="10.0971" y2="9.58568" gradientUnits="userSpaceOnUse">
<stop stop-color="#F6E0B0"/>
<stop offset="0.505208" stop-color="#DFB772"/>
<stop offset="1" stop-color="#F2D9A6"/>
</linearGradient>
<linearGradient id="paint4_linear_674_9536" x1="23.2311" y1="21.9932" x2="10.0971" y2="9.58568" gradientUnits="userSpaceOnUse">
<stop stop-color="#F6E0B0"/>
<stop offset="0.505208" stop-color="#DFB772"/>
<stop offset="1" stop-color="#F2D9A6"/>
</linearGradient>
<linearGradient id="paint5_linear_674_9536" x1="23.2311" y1="21.9932" x2="10.0971" y2="9.58568" gradientUnits="userSpaceOnUse">
<stop stop-color="#F6E0B0"/>
<stop offset="0.505208" stop-color="#DFB772"/>
<stop offset="1" stop-color="#F2D9A6"/>
</linearGradient>
</defs>
</svg>
