<svg width="32" height="32" viewBox="0 0 32 32" fill="none" xmlns="http://www.w3.org/2000/svg">
<g filter="url(#filter0_f_674_9081)">
<circle cx="15.7832" cy="16.04" r="5" fill="#FFD78E"/>
</g>
<circle cx="15.7832" cy="16.04" r="3" fill="#FFE9AF"/>
<circle cx="15.8335" cy="15.8892" r="9" fill="#120E0A"/>
<path d="M16.2367 10.4188C17.1698 10.4138 17.9728 10.4837 18.7677 10.6324C19.1278 10.6998 19.4844 10.7841 19.8383 10.8796C20.5718 11.0776 21.2746 11.3526 21.9582 11.6767C22.009 11.7007 22.0212 11.7239 22.0007 11.7766C21.384 13.3679 20.5854 14.863 19.534 16.2244C19.149 16.723 18.7256 17.1887 18.2533 17.6109C18.2437 17.6195 18.2351 17.6273 18.2272 17.6344C18.1869 17.671 18.1683 17.6878 18.1504 17.6872C18.1349 17.6866 18.12 17.6731 18.0922 17.648C18.0821 17.6388 18.0703 17.6281 18.0561 17.6159C17.7337 17.3396 17.4266 17.0487 17.1688 16.7121C17.0892 16.6082 17.0208 16.4979 16.9633 16.3806C16.9373 16.3277 16.9443 16.2928 16.986 16.2495C17.6649 15.5448 18.2884 14.7966 18.8346 13.9884C19.091 13.6091 19.3234 13.2164 19.5144 12.8013C19.5461 12.7322 19.5448 12.7285 19.4697 12.7075C19.0145 12.58 18.5514 12.4885 18.084 12.4166C17.6892 12.3559 17.2924 12.3125 16.8937 12.2878C16.4541 12.2607 16.0139 12.2525 15.5731 12.2685C15.0836 12.2862 14.5971 12.3292 14.1135 12.4043C13.2026 12.5455 12.3239 12.7928 11.4821 13.163C11.4251 13.1881 11.4169 13.2197 11.4251 13.2748C11.5751 14.283 11.8996 15.24 12.3218 16.1674C12.9288 17.5005 13.7407 18.7054 14.7272 19.7992C15.5718 20.7357 16.5216 21.5589 17.5595 22.2861C17.5626 22.2883 17.5656 22.2905 17.5687 22.2928C17.5754 22.2978 17.5822 22.3028 17.5895 22.3068C17.6405 22.3347 17.6301 22.3579 17.5895 22.3892C17.2649 22.6393 16.9411 22.8905 16.6174 23.1416L16.4679 23.2575C16.4458 23.2747 16.4234 23.2917 16.4011 23.3087C16.3429 23.3529 16.2847 23.3972 16.2297 23.4448C16.1819 23.4862 16.1453 23.4871 16.0912 23.4535C15.8153 23.2825 15.551 23.0963 15.2942 22.8994C14.09 21.9769 13.0789 20.8794 12.2153 19.6501C11.0761 18.0284 10.2716 16.2572 9.75656 14.3591C9.56659 13.659 9.41887 12.9499 9.30704 12.2338C9.297 12.1698 9.31133 12.1349 9.37331 12.1028C10.218 11.6661 11.1038 11.3293 12.0177 11.06C12.7995 10.8295 13.595 10.6587 14.404 10.5492C14.7431 10.5033 15.0836 10.4709 15.4253 10.4476C15.6627 10.4314 15.9002 10.4265 16.083 10.4226C16.1401 10.4214 16.1919 10.4201 16.2367 10.4188Z" fill="url(#paint0_linear_674_9081)"/>
<path d="M22.619 12.9367C22.6612 12.6871 22.6994 12.4369 22.716 12.1833C22.7149 12.1858 22.7136 12.1884 22.7124 12.1909C22.7095 12.1972 22.7066 12.2034 22.7045 12.21C22.4766 12.9175 22.1654 13.5881 21.815 14.2406C21.5033 14.8214 21.1535 15.3784 20.7739 15.9165C20.4277 16.4073 20.0679 16.8873 19.6827 17.3477C19.4219 17.6595 19.1532 17.9643 18.8778 18.2628C18.6679 18.4904 18.4544 18.7147 18.2314 18.9293C18.1659 18.9923 18.1623 18.9911 18.0961 18.9336C17.8099 18.6852 17.5523 18.4074 17.2952 18.1296C16.9469 17.7534 16.6028 17.3733 16.2697 16.9832C16.2413 16.95 16.2216 16.9545 16.1933 16.9821C15.7888 17.3774 15.3839 17.7724 14.9777 18.166C14.94 18.2026 14.946 18.2289 14.9739 18.2667C15.1525 18.5085 15.346 18.7377 15.5527 18.9548C15.9378 19.3594 16.3512 19.7333 16.7742 20.0968C17.2812 20.5321 17.8075 20.9419 18.3471 21.3347C18.3968 21.3708 18.4281 21.3674 18.4725 21.3278C18.8436 20.9966 19.1898 20.6412 19.5078 20.2576C20.0925 19.5524 20.582 18.7839 20.9967 17.966C21.4783 17.0158 21.8586 16.0249 22.1488 14.9983C22.3408 14.3192 22.5015 13.6331 22.619 12.9367Z" fill="url(#paint1_linear_674_9081)"/>
<path fill-rule="evenodd" clip-rule="evenodd" d="M24.8335 15.3923L24.8335 16.3758C24.8316 16.3964 24.8295 16.417 24.8274 16.4376C24.8227 16.4844 24.818 16.5312 24.8148 16.5781C24.7828 17.0412 24.7124 17.4988 24.6025 17.9495C24.0917 20.042 22.9882 21.7538 21.2744 23.0589C19.7936 24.1865 18.1114 24.7835 16.2536 24.8783C15.885 24.8971 15.5149 24.8915 15.1455 24.8614C14.6647 24.8221 14.1895 24.7516 13.7216 24.6353C11.7963 24.1565 10.1868 23.1644 8.91808 21.6386C7.6243 20.0825 6.94332 18.2821 6.84287 16.2631C6.82559 15.9143 6.83267 15.5644 6.86027 15.2149C6.8952 14.7741 6.95629 14.3377 7.05566 13.9073C7.49036 12.0253 8.42517 10.4362 9.86561 9.15004C10.8852 8.23976 12.0586 7.6025 13.3726 7.22603C13.9115 7.0717 14.4601 6.96813 15.0189 6.92C15.1401 6.90956 15.2613 6.89936 15.3825 6.88916L16.2941 6.88916C16.2983 6.88994 16.3025 6.89086 16.3067 6.89178C16.3162 6.89386 16.3257 6.89595 16.3352 6.89636C16.7529 6.91604 17.1665 6.96849 17.5761 7.05153C19.5621 7.45405 21.2336 8.40946 22.582 9.92075C23.4793 10.9264 24.1096 12.0841 24.4869 13.3781C24.646 13.9239 24.7528 14.4801 24.8028 15.0468C24.8096 15.1247 24.8166 15.2026 24.8237 15.2805L24.8335 15.3923ZM23.8446 15.8864C23.8212 11.3924 20.2088 7.88909 15.8496 7.88441C11.4263 7.87961 7.84357 11.4536 7.83829 15.8775C7.83313 20.2378 11.3326 23.881 15.8348 23.8847C20.2712 23.8884 23.8207 20.3289 23.8446 15.8864Z" fill="url(#paint2_linear_674_9081)"/>
<defs>
<filter id="filter0_f_674_9081" x="2.7832" y="3.04004" width="26" height="26" filterUnits="userSpaceOnUse" color-interpolation-filters="sRGB">
<feFlood flood-opacity="0" result="BackgroundImageFix"/>
<feBlend mode="normal" in="SourceGraphic" in2="BackgroundImageFix" result="shape"/>
<feGaussianBlur stdDeviation="4" result="effect1_foregroundBlur_674_9081"/>
</filter>
<linearGradient id="paint0_linear_674_9081" x1="22.9585" y1="21.8892" x2="9.8335" y2="9.70166" gradientUnits="userSpaceOnUse">
<stop stop-color="#F6E0B0"/>
<stop offset="0.505208" stop-color="#DFB772"/>
<stop offset="1" stop-color="#F2D9A6"/>
</linearGradient>
<linearGradient id="paint1_linear_674_9081" x1="22.9585" y1="21.8892" x2="9.8335" y2="9.70166" gradientUnits="userSpaceOnUse">
<stop stop-color="#F6E0B0"/>
<stop offset="0.505208" stop-color="#DFB772"/>
<stop offset="1" stop-color="#F2D9A6"/>
</linearGradient>
<linearGradient id="paint2_linear_674_9081" x1="22.9585" y1="21.8892" x2="9.8335" y2="9.70166" gradientUnits="userSpaceOnUse">
<stop stop-color="#F6E0B0"/>
<stop offset="0.505208" stop-color="#DFB772"/>
<stop offset="1" stop-color="#F2D9A6"/>
</linearGradient>
</defs>
</svg>
