<svg width="27" height="27" viewBox="0 0 27 27" fill="none" xmlns="http://www.w3.org/2000/svg">
<g filter="url(#filter0_f_674_9263)">
<circle cx="13.783" cy="13.04" r="5" fill="#FFD78E"/>
</g>
<circle cx="13.783" cy="13.04" r="3" fill="#FFE9AF"/>
<circle cx="15.4998" cy="11.5" r="4.5" fill="#120E0A"/>
<path d="M12.7485 13.9063C13.0285 14.1812 13.3902 14.3158 13.8335 14.3098C14.2768 14.3043 14.6035 14.1469 14.8135 13.8375L17.771 9.48906C17.876 9.32865 17.8613 9.18267 17.7269 9.05112C17.593 8.91912 17.4443 8.90469 17.281 9.00781L12.8535 11.9125C12.5385 12.1188 12.3724 12.4339 12.3551 12.8578C12.3374 13.2818 12.4685 13.6312 12.7485 13.9063ZM9.0035 17C8.7585 17 8.52516 16.9427 8.3035 16.8281C8.08183 16.7135 7.90683 16.5531 7.7785 16.3469C7.47516 15.8312 7.24183 15.2842 7.0785 14.7058C6.91516 14.1269 6.8335 13.5167 6.8335 12.875C6.8335 11.924 7.01736 11.033 7.3851 10.202C7.75236 9.3715 8.25403 8.6439 8.8901 8.01919C9.5257 7.39494 10.2693 6.90223 11.121 6.54106C11.9727 6.18035 12.8768 6 13.8335 6C14.8018 6 15.7088 6.18035 16.5544 6.54106C17.4005 6.90223 18.1413 7.39494 18.7769 8.01919C19.413 8.6439 19.9146 9.3715 20.2819 10.202C20.6496 11.033 20.8335 11.924 20.8335 12.875C20.8335 13.5167 20.7549 14.121 20.5976 14.6879C20.4399 15.2554 20.2035 15.8083 19.8885 16.3469C19.7602 16.5531 19.5852 16.7135 19.3635 16.8281C19.1418 16.9427 18.9085 17 18.6635 17L9.0035 17Z" fill="url(#paint0_linear_674_9263)"/>
<defs>
<filter id="filter0_f_674_9263" x="0.782959" y="0.0400391" width="26" height="26" filterUnits="userSpaceOnUse" color-interpolation-filters="sRGB">
<feFlood flood-opacity="0" result="BackgroundImageFix"/>
<feBlend mode="normal" in="SourceGraphic" in2="BackgroundImageFix" result="shape"/>
<feGaussianBlur stdDeviation="4" result="effect1_foregroundBlur_674_9263"/>
</filter>
<linearGradient id="paint0_linear_674_9263" x1="19.3752" y1="15.1667" x2="11.4432" y2="5.79257" gradientUnits="userSpaceOnUse">
<stop stop-color="#F6E0B0"/>
<stop offset="0.505208" stop-color="#DFB772"/>
<stop offset="1" stop-color="#F2D9A6"/>
</linearGradient>
</defs>
</svg>
