<svg width="32" height="32" viewBox="0 0 32 32" fill="none" xmlns="http://www.w3.org/2000/svg">
<g filter="url(#filter0_f_674_9627)">
<path d="M11.4448 17.545C12.3625 19.8547 14.9787 20.9831 17.2884 20.0654C19.598 19.1477 20.7264 16.5314 19.8087 14.2218C18.891 11.9121 16.2748 10.7837 13.9651 11.7014C11.6555 12.6191 10.5271 15.2354 11.4448 17.545Z" fill="#FFECBB"/>
</g>
<circle cx="15.7831" cy="16.0398" r="5" fill="#FFD78E"/>
<g filter="url(#filter1_f_674_9627)">
<circle cx="15.7833" cy="16.04" r="5" fill="#FFD78E"/>
</g>
<circle cx="15.7833" cy="16.0398" r="3" fill="#FFE9AF"/>
<circle cx="15.8337" cy="15.9998" r="9" fill="#120E0A"/>
<path d="M16.2369 10.5294C17.17 10.5244 17.973 10.5943 18.768 10.743C19.1281 10.8104 19.4846 10.8947 19.8385 10.9902C20.5721 11.1882 21.2749 11.4632 21.9585 11.7873C22.0092 11.8113 22.0214 11.8345 22.001 11.8872C21.3843 13.4785 20.5857 14.9736 19.5342 16.335C19.1493 16.8335 18.7258 17.2993 18.2535 17.7215C18.2439 17.7301 18.2353 17.7379 18.2275 17.745C18.1872 17.7816 18.1686 17.7984 18.1506 17.7978C18.1352 17.7972 18.1202 17.7837 18.0925 17.7586C18.0824 17.7494 18.0705 17.7387 18.0563 17.7265C17.7339 17.4502 17.4269 17.1593 17.169 16.8227C17.0894 16.7188 17.0211 16.6085 16.9635 16.4912C16.9375 16.4383 16.9445 16.4034 16.9863 16.3601C17.6651 15.6554 18.2887 14.9072 18.8348 14.099C19.0912 13.7197 19.3237 13.327 19.5146 12.9119C19.5464 12.8428 19.545 12.8391 19.4699 12.8181C19.0148 12.6906 18.5517 12.5991 18.0843 12.5272C17.6895 12.4664 17.2926 12.4231 16.8939 12.3984C16.4543 12.3713 16.0141 12.3631 15.5733 12.3791C15.0838 12.3968 14.5973 12.4398 14.1138 12.5149C13.2028 12.6561 12.3241 12.9034 11.4824 13.2736C11.4253 13.2987 11.4171 13.3303 11.4253 13.3854C11.5754 14.3936 11.8998 15.3506 12.322 16.278C12.9291 17.6111 13.7409 18.816 14.7274 19.9098C15.5721 20.8462 16.5218 21.6695 17.5598 22.3967C17.5628 22.3989 17.5659 22.4011 17.5689 22.4034C17.5757 22.4084 17.5824 22.4134 17.5898 22.4174C17.6407 22.4453 17.6303 22.4684 17.5898 22.4998C17.2652 22.7499 16.9414 23.0011 16.6176 23.2522L16.4682 23.3681C16.446 23.3853 16.4237 23.4023 16.4013 23.4193C16.3431 23.4635 16.285 23.5078 16.2299 23.5554C16.1822 23.5968 16.1455 23.5977 16.0914 23.5641C15.8156 23.3931 15.5512 23.2069 15.2944 23.01C14.0902 22.0875 13.0791 20.99 12.2156 19.7607C11.0763 18.139 10.2719 16.3678 9.75681 14.4697C9.56683 13.7696 9.41911 13.0605 9.30728 12.3444C9.29724 12.2803 9.31157 12.2454 9.37355 12.2134C10.2182 11.7767 11.104 11.4398 12.0179 11.1706C12.7997 10.9401 13.5953 10.7693 14.4043 10.6598C14.7433 10.6139 15.0838 10.5815 15.4256 10.5582C15.663 10.542 15.9005 10.537 16.0833 10.5332C16.1404 10.532 16.1922 10.5307 16.2369 10.5294Z" fill="url(#paint0_linear_674_9627)"/>
<path d="M22.6193 13.0473C22.6614 12.7977 22.6997 12.5475 22.7163 12.2939C22.7152 12.2964 22.7139 12.299 22.7127 12.3015C22.7098 12.3078 22.7068 12.314 22.7048 12.3206C22.4768 13.0281 22.1657 13.6987 21.8153 14.3512C21.5035 14.932 21.1537 15.489 20.7742 16.0271C20.4279 16.5179 20.0681 16.9979 19.6829 17.4583C19.4221 17.7701 19.1535 18.0748 18.8781 18.3734C18.6682 18.601 18.4546 18.8253 18.2316 19.0399C18.1662 19.1029 18.1625 19.1017 18.0963 19.0442C17.8101 18.7958 17.5525 18.518 17.2954 18.2402C16.9472 17.864 16.603 17.4839 16.27 17.0938C16.2416 17.0606 16.2218 17.0651 16.1935 17.0927C15.789 17.488 15.3841 17.883 14.978 18.2766C14.9403 18.3132 14.9463 18.3395 14.9742 18.3773C15.1528 18.6191 15.3462 18.8483 15.553 19.0654C15.9381 19.47 16.3514 19.8439 16.7744 20.2074C17.2814 20.6427 17.8078 21.0525 18.3473 21.4453C18.397 21.4814 18.4283 21.478 18.4727 21.4384C18.8438 21.1072 19.1901 20.7518 19.5081 20.3682C20.0927 19.663 20.5823 18.8945 20.9969 18.0766C21.4786 17.1264 21.8588 16.1355 22.1491 15.1089C22.3411 14.4298 22.5018 13.7437 22.6193 13.0473Z" fill="url(#paint1_linear_674_9627)"/>
<path fill-rule="evenodd" clip-rule="evenodd" d="M24.8337 15.5029L24.8337 16.4864C24.8318 16.507 24.8297 16.5276 24.8277 16.5482C24.823 16.595 24.8183 16.6418 24.815 16.6887C24.7831 17.1518 24.7126 17.6094 24.6027 18.0601C24.0919 20.1526 22.9885 21.8644 21.2746 23.1695C19.7939 24.2971 18.1116 24.8941 16.2539 24.9889C15.8853 25.0077 15.5152 25.0021 15.1458 24.972C14.665 24.9327 14.1897 24.8621 13.7219 24.7459C11.7966 24.2671 10.187 23.275 8.91832 21.7492C7.62454 20.1931 6.94357 18.3927 6.84311 16.3737C6.82583 16.0249 6.83291 15.675 6.86052 15.3255C6.89544 14.8847 6.95653 14.4483 7.0559 14.0179C7.4906 12.1359 8.42541 10.5468 9.86585 9.26064C10.8854 8.35036 12.0588 7.7131 13.3729 7.33663C13.9117 7.18229 14.4603 7.07872 15.0191 7.0306C15.1404 7.02016 15.2616 7.00996 15.3828 6.99976L16.2943 6.99976C16.2985 7.00053 16.3027 7.00146 16.307 7.00238C16.3164 7.00446 16.3259 7.00654 16.3355 7.00696C16.7531 7.02664 17.1667 7.07908 17.5763 7.16213C19.5624 7.56465 21.2338 8.52005 22.5822 10.0313C23.4796 11.037 24.1098 12.1947 24.4871 13.4887C24.6463 14.0345 24.7531 14.5907 24.803 15.1574C24.8098 15.2353 24.8169 15.3132 24.8239 15.3911L24.8337 15.5029ZM23.8448 15.997C23.8214 11.503 20.209 7.99969 15.8499 7.995C11.4266 7.9902 7.84381 11.5642 7.83853 15.9881C7.83337 20.3484 11.3328 23.9916 15.835 23.9953C20.2714 23.999 23.8209 20.4395 23.8448 15.997Z" fill="url(#paint2_linear_674_9627)"/>
<defs>
<filter id="filter0_f_674_9627" x="1.12549" y="1.38232" width="29.0024" height="29.0022" filterUnits="userSpaceOnUse" color-interpolation-filters="sRGB">
<feFlood flood-opacity="0" result="BackgroundImageFix"/>
<feBlend mode="normal" in="SourceGraphic" in2="BackgroundImageFix" result="shape"/>
<feGaussianBlur stdDeviation="5" result="effect1_foregroundBlur_674_9627"/>
</filter>
<filter id="filter1_f_674_9627" x="2.78333" y="3.04004" width="26" height="26" filterUnits="userSpaceOnUse" color-interpolation-filters="sRGB">
<feFlood flood-opacity="0" result="BackgroundImageFix"/>
<feBlend mode="normal" in="SourceGraphic" in2="BackgroundImageFix" result="shape"/>
<feGaussianBlur stdDeviation="4" result="effect1_foregroundBlur_674_9627"/>
</filter>
<linearGradient id="paint0_linear_674_9627" x1="22.9587" y1="21.9998" x2="9.83374" y2="9.81226" gradientUnits="userSpaceOnUse">
<stop stop-color="#F6E0B0"/>
<stop offset="0.505208" stop-color="#DFB772"/>
<stop offset="1" stop-color="#F2D9A6"/>
</linearGradient>
<linearGradient id="paint1_linear_674_9627" x1="22.9587" y1="21.9998" x2="9.83374" y2="9.81226" gradientUnits="userSpaceOnUse">
<stop stop-color="#F6E0B0"/>
<stop offset="0.505208" stop-color="#DFB772"/>
<stop offset="1" stop-color="#F2D9A6"/>
</linearGradient>
<linearGradient id="paint2_linear_674_9627" x1="22.9587" y1="21.9998" x2="9.83374" y2="9.81226" gradientUnits="userSpaceOnUse">
<stop stop-color="#F6E0B0"/>
<stop offset="0.505208" stop-color="#DFB772"/>
<stop offset="1" stop-color="#F2D9A6"/>
</linearGradient>
</defs>
</svg>
