<svg width="24" height="22" viewBox="0 0 24 22" fill="none" xmlns="http://www.w3.org/2000/svg">
<path d="M6.0158 11.1955C6.38708 11.1955 6.64489 11.2532 7.10671 11.1955C7.10671 11.1955 5.64635 12.0892 5.64635 13.2067L7.47035 13.2067C7.47035 13.2067 7.47253 11.345 8.56126 10.1899L8.19762 9.85475C8.19762 9.85475 7.47035 10.1899 6.74308 9.85475C6.74308 9.85475 6.0158 9.85475 5.28853 10.1899L5.28853 9.85475L4.92489 9.85475L4.92489 11.8659L5.28853 11.8659C5.28853 11.8659 5.28853 11.1955 6.0158 11.1955ZM11.1067 11.1955C11.478 11.1955 11.7358 11.2532 12.1976 11.1955C12.1976 11.1955 10.7373 12.0892 10.7373 13.2067L12.5613 13.2067C12.5613 13.2067 12.5634 11.345 13.6522 10.1899L13.2885 9.85475C13.2885 9.85475 12.5613 10.1899 11.834 9.85475C11.834 9.85475 11.1067 9.85475 10.3794 10.1899L10.3794 9.85475L10.0158 9.85475L10.0158 11.8659L10.3794 11.8659C10.3794 11.8659 10.3794 11.1955 11.1067 11.1955ZM17.6522 7.84358L17.6522 7.17318L13.2449 7.17318C13.0791 6.50212 12.4307 6 11.6522 6C10.8736 6 10.2253 6.50212 10.0594 7.17318L5.65217 7.17318L5.65217 7.84358L3.83398 7.84358L3.83398 16L19.834 16L19.834 7.84358L17.6522 7.84358ZM9.65217 9.18436L14.0158 9.18436L14.0158 13.8771L9.65217 13.8771L9.65217 9.18436ZM4.56126 9.18436L8.92489 9.18436L8.92489 13.8771L4.56126 13.8771L4.56126 9.18436ZM19.1067 13.8771L14.7431 13.8771L14.7431 9.18436L19.1067 9.18436L19.1067 13.8771ZM16.1976 11.1955C16.5689 11.1955 16.8267 11.2532 17.2885 11.1955C17.2885 11.1955 15.8282 12.0892 15.8282 13.2067L17.6522 13.2067C17.6522 13.2067 17.6543 11.345 18.7431 10.1899L18.3794 9.85475C18.3794 9.85475 17.6522 10.1899 16.9249 9.85475C16.9249 9.85475 16.1976 9.85475 15.4703 10.1899L15.4703 9.85475L15.1067 9.85475L15.1067 11.8659L15.4703 11.8659C15.4703 11.8659 15.4703 11.1955 16.1976 11.1955Z" fill="url(#paint0_linear_674_9354)"/>
<defs>
<linearGradient id="paint0_linear_674_9354" x1="18.1673" y1="14.3333" x2="11.3934" y2="4.26928" gradientUnits="userSpaceOnUse">
<stop stop-color="#F6E0B0"/>
<stop offset="0.505208" stop-color="#DFB772"/>
<stop offset="1" stop-color="#F2D9A6"/>
</linearGradient>
</defs>
</svg>
