<svg width="27" height="28" viewBox="0 0 27 28" fill="none" xmlns="http://www.w3.org/2000/svg">
<g filter="url(#filter0_f_674_9172)">
<circle cx="13.7832" cy="14.0403" r="5" fill="#FFD78E"/>
</g>
<circle cx="13.7832" cy="14.0403" r="3" fill="#FFE9AF"/>
<g filter="url(#filter1_d_674_9172)">
<path d="M15.0474 16.762C15.4414 17.2784 15.9907 17.6599 16.6176 17.8524C17.2444 18.0448 17.917 18.0386 18.54 17.8344C19.163 17.6303 19.7049 17.2387 20.0889 16.715C20.4729 16.1913 20.6795 15.5622 20.6795 14.9167C20.6795 14.2228 20.4367 13.5893 20.0424 13.075L20.0537 13.0713L13.7958 5.68994L7.5379 13.0713L7.54916 13.075C7.13791 13.6041 6.91416 14.2509 6.91211 14.9167C6.91211 15.5622 7.11874 16.1913 7.50272 16.715C7.88671 17.2387 8.42859 17.6303 9.0516 17.8344C9.67461 18.0386 10.3472 18.0448 10.974 17.8524C11.6008 17.6599 12.1502 17.2784 12.5442 16.762L13.17 15.9427L13.17 18.6074C13.17 20.4527 10.0411 20.4527 10.0411 20.4527C9.87509 20.4527 9.71592 20.5175 9.59856 20.6329C9.4812 20.7482 9.41527 20.9047 9.41527 21.0678C9.41527 21.231 9.4812 21.3874 9.59856 21.5028C9.71592 21.6181 9.87509 21.6829 10.0411 21.6829L17.5505 21.6829C17.7165 21.6829 17.8757 21.6181 17.993 21.5028C18.1104 21.3874 18.1763 21.231 18.1763 21.0678C18.1763 20.9047 18.1104 20.7482 17.993 20.6329C17.8757 20.5175 17.7165 20.4527 17.5505 20.4527C17.5505 20.4527 14.4216 20.4527 14.4216 18.6074L14.4216 15.9427L15.0474 16.762Z" fill="url(#paint0_linear_674_9172)"/>
</g>
<defs>
<filter id="filter0_f_674_9172" x="0.783203" y="1.04028" width="26" height="26" filterUnits="userSpaceOnUse" color-interpolation-filters="sRGB">
<feFlood flood-opacity="0" result="BackgroundImageFix"/>
<feBlend mode="normal" in="SourceGraphic" in2="BackgroundImageFix" result="shape"/>
<feGaussianBlur stdDeviation="4" result="effect1_foregroundBlur_674_9172"/>
</filter>
<filter id="filter1_d_674_9172" x="2.91211" y="1.68994" width="21.7676" height="23.9929" filterUnits="userSpaceOnUse" color-interpolation-filters="sRGB">
<feFlood flood-opacity="0" result="BackgroundImageFix"/>
<feColorMatrix in="SourceAlpha" type="matrix" values="0 0 0 0 0 0 0 0 0 0 0 0 0 0 0 0 0 0 127 0" result="hardAlpha"/>
<feOffset/>
<feGaussianBlur stdDeviation="2"/>
<feComposite in2="hardAlpha" operator="out"/>
<feColorMatrix type="matrix" values="0 0 0 0 0 0 0 0 0 0 0 0 0 0 0 0 0 0 1 0"/>
<feBlend mode="normal" in2="BackgroundImageFix" result="effect1_dropShadow_674_9172"/>
<feBlend mode="normal" in="SourceGraphic" in2="effect1_dropShadow_674_9172" result="shape"/>
</filter>
<linearGradient id="paint0_linear_674_9172" x1="19.2454" y1="19.0174" x2="7.83903" y2="9.8998" gradientUnits="userSpaceOnUse">
<stop stop-color="#F6E0B0"/>
<stop offset="0.505208" stop-color="#DFB772"/>
<stop offset="1" stop-color="#F2D9A6"/>
</linearGradient>
</defs>
</svg>
