<svg width="24" height="16" viewBox="0 0 24 16" fill="none" xmlns="http://www.w3.org/2000/svg">
<g clip-path="url(#clip0_808_8702)">
<path d="M11.2099 5.34344C14.3401 5.34344 17.4699 5.34344 20.6 5.34398C20.6818 5.34398 20.7643 5.34617 20.8453 5.35656C20.9976 5.37597 21.0255 5.44077 20.9303 5.56491C20.711 5.85036 20.4871 6.13198 20.2651 6.41524C19.9476 6.82045 19.6234 7.22074 19.3158 7.63306C19.1793 7.81598 19.018 7.89062 18.7933 7.88953C17.4264 7.88324 16.0596 7.88488 14.6928 7.88351C14.2181 7.88296 14.1894 7.90648 14.0603 8.36063C13.9657 8.69365 13.858 9.02285 13.7292 9.34412C13.3763 10.2254 12.5653 10.7812 11.6146 10.7878C10.7763 10.7938 9.93799 10.7883 9.09968 10.7883C8.8033 10.7883 8.72619 10.8474 8.64936 11.1361C8.25536 12.6189 7.86191 14.1019 7.46846 15.5849C7.44495 15.673 7.4217 15.7616 7.36975 15.8384C7.30386 15.9363 7.21172 15.986 7.09305 15.986C6.068 15.9852 5.04103 16.0243 4.01817 15.9743C2.67075 15.9084 1.77831 14.6919 2.15262 13.3093C2.49768 12.0348 2.83727 10.7591 3.17576 9.48275C3.30181 9.00781 3.2515 8.56761 2.87883 8.20888C2.66747 8.00546 2.41265 7.89417 2.11626 7.88898C1.92486 7.88542 1.7332 7.89199 1.54235 7.88105C1.34959 7.87011 1.31295 7.8332 1.29736 7.6429C1.26619 7.26558 1.28561 6.88717 1.28533 6.5093C1.28533 6.19077 1.2703 5.87196 1.29736 5.55315C1.3083 5.42492 1.36435 5.36203 1.49286 5.35902C1.62027 5.35601 1.74741 5.34398 1.87483 5.34398C4.98662 5.34316 8.09815 5.34344 11.2099 5.34344ZM11.0576 7.88679C10.6385 7.88679 10.2193 7.88679 9.80019 7.88679C9.54782 7.88679 9.51829 7.90894 9.45158 8.15611C9.37447 8.44183 9.29819 8.72783 9.22218 9.01383C9.16394 9.23366 9.19319 9.27166 9.42341 9.27166C10.1524 9.27166 10.8816 9.27112 11.6105 9.26948C11.9763 9.26866 12.2014 9.11691 12.3296 8.77213C12.4105 8.55476 12.477 8.33165 12.547 8.11045C12.6033 7.93273 12.5702 7.88734 12.3835 7.88679C11.9416 7.88542 11.4995 7.88624 11.0576 7.88679Z" fill="url(#paint0_linear_808_8702)"/>
<path d="M15.7328 4.93633C13.382 4.93633 11.0311 4.93633 8.68024 4.93633C8.3278 4.93633 8.31932 4.92266 8.45548 4.59483C8.88503 3.56021 9.3143 2.52531 9.74384 1.49069C9.88246 1.15712 9.97023 1.09779 10.3306 1.09779C12.8455 1.09861 15.3604 1.0997 17.8751 1.10052C17.9708 1.10052 18.0665 1.10052 18.1622 1.09806C18.3404 1.09314 18.3853 1.04857 18.3894 0.867022C18.3932 0.698595 18.3867 0.529621 18.3954 0.361468C18.4096 0.096797 18.5083 0.00438102 18.7733 0.00192024C19.074 -0.00108738 19.3745 6.29589e-06 19.6753 0.0013734C19.853 0.00219366 19.9134 0.0587916 19.9129 0.240343C19.9123 0.435838 19.9372 0.629966 19.9175 0.826829C19.8962 1.03846 19.9714 1.10271 20.1863 1.1008C20.5133 1.09806 20.5951 1.17435 20.5789 0.696134C20.5737 0.541378 20.5757 0.386349 20.5803 0.231593C20.5852 0.0645334 20.6503 0.00219366 20.8168 0.00164682C21.1676 0.000279716 21.5184 0.000279716 21.8692 0.00164682C22.0333 0.00219366 22.0953 0.052503 22.1093 0.215188C22.1259 0.410136 22.1295 0.606452 22.1104 0.801948C22.0885 1.02451 22.1599 1.10462 22.3827 1.10298C22.5604 1.10162 22.7381 1.09833 22.9156 1.09943C23.1092 1.1008 23.1917 1.18091 23.192 1.37394C23.1934 2.48102 23.1931 3.5881 23.192 4.69518C23.192 4.87071 23.1272 4.93305 22.9355 4.93551C22.6121 4.93961 22.2886 4.93715 21.9652 4.93715C19.8877 4.93715 17.8103 4.93715 15.7328 4.93715V4.93633Z" fill="url(#paint1_linear_808_8702)"/>
<path d="M4.0165 1.09969C4.51741 1.09969 5.01831 1.09969 5.51922 1.09969C5.55558 1.09969 5.59222 1.0986 5.62859 1.10133C5.81697 1.11473 5.86674 1.18555 5.79483 1.35944C5.54055 1.97327 5.28107 2.58518 5.02488 3.19846C4.82829 3.66875 4.63416 4.1404 4.43812 4.61068C4.32137 4.89066 4.25438 4.93523 3.9558 4.93523C3.01332 4.9355 2.07057 4.9355 1.12809 4.93523C0.855763 4.93523 0.809555 4.88902 0.809555 4.6197C0.809555 3.98673 0.812563 3.35377 0.807641 2.7208C0.806274 2.55347 0.863146 2.42359 0.980716 2.30821C1.32222 1.97354 1.66263 1.63778 1.99729 1.29628C2.13127 1.15957 2.2863 1.0986 2.47332 1.09914C2.98789 1.10024 3.50192 1.09969 4.0165 1.09969Z" fill="url(#paint2_linear_808_8702)"/>
<path d="M6.32639 4.93551C6.15331 4.93551 5.97997 4.93523 5.80689 4.93551C5.55015 4.93605 5.50503 4.87098 5.60538 4.62955C5.89384 3.93561 6.18476 3.24249 6.47458 2.54937C6.63453 2.16686 6.79421 1.78461 6.95416 1.4021C7.0597 1.14946 7.13845 1.09833 7.40913 1.09915C7.74626 1.10024 8.08339 1.09833 8.42079 1.10052C8.6521 1.10188 8.70323 1.17379 8.61519 1.38597C8.15338 2.49633 7.68775 3.60505 7.22567 4.71513C7.16141 4.86961 7.05287 4.94016 6.8869 4.9366C6.70015 4.93277 6.51341 4.93551 6.32639 4.93551Z" fill="url(#paint3_linear_808_8702)"/>
</g>
<defs>
<linearGradient id="paint0_linear_808_8702" x1="12.0003" y1="0" x2="12.0003" y2="15.9998" gradientUnits="userSpaceOnUse">
<stop stop-color="#F6E0B0"/>
<stop offset="1" stop-color="#DFB772"/>
</linearGradient>
<linearGradient id="paint1_linear_808_8702" x1="12.0003" y1="0" x2="12.0003" y2="15.9998" gradientUnits="userSpaceOnUse">
<stop stop-color="#F6E0B0"/>
<stop offset="1" stop-color="#DFB772"/>
</linearGradient>
<linearGradient id="paint2_linear_808_8702" x1="12.0003" y1="0" x2="12.0003" y2="15.9998" gradientUnits="userSpaceOnUse">
<stop stop-color="#F6E0B0"/>
<stop offset="1" stop-color="#DFB772"/>
</linearGradient>
<linearGradient id="paint3_linear_808_8702" x1="12.0003" y1="0" x2="12.0003" y2="15.9998" gradientUnits="userSpaceOnUse">
<stop stop-color="#F6E0B0"/>
<stop offset="1" stop-color="#DFB772"/>
</linearGradient>
<clipPath id="clip0_808_8702">
<rect width="22.386" height="16" fill="white" transform="translate(0.807129)"/>
</clipPath>
</defs>
</svg>
