<svg width="22" height="22" viewBox="0 0 22 22" fill="none" xmlns="http://www.w3.org/2000/svg">
<g clip-path="url(#clip0_808_8711)">
<path d="M21.9803 9.3627C21.9299 11.0761 21.5454 12.7141 20.8527 14.2792C20.1405 15.8886 19.1514 17.3082 17.8781 18.522C15.9848 20.3269 13.76 21.4963 11.1849 21.9832C10.9464 22.0283 10.7163 21.9745 10.4868 21.9254C8.31299 21.4605 6.38429 20.4932 4.69679 19.0517C2.71161 17.356 1.3389 15.2507 0.568144 12.7541C0.286694 11.8422 0.110374 10.9095 0.0307749 9.9573C0.00314044 9.62646 0.0178588 9.29623 0.000737443 8.9663C-0.00707228 8.81261 0.0463943 8.7681 0.197182 8.7711C1.60894 8.79907 2.98345 9.03637 4.31501 9.50736C6.30469 10.2111 8.02463 11.3354 9.48415 12.8593C10.0083 13.4067 10.4838 13.9944 10.9016 14.6275C10.9782 14.7436 11.0119 14.7385 11.0875 14.6266C12.4585 12.6016 14.2442 11.056 16.4534 10.0087C17.7435 9.39698 19.1003 9.01351 20.5211 8.85862C20.944 8.81261 21.3673 8.77802 21.7929 8.77441C21.9899 8.77261 22.0037 8.78644 21.9998 8.98795C21.9974 9.11307 21.9869 9.23758 21.9803 9.3627Z" fill="url(#paint0_linear_808_8711)"/>
<path d="M14.8509 8.26372C14.8828 8.35485 14.7924 8.42643 14.6581 8.50102C13.3587 9.22104 12.1815 10.1053 11.1362 11.1633C10.9929 11.3086 10.9935 11.3068 10.8683 11.1787C9.88245 10.1693 8.77376 9.31879 7.54914 8.61952C7.48396 8.58222 7.42238 8.5326 7.35209 8.51155C7.15415 8.45169 7.13793 8.31485 7.15745 8.138C7.31335 6.72413 7.66508 5.36289 8.2412 4.0615C8.89271 2.58988 9.78092 1.27796 10.9001 0.122444C11.0572 -0.039966 11.0605 -0.0405675 11.2128 0.118234C12.9409 1.91888 14.0658 4.04105 14.5905 6.48172C14.6503 6.76022 14.6977 7.04203 14.7392 7.32414C14.7812 7.61107 14.8086 7.9004 14.8509 8.26372Z" fill="url(#paint1_linear_808_8711)"/>
</g>
<defs>
<linearGradient id="paint0_linear_808_8711" x1="11.0002" y1="-0.00012207" x2="11.0002" y2="22.0001" gradientUnits="userSpaceOnUse">
<stop stop-color="#F6E0B0"/>
<stop offset="1" stop-color="#DFB772"/>
</linearGradient>
<linearGradient id="paint1_linear_808_8711" x1="11.0002" y1="-0.00012207" x2="11.0002" y2="22.0001" gradientUnits="userSpaceOnUse">
<stop stop-color="#F6E0B0"/>
<stop offset="1" stop-color="#DFB772"/>
</linearGradient>
<clipPath id="clip0_808_8711">
<rect width="22" height="22" fill="white"/>
</clipPath>
</defs>
</svg>
