<svg width="26" height="18" viewBox="0 0 26 18" fill="none" xmlns="http://www.w3.org/2000/svg">
<g clip-path="url(#clip0_808_8683)">
<path d="M13.0187 17.0769C11.5684 17.0769 10.1185 17.0769 8.66815 17.0769C8.39314 17.0769 8.38298 17.088 8.38425 17.3642C8.38489 17.5125 8.38298 17.6605 8.3833 17.8088C8.3833 17.9374 8.33058 18.0003 8.19181 17.9997C7.36075 17.9962 6.53001 17.9965 5.69896 17.9997C5.5624 18.0003 5.50747 17.9438 5.50969 17.8101C5.51382 17.5719 5.50461 17.3334 5.5135 17.0956C5.5189 16.953 5.46332 16.873 5.33503 16.8142C4.36583 16.3696 3.83074 15.5983 3.65672 14.5608C3.64021 14.4624 3.63925 14.3608 3.63894 14.2604C3.63767 13.3871 3.63862 12.5138 3.63767 11.6405C3.63767 11.4398 3.61417 11.4157 3.41537 11.3922C2.0181 11.2271 1.01842 10.2595 0.856466 8.8571C0.665929 7.20706 1.85932 5.86822 3.36234 5.68276C4.68975 5.51922 6.18863 6.42014 6.46904 8.0432C6.51922 8.33376 6.51826 8.63291 6.5443 8.9276C6.59067 9.45412 6.7107 9.96031 6.95586 10.4325C7.26834 11.034 7.7631 11.3398 8.44046 11.3401C11.4414 11.3417 14.4424 11.3414 17.443 11.3417C18.3465 11.3417 18.8752 10.979 19.1985 10.1347C19.3896 9.63577 19.4808 9.11973 19.4929 8.58464C19.5122 7.72087 19.8123 6.9746 20.4598 6.38267C21.5573 5.37918 23.2893 5.44269 24.3395 6.50112C25.6964 7.86917 25.3931 10.4122 23.3201 11.2321C23.1077 11.3163 22.885 11.3658 22.658 11.389C22.3887 11.4166 22.3811 11.4211 22.3811 11.698C22.3811 12.4656 22.382 13.2328 22.3808 14.0003C22.3798 14.563 22.2995 15.108 22.0089 15.6037C21.6983 16.1337 21.2829 16.5519 20.7123 16.7977C20.5713 16.8584 20.5084 16.9447 20.5141 17.1004C20.523 17.3328 20.5148 17.5659 20.5164 17.799C20.5173 17.9349 20.4643 18 20.3176 17.9994C19.4919 17.9956 18.6662 17.9956 17.8406 17.9994C17.6983 18 17.6459 17.9444 17.6361 17.8044C17.6243 17.6348 17.6234 17.4675 17.638 17.2979C17.6551 17.0997 17.63 17.0769 17.4322 17.0765C16.5535 17.0759 15.6751 17.0765 14.7964 17.0765C14.2036 17.0765 13.6116 17.0769 13.0187 17.0769Z" fill="url(#paint0_linear_808_8683)"/>
<path d="M12.9971 0.0028658C14.6059 0.0028658 16.215 -0.00475567 17.8238 0.00540629C19.0102 0.0130278 20.0708 0.384574 20.9578 1.18832C21.6358 1.8028 22.0172 2.59035 22.2299 3.46809C22.3176 3.82916 22.3652 4.19436 22.3668 4.56749C22.3674 4.73135 22.309 4.79836 22.1496 4.80217C21.7901 4.81106 21.4303 4.82059 21.0765 4.89553C19.7402 5.17911 18.9835 5.96698 18.7421 7.32805C18.6691 7.74056 18.6412 8.15656 18.6405 8.57543C18.6402 8.80344 18.6138 9.02891 18.5545 9.25025C18.3798 9.89839 17.8393 10.3608 17.1734 10.4392C16.7828 10.4852 16.3909 10.4659 16 10.4665C13.772 10.47 11.544 10.4684 9.31566 10.4697C9.10289 10.4697 8.89298 10.4478 8.68625 10.4008C7.96602 10.2372 7.55415 9.77994 7.4176 9.06257C7.36901 8.80693 7.35472 8.54875 7.35758 8.28867C7.36298 7.7558 7.28835 7.23341 7.13211 6.72468C6.81645 5.69674 6.10321 5.11814 5.06479 4.913C4.68466 4.83805 4.30105 4.80439 3.91363 4.80471C3.6599 4.80471 3.62655 4.77168 3.63957 4.51795C3.70404 3.27248 4.06574 2.14545 4.98952 1.25818C5.74087 0.536686 6.6383 0.126397 7.67958 0.0311287C7.98095 0.00350092 8.282 0.00413604 8.58336 0.00381848C10.0546 0.00191311 11.5259 0.0028658 12.9971 0.0028658Z" fill="url(#paint1_linear_808_8683)"/>
</g>
<defs>
<linearGradient id="paint0_linear_808_8683" x1="13.0002" y1="0.00012207" x2="13.0002" y2="17.9997" gradientUnits="userSpaceOnUse">
<stop stop-color="#F6E0B0"/>
<stop offset="1" stop-color="#DFB772"/>
</linearGradient>
<linearGradient id="paint1_linear_808_8683" x1="13.0002" y1="0.00012207" x2="13.0002" y2="17.9997" gradientUnits="userSpaceOnUse">
<stop stop-color="#F6E0B0"/>
<stop offset="1" stop-color="#DFB772"/>
</linearGradient>
<clipPath id="clip0_808_8683">
<rect width="24.3274" height="18" fill="white" transform="translate(0.836426)"/>
</clipPath>
</defs>
</svg>
