<svg width="26" height="18" viewBox="0 0 26 18" fill="none" xmlns="http://www.w3.org/2000/svg">
<g clip-path="url(#clip0_569_7664)">
<path d="M13.0187 17.0769C11.5684 17.0769 10.1185 17.0769 8.66815 17.0769C8.39314 17.0769 8.38298 17.088 8.38425 17.3643C8.38489 17.5126 8.38298 17.6606 8.3833 17.8089C8.3833 17.9375 8.33058 18.0004 8.19181 17.9997C7.36075 17.9963 6.53001 17.9966 5.69896 17.9997C5.5624 18.0004 5.50747 17.9439 5.50969 17.8102C5.51382 17.572 5.50461 17.3335 5.5135 17.0957C5.5189 16.9531 5.46332 16.873 5.33503 16.8143C4.36583 16.3697 3.83074 15.5984 3.65672 14.5609C3.64021 14.4624 3.63925 14.3608 3.63894 14.2605C3.63767 13.3872 3.63862 12.5139 3.63767 11.6406C3.63767 11.4399 3.61417 11.4158 3.41537 11.3923C2.0181 11.2271 1.01842 10.2595 0.856466 8.85717C0.665929 7.20712 1.85932 5.86828 3.36234 5.68282C4.68975 5.51928 6.18863 6.4202 6.46904 8.04326C6.51922 8.33383 6.51826 8.63297 6.5443 8.92766C6.59067 9.45418 6.7107 9.96037 6.95586 10.4326C7.26834 11.034 7.7631 11.3399 8.44046 11.3402C11.4414 11.3418 14.4424 11.3414 17.443 11.3418C18.3465 11.3418 18.8752 10.9791 19.1985 10.1347C19.3896 9.63583 19.4808 9.11979 19.4929 8.5847C19.5122 7.72093 19.8123 6.97466 20.4598 6.38273C21.5573 5.37924 23.2893 5.44275 24.3395 6.50118C25.6964 7.86923 25.3931 10.4123 23.3201 11.2322C23.1077 11.3164 22.885 11.3659 22.658 11.3891C22.3887 11.4167 22.3811 11.4212 22.3811 11.6981C22.3811 12.4656 22.382 13.2328 22.3808 14.0004C22.3798 14.5631 22.2995 15.108 22.0089 15.6038C21.6983 16.1338 21.2829 16.552 20.7123 16.7978C20.5713 16.8584 20.5084 16.9448 20.5141 17.1004C20.523 17.3329 20.5148 17.566 20.5164 17.799C20.5173 17.935 20.4643 18.0001 20.3176 17.9994C19.4919 17.9956 18.6662 17.9956 17.8406 17.9994C17.6983 18.0001 17.6459 17.9445 17.6361 17.8044C17.6243 17.6349 17.6234 17.4675 17.638 17.2979C17.6551 17.0998 17.63 17.0769 17.4322 17.0766C16.5535 17.076 15.6751 17.0766 14.7964 17.0766C14.2036 17.0766 13.6116 17.0769 13.0187 17.0769Z" fill="#C0C0C0"/>
<path d="M12.9971 0.00292683C14.6059 0.00292683 16.215 -0.00469463 17.8238 0.00546732C19.0102 0.0130888 20.0708 0.384635 20.9578 1.18838C21.6358 1.80286 22.0172 2.59041 22.2299 3.46815C22.3176 3.82922 22.3652 4.19442 22.3668 4.56755C22.3674 4.73141 22.309 4.79842 22.1496 4.80223C21.7901 4.81112 21.4303 4.82065 21.0765 4.89559C19.7402 5.17917 18.9835 5.96704 18.7421 7.32811C18.6691 7.74062 18.6412 8.15663 18.6405 8.57549C18.6402 8.8035 18.6138 9.02897 18.5545 9.25031C18.3798 9.89845 17.8393 10.3608 17.1734 10.4393C16.7828 10.4853 16.3909 10.4659 16 10.4666C13.772 10.4701 11.544 10.4685 9.31566 10.4697C9.10289 10.4697 8.89298 10.4478 8.68625 10.4008C7.96602 10.2373 7.55415 9.78 7.4176 9.06263C7.36901 8.80699 7.35472 8.54881 7.35758 8.28873C7.36298 7.75586 7.28835 7.23348 7.13211 6.72474C6.81645 5.6968 6.10321 5.1182 5.06479 4.91306C4.68466 4.83811 4.30105 4.80445 3.91363 4.80477C3.6599 4.80477 3.62655 4.77174 3.63957 4.51801C3.70404 3.27254 4.06574 2.14551 4.98952 1.25825C5.74087 0.536747 6.6383 0.126458 7.67958 0.0311898C7.98095 0.00356196 8.282 0.00419708 8.58336 0.00387952C10.0546 0.00197415 11.5259 0.00292683 12.9971 0.00292683Z" fill="#C0C0C0"/>
</g>
<defs>
<clipPath id="clip0_569_7664">
<rect width="24.3274" height="18" fill="white" transform="translate(0.836426)"/>
</clipPath>
</defs>
</svg>
