<svg width="24" height="20" viewBox="0 0 24 20" fill="none" xmlns="http://www.w3.org/2000/svg">
<g clip-path="url(#clip0_569_7662)">
<path d="M11.9982 7.49449C13.7803 7.49449 15.5624 7.49449 17.3445 7.49449C17.3836 7.49449 17.4229 7.49714 17.462 7.4942C17.5722 7.48597 17.5872 7.52887 17.5443 7.62378C17.3994 7.94494 17.2593 8.26815 17.1173 8.59078C16.0531 11.0096 14.9888 13.4284 13.9246 15.8473C13.3392 17.1777 12.7539 18.5079 12.1677 19.8378C12.1348 19.9127 12.1078 19.9997 12.0014 20C11.8948 20 11.8686 19.9139 11.8354 19.8384C10.0466 15.7765 8.258 11.7142 6.46944 7.65199C6.40186 7.49831 6.40333 7.49478 6.57875 7.49478C8.38523 7.49478 10.1917 7.49449 11.9982 7.49449Z" fill="#C0C0C0"/>
<path d="M11.9841 6.27656C10.2314 6.27656 8.47867 6.27656 6.72625 6.27656C6.68218 6.27656 6.6381 6.2745 6.59403 6.27656C6.48414 6.28214 6.45211 6.24394 6.5003 6.13728C6.62753 5.85637 6.74859 5.57283 6.87317 5.29104C7.61098 3.62149 8.34938 1.95222 9.08749 0.282961C9.11129 0.229189 9.14009 0.177475 9.15889 0.12194C9.19033 0.0279141 9.25204 0.000881497 9.34871 0.000881497C11.1158 0.00323216 12.8832 0.00381982 14.6506 0C14.7687 0 14.8111 0.0567097 14.8519 0.149561C15.3964 1.38542 15.9432 2.6204 16.4894 3.85567C16.8179 4.59848 17.1473 5.34129 17.4749 6.08439C17.5566 6.2698 17.5513 6.27626 17.3448 6.27626C15.558 6.27626 13.7709 6.27656 11.9841 6.27656Z" fill="#C0C0C0"/>
<path d="M2.5412 6.27626C1.92914 6.27626 1.31709 6.27656 0.705038 6.27626C0.496417 6.27626 0.487896 6.25863 0.594851 6.07352C1.73933 4.09455 2.88439 2.11559 4.02623 0.135163C4.08235 0.0379044 4.1464 0 4.25894 0.000293832C5.22359 0.00411365 6.18825 0.00235066 7.1529 0.00293832C7.31157 0.00293832 7.3198 0.0158669 7.25633 0.159257C6.37542 2.15115 5.49333 4.14274 4.61477 6.13581C4.56776 6.24218 4.50606 6.27949 4.39205 6.27861C3.775 6.2742 3.15795 6.27626 2.5412 6.27626Z" fill="#C0C0C0"/>
<path d="M21.4523 6.27626C20.8449 6.27626 20.2378 6.27303 19.6308 6.27891C19.5006 6.28008 19.4301 6.24247 19.3755 6.11789C18.5019 4.13334 17.6233 2.15115 16.7459 0.168072C16.6781 0.0149855 16.6854 0.00264449 16.8503 0.00264449C17.8149 0.00205683 18.7796 0.00381982 19.7442 0.000587665C19.8494 0.000293832 19.9132 0.0332031 19.9669 0.126348C21.1143 2.11501 22.2644 4.1022 23.4139 6.08997C23.51 6.25599 23.4985 6.27567 23.3034 6.27597C22.6864 6.27685 22.0693 6.27626 21.4523 6.27626Z" fill="#C0C0C0"/>
<path d="M2.5412 7.49449C3.15325 7.49449 3.7656 7.49772 4.37765 7.49155C4.49959 7.49038 4.561 7.53504 4.6133 7.64023C6.20881 10.8386 7.80668 14.0355 9.40395 17.2327C9.41041 17.2459 9.41658 17.2591 9.42334 17.2724C9.46242 17.3479 9.48152 17.4246 9.39748 17.4804C9.31639 17.5342 9.24792 17.4963 9.19121 17.4319C8.94498 17.1528 8.69934 16.8733 8.45399 16.5936C7.08532 15.0328 5.71664 13.4716 4.34827 11.9105C3.09918 10.4857 1.8501 9.06062 0.601315 7.63553C0.573401 7.6035 0.522568 7.57089 0.542842 7.52622C0.566937 7.47363 0.629229 7.49596 0.675067 7.49567C1.29711 7.4942 1.91915 7.49449 2.5412 7.49449Z" fill="#C0C0C0"/>
<path d="M23.4677 7.5418C23.4415 7.57647 23.4201 7.60879 23.3945 7.63788C22.4231 8.74622 21.4517 9.85455 20.48 10.9623C19.1821 12.442 17.8843 13.9215 16.5864 15.4012C16.0052 16.0638 15.4246 16.7267 14.8431 17.389C14.8111 17.4254 14.7758 17.4619 14.7352 17.4869C14.6856 17.5171 14.6301 17.5101 14.5857 17.4695C14.5469 17.4343 14.5293 17.3884 14.5495 17.3367C14.5672 17.2912 14.5883 17.2468 14.6101 17.203C16.1965 14.0279 17.7838 10.853 19.3663 7.67608C19.4354 7.53768 19.515 7.49008 19.6687 7.49097C20.8831 7.49743 22.0975 7.4942 23.3119 7.49596C23.3628 7.49596 23.428 7.4704 23.4677 7.5418Z" fill="#C0C0C0"/>
</g>
<defs>
<clipPath id="clip0_569_7662">
<rect width="22.9454" height="20" fill="white" transform="translate(0.527344)"/>
</clipPath>
</defs>
</svg>
