<svg width="22" height="22" viewBox="0 0 22 22" fill="none" xmlns="http://www.w3.org/2000/svg">
<path d="M21.9803 9.36264C21.9299 11.0761 21.5454 12.714 20.8527 14.2792C20.1405 15.8885 19.1514 17.3081 17.8781 18.522C15.9848 20.3268 13.76 21.4962 11.1849 21.9831C10.9464 22.0282 10.7163 21.9744 10.4868 21.9254C8.31299 21.4604 6.38429 20.4932 4.69679 19.0516C2.71161 17.3559 1.3389 15.2506 0.568144 12.754C0.286694 11.8421 0.110374 10.9094 0.0307749 9.95724C0.00314044 9.6264 0.0178588 9.29617 0.000737443 8.96623C-0.00707228 8.81255 0.0463943 8.76803 0.197182 8.77104C1.60894 8.79901 2.98345 9.03631 4.31501 9.5073C6.30469 10.2111 8.02463 11.3353 9.48415 12.8593C10.0083 13.4067 10.4838 13.9943 10.9016 14.6274C10.9782 14.7435 11.0119 14.7384 11.0875 14.6265C12.4585 12.6015 14.2442 11.0559 16.4534 10.0087C17.7435 9.39692 19.1003 9.01345 20.5211 8.85856C20.944 8.81255 21.3673 8.77796 21.7929 8.77435C21.9899 8.77254 22.0037 8.78638 21.9998 8.98789C21.9974 9.11301 21.9869 9.23752 21.9803 9.36264Z" fill="#C0C0C0"/>
<path d="M14.8509 8.26366C14.8828 8.35479 14.7924 8.42637 14.6581 8.50096C13.3587 9.22098 12.1815 10.1052 11.1362 11.1633C10.9929 11.3086 10.9935 11.3067 10.8683 11.1786C9.88245 10.1693 8.77376 9.31872 7.54914 8.61946C7.48396 8.58216 7.42238 8.53254 7.35209 8.51149C7.15415 8.45163 7.13793 8.31479 7.15745 8.13794C7.31335 6.72407 7.66508 5.36283 8.2412 4.06144C8.89271 2.58982 9.78092 1.2779 10.9001 0.122383C11.0572 -0.040027 11.0605 -0.0406286 11.2128 0.118173C12.9409 1.91882 14.0658 4.04099 14.5905 6.48165C14.6503 6.76016 14.6977 7.04197 14.7392 7.32408C14.7812 7.61101 14.8086 7.90034 14.8509 8.26366Z" fill="#C0C0C0"/>
</svg>
