<svg width="20" height="22" viewBox="0 0 20 22" fill="none" xmlns="http://www.w3.org/2000/svg">
<path d="M11.8192 11.1694C11.81 11.2367 11.7605 11.2696 11.72 11.3064C11.2385 11.743 10.7571 12.1796 10.2741 12.6147C9.19753 13.5837 8.12003 14.5512 7.04346 15.52C6.41577 16.085 5.78838 16.65 5.16345 17.2178C5.06298 17.309 4.98249 17.3072 4.88755 17.2113C3.94278 16.2595 2.9971 15.3089 2.04956 14.3598C1.96384 14.2741 1.95708 14.2053 2.04065 14.1125C3.01983 13.0245 3.99686 11.9348 4.97358 10.8447C5.91957 9.78868 6.86311 8.73085 7.81003 7.67609C8.10866 7.34335 8.05398 7.36823 8.34678 7.66103C9.46882 8.78308 10.5893 9.90666 11.7098 11.0299C11.7525 11.0726 11.8039 11.1095 11.8192 11.1694Z" fill="#C0C0C0"/>
<path d="M14.1355 0.00212775C16.4386 -0.0728391 18.8188 1.84097 19.185 4.50874C19.3903 6.0047 19.02 7.34857 18.1017 8.54343C17.9545 8.73484 17.9407 8.73331 17.7754 8.56801C15.4136 6.20318 13.0522 3.83834 10.6907 1.47351C10.5147 1.29715 10.515 1.28087 10.7178 1.12387C11.6717 0.384028 12.7465 -0.006475 14.1355 0.00212775Z" fill="#C0C0C0"/>
<path d="M13.9121 10.5365C13.6123 10.5491 13.2777 10.5128 12.9446 10.4483C12.7969 10.4198 12.6819 10.3525 12.5766 10.2465C11.4444 9.10568 10.3183 7.95844 9.16834 6.83578C8.90042 6.57432 8.78859 6.2889 8.74773 5.93833C8.58765 4.56589 8.90657 3.31849 9.69864 2.18907C9.85871 1.96079 9.86639 1.95864 10.0578 2.15036C12.4054 4.50075 14.7531 6.85145 17.1004 9.20216C17.2798 9.38189 17.277 9.38404 17.0792 9.5309C16.2797 10.1248 15.1715 10.5663 13.9121 10.5365Z" fill="#C0C0C0"/>
<path d="M0.759766 18.4569C0.759766 17.7081 1.03167 17.0703 1.54538 16.5317C1.80869 16.2558 2.18629 16.2324 2.45297 16.4718C2.71382 16.7062 2.73717 17.1035 2.48062 17.3788C1.95678 17.9407 1.92022 18.6772 2.21916 19.2247C2.70276 20.1101 3.94033 20.3384 4.64114 19.5725C5.00737 19.1721 5.36224 18.762 5.78469 18.4169C6.44403 17.878 7.18356 17.5176 8.02909 17.3812C9.20951 17.1907 10.5239 17.7779 11.0708 18.7951C11.5796 19.7418 11.5805 20.7019 11.0284 21.6482C10.7897 22.0577 10.3779 22.0556 10.1196 21.913C9.87684 21.7791 9.69833 21.383 9.92661 21.01C10.1951 20.5719 10.2378 20.1052 10.0575 19.6253C9.84949 19.071 9.24792 18.6704 8.63282 18.6437C7.8386 18.609 7.17865 18.915 6.58813 19.4149C6.22743 19.7202 5.89776 20.057 5.59482 20.4174C4.63961 21.5536 2.83211 21.6021 1.72174 20.5999C1.08421 20.0241 0.759766 19.3153 0.759766 18.4569Z" fill="#C0C0C0"/>
</svg>
