<svg width="24" height="26" viewBox="0 0 24 26" fill="none" xmlns="http://www.w3.org/2000/svg">
<g clip-path="url(#clip0_808_8645)">
<path d="M19.1539 7.50302C19.5301 7.49937 19.8695 7.38259 20.1776 7.16879C20.236 7.12834 20.292 7.08454 20.35 7.0444C20.6624 6.82817 20.923 6.84124 21.2007 7.10249C21.4443 7.3318 21.6791 7.57023 21.9154 7.80684C22.5133 8.40597 23.1103 9.006 23.7067 9.60665C23.7602 9.66048 23.8116 9.71705 23.8581 9.77696C24.047 10.0203 24.0485 10.2544 23.8599 10.4996C23.8016 10.5756 23.7349 10.6458 23.6668 10.714C22.4537 11.9305 21.2396 13.1464 20.0255 14.3622C19.997 14.3908 19.9681 14.4197 19.9376 14.4462C19.7448 14.6147 19.5976 14.6083 19.4273 14.4164C19.2722 14.2415 19.1123 14.0724 18.9252 13.9316C18.7516 13.8008 18.5706 13.8063 18.4277 13.9401C18.2619 14.0952 18.2425 14.2607 18.3854 14.4377C18.5125 14.5952 18.6567 14.7388 18.7862 14.8948C19.0183 15.1743 19.0171 15.3175 18.7792 15.5851C18.6479 15.7326 18.5089 15.8734 18.3693 16.013C15.5385 18.8447 12.7074 21.6758 9.87538 24.5066C9.77167 24.6103 9.66462 24.7116 9.55331 24.8074C9.24827 25.069 9.02261 25.068 8.72062 24.7989C8.56582 24.6608 8.41771 24.5145 8.27143 24.367C7.58867 23.6806 6.90712 22.9936 6.2268 22.3048C6.13799 22.2151 6.05466 22.1186 5.97772 22.0186C5.86489 21.8714 5.86154 21.7129 5.94396 21.5475C6.01908 21.3967 6.124 21.2662 6.21615 21.1266C6.68846 20.4104 6.57593 19.4962 5.94335 18.9132C5.39349 18.4065 4.48264 18.3578 3.86071 18.8025C3.73297 18.8937 3.6095 18.9907 3.46869 19.0628C3.30933 19.1443 3.15696 19.1343 3.00825 19.0373C2.9018 18.9676 2.80661 18.884 2.71629 18.7949C1.92617 18.0154 1.13605 17.2356 0.346242 16.4558C0.248618 16.3594 0.158293 16.2569 0.0840865 16.1411C-0.0290479 15.9647 -0.0250943 15.7877 0.0822617 15.6113C0.16985 15.4671 0.287546 15.3479 0.40585 15.2296C1.21847 14.4152 2.03353 13.6032 2.84341 12.786C4.66329 10.9503 6.48591 9.11762 8.32161 7.29804C8.70328 6.92001 9.08496 6.54199 9.46755 6.16487C9.71085 5.92522 9.86261 5.92644 10.0968 6.16852C10.2412 6.31784 10.3845 6.46869 10.546 6.60007C10.7245 6.74544 10.8766 6.74453 11.0356 6.60068C11.2023 6.45044 11.2245 6.27253 11.0897 6.08671C10.9699 5.92187 10.8157 5.78867 10.6643 5.65394C10.3903 5.41003 10.3836 5.25402 10.6403 4.99612C11.8698 3.76016 13.1 2.5245 14.3302 1.28914C14.3694 1.24961 14.4096 1.21098 14.4518 1.17449C14.7316 0.933621 15.0218 0.936358 15.294 1.18969C15.4533 1.33811 15.6048 1.49504 15.7587 1.64953C16.4317 2.32408 17.1044 2.99893 17.7771 3.67378C17.8094 3.70602 17.8416 3.73826 17.8723 3.77202C18.1649 4.09226 18.185 4.29237 17.9386 4.65155C17.7507 4.92556 17.5874 5.20597 17.5244 5.53898C17.3307 6.56449 18.1086 7.50424 19.1539 7.50241V7.50302ZM17.9338 13.105C17.935 13.0052 17.9031 12.9374 17.851 12.879C17.5238 12.5126 17.2057 12.1376 16.8368 11.8106C16.7495 11.7334 16.6613 11.6574 16.5479 11.6187C16.3992 11.5679 16.2191 11.6279 16.1185 11.7638C16.0193 11.8979 16.0211 12.0184 16.1376 12.1653C16.495 12.6154 16.9052 13.0135 17.3502 13.3766C17.4533 13.4608 17.5643 13.4934 17.6871 13.4277C17.824 13.3547 17.9137 13.2443 17.9338 13.105ZM13.4057 8.55316C13.4117 8.48656 13.3661 8.41053 13.3086 8.33632C12.9556 7.88135 12.5349 7.49572 12.0809 7.14506C11.9313 7.0295 11.7996 7.04896 11.6557 7.20102C11.5085 7.35673 11.4882 7.52644 11.6186 7.65873C12.0128 8.05896 12.4118 8.45432 12.8099 8.8506C12.9239 8.96403 13.0559 8.98137 13.1998 8.91233C13.3369 8.84664 13.4011 8.73442 13.4063 8.55286L13.4057 8.55316ZM13.8144 9.75263C13.8101 9.8095 13.8409 9.87823 13.8953 9.9348C14.2843 10.3393 14.6751 10.7423 15.089 11.1212C15.2362 11.2559 15.4013 11.2398 15.5491 11.0996C15.6963 10.9597 15.7176 10.7997 15.6005 10.6395C15.5263 10.5376 15.4436 10.4412 15.3597 10.3469C15.0738 10.0251 14.7639 9.72799 14.4312 9.45459C14.298 9.3451 14.1505 9.31743 13.9947 9.40076C13.8661 9.46949 13.8156 9.58658 13.8141 9.75233L13.8144 9.75263Z" fill="url(#paint0_linear_808_8645)"/>
</g>
<defs>
<linearGradient id="paint0_linear_808_8645" x1="12.0005" y1="0.996704" x2="12.0005" y2="25.0022" gradientUnits="userSpaceOnUse">
<stop stop-color="#F6E0B0"/>
<stop offset="1" stop-color="#DFB772"/>
</linearGradient>
<clipPath id="clip0_808_8645">
<rect width="24" height="24.0049" fill="white" transform="translate(0 0.997559)"/>
</clipPath>
</defs>
</svg>
