<svg width="20" height="24" viewBox="0 0 20 24" fill="none" xmlns="http://www.w3.org/2000/svg">
<g clip-path="url(#clip0_808_8654)">
<path d="M0.398346 4.50389C0.398346 4.1024 0.397453 3.78491 0.398346 3.46712C0.398942 3.25685 0.438256 3.21098 0.647338 3.20294C1.73087 3.16154 2.79861 2.99981 3.85802 2.77822C5.45085 2.44494 6.98025 1.93683 8.39765 1.12284C8.88074 0.84526 9.33792 0.530446 9.75281 0.156363C9.98304 -0.0512294 10.0179 -0.0512294 10.2505 0.150108C11.1896 0.962906 12.2692 1.53207 13.4192 1.97942C14.9125 2.5602 16.4655 2.89795 18.0502 3.0975C18.4681 3.15022 18.8884 3.18775 19.3101 3.20026C19.5764 3.208 19.5981 3.2351 19.599 3.49422C19.6017 4.3231 19.6061 5.15198 19.5585 5.97967C19.5007 6.97981 19.4105 7.97667 19.2785 8.97025C19.0724 10.5223 18.7627 12.0514 18.3165 13.5525C17.6958 15.64 16.8327 17.6165 15.5773 19.4053C14.4857 20.9603 13.1753 22.2958 11.547 23.298C11.1577 23.5375 10.7497 23.7418 10.3315 23.9267C10.0941 24.0316 9.86629 24.0208 9.62831 23.9154C8.50041 23.4153 7.50265 22.7229 6.59663 21.8907C4.76791 20.2109 3.46785 18.1713 2.51627 15.8959C1.6439 13.8098 1.10452 11.6341 0.781067 9.40003C0.599982 8.14733 0.484719 6.88956 0.425747 5.62554C0.406984 5.22376 0.407281 4.82198 0.398644 4.50419L0.398346 4.50389ZM9.96368 7.19663H9.9604C9.9604 5.64848 9.9604 4.10062 9.95951 2.55246C9.95951 2.50511 9.98214 2.43899 9.93568 2.41367C9.8776 2.3818 9.83918 2.44881 9.79987 2.48009C9.32809 2.85596 8.8179 3.17196 8.27911 3.43942C6.45695 4.34395 4.51118 4.77701 2.49542 4.93367C2.21724 4.95541 2.20294 4.95928 2.20532 5.23806C2.21485 6.29478 2.26698 7.34883 2.37569 8.40049C2.49244 9.53138 2.65923 10.6536 2.91775 11.7613C2.97672 12.0144 2.97761 12.0138 3.23107 12.0118C4.81884 11.9987 6.40661 12.0127 7.99468 12.0001C8.59303 11.9954 9.19437 11.9567 9.79332 12.0112C9.92317 12.0231 9.96666 11.9722 9.96636 11.8414C9.96308 10.2932 9.96427 8.74479 9.96427 7.19633L9.96368 7.19663ZM10.0346 16.1892H10.0378C10.0378 17.4544 10.0366 18.7196 10.0387 19.9846C10.039 20.252 10.0843 20.5201 10.0542 20.7869C10.0232 21.0598 10.0417 21.332 10.0384 21.6045C10.0369 21.7308 10.0903 21.7457 10.1969 21.7019C10.4173 21.611 10.6341 21.5143 10.842 21.3966C12.3875 20.5228 13.586 19.2837 14.5733 17.8291C15.7268 16.1297 16.4521 14.2426 16.9655 12.2661C17.0063 12.1089 16.9849 12.0767 16.8187 12.0841C16.3377 12.1053 15.8573 12.0764 15.3766 12.0829C14.4393 12.0963 13.5017 12.0889 12.5644 12.0937C11.7814 12.0975 10.9972 12.1053 10.2139 12.08C10.0789 12.0755 10.0322 12.1226 10.0325 12.2599C10.0364 13.5697 10.0349 14.8793 10.0349 16.1892H10.0346Z" fill="url(#paint0_linear_808_8654)"/>
</g>
<defs>
<linearGradient id="paint0_linear_808_8654" x1="9.99923" y1="-0.00012207" x2="9.99923" y2="24.0001" gradientUnits="userSpaceOnUse">
<stop stop-color="#F6E0B0"/>
<stop offset="1" stop-color="#DFB772"/>
</linearGradient>
<clipPath id="clip0_808_8654">
<rect width="19.2027" height="24" fill="white" transform="translate(0.398438)"/>
</clipPath>
</defs>
</svg>
