<svg width="22" height="18" viewBox="0 0 22 18" fill="none" xmlns="http://www.w3.org/2000/svg">
<g clip-path="url(#clip0_808_8640)">
<path d="M11.0015 17.9987C8.20394 17.9987 5.4064 18.0029 2.60885 17.996C1.76919 17.9939 1.16678 17.5908 0.804807 16.8359C0.699154 16.6156 0.649902 16.3802 0.649902 16.1323C0.651756 12.2404 0.651226 8.34825 0.651226 4.45635C0.651226 3.5372 1.37173 2.71538 2.28421 2.59027C2.41581 2.57229 2.54715 2.56409 2.67955 2.56435C3.77394 2.56515 4.86807 2.5625 5.96246 2.56753C6.09168 2.56806 6.15788 2.53526 6.20263 2.40697C6.33794 2.02053 6.48887 1.63912 6.63398 1.25612C6.91837 0.506514 7.62908 0.00448638 8.43008 0.00289936C10.1422 -0.000803692 11.8541 -0.000803692 13.5663 0.00289936C14.3525 0.00448638 15.0547 0.486412 15.347 1.21909C15.507 1.62007 15.659 2.02424 15.8064 2.42998C15.8448 2.53605 15.901 2.567 16.0098 2.56673C17.1349 2.56329 18.2603 2.56303 19.3854 2.56515C20.368 2.567 21.1579 3.2264 21.3356 4.19078C21.3483 4.25956 21.3491 4.33097 21.3491 4.40133C21.3496 8.32418 21.3502 12.247 21.3491 16.1699C21.3491 17.0256 20.578 17.8783 19.7235 17.9757C19.5784 17.9921 19.4339 17.9992 19.288 17.9992C16.5256 17.9987 13.7636 17.9989 11.0012 17.9987H11.0015ZM6.17086 10.2767C6.16741 12.9234 8.31251 15.0608 10.9634 15.082C13.6412 15.1034 15.8358 12.9273 15.8324 10.2969C15.829 7.63938 13.6868 5.49161 11.0171 5.48818C8.3284 5.485 6.1743 7.61346 6.17086 10.2767V10.2767Z" fill="url(#paint0_linear_808_8640)"/>
<path d="M11.0004 13.8232C9.08832 13.8483 7.42727 12.2777 7.43018 10.2807C7.43309 8.31965 9.02583 6.74188 11.0065 6.74268C12.9795 6.74347 14.5725 8.33102 14.5706 10.2942C14.5688 12.2764 12.9188 13.8467 11.0004 13.8232V13.8232Z" fill="url(#paint1_linear_808_8640)"/>
</g>
<defs>
<linearGradient id="paint0_linear_808_8640" x1="10.9998" y1="0.00012207" x2="10.9998" y2="18" gradientUnits="userSpaceOnUse">
<stop stop-color="#F6E0B0"/>
<stop offset="1" stop-color="#DFB772"/>
</linearGradient>
<linearGradient id="paint1_linear_808_8640" x1="11.0004" y1="6.74268" x2="11.0004" y2="13.8235" gradientUnits="userSpaceOnUse">
<stop stop-color="#F6E0B0"/>
<stop offset="1" stop-color="#DFB772"/>
</linearGradient>
<clipPath id="clip0_808_8640">
<rect width="20.7" height="18" fill="white" transform="translate(0.649902)"/>
</clipPath>
</defs>
</svg>
