<svg width="15" height="14" viewBox="0 0 15 14" fill="none" xmlns="http://www.w3.org/2000/svg">
<path d="M12.1779 2.02995C9.46572 -0.679459 5.07212 -0.676194 2.36372 2.03702C0.148159 4.25668 -0.304419 7.68657 1.25948 10.4052L0.274902 14L3.95319 13.0341C4.9704 13.5886 6.11055 13.8792 7.26865 13.8781H7.27191C11.0938 13.8781 14.2749 10.7644 14.2749 6.9378C14.2749 5.08382 13.4872 3.34248 12.1779 2.02995ZM7.27191 12.7087C6.23838 12.7098 5.22389 12.4323 4.33451 11.9055L4.12508 11.7803L1.94378 12.3523L2.52528 10.2235L2.38766 10.0047C0.692667 7.30729 1.50535 3.74625 4.20178 2.05117C6.48099 0.61838 9.44777 0.953587 11.35 2.85872C12.4374 3.94977 13.1065 5.39726 13.1032 6.93834C13.1032 10.1206 10.4497 12.7092 7.27191 12.7092V12.7087ZM10.4345 8.38855C10.2626 8.30094 9.40969 7.88193 9.25031 7.82588C9.09093 7.76656 8.97561 7.73827 8.85974 7.91349C8.74388 8.08871 8.41315 8.47616 8.3098 8.59479C8.20971 8.71069 8.1069 8.72593 7.935 8.63832C6.91616 8.12898 6.24763 7.72847 5.57583 6.57484C5.39741 6.26847 5.75425 6.29024 6.08498 5.62744C6.13067 5.53004 6.12523 5.4163 6.06921 5.32434C6.02569 5.23673 5.67864 4.38347 5.53503 4.0363C5.39469 3.69891 5.25054 3.74571 5.14447 3.73918C5.04438 3.73319 4.92906 3.73319 4.81319 3.73319C4.63586 3.73809 4.46832 3.81645 4.35082 3.94868C4.19144 4.12391 3.7443 4.54292 3.7443 5.39617C3.7443 6.24942 4.36606 7.07493 4.45037 7.19083C4.53795 7.30674 5.67211 9.05733 7.4128 9.81046C8.51269 10.2855 8.94406 10.3263 9.494 10.2452C9.82854 10.1952 10.5188 9.82624 10.663 9.41974C10.8071 9.01325 10.8066 8.66607 10.7631 8.59424C10.7223 8.51588 10.607 8.47235 10.4351 8.388L10.4345 8.38855Z" fill="#C0C0C0"/>
</svg>
