<svg width="18" height="18" viewBox="0 0 18 18" fill="none" xmlns="http://www.w3.org/2000/svg">
<path fill-rule="evenodd" clip-rule="evenodd" d="M9 0C4.02944 0 0 4.02944 0 9C0 13.9706 4.02944 18 9 18C13.9706 18 18 13.9706 18 9C18 4.02944 13.9706 0 9 0ZM10.7623 16.6771C13.6965 16.0063 16.0063 13.6965 16.6771 10.7623C15.6364 11.3984 14.0494 11.8953 12.161 12.161C11.8953 14.0494 11.3984 15.6364 10.7623 16.6771ZM7.23766 16.6771C4.30348 16.0063 1.99374 13.6965 1.32295 10.7623C2.36356 11.3984 3.9506 11.8953 5.83904 12.161C6.10472 14.0494 6.60156 15.6364 7.23766 16.6771ZM9 16.875C8.97127 16.875 8.80923 16.8635 8.52809 16.5464C8.24811 16.2306 7.94459 15.7095 7.66689 14.9689C7.38747 14.2238 7.15609 13.3156 6.99567 12.291C7.64022 12.346 8.31107 12.375 9 12.375C9.68893 12.375 10.3598 12.346 11.0043 12.291C10.8439 13.3156 10.6125 14.2238 10.3331 14.9689C10.0554 15.7095 9.75189 16.2306 9.47191 16.5464C9.19077 16.8635 9.02873 16.875 9 16.875ZM12.291 11.0043C13.3156 10.8439 14.2238 10.6125 14.9689 10.3331C15.7095 10.0554 16.2306 9.75189 16.5464 9.47191C16.8635 9.19077 16.875 9.02873 16.875 9C16.875 8.97127 16.8635 8.80923 16.5464 8.52809C16.2306 8.24811 15.7095 7.94459 14.9689 7.66689C14.2238 7.38747 13.3156 7.15609 12.291 6.99567C12.346 7.64021 12.375 8.31107 12.375 9C12.375 9.68893 12.346 10.3598 12.291 11.0043ZM11.1483 6.85173C11.2143 7.53339 11.25 8.25318 11.25 9C11.25 9.74682 11.2143 10.4666 11.1483 11.1483C10.4666 11.2143 9.74682 11.25 9 11.25C8.25318 11.25 7.53339 11.2143 6.85173 11.1483C6.78572 10.4666 6.75 9.74682 6.75 9C6.75 8.25318 6.78572 7.53339 6.85173 6.85173C7.53339 6.78572 8.25318 6.75 9 6.75C9.74682 6.75 10.4666 6.78572 11.1483 6.85173ZM12.161 5.83903C14.0494 6.10472 15.6364 6.60156 16.6771 7.23766C16.0063 4.30348 13.6965 1.99374 10.7623 1.32295C11.3984 2.36356 11.8953 3.9506 12.161 5.83903ZM7.23766 1.32295C6.60156 2.36356 6.10472 3.9506 5.83903 5.83903C3.9506 6.10472 2.36356 6.60156 1.32295 7.23766C1.99374 4.30348 4.30348 1.99374 7.23766 1.32295ZM6.99567 5.709C7.15609 4.68441 7.38747 3.77617 7.66689 3.03105C7.94459 2.29052 8.24811 1.76938 8.52809 1.4536C8.80923 1.1365 8.97127 1.125 9 1.125C9.02873 1.125 9.19077 1.1365 9.47191 1.4536C9.75189 1.76938 10.0554 2.29052 10.3331 3.03105C10.6125 3.77617 10.8439 4.68441 11.0043 5.709C10.3598 5.65403 9.68893 5.625 9 5.625C8.31107 5.625 7.64022 5.65403 6.99567 5.709ZM5.709 6.99567C4.68441 7.15609 3.77617 7.38747 3.03105 7.66689C2.29052 7.94459 1.76938 8.24811 1.4536 8.52809C1.1365 8.80923 1.125 8.97127 1.125 9C1.125 9.02873 1.1365 9.19077 1.4536 9.47191C1.76938 9.75189 2.29052 10.0554 3.03105 10.3331C3.77617 10.6125 4.68441 10.8439 5.709 11.0043C5.65403 10.3598 5.625 9.68893 5.625 9C5.625 8.31107 5.65403 7.64022 5.709 6.99567Z" fill="#FFD78E"/>
</svg>
