<svg width="20" height="22" viewBox="0 0 20 22" fill="none" xmlns="http://www.w3.org/2000/svg">
<path fill-rule="evenodd" clip-rule="evenodd" d="M2.17149 3.42132C1.80155 3.71287 1.75 3.91409 1.75 4C1.75 4.08591 1.80155 4.28713 2.17149 4.57868C2.53298 4.86356 3.10255 5.15292 3.87321 5.40981C5.4067 5.92097 7.5729 6.25 10 6.25C12.4271 6.25 14.5933 5.92097 16.1268 5.40981C16.8975 5.15292 17.467 4.86356 17.8285 4.57868C18.1985 4.28713 18.25 4.08591 18.25 4C18.25 3.91409 18.1985 3.71287 17.8285 3.42132C17.467 3.13644 16.8975 2.84708 16.1268 2.59019C14.5933 2.07903 12.4271 1.75 10 1.75C7.5729 1.75 5.4067 2.07903 3.87321 2.59019C3.10255 2.84708 2.53298 3.13644 2.17149 3.42132ZM3.39887 1.16717C5.12274 0.592543 7.45654 0.25 10 0.25C12.5435 0.25 14.8773 0.592543 16.6011 1.16717C17.4591 1.45317 18.2076 1.81026 18.757 2.24321C19.2979 2.66949 19.75 3.25749 19.75 4C19.75 4.74251 19.2979 5.33051 18.757 5.75679C18.2076 6.18974 17.4591 6.54683 16.6011 6.83283C14.8773 7.40746 12.5435 7.75 10 7.75C7.45654 7.75 5.12274 7.40746 3.39887 6.83283C2.54085 6.54683 1.79239 6.18974 1.24303 5.75679C0.70213 5.33051 0.25 4.74251 0.25 4C0.25 3.25749 0.70213 2.66949 1.24303 2.24321C1.79239 1.81026 2.54085 1.45317 3.39887 1.16717Z" fill="#FFD78E"/>
<path fill-rule="evenodd" clip-rule="evenodd" d="M1 10.25C1.41421 10.25 1.75 10.5858 1.75 11C1.75 11.0892 1.8026 11.291 2.16892 11.5812C2.52775 11.8656 3.09403 12.1545 3.8625 12.4111C5.39168 12.9216 7.55757 13.25 10 13.25C12.4424 13.25 14.6083 12.9216 16.1375 12.4111C16.906 12.1545 17.4722 11.8656 17.8311 11.5812C18.1974 11.291 18.25 11.0892 18.25 11C18.25 10.5858 18.5858 10.25 19 10.25C19.4142 10.25 19.75 10.5858 19.75 11C19.75 11.7408 19.3026 12.329 18.7627 12.7569C18.2153 13.1907 17.469 13.548 16.6125 13.8339C14.8917 14.4084 12.5576 14.75 10 14.75C7.44243 14.75 5.10832 14.4084 3.3875 13.8339C2.53097 13.548 1.78475 13.1907 1.23733 12.7569C0.697396 12.329 0.25 11.7408 0.25 11C0.25 10.5858 0.585786 10.25 1 10.25Z" fill="#FFD78E"/>
<path fill-rule="evenodd" clip-rule="evenodd" d="M1 3.25C1.41421 3.25 1.75 3.58579 1.75 4V18C1.75 18.0892 1.8026 18.291 2.16892 18.5812C2.52775 18.8656 3.09403 19.1545 3.8625 19.4111C5.39168 19.9216 7.55757 20.25 10 20.25C12.4424 20.25 14.6083 19.9216 16.1375 19.4111C16.906 19.1545 17.4722 18.8656 17.8311 18.5812C18.1974 18.291 18.25 18.0892 18.25 18V4C18.25 3.58579 18.5858 3.25 19 3.25C19.4142 3.25 19.75 3.58579 19.75 4V18C19.75 18.7408 19.3026 19.329 18.7627 19.7569C18.2153 20.1907 17.469 20.548 16.6125 20.8339C14.8917 21.4084 12.5576 21.75 10 21.75C7.44243 21.75 5.10832 21.4084 3.3875 20.8339C2.53097 20.548 1.78475 20.1907 1.23733 19.7569C0.697396 19.329 0.25 18.7408 0.25 18V4C0.25 3.58579 0.585786 3.25 1 3.25Z" fill="#FFD78E"/>
</svg>
