<svg width="24" height="24" viewBox="0 0 24 24" fill="none" xmlns="http://www.w3.org/2000/svg">
<path fill-rule="evenodd" clip-rule="evenodd" d="M12 2.75C6.89137 2.75 2.75 6.89137 2.75 12C2.75 17.1086 6.89137 21.25 12 21.25C17.1086 21.25 21.25 17.1086 21.25 12C21.25 6.89137 17.1086 2.75 12 2.75ZM1.25 12C1.25 6.06294 6.06294 1.25 12 1.25C17.9371 1.25 22.75 6.06294 22.75 12C22.75 17.9371 17.9371 22.75 12 22.75C6.06294 22.75 1.25 17.9371 1.25 12Z" fill="#FFD78E"/>
<path fill-rule="evenodd" clip-rule="evenodd" d="M16.7703 7.22967C16.9712 7.43054 17.0413 7.72767 16.9515 7.99717L14.8315 14.3572C14.7569 14.5811 14.5811 14.7569 14.3572 14.8315L7.99717 16.9515C7.72767 17.0413 7.43054 16.9712 7.22967 16.7703C7.0288 16.5695 6.95865 16.2723 7.04849 16.0028L9.16849 9.64283C9.24314 9.41888 9.41888 9.24314 9.64283 9.16849L16.0028 7.04849C16.2723 6.95865 16.5695 7.0288 16.7703 7.22967ZM10.4729 10.4729L8.94585 15.0541L13.5271 13.5271L15.0541 8.94585L10.4729 10.4729Z" fill="#FFD78E"/>
</svg>
