<svg width="22" height="22" viewBox="0 0 22 22" fill="none" xmlns="http://www.w3.org/2000/svg">
<path fill-rule="evenodd" clip-rule="evenodd" d="M11 1.75C5.89137 1.75 1.75 5.89137 1.75 11C1.75 16.1086 5.89137 20.25 11 20.25C16.1086 20.25 20.25 16.1086 20.25 11C20.25 5.89137 16.1086 1.75 11 1.75ZM0.25 11C0.25 5.06294 5.06294 0.25 11 0.25C16.9371 0.25 21.75 5.06294 21.75 11C21.75 16.9371 16.9371 21.75 11 21.75C5.06294 21.75 0.25 16.9371 0.25 11Z" fill="#FFD78E"/>
<path fill-rule="evenodd" clip-rule="evenodd" d="M15.7703 6.22967C15.9712 6.43054 16.0413 6.72767 15.9515 6.99717L13.8315 13.3572C13.7569 13.5811 13.5811 13.7569 13.3572 13.8315L6.99717 15.9515C6.72767 16.0413 6.43054 15.9712 6.22967 15.7703C6.0288 15.5695 5.95865 15.2723 6.04849 15.0028L8.16849 8.64283C8.24314 8.41887 8.41887 8.24314 8.64283 8.16849L15.0028 6.04849C15.2723 5.95865 15.5695 6.0288 15.7703 6.22967ZM9.47293 9.47293L7.94585 14.0541L12.5271 12.5271L14.0541 7.94585L9.47293 9.47293Z" fill="#FFD78E"/>
</svg>
