<svg width="24" height="23" viewBox="0 0 24 23" fill="none" xmlns="http://www.w3.org/2000/svg">
<path d="M9 22C9.55228 22 10 21.5523 10 21C10 20.4477 9.55228 20 9 20C8.44771 20 8 20.4477 8 21C8 21.5523 8.44771 22 9 22Z" fill="#FFD78E"/>
<path fill-rule="evenodd" clip-rule="evenodd" d="M7 21C7 19.8954 7.89543 19 9 19C10.1046 19 11 19.8954 11 21C11 22.1046 10.1046 23 9 23C7.89543 23 7 22.1046 7 21Z" fill="#FFD78E"/>
<path d="M20 22C20.5523 22 21 21.5523 21 21C21 20.4477 20.5523 20 20 20C19.4477 20 19 20.4477 19 21C19 21.5523 19.4477 22 20 22Z" fill="#FFD78E"/>
<path fill-rule="evenodd" clip-rule="evenodd" d="M18 21C18 19.8954 18.8954 19 20 19C21.1046 19 22 19.8954 22 21C22 22.1046 21.1046 23 20 23C18.8954 23 18 22.1046 18 21Z" fill="#FFD78E"/>
<path fill-rule="evenodd" clip-rule="evenodd" d="M0.25 1C0.25 0.585786 0.585786 0.25 1 0.25H5C5.35747 0.25 5.66526 0.502289 5.73541 0.852807L6.61551 5.25H23C23.2235 5.25 23.4354 5.3497 23.5779 5.52192C23.7204 5.69414 23.7786 5.92093 23.7367 6.1405L22.1357 14.5361C22.0099 15.1692 21.6655 15.7378 21.1628 16.1425C20.662 16.5456 20.0359 16.7605 19.3934 16.75H9.68664C9.04405 16.7605 8.41799 16.5456 7.91725 16.1425C7.41473 15.738 7.07043 15.1697 6.94455 14.537L5.27255 6.18328C5.26672 6.16005 5.26197 6.13639 5.25836 6.11235L4.38524 1.75H1C0.585786 1.75 0.25 1.41421 0.25 1ZM6.91573 6.75L8.41563 14.2439C8.47278 14.5316 8.62932 14.7901 8.85785 14.9741C9.08637 15.158 9.37232 15.2558 9.66563 15.2501L9.68 15.25H19.4L19.4144 15.2501C19.7077 15.2558 19.9936 15.158 20.2222 14.9741C20.45 14.7906 20.6063 14.5331 20.6639 14.2463L20.6644 14.2439L22.0935 6.75H6.91573Z" fill="#FFD78E"/>
</svg>
