<svg width="20" height="21" viewBox="0 0 20 21" fill="none" xmlns="http://www.w3.org/2000/svg">
<path d="M19.6154 5.48767L10.3846 0.103058C10.2677 0.0355434 10.135 0 10 0C9.86497 0 9.73232 0.0355434 9.61539 0.103058L0.384615 5.48767C0.268355 5.55479 0.171685 5.65117 0.104211 5.76722C0.0367376 5.88328 0.000810285 6.01497 0 6.14921V19.9954C0 20.1994 0.0810437 20.395 0.225302 20.5393C0.369561 20.6836 0.565218 20.7646 0.769231 20.7646H7.69231C7.89632 20.7646 8.09198 20.6836 8.23624 20.5393C8.38049 20.395 8.46154 20.1994 8.46154 19.9954V14.6108H11.5385V19.9954C11.5385 20.1994 11.6195 20.395 11.7638 20.5393C11.908 20.6836 12.1037 20.7646 12.3077 20.7646H19.2308C19.4348 20.7646 19.6304 20.6836 19.7747 20.5393C19.919 20.395 20 20.1994 20 19.9954V6.14921C19.9992 6.01497 19.9633 5.88328 19.8958 5.76722C19.8283 5.65117 19.7316 5.55479 19.6154 5.48767V5.48767ZM18.4615 19.2261H13.0769V13.8415C13.0769 13.6375 12.9959 13.4419 12.8516 13.2976C12.7074 13.1533 12.5117 13.0723 12.3077 13.0723H7.69231C7.4883 13.0723 7.29264 13.1533 7.14838 13.2976C7.00412 13.4419 6.92308 13.6375 6.92308 13.8415V19.2261H1.53846V6.58767L10 1.6569L18.4615 6.58767V19.2261Z" fill="#FFD78E"/>
</svg>
