<svg width="40" height="40" viewBox="0 0 40 40" fill="none" xmlns="http://www.w3.org/2000/svg">
<g clip-path="url(#clip0_976_627)">
<path d="M0 19.6147C0.0363469 19.2598 0.0695673 18.9045 0.109432 18.5499C0.14187 18.2595 0.166102 17.9671 0.261463 17.6872C0.282568 17.6258 0.302109 17.5633 0.328686 17.5046C0.5198 17.0856 0.820737 16.9171 1.18968 17.0207C1.57738 17.1294 1.83532 17.5277 1.78491 17.9389C1.67118 18.8693 1.59848 19.8031 1.61373 20.7401C1.6532 23.1458 2.15541 25.4474 3.18602 27.629C3.66518 28.6438 4.23188 29.6062 4.85837 30.5362C4.96233 30.6902 5.07646 30.7442 5.25858 30.7434C6.23448 30.7379 7.21076 30.7309 8.18666 30.7504C10.4179 30.7946 12.6495 30.7602 14.8811 30.784C15.0773 30.786 15.1641 30.7215 15.2278 30.5358C15.7374 29.0465 16.2588 27.561 16.7755 26.0736C16.8615 25.8262 16.9572 25.5862 17.1503 25.3978C17.4309 25.1237 17.7674 25.0401 18.0961 25.1843C18.49 25.3575 18.7878 25.63 18.7851 26.0889C18.7824 26.5959 18.6757 27.0958 18.6131 27.5989C18.4795 28.6759 18.3396 29.7524 18.2043 30.8294C18.0644 31.945 17.9261 33.0606 17.7885 34.1767C17.6525 35.2798 17.5196 36.3829 17.3824 37.4861C17.2781 38.3246 17.1694 39.1623 17.0627 40H16.7505C16.3534 39.9335 15.9544 39.878 15.56 39.799C11.2703 38.9359 7.72353 36.7926 4.84391 33.5266C3.28021 31.7531 2.08233 29.7493 1.24127 27.536C0.667924 26.0271 0.278269 24.4729 0.105523 22.8663C0.0699581 22.5379 0.0351745 22.2088 0 21.88C0 21.1252 0 20.37 0 19.6151V19.6147Z" fill="#006C35"/>
<path d="M25.3793 18.9631C26.8653 19.32 28.3027 19.6648 29.7671 20.0166C29.6796 20.1081 29.5901 20.1057 29.5135 20.1237C28.1906 20.4368 26.8668 20.7476 25.5435 21.0588C25.5181 21.0646 25.4915 21.067 25.4677 21.0768C25.4278 21.0932 25.3649 21.083 25.3547 21.1362C25.3449 21.1874 25.4 21.2101 25.4344 21.2366C25.733 21.4669 26.0324 21.6967 26.3322 21.9258C26.9372 22.3878 27.5429 22.8487 28.1476 23.3108C28.1984 23.3495 28.2445 23.3948 28.3156 23.4577C28.1292 23.4953 27.9725 23.4499 27.82 23.4339C26.8117 23.3287 25.8045 23.2123 24.797 23.0997C24.7712 23.0969 24.7446 23.0926 24.7192 23.095C24.6704 23.0993 24.6067 23.0668 24.5785 23.1263C24.5566 23.172 24.6035 23.2095 24.6266 23.247C24.8775 23.6505 25.1288 24.0535 25.3809 24.4561C25.8854 25.261 26.3908 26.0655 26.8938 26.8715C26.9297 26.9294 26.9825 26.9821 26.9876 27.083C26.6226 26.8183 26.2751 26.5607 25.9214 26.3117C25.0002 25.6632 24.0689 25.03 23.0086 24.6215C22.6979 24.5018 22.3774 24.4198 22.0397 24.4205C21.5723 24.4221 21.2334 24.6332 21.0095 25.0389C20.7398 25.5288 20.6538 26.0705 20.5839 26.6123C20.4264 27.8374 20.3865 29.0746 20.2267 30.2997C20.1786 30.6672 20.1176 31.0331 20.0606 31.3993C20.0547 31.4357 20.0531 31.4787 19.9965 31.5088C19.9085 31.1574 19.8788 30.802 19.8366 30.4502C19.6854 29.1853 19.6392 27.9097 19.4774 26.6456C19.4145 26.1546 19.3219 25.6691 19.1265 25.209C18.8521 24.5632 18.3456 24.29 17.6527 24.4162C16.9336 24.5472 16.3086 24.8963 15.6962 25.2696C14.8727 25.7715 14.104 26.3512 13.3454 26.9454C13.2801 26.9966 13.2117 27.0439 13.1148 27.0705C13.1843 26.9501 13.2527 26.8293 13.3243 26.7101C13.9969 25.5886 14.6707 24.4674 15.3425 23.3452C15.3769 23.2881 15.4566 23.2271 15.4019 23.1575C15.3597 23.1036 15.2796 23.1431 15.2166 23.1528C14.0215 23.3373 12.8263 23.5222 11.6308 23.7064C11.6003 23.7111 11.5687 23.7071 11.4854 23.7071C12.5641 22.8569 13.6064 22.0356 14.6965 21.1768C13.1117 20.8219 11.5866 20.4802 10.0308 20.1315C10.107 20.0612 10.1777 20.0577 10.2402 20.0436C11.6429 19.7293 13.0464 19.4166 14.4491 19.1023C14.5159 19.0874 14.6167 19.0992 14.6355 19.0253C14.6554 18.9459 14.5542 18.9186 14.501 18.8787C13.5674 18.1825 12.6313 17.4894 11.6972 16.794C11.6371 16.7494 11.5616 16.7178 11.5128 16.6009C12.8561 16.7846 14.1755 16.9648 15.5571 17.1533C14.7301 15.8242 13.9332 14.544 13.1363 13.2638L13.1789 13.2212C14.4553 14.0014 15.7318 14.782 17.05 15.5877C16.8659 14.2656 16.6885 12.9905 16.5107 11.7158L16.5591 11.6939C17.374 12.6766 18.1893 13.6597 19.0385 14.6835C19.3453 12.5414 19.6451 10.4489 19.9449 8.35675H19.9972C20.324 10.4524 20.6507 12.5484 20.9771 14.6448C20.9939 14.6511 21.0107 14.6573 21.0275 14.6636C21.8029 13.6934 22.5779 12.7231 23.3615 11.7424C23.4182 11.837 23.3931 11.9159 23.3861 11.9886C23.3068 12.7908 23.2231 13.5925 23.1403 14.3943C23.1086 14.698 23.0742 15.0017 23.0434 15.3055C23.0383 15.3559 23.0183 15.4212 23.0609 15.4544C23.1207 15.5013 23.1684 15.436 23.2145 15.4075C24.3393 14.7148 25.463 14.0209 26.587 13.3275C26.6804 13.2696 26.7746 13.2129 26.9063 13.1844C26.1094 14.4681 25.3125 15.7519 24.4898 17.0778C25.8003 16.9156 27.0603 16.76 28.3203 16.604L28.3492 16.6568C27.3718 17.4159 26.3947 18.1751 25.3785 18.9639L25.3793 18.9631Z" fill="#FCD116"/>
<path d="M39.9979 20.3981C39.9971 23.5734 39.3644 26.3063 38.138 28.9054C37.0386 31.2355 35.5413 33.2772 33.6501 35.0214C30.9554 37.5068 27.8186 39.1341 24.2007 39.7999C23.8493 39.8644 23.4933 39.9042 23.1408 39.9617C22.9801 39.9879 22.8992 39.9382 22.8793 39.7686C22.7628 38.7812 22.6417 37.7937 22.5201 36.8067C22.3837 35.6969 22.2458 34.5879 22.1082 33.4782C21.9726 32.3817 21.8381 31.2848 21.7006 30.1883C21.5653 29.1114 21.4254 28.0348 21.2894 26.9579C21.2519 26.6616 21.2073 26.3645 21.1941 26.0666C21.1773 25.6886 21.4665 25.3118 21.8675 25.148C22.2251 25.0014 22.5709 25.0866 22.8598 25.388C23.0317 25.5674 23.1212 25.7895 23.2006 26.0178C23.6805 27.4008 24.1612 28.7834 24.64 30.1668C24.7721 30.5486 25.0369 30.7395 25.4345 30.7395C27.2828 30.7371 29.131 30.752 30.9788 30.7258C32.2474 30.7078 33.5161 30.7121 34.7847 30.702C34.9117 30.7008 35.0028 30.6695 35.0798 30.5577C36.4172 28.6149 37.438 26.5291 37.9562 24.2153C38.1755 23.2361 38.2947 22.2448 38.3447 21.2413C38.401 20.1124 38.317 18.9936 38.1927 17.8749C38.1548 17.5332 38.3651 17.1622 38.6676 17.025C39.0146 16.8675 39.3433 16.9617 39.552 17.2811C39.7814 17.6321 39.8189 18.0375 39.8658 18.4374C39.9538 19.1871 40.012 19.9388 39.9979 20.397V20.3981Z" fill="#006C35"/>
<path d="M25.4413 29.5558C25.6172 29.4448 25.743 29.3666 25.8677 29.2865C28.4616 27.6197 30.0785 25.2883 30.6276 22.2432C30.8093 21.2347 30.839 20.2148 30.7288 19.193C30.7085 19.0042 30.721 18.8161 30.7734 18.632C30.8648 18.3103 31.0837 18.1242 31.4128 18.0894C31.7282 18.0562 32.0006 18.2063 32.1479 18.496C32.2988 18.7923 32.339 19.1167 32.3695 19.44C32.5837 21.7065 32.1913 23.8576 31.1337 25.8809C30.4412 27.2057 29.5485 28.3847 28.5226 29.4667C28.4577 29.5351 28.3905 29.5844 28.2881 29.5844C27.3904 29.582 26.4922 29.5832 25.5945 29.5824C25.5644 29.5824 25.5339 29.5722 25.4409 29.5558H25.4413Z" fill="#006C35"/>
<path d="M14.4878 29.5898C14.43 29.6336 14.376 29.6219 14.3256 29.6219C13.467 29.6227 12.6079 29.6219 11.7493 29.6235C11.6398 29.6235 11.55 29.6023 11.4702 29.5179C9.98821 27.9492 8.78251 26.2081 8.097 24.1387C7.64285 22.7674 7.49786 21.3578 7.57641 19.9232C7.59986 19.4967 7.62136 19.0644 7.77847 18.6567C7.95669 18.1946 8.37566 18.0035 8.81534 18.1954C9.15536 18.3435 9.24759 18.652 9.25463 18.9827C9.26127 19.2938 9.22922 19.6058 9.21281 19.9173C9.13503 21.3992 9.35429 22.8366 9.88386 24.2216C10.748 26.4825 12.2597 28.199 14.3178 29.4495C14.3772 29.4855 14.4487 29.5093 14.4882 29.5898H14.4878Z" fill="#006C35"/>
<path d="M9.22248 29.6227C8.91685 29.6227 8.61083 29.6192 8.30521 29.6243C8.18952 29.6262 8.11175 29.5883 8.0457 29.491C6.76183 27.6045 5.73004 25.6027 5.24855 23.3514C4.96129 22.0071 4.87687 20.6503 5.01991 19.2802C5.05626 18.9303 5.07775 18.5793 5.20946 18.249C5.37556 17.8319 5.70738 17.6634 6.13025 17.7729C6.42259 17.8487 6.5715 18.0559 6.64028 18.3326C6.69304 18.5437 6.66373 18.7564 6.65826 18.9714C6.61449 20.6444 6.63012 22.3144 7.05378 23.9507C7.41607 25.3501 8.08517 26.5991 8.91998 27.7675C9.32487 28.3343 9.75947 28.8773 10.2066 29.4108C10.25 29.4628 10.3367 29.5156 10.2992 29.5875C10.2632 29.6563 10.1687 29.62 10.1007 29.6208C9.80794 29.6239 9.51521 29.6223 9.22248 29.6219V29.6227Z" fill="#006C35"/>
<path d="M30.7575 29.5836C30.4648 29.5836 30.172 29.5855 29.8793 29.582C29.8117 29.5812 29.7167 29.6184 29.6819 29.5472C29.6472 29.4757 29.7328 29.4225 29.7765 29.3705C30.2229 28.8366 30.6551 28.2917 31.0631 27.7272C32.1512 26.2218 32.9074 24.5781 33.1681 22.7256C33.2877 21.8746 33.3479 21.0193 33.3366 20.1597C33.3303 19.6789 33.36 19.1973 33.3022 18.7172C33.2834 18.5605 33.3104 18.4049 33.351 18.2536C33.4413 17.9182 33.6719 17.7318 34.0256 17.7013C34.3242 17.6755 34.5907 17.833 34.733 18.1223C34.8764 18.4139 34.914 18.7317 34.9483 19.0483C35.2852 22.1552 34.5423 25.0217 33.0161 27.7139C32.6855 28.2971 32.3294 28.8639 31.9577 29.4218C31.8811 29.5367 31.7963 29.5906 31.6552 29.5863C31.3563 29.5773 31.0569 29.5836 30.7579 29.5836H30.7575Z" fill="#006C35"/>
<path d="M37.5354 20.2977C37.5483 23.0047 36.9656 25.3732 35.9366 27.6424C35.6622 28.2475 35.3578 28.8366 35.0353 29.4171C34.9662 29.5421 34.8817 29.5883 34.7406 29.5863C34.2005 29.5797 33.6604 29.584 33.1203 29.5832C33.0632 29.5832 32.9878 29.6047 32.9546 29.5543C32.9108 29.4886 32.9796 29.4343 33.0136 29.3827C33.6358 28.4351 34.2165 27.4645 34.6937 26.4341C35.3198 25.0815 35.7056 23.6665 35.842 22.1799C35.9577 20.918 35.9182 19.6601 35.8033 18.4014C35.7861 18.213 35.7912 18.0242 35.8432 17.8397C35.9393 17.4976 36.1621 17.3158 36.5173 17.2904C36.8492 17.267 37.1227 17.4402 37.2541 17.7584C37.428 18.1813 37.4417 18.6336 37.4854 19.0788C37.5319 19.5514 37.5448 20.0268 37.5362 20.2977H37.5354Z" fill="#006C35"/>
<path d="M2.44968 20.5287C2.43756 19.7535 2.48173 18.9815 2.60757 18.2161C2.62868 18.0887 2.66893 17.9632 2.71349 17.8412C2.84012 17.4929 3.11448 17.3073 3.45801 17.3288C3.83243 17.3522 4.05793 17.5524 4.15134 17.9292C4.23537 18.2681 4.1572 18.6039 4.13571 18.9389C4.07865 19.8352 4.04699 20.73 4.0978 21.6287C4.1533 22.6134 4.29634 23.5813 4.56327 24.5304C4.96348 25.9525 5.62281 27.2558 6.39078 28.5082C6.58112 28.819 6.78122 29.1235 6.97546 29.4319C7.00516 29.4792 7.06574 29.5277 7.03057 29.5875C6.99656 29.6454 6.92426 29.6215 6.86837 29.6219C6.31535 29.6235 5.76194 29.6203 5.20892 29.6246C5.08972 29.6254 5.01859 29.5816 4.96035 29.4788C3.98094 27.7464 3.22352 25.9271 2.80533 23.9753C2.56224 22.8397 2.42936 21.692 2.45007 20.5291L2.44968 20.5287Z" fill="#006C35"/>
<path d="M31.8807 5.04967C31.8807 6.49445 30.7254 7.66795 29.3036 7.66677C27.8821 7.6656 26.7343 6.49172 26.7358 5.04146C26.7374 3.60411 27.8798 2.45994 29.3126 2.46033C30.7434 2.46072 31.8803 3.60724 31.8807 5.05006V5.04967ZM29.3188 3.79956C28.6013 3.79839 28.0459 4.34057 28.042 5.04615C28.0381 5.74861 28.6177 6.32167 29.3262 6.31542C30.025 6.30877 30.6011 5.73649 30.6003 5.04889C30.5996 4.35934 30.0266 3.80113 29.3188 3.79995V3.79956Z" fill="#006C35"/>
<path d="M33.5165 9.79372C33.132 10.0701 32.7466 10.3449 32.3632 10.6224C32.0122 10.8765 32.013 10.8781 31.7602 10.5325C31.6144 10.3328 31.4749 10.1283 31.3228 9.93406C31.2247 9.80858 31.2368 9.73274 31.3705 9.63736C32.5461 8.79887 33.7166 7.95413 34.8891 7.11134C35.0107 7.02417 35.1365 6.94247 35.253 6.84865C35.3468 6.77321 35.4167 6.76852 35.4992 6.86624C35.9064 7.34823 36.3067 7.83451 36.6623 8.35754C37.1043 9.00761 36.9437 9.78043 36.3141 10.255C35.8521 10.6033 35.3323 10.7596 34.7551 10.6283C34.6046 10.5939 34.5593 10.6654 34.5065 10.7722C34.2017 11.3906 33.8941 12.0078 33.5869 12.625C33.4806 12.8389 33.4782 12.8393 33.3317 12.6415C33.123 12.3592 32.919 12.0731 32.706 11.794C32.6282 11.6919 32.6227 11.6083 32.6849 11.4942C32.9526 11.0032 33.2109 10.5071 33.472 10.0122C33.504 9.95126 33.5322 9.88832 33.5619 9.82617L33.5161 9.79411L33.5165 9.79372ZM35.527 9.05843C35.5324 8.88604 35.4523 8.74649 35.3554 8.61358C35.2944 8.53071 35.2276 8.51664 35.142 8.58505C34.8942 8.78402 34.6445 8.98025 34.3932 9.17492C34.3181 9.23317 34.3076 9.27851 34.3924 9.33754C34.5546 9.4509 34.7273 9.5369 34.9262 9.55644C35.2362 9.58654 35.5281 9.34262 35.527 9.05843Z" fill="#006C35"/>
<path d="M10.7464 7.47602C10.7464 7.50025 10.7429 7.51471 10.7468 7.52605C10.8856 7.93064 10.6718 8.14993 10.3447 8.32584C10.1739 8.4177 10.0199 8.54123 9.85925 8.65185C9.66774 8.78359 9.64664 8.77694 9.60013 8.55686C9.45748 7.88334 9.31522 7.20942 9.17335 6.5355C8.96855 5.56293 8.77158 4.58841 8.55506 3.61858C8.50738 3.40475 8.54998 3.28631 8.73992 3.17842C8.99943 3.03105 9.2437 2.85671 9.48874 2.68549C9.59505 2.61122 9.674 2.60496 9.78108 2.69135C11.0861 3.74445 12.3942 4.79324 13.7026 5.84204C13.805 5.92413 13.8375 5.98628 13.7026 6.07384C13.4138 6.26148 13.1297 6.45654 12.8491 6.65668C12.7463 6.72978 12.6576 6.73643 12.5747 6.64456C12.3246 6.36663 12.0842 6.41549 11.8052 6.61994C11.523 6.82672 11.2123 6.99559 10.9082 7.17033C10.7773 7.24538 10.7148 7.33764 10.746 7.47562L10.7464 7.47602ZM9.96477 4.43009L9.93194 4.45511C10.0468 4.94022 10.1625 5.42533 10.2755 5.91084C10.2954 5.99566 10.3216 6.04804 10.4173 5.98706C10.6417 5.84399 10.8668 5.70209 11.0927 5.56137C11.1607 5.51915 11.1634 5.48319 11.1017 5.42924C10.7214 5.09737 10.3435 4.76314 9.96477 4.4297V4.43009Z" fill="#006C35"/>
<path d="M17.517 0.00273498C17.705 0.00703492 17.8934 -0.0058649 18.0814 0.0257983C18.2174 0.0484707 18.2502 0.109061 18.2225 0.240013C18.1592 0.538664 18.1025 0.838878 18.0548 1.14066C18.0325 1.28021 17.9731 1.30757 17.8422 1.27591C17.4991 1.19304 17.152 1.14183 16.8014 1.23095C15.8959 1.4612 15.6067 2.23479 15.7603 2.96891C15.8896 3.58771 16.5658 3.99503 17.2396 3.8977C17.6189 3.84271 17.7796 3.62745 17.7214 3.25193C17.6886 3.04006 17.6566 2.82819 17.6206 2.61671C17.6065 2.53384 17.6206 2.47559 17.714 2.45839C18.04 2.39858 18.3655 2.3376 18.6915 2.27858C18.7833 2.26177 18.8193 2.31649 18.8337 2.39819C18.9596 3.10182 19.0866 3.80505 19.2128 4.50829C19.2285 4.59429 19.2027 4.65996 19.121 4.70257C17.9739 5.29831 16.5357 5.43864 15.457 4.58178C14.0938 3.49898 14.2572 1.64453 15.226 0.770079C15.7806 0.268549 16.4548 0.0601978 17.1856 0.00390769C17.2954 -0.00469219 17.4064 0.00273498 17.517 0.00273498Z" fill="#006C35"/>
<path d="M4.88637 7.38574C5.98499 7.40138 6.81628 8.19921 6.86044 9.25153C6.8792 9.69676 6.73772 10.0994 6.45437 10.4442C6.34377 10.579 6.36331 10.6537 6.50635 10.7471C6.78423 10.9281 7.04608 11.1333 7.3224 11.3167C7.4545 11.4042 7.4588 11.4754 7.36226 11.5946C7.17818 11.8221 7.00387 12.0578 6.83308 12.2951C6.75023 12.41 6.68457 12.4405 6.55286 12.3444C5.27681 11.4117 3.99568 10.4856 2.71493 9.55878C2.63325 9.49975 2.57502 9.45167 2.64967 9.34104C3.01743 8.79573 3.39224 8.25628 3.86748 7.79619C4.16451 7.50849 4.52798 7.39395 4.88676 7.38574H4.88637ZM5.53358 9.32619C5.53749 9.0291 5.36474 8.81919 5.05833 8.74804C4.82931 8.69488 4.52915 8.84929 4.42129 9.06624C4.37361 9.1624 4.43653 9.19484 4.49515 9.2355C4.6765 9.36098 4.85589 9.49076 5.04192 9.60881C5.1537 9.67996 5.27642 9.84922 5.38194 9.78863C5.51638 9.71123 5.51013 9.50561 5.53358 9.34534C5.53436 9.33909 5.53358 9.33244 5.53436 9.3258L5.53358 9.32619Z" fill="#006C35"/>
<path d="M24.1467 0.196245C24.4336 0.177873 24.7275 0.231426 25.0221 0.287716C25.1769 0.317425 25.2238 0.390915 25.1906 0.544931C25.107 0.932707 25.0304 1.32205 24.9581 1.71178C24.9311 1.85641 24.8779 1.87948 24.7486 1.80872C24.3753 1.60389 23.9841 1.48545 23.5507 1.57926C23.077 1.68168 22.7268 2.04835 22.6596 2.52447C22.5771 3.10809 22.7839 3.55137 23.2533 3.78865C23.5882 3.95791 23.9427 4.01029 24.3144 3.96026C24.5567 3.92742 24.5825 3.95361 24.5356 4.18776C24.468 4.52589 24.3902 4.86168 24.3312 5.20098C24.2999 5.3808 24.2409 5.45194 24.038 5.41559C23.3732 5.29676 22.7253 5.14391 22.1742 4.72291C21.7372 4.38947 21.4961 3.93797 21.4078 3.40595C21.3069 2.79849 21.3335 2.19494 21.5997 1.6293C21.9796 0.820518 22.6627 0.411633 23.5112 0.238463C23.7164 0.196636 23.9239 0.188818 24.1475 0.196245H24.1467Z" fill="#006C35"/>
</g>
<defs>
<clipPath id="clip0_976_627">
<rect width="40" height="40" fill="white"/>
</clipPath>
</defs>
</svg>
