<svg width="53" height="40" viewBox="0 0 53 40" fill="none" xmlns="http://www.w3.org/2000/svg">
<g clip-path="url(#clip0_976_587)">
<path d="M27.8746 40C27.4465 39.664 27.0172 39.3292 26.5904 38.9915C26.3177 38.7757 26.0481 38.556 25.752 38.3177C25.7077 38.4666 25.7369 38.586 25.7383 38.7028C25.7409 38.9411 25.748 39.179 25.7547 39.4174C25.7644 39.7864 25.7719 39.7964 26.1708 39.9275H25.1323C25.4895 39.8997 25.4226 39.6288 25.4293 39.4117C25.4466 38.8777 25.4523 38.3437 25.4643 37.8097C25.4656 37.7463 25.4448 37.6595 25.5063 37.6287C25.5851 37.5887 25.6356 37.676 25.6891 37.7185C26.3018 38.2035 26.9127 38.6906 27.5245 39.1768C27.5807 39.2216 27.6387 39.2628 27.721 39.3245C27.721 39.0948 27.7237 38.8912 27.7201 38.688C27.717 38.5074 27.7011 38.3272 27.702 38.147C27.7029 37.9182 27.7148 37.6899 27.3784 37.6764H28.3022C27.9702 37.729 28.0375 37.9894 28.0238 38.2052C27.9862 38.8026 28.0304 39.403 27.9627 40H27.8742H27.8746Z" fill="#F3E6BB"/>
<path d="M19.5913 10.8247C17.6263 10.8182 16.0623 9.28692 16.069 7.37579C16.0756 5.45902 17.6467 3.92473 19.5984 3.92821C21.5594 3.93168 23.1115 5.47508 23.1044 7.4153C23.0973 9.30732 21.5276 10.8312 19.5918 10.8251L19.5913 10.8247Z" fill="#F3E6BB"/>
<path d="M33.6533 11.7898C35.6192 11.7972 37.1765 13.341 37.1668 15.273C37.1575 17.1611 35.5723 18.7071 33.6581 18.6958C31.6736 18.6837 30.1225 17.1476 30.1305 15.2022C30.138 13.3267 31.7321 11.7828 33.6537 11.7902L33.6533 11.7898Z" fill="#F3E6BB"/>
<path d="M26.613 22.6192C24.613 22.6001 23.0765 21.0598 23.0986 19.0965C23.1199 17.2271 24.7277 15.7037 26.6595 15.7223C28.6179 15.7414 30.1535 17.2961 30.1349 19.2398C30.1168 21.114 28.5289 22.6375 26.6126 22.6192H26.613Z" fill="#F3E6BB"/>
<path d="M30.1362 3.45932C30.1327 5.37045 28.5497 6.91212 26.6028 6.90083C24.6613 6.88954 23.0946 5.34527 23.0991 3.4476C23.1035 1.50782 24.6807 -0.00562822 26.6922 1.57339e-05C28.5904 0.00565968 30.1393 1.56165 30.1362 3.45932Z" fill="#F3E6BB"/>
<path d="M33.6559 10.8247C31.7095 10.8282 30.1318 9.29387 30.13 7.39533C30.1278 5.47465 31.6949 3.92907 33.6449 3.92821C35.6032 3.92734 37.161 5.45641 37.1663 7.38491C37.1716 9.29039 35.6094 10.8212 33.6559 10.8251V10.8247Z" fill="#F3E6BB"/>
<path d="M26.6227 7.86551C28.5701 7.8616 30.1322 9.39068 30.1353 11.3035C30.1384 13.2351 28.5736 14.7637 26.5944 14.7629C24.6741 14.762 23.1004 13.2116 23.0995 11.3196C23.0986 9.4011 24.6608 7.86898 26.6227 7.86551Z" fill="#F3E6BB"/>
<path d="M23.1039 15.2543C23.1048 17.1576 21.5329 18.6967 19.5891 18.6963C17.6484 18.6954 16.0703 17.1524 16.0676 15.2534C16.0654 13.3401 17.6436 11.7876 19.5895 11.7894C21.5444 11.7911 23.103 13.3276 23.1039 15.2543Z" fill="#F3E6BB"/>
<path d="M35.8042 26.089C36.7838 26.0877 37.7622 26.0542 38.7409 26.1632C40.5479 26.3638 41.8883 27.5021 42.196 29.1441C42.5607 31.0912 41.7174 33.5971 38.6639 34.1042C37.8485 34.2397 37.0326 34.2132 36.2181 34.1368C35.4377 34.0634 34.6581 34.0834 33.8773 34.1008C33.7715 34.1029 33.5926 34.1576 33.5931 33.9948C33.5931 33.8746 33.767 33.9011 33.8702 33.8937C34.2845 33.8646 34.3602 33.8021 34.4288 33.4C34.4873 33.0571 34.4992 32.7093 34.5005 32.3637C34.5076 30.7161 34.5059 29.0685 34.5041 27.4209C34.5041 27.2264 34.4877 27.0311 34.4709 26.837C34.4399 26.481 34.292 26.3356 33.9313 26.2995C33.8069 26.2869 33.6816 26.2809 33.5572 26.2678C33.4948 26.2613 33.4067 26.2687 33.4169 26.1727C33.4257 26.0911 33.505 26.0864 33.5718 26.0833C33.6528 26.0794 33.7338 26.0807 33.8148 26.0807C34.478 26.079 35.1411 26.1237 35.8042 26.0898V26.089ZM35.8777 30.3228C35.8932 30.8872 35.8498 31.8914 35.9184 32.8947C35.941 33.226 36.0964 33.4343 36.4098 33.5372C36.5209 33.5737 36.6347 33.6063 36.7498 33.628C37.2925 33.7296 37.8361 33.6979 38.3775 33.6206C39.57 33.45 40.4058 32.6985 40.6838 31.5558C40.7679 31.2102 40.7949 30.8572 40.806 30.503C40.8356 29.5274 40.6422 28.6096 39.9667 27.8607C38.956 26.7406 37.6276 26.5018 36.184 26.6247C35.9538 26.6442 35.8733 26.7549 35.875 26.9794C35.8834 27.9476 35.8786 28.9153 35.8786 30.3228H35.8777Z" fill="#F3E6BB"/>
<path d="M4.26022 34.2484C2.79498 34.1876 1.43287 33.5481 0.552838 32.1028C-0.393154 30.549 -0.0996617 28.584 1.23854 27.2395C3.00082 25.469 6.04464 25.3813 7.83525 27.0497C9.59443 28.6886 9.58204 31.34 7.80559 32.9663C6.8689 33.8238 5.75336 34.2375 4.26022 34.2484ZM7.57363 30.3384C7.5692 29.8921 7.53423 29.4827 7.44039 29.0798C7.10351 27.6363 5.98576 26.3256 4.12565 26.4259C3.09865 26.4814 2.32884 26.939 1.92999 27.8746C1.43597 29.0338 1.44261 30.2355 1.8543 31.4112C2.235 32.4974 2.95655 33.2963 4.13539 33.6063C5.67456 34.0109 6.92423 33.3184 7.37266 31.8245C7.52184 31.3274 7.55592 30.8177 7.57407 30.3384H7.57363Z" fill="#F3E6BB"/>
<path d="M14.5626 30.0501C14.5803 31.2158 14.5205 32.319 14.613 33.4205C14.6378 33.7157 14.7919 33.8455 15.1035 33.8802C15.2496 33.8967 15.397 33.9024 15.5435 33.9149C15.598 33.9197 15.6511 33.9397 15.6453 34.0039C15.6405 34.0578 15.6028 34.0956 15.5426 34.0999C15.4988 34.1029 15.4541 34.1034 15.4103 34.1029C14.4603 34.0938 13.5099 34.0769 12.5599 34.1029C12.5156 34.1042 12.4714 34.1021 12.4275 34.0999C12.3611 34.0964 12.3111 34.0669 12.3102 33.997C12.3093 33.9314 12.366 33.918 12.4182 33.9123C12.5059 33.9028 12.594 33.8971 12.6821 33.8911C12.9614 33.8715 13.057 33.7951 13.1301 33.5294C13.2 33.2759 13.2031 33.0145 13.2084 32.7553C13.2469 30.8698 13.2425 28.9843 13.2146 27.0992C13.2146 27.0775 13.2133 27.0558 13.2124 27.0341C13.1832 26.4424 13.0579 26.3234 12.4576 26.2882C12.3487 26.2817 12.1513 26.3477 12.1566 26.1732C12.1615 26.0208 12.3492 26.0864 12.4537 26.0872C13.3523 26.0933 14.2505 26.1211 15.1491 26.0842C15.2151 26.0816 15.2819 26.0855 15.3474 26.0933C15.3948 26.0985 15.4284 26.1293 15.4328 26.178C15.4377 26.2292 15.4045 26.2604 15.3567 26.2678C15.2624 26.2817 15.1668 26.29 15.0721 26.3008C14.7919 26.3316 14.6374 26.4532 14.6112 26.7124C14.5152 27.668 14.5838 28.6257 14.5648 29.5734C14.636 29.5995 14.6591 29.5635 14.6816 29.54C15.4935 28.6921 16.3518 27.8876 17.115 26.9955C17.2044 26.8913 17.2881 26.778 17.351 26.6573C17.4333 26.4992 17.4457 26.3464 17.219 26.2843C17.1566 26.2674 17.1137 26.2361 17.1283 26.1615C17.1411 26.0955 17.1911 26.0894 17.2443 26.0872C17.2956 26.0851 17.3474 26.0807 17.3988 26.0837C18.1278 26.1246 18.8565 26.102 19.5856 26.0837C19.6515 26.082 19.7184 26.0837 19.7834 26.0942C19.8308 26.1015 19.8569 26.1432 19.8569 26.1892C19.8569 26.2283 19.829 26.2561 19.7914 26.2674C19.7564 26.2778 19.7197 26.2861 19.6834 26.2874C19.0296 26.306 18.5183 26.6264 18.0712 27.051C17.2722 27.8099 16.4908 28.5871 15.6962 29.3507C15.5918 29.4515 15.6011 29.5144 15.6887 29.6125C16.7923 30.8451 17.8932 32.0798 19.1393 33.1791C19.5847 33.5715 20.0933 33.8542 20.7077 33.9106C20.7662 33.9158 20.856 33.9076 20.8467 34.0079C20.8392 34.0929 20.7693 34.1029 20.6993 34.1025C20.1026 34.0995 19.5054 34.1094 18.9092 34.0886C18.4559 34.073 18.0818 33.8537 17.7494 33.5637C17.0367 32.9416 16.4444 32.2105 15.818 31.5102C15.4054 31.0496 15.011 30.5733 14.563 30.051L14.5626 30.0501Z" fill="#F3E6BB"/>
<path d="M45.5049 34.1029C45.1074 34.1029 44.7095 34.1038 44.3119 34.1025C44.2256 34.1025 44.1136 34.1177 44.1119 33.9931C44.1101 33.8885 44.2238 33.9019 44.2832 33.905C44.9525 33.9397 45.246 33.5264 45.4651 32.9932C46.3766 30.7734 47.2969 28.5571 48.215 26.3399C48.2593 26.2335 48.3035 26.1241 48.3677 26.029C48.4518 25.9044 48.5696 25.901 48.6546 26.0234C48.732 26.1354 48.7874 26.2639 48.84 26.3898C49.6953 28.4377 50.5479 30.4865 51.4022 32.5348C51.5275 32.8352 51.6608 33.1317 51.8436 33.4048C52.0521 33.7157 52.3283 33.9032 52.721 33.895C52.7798 33.8937 52.8387 33.9024 52.8971 33.9071C52.9516 33.9115 52.9976 33.9219 52.9998 33.9918C53.0025 34.0717 52.9547 34.0895 52.8887 34.0921C52.8223 34.0947 52.7564 34.1008 52.69 34.1003C51.9604 34.0977 51.2314 34.0943 50.5018 34.0895C50.4359 34.0895 50.369 34.0821 50.3044 34.0704C50.2513 34.0608 50.176 34.0786 50.1619 33.9992C50.1477 33.918 50.2185 33.9097 50.2721 33.8911C50.412 33.8429 50.4199 33.7435 50.3748 33.6288C50.0994 32.9294 49.821 32.2313 49.5479 31.5315C49.5094 31.4325 49.443 31.4043 49.3451 31.4047C48.5935 31.4077 47.8423 31.4112 47.0906 31.4095C46.9937 31.4095 46.9401 31.4451 46.9073 31.5284C46.6696 32.1336 46.3828 32.7206 46.2088 33.3484C46.1003 33.7396 46.2225 33.8867 46.6329 33.9015C46.6842 33.9032 46.7369 33.8976 46.7874 33.9058C46.844 33.9154 46.9374 33.8867 46.9255 33.9944C46.9171 34.0704 46.8648 34.1034 46.786 34.1016C46.4917 34.0942 46.1968 34.0882 45.9025 34.083C45.7701 34.0808 45.6377 34.083 45.5049 34.083V34.1029ZM48.2238 28.0969C47.8786 29.0017 47.5519 29.8587 47.2238 30.7148C47.1721 30.8498 47.2482 30.8559 47.3518 30.8555C47.9339 30.8529 48.516 30.8481 49.0981 30.8564C49.2686 30.8585 49.2539 30.7938 49.211 30.6784C48.9941 30.0962 48.7847 29.5109 48.5643 28.93C48.4647 28.6678 48.3881 28.3952 48.2238 28.0969Z" fill="#F3E6BB"/>
<path d="M23.9472 34.0686C23.4997 34.1038 23.0875 34.1081 22.675 34.1012C22.5935 34.0999 22.4922 34.1047 22.4939 33.9953C22.4957 33.898 22.5988 33.9002 22.6666 33.9037C23.3076 33.9362 23.6174 33.5585 23.833 33.0341C24.7476 30.8082 25.6701 28.5853 26.59 26.3612C26.6232 26.2809 26.6528 26.1988 26.6931 26.1224C26.7365 26.0403 26.7777 25.9448 26.8919 25.9401C27.0207 25.9344 27.0619 26.0421 27.1083 26.1285C27.1632 26.2301 27.2066 26.3382 27.2509 26.445C28.107 28.4998 28.9623 30.5551 29.8188 32.6099C29.9384 32.8969 30.0725 33.1769 30.2504 33.4361C30.455 33.7343 30.7281 33.898 31.0995 33.8945C31.1654 33.8941 31.2318 33.9011 31.2978 33.9076C31.3527 33.9128 31.4027 33.9336 31.4036 33.9957C31.4045 34.0474 31.3571 34.0673 31.3146 34.0782C31.2655 34.0908 31.2137 34.1012 31.1628 34.1012C30.3894 34.0977 29.6156 34.093 28.8423 34.0864C28.7763 34.086 28.7104 34.0734 28.6449 34.0634C28.6046 34.0574 28.5497 34.0708 28.5391 34.0118C28.5276 33.9488 28.5736 33.9128 28.6227 33.9011C28.8264 33.8524 28.8016 33.7252 28.7454 33.5833C28.4789 32.9116 28.2106 32.2409 27.9485 31.5675C27.9021 31.4481 27.8365 31.4047 27.7046 31.4056C26.9751 31.4108 26.246 31.4064 25.5165 31.406C25.4293 31.406 25.3408 31.393 25.2983 31.5045C25.0605 32.1323 24.7551 32.7358 24.5873 33.3883C24.4961 33.7439 24.6188 33.8889 24.9924 33.8993C25.0437 33.9006 25.0964 33.8963 25.1469 33.9037C25.2119 33.9132 25.3102 33.8824 25.3062 33.9987C25.3027 34.0995 25.2248 34.1047 25.1473 34.1029C24.8529 34.0969 24.5581 34.0908 24.2637 34.083C24.146 34.0799 24.0282 34.073 23.9463 34.0695L23.9472 34.0686ZM26.663 28.1655C26.6387 28.1612 26.6139 28.1564 26.5895 28.152C26.2487 29.0421 25.9083 29.9321 25.5608 30.8394H27.6599C27.3222 29.9338 26.9928 29.0494 26.663 28.1655Z" fill="#F3E6BB"/>
<path d="M19.536 39.3596C19.8764 38.81 20.2035 38.2808 20.5324 37.7528C20.5692 37.6938 20.5904 37.5957 20.6745 37.6039C20.7812 37.6143 20.7595 37.7264 20.7737 37.7962C20.8791 38.3272 20.9826 38.8582 21.0769 39.3909C21.1265 39.6709 21.177 39.9353 21.582 39.9101C21.2637 39.9661 20.964 39.9622 20.6639 39.9145C20.613 39.9062 20.6258 39.8667 20.6267 39.8302C20.6334 39.3726 20.4749 38.9394 20.4351 38.4879C20.3306 38.4805 20.3208 38.5612 20.2912 38.6085C20.0424 39.0006 19.8003 39.3965 19.5524 39.789C19.4373 39.9713 19.4036 39.9696 19.2788 39.7985C18.9756 39.3822 18.7241 38.9342 18.4165 38.4479C18.3425 38.9003 18.2766 39.2997 18.2124 39.6991C18.1969 39.7968 18.2518 39.8446 18.3439 39.8654C18.3965 39.8776 18.4656 39.8515 18.5041 39.9383H17.6143C17.9667 39.8576 17.9171 39.5524 17.9685 39.3101C18.0791 38.7878 18.1774 38.263 18.2806 37.7389C18.2916 37.6829 18.2894 37.6139 18.3629 37.6017C18.4373 37.5892 18.4576 37.6595 18.4873 37.7059C18.7941 38.19 19.0995 38.675 19.4054 39.159C19.4435 39.2194 19.4837 39.2784 19.5369 39.3592L19.536 39.3596Z" fill="#F3E6BB"/>
<path d="M35.6232 39.9145C35.3261 39.9739 35.0353 39.9627 34.7449 39.9388C34.694 39.9344 34.6356 39.9292 34.6798 39.8498C34.713 39.7907 34.6767 39.7382 34.6488 39.6874C34.5559 39.5177 34.5346 39.252 34.3686 39.1925C34.1212 39.1039 33.8308 39.1569 33.5585 39.1716C33.4855 39.1755 33.462 39.2272 33.4355 39.2793C33.3868 39.3761 33.3323 39.4708 33.2885 39.5702C33.18 39.8155 33.1902 39.835 33.4377 39.9314H32.5125C32.9689 39.8606 33.0171 39.446 33.1871 39.1412C33.4306 38.7049 33.6493 38.2551 33.8821 37.8127C33.9233 37.7342 33.9366 37.6048 34.0508 37.6113C34.1553 37.6174 34.1774 37.7407 34.2199 37.8214C34.5129 38.3793 34.8038 38.9381 35.0937 39.4977C35.2053 39.7126 35.3425 39.8928 35.6227 39.9149L35.6232 39.9145ZM33.9494 38.2248C33.8148 38.4996 33.6997 38.7349 33.5718 38.9958C33.7936 38.9958 33.9817 38.991 34.1694 38.9975C34.3062 39.0023 34.2907 38.9441 34.2478 38.8564C34.1535 38.6628 34.0636 38.4674 33.9494 38.2248Z" fill="#F3E6BB"/>
<path d="M22.7095 39.9362H21.7945L21.7644 39.8789C22.1292 39.9067 22.2146 39.6423 22.3328 39.4143C22.6126 38.8747 22.891 38.3342 23.1694 37.7936C23.2093 37.7164 23.242 37.6083 23.331 37.6031C23.4134 37.5987 23.4302 37.7129 23.4651 37.7785C23.7148 38.2443 23.9534 38.7158 24.2088 39.1786C24.3771 39.4829 24.4576 39.8754 24.9251 39.9249C24.6143 39.9722 24.3182 39.9596 24.022 39.9453C23.9725 39.9427 23.926 39.9236 23.9592 39.868C24.0083 39.7855 23.9512 39.7287 23.9202 39.6687C23.8348 39.5029 23.8091 39.2533 23.644 39.1933C23.3943 39.1035 23.1057 39.1634 22.8339 39.1664C22.7613 39.1673 22.7383 39.2255 22.7126 39.2763C22.6639 39.3731 22.6165 39.4708 22.571 39.5693C22.4922 39.7407 22.5385 39.8628 22.7099 39.9357L22.7095 39.9362ZM23.5847 38.998C23.4709 38.7358 23.3726 38.4961 23.2173 38.2452C23.1075 38.4744 23.0141 38.675 22.9153 38.8729C22.8729 38.958 22.8702 39.0032 22.9888 38.9997C23.177 38.9945 23.3655 38.9984 23.5847 38.9984V38.998Z" fill="#F3E6BB"/>
<path d="M30.3797 39.8849C30.6816 39.8967 30.7152 39.7408 30.7126 39.5355C30.7068 39.0813 30.7166 38.6272 30.7192 38.1727C30.7207 37.9278 30.5993 37.762 30.3549 37.6751H31.5492C31.5479 37.6842 31.5461 37.7077 31.5439 37.7077C31.265 37.7138 31.2217 37.8826 31.2279 38.1132C31.2403 38.5599 31.2372 39.0071 31.2372 39.4543C31.2372 39.6423 31.3071 39.7573 31.5183 39.7547C31.5913 39.7538 31.6648 39.7764 31.7374 39.7747C31.9866 39.7677 32.2469 39.7786 32.3642 39.4638C32.4536 39.8246 32.3744 39.9331 32.0508 39.9379C31.5731 39.9449 31.0955 39.9514 30.6179 39.957C30.5546 39.9579 30.4868 39.9731 30.3797 39.8849Z" fill="#F3E6BB"/>
<path d="M28.8144 37.6656H29.868C29.5346 37.7324 29.5997 37.9881 29.5984 38.2074C29.5962 38.6181 29.5882 39.0292 29.6019 39.4395C29.617 39.8832 29.5962 39.8242 29.9738 39.8993C29.8644 39.9574 29.0207 39.9739 28.798 39.9036C29.0955 39.8928 29.0813 39.6996 29.0818 39.5103C29.0836 39.0566 29.0898 38.6025 29.0924 38.1488C29.0933 37.9426 29.1358 37.7085 28.814 37.666L28.8144 37.6656Z" fill="#F3E6BB"/>
<path d="M36.9764 38.3906C37.4244 38.3902 37.7458 38.7001 37.748 39.1347C37.7502 39.5628 37.4209 39.8906 36.9853 39.8949C36.5466 39.8993 36.1969 39.5732 36.1955 39.1586C36.1942 38.7249 36.5337 38.391 36.9769 38.3906H36.9764ZM36.6258 39.5511C36.7197 39.4417 36.6971 39.3314 36.7002 39.2259C36.7037 39.1178 36.7183 39.0054 36.6944 38.9025C36.6541 38.7292 36.7276 38.691 36.8799 38.711C36.9525 38.7206 37.0269 38.7214 37.0977 38.7375C37.2464 38.7714 37.3049 38.8912 37.2283 38.998C37.0787 39.2068 37.2296 39.3132 37.346 39.4308C37.4496 39.5354 37.5298 39.5203 37.5771 39.3648C37.6608 39.09 37.5771 38.7857 37.3576 38.6233C37.1327 38.4566 36.8423 38.4483 36.617 38.6025C36.3828 38.7622 36.2783 39.0726 36.3779 39.3544C36.458 39.581 36.6214 39.7356 36.8666 39.7755C37.0813 39.8107 37.2757 39.7608 37.4545 39.5654C37.3018 39.5537 37.2 39.5237 37.1287 39.4269C37.0716 39.3492 37.0194 39.1951 36.9233 39.2407C36.8162 39.291 36.8981 39.4304 36.9233 39.5307C36.9242 39.5346 36.9171 39.5402 36.9087 39.552H36.6267L36.6258 39.5511ZM36.875 38.9667C36.9167 39.014 36.8255 39.1365 36.9746 39.1287C37.0729 39.1234 37.0835 39.0475 37.0822 38.9724C37.0809 38.886 37.0419 38.8017 36.9543 38.7974C36.8277 38.7909 36.9091 38.9038 36.875 38.9672V38.9667Z" fill="#F3E6BB"/>
</g>
<defs>
<clipPath id="clip0_976_587">
<rect width="53" height="40" fill="white"/>
</clipPath>
</defs>
</svg>
