<svg width="64" height="38" viewBox="0 0 64 38" fill="none" xmlns="http://www.w3.org/2000/svg">
<g clip-path="url(#clip0_636_6862)">
<path d="M27.6439 6.25764C28.0635 6.5507 28.4584 6.84101 28.8094 7.18711C29.6127 7.97942 30.1084 8.94227 30.4412 9.9961C30.7936 11.1116 30.9033 12.2624 30.9561 13.4209C30.9976 14.3335 31.0055 15.2479 31.084 16.1586C31.097 16.3099 31.1194 16.4613 31.1474 16.6108C31.2716 17.2705 32.0749 17.607 32.6583 17.2458C32.7363 17.1973 32.8044 17.1009 32.8903 17.2527C32.9165 17.2988 32.9925 17.2316 33.0425 17.1918C33.5844 16.7653 33.8164 16.1609 34.0166 15.5446C34.3205 14.6101 34.4778 13.6459 34.6047 12.6748C34.6477 12.3447 34.658 12.0109 34.7266 11.6841C34.7625 11.5144 34.6127 11.3809 34.6458 11.2026C34.8013 10.3587 34.7784 9.4877 35.0468 8.66018C35.2325 8.08915 35.5588 7.64613 36.1609 7.43033C36.6011 7.27215 36.9554 7.40565 37.2602 7.70831C37.7278 8.17282 37.9393 8.77494 38.1456 9.37386C38.4821 10.3523 38.6772 11.3604 38.7883 12.3858C38.7991 12.4837 38.7659 12.6355 38.8915 12.6579C38.9942 12.6762 39.0362 12.534 39.0787 12.4508C39.3181 11.9849 39.4497 11.4847 39.5501 10.9749C39.6742 10.3445 39.7092 9.70487 39.719 9.06617C39.7382 7.83175 39.4063 6.67642 38.8569 5.57048C38.2212 4.29034 37.332 3.19262 36.3542 2.15571C36.2599 2.05558 36.1479 1.96963 36.0909 1.83933C36.0265 1.69166 36.0834 1.61896 36.2393 1.61668C36.4139 1.61393 36.5479 1.7136 36.6804 1.80595C37.5869 2.43917 38.3687 3.19399 39.0072 4.08917C40.0005 5.48178 40.5723 7.02709 40.7189 8.71596C40.8785 10.5548 40.5321 12.3077 39.7176 13.9723C39.4483 14.5223 39.1463 15.0536 38.7697 15.54C38.5792 15.7855 38.3608 16.0393 38.0004 15.9446C37.6672 15.8568 37.5855 15.5478 37.5477 15.2616C37.4847 14.787 37.4632 14.307 37.4184 13.8301C37.3325 12.9194 37.1929 12.0178 36.9101 11.1427C36.8774 11.0417 36.8298 10.9452 36.7841 10.8488C36.7518 10.7806 36.7192 10.7006 36.6193 10.7175C36.5171 10.7349 36.5203 10.8218 36.5143 10.8972C36.4667 11.4893 36.4457 12.0832 36.3724 12.6734C36.1731 14.2736 35.8048 15.823 34.9417 17.2207C34.5128 17.9151 33.9718 18.5067 33.2241 18.888C32.0987 19.4623 30.3866 19.3489 29.6701 17.6362C29.2244 16.5714 29.0213 15.4545 28.8486 14.3266C28.6274 12.8819 28.2951 11.4678 27.5431 10.1845C27.2364 9.66143 26.8878 9.16767 26.3221 8.87415C25.4782 8.43616 24.47 8.58612 23.8198 9.26825C23.4491 9.65686 23.3133 10.1543 23.29 10.6718C23.2363 11.8619 23.4837 13.0053 23.928 14.1053C24.5096 15.5437 25.5076 16.6812 26.6978 17.6714C26.8579 17.8045 27.0171 17.9384 27.1678 18.0811C27.2593 18.168 27.4031 18.269 27.3223 18.4043C27.2364 18.5483 27.0805 18.4583 26.9639 18.4126C26.3986 18.1899 25.8763 17.8886 25.3787 17.5471C24.0419 16.6286 23.0039 15.4545 22.2622 14.029C21.6498 12.8517 21.2918 11.6031 21.2162 10.2846C21.0579 7.51629 21.9126 5.08448 23.8366 3.04586C25.3302 1.46352 27.1818 0.489697 29.3588 0.133544C31.0826 -0.148543 32.7676 0.0192462 34.4096 0.597137C34.7014 0.700006 34.9908 0.815218 35.2507 0.986208C35.3254 1.03558 35.4239 1.08999 35.394 1.1988C35.3632 1.31219 35.2479 1.3259 35.149 1.3419C35.0972 1.35013 35.0421 1.33459 34.988 1.3323C34.0078 1.28704 33.028 1.25961 32.0632 1.48318C31.9223 1.51564 31.7066 1.51152 31.6889 1.68708C31.6735 1.8407 31.8817 1.88322 31.9988 1.94814C32.4926 2.222 32.9809 2.50454 33.4252 2.85155C33.9952 3.29594 34.5137 3.78788 34.7914 4.46864C35.099 5.22255 34.7882 5.90697 34.025 6.22015C33.3394 6.50178 32.6187 6.58316 31.8887 6.64442C30.6648 6.74637 29.4718 6.56578 28.2834 6.3125C28.1098 6.27547 27.9305 6.26084 27.7536 6.24026C27.7181 6.23615 27.6803 6.25169 27.6439 6.25809V6.25764ZM31.0765 4.69358C31.3341 4.69861 31.5913 4.69495 31.8406 4.63186C32.0081 4.58934 32.242 4.58706 32.2849 4.39366C32.3321 4.18107 32.1206 4.06494 31.9685 3.95567C31.5227 3.63655 31.042 3.37184 30.5397 3.14919C30.1943 2.99603 29.8386 2.83692 29.4438 2.9814C29.139 3.09295 28.8388 3.22188 28.5784 3.41481C28.3959 3.55014 28.176 3.6489 28.057 3.85738C27.959 4.02928 28.0075 4.19296 28.1877 4.23639C29.138 4.46453 30.0926 4.66752 31.076 4.69267L31.0765 4.69358Z" fill="#C0C0C0"/>
<path d="M23.3885 37.3828C24.0574 37.3718 24.7253 37.3535 25.3918 37.295C25.5094 37.2849 25.7167 37.2123 25.7372 37.3522C25.7564 37.4806 25.5347 37.4847 25.4166 37.5094C24.9069 37.6178 24.3869 37.6594 23.8688 37.7106C22.778 37.8185 21.6848 37.8784 20.5893 37.93C17.6702 38.0686 14.8047 37.7609 11.993 36.9887C10.3831 36.5466 8.90908 35.8292 7.59234 34.8102C6.95241 34.315 6.28261 33.8537 5.68656 33.3083C4.74183 32.4437 3.9236 31.4667 3.15484 30.4504C3.10397 30.3832 3.05636 30.3132 3.00501 30.2465C2.81037 29.9927 2.7861 29.9909 2.56346 30.2355C2.48597 30.3205 2.41223 30.4111 2.35201 30.5075C2.02901 31.0269 1.70415 31.5458 1.39282 32.072C1.23972 32.3308 1.21078 32.6156 1.27099 32.9128C1.33261 33.2173 1.14123 33.4464 0.821503 33.4697C0.29733 33.5081 -0.103152 33.0157 0.0238073 32.4904C0.13443 32.0332 0.356608 31.624 0.581587 31.2148C1.01941 30.4175 1.55852 29.6777 1.97534 28.868C2.03602 28.7505 2.03228 28.665 1.9646 28.553C1.7709 28.2321 1.59119 27.9015 1.49831 27.5362C1.44883 27.3419 1.41009 27.1366 1.59026 26.9821C1.77836 26.8207 1.97487 26.9158 2.15644 27.0018C2.35808 27.0973 2.56626 27.1527 2.7875 27.1216C3.1077 27.0763 3.37189 26.9762 3.5782 26.6776C4.59527 25.205 5.7407 23.8357 7.11951 22.6685C7.31789 22.5007 7.5508 22.3704 7.77345 22.2319C8.0521 22.0582 8.25421 22.0678 8.47919 22.3114C8.95949 22.8317 9.23208 23.4425 9.21901 24.1558C9.21527 24.3761 9.18727 24.5956 9.13499 24.8118C9.05191 25.157 8.88387 25.4386 8.59448 25.6654C7.66329 26.3955 6.59628 26.8907 5.52926 27.3854C5.07977 27.5938 4.63261 27.8028 4.21719 28.0748C3.81998 28.3354 3.63094 28.7355 3.4349 29.1328C3.36955 29.2649 3.48158 29.3641 3.54552 29.4633C4.02069 30.2044 4.63028 30.8308 5.28281 31.4224C6.99582 32.9755 8.96136 34.1404 11.0903 35.0538C12.2894 35.5686 13.5347 35.9467 14.8108 36.2339C16.304 36.5699 17.8037 36.8698 19.3235 37.0664C20.6733 37.2406 22.0265 37.3672 23.389 37.38L23.3885 37.3828ZM6.00209 25.7674C6.31995 25.6617 6.59394 25.4898 6.85906 25.3093C7.28802 25.018 7.69176 24.6943 7.94101 24.2307C7.99143 24.137 8.14359 24.0136 8.0115 23.9162C7.89761 23.8321 7.74357 23.9089 7.62828 23.9967C7.555 24.0524 7.48219 24.1105 7.41357 24.1713C7.08497 24.4625 6.78391 24.7803 6.49452 25.1081C6.31342 25.3129 6.12205 25.5118 6.00209 25.7669V25.7674Z" fill="#C0C0C0"/>
<path d="M20.9832 26.6013C22.6865 26.6452 24.3827 26.7906 26.0817 26.8857C26.3841 26.9026 26.6871 26.9149 26.9891 26.9342C27.1608 26.9451 27.285 26.8711 27.3947 26.7499C27.6253 26.4943 27.8143 26.2036 28.0976 25.9923C28.3655 25.7925 28.5933 25.7468 28.7478 25.8872C28.9364 26.0591 28.9476 26.3691 28.773 26.6201C28.7558 26.6452 28.732 26.6667 28.718 26.6937C28.6741 26.7769 28.5154 26.8203 28.5733 26.9245C28.619 27.0073 28.7586 26.9716 28.8561 26.9794C29.5861 27.0347 30.3166 27.0068 31.0471 26.9858C31.5008 26.9726 31.7216 27.1111 31.8728 27.5056C32.0166 27.881 31.8191 28.159 31.4121 28.1238C31.0564 28.0927 30.7036 28.0314 30.3507 27.9743C29.5245 27.8403 28.6923 27.8769 27.861 27.8851C27.728 27.8865 27.6192 27.9354 27.5408 28.0428C27.082 28.6701 26.6787 29.3262 26.4336 30.065C26.3869 30.2054 26.3468 30.359 26.4896 30.465C26.6315 30.5702 26.7818 30.4939 26.9027 30.4161C27.1753 30.241 27.4283 30.0367 27.7023 29.8643C28.1816 29.563 28.6927 29.456 29.2239 29.7299C29.7486 30.0005 30.0137 30.829 29.7588 31.3515C29.6109 31.6547 29.3238 31.7772 29.0293 31.662C28.7609 31.5573 28.6605 31.3461 28.7558 31.0759C28.8094 30.9236 28.8888 30.7654 28.7352 30.6319C28.5821 30.4989 28.4104 30.5629 28.2531 30.6324C27.8656 30.8034 27.5763 31.1138 27.2243 31.3374C26.9312 31.5239 26.6297 31.6611 26.2707 31.6583C25.7746 31.6547 25.4338 31.3525 25.4039 30.8623C25.3717 30.3338 25.5155 29.8378 25.7204 29.355C25.9174 28.8905 26.182 28.4589 26.4103 28.0099C26.5228 27.7882 26.5158 27.7649 26.2735 27.7411C26.0728 27.7214 25.8693 27.7036 25.6691 27.7159C24.5558 27.785 23.4482 27.6286 22.3378 27.6359C21.1051 27.6442 19.8691 27.4581 18.6396 27.6954C18.3927 27.7429 18.1547 27.667 17.9502 27.5372C17.7729 27.4243 17.6216 27.2734 17.6781 27.0274C17.7327 26.7901 17.9325 26.6045 18.185 26.6009C18.7213 26.5926 19.2576 26.6018 19.7944 26.6027C20.1907 26.6036 20.587 26.6027 20.9832 26.6027V26.6013Z" fill="#C0C0C0"/>
<path d="M55.6571 30.2557C55.3528 30.482 55.1666 30.7339 54.9584 30.9657C54.7278 31.2227 54.5084 31.4919 54.1906 31.6565C53.5716 31.9766 52.9443 31.6456 52.8911 30.9634C52.8477 30.407 52.9691 29.8753 53.1455 29.3495C53.4974 28.3003 54.1047 27.3923 54.7535 26.5058C54.8893 26.3202 55.0317 26.1387 55.1642 25.9508C55.2627 25.8109 55.399 25.7281 55.56 25.6865C55.7426 25.6394 55.9139 25.6541 56.0483 25.8104C56.1748 25.9576 56.1402 26.1108 56.066 26.2594C55.8662 26.659 55.5727 26.9968 55.2968 27.3452C54.7441 28.0429 54.3115 28.8027 54.0267 29.6417C53.9404 29.8959 53.89 30.1579 53.8708 30.4249C53.8648 30.514 53.854 30.6224 53.9581 30.6644C54.0505 30.7019 54.1178 30.626 54.1775 30.567C54.4566 30.2914 54.7264 30.0061 55.0144 29.7395C55.7202 29.0871 56.5342 28.6359 57.506 28.4882C57.8551 28.4352 58.2024 28.432 58.5483 28.5083C58.8517 28.5755 58.9772 28.7204 58.9301 28.9527C58.8811 29.1959 58.6327 29.3623 58.3658 29.3002C58.0633 29.2298 57.765 29.2133 57.4672 29.2988C57.0724 29.4122 56.733 29.5969 56.5953 30.0134C56.5785 30.0637 56.5645 30.1163 56.5589 30.1684C56.5108 30.642 56.7778 30.8546 57.2082 30.6384C58.0549 30.2132 58.8596 29.7231 59.4295 28.9436C59.5042 28.8411 59.5355 28.7246 59.5672 28.6066C59.7632 27.8678 60.0004 27.144 60.3985 26.4816C60.5605 26.2123 60.7504 25.9613 60.9595 25.7258C61.0249 25.6522 61.1066 25.5891 61.1906 25.5361C61.3479 25.4373 61.5192 25.3903 61.6984 25.479C61.8828 25.5704 61.9201 25.7377 61.9257 25.9224C61.9355 26.2594 61.7586 26.5355 61.6242 26.8245C61.2205 27.6936 60.6426 28.4649 60.1679 29.2938C59.9383 29.6952 60.0055 30.1176 60.1712 30.5277C60.2347 30.685 60.3467 30.7152 60.5101 30.6516C60.6814 30.5849 60.8858 30.4966 61.0193 30.6909C61.1509 30.8825 61.0422 31.0754 60.9203 31.2368C60.5679 31.705 59.9602 31.6259 59.6811 31.0796C59.5588 30.84 59.4687 30.5899 59.4332 30.3224C59.4244 30.2571 59.436 30.1693 59.3567 30.1455C59.2764 30.1217 59.2423 30.2086 59.1938 30.252C58.6869 30.7047 58.1562 31.1244 57.5345 31.4206C57.3445 31.5112 57.1475 31.5806 56.9403 31.6186C56.2411 31.7475 55.7234 31.3667 55.6585 30.6727C55.6473 30.5529 55.6571 30.4313 55.6571 30.2543V30.2557Z" fill="#C0C0C0"/>
<path d="M34.103 29.9566C34.1917 28.7327 34.4293 27.5984 35.0235 26.5601C35.268 26.1327 35.5584 25.7367 35.9747 25.4496C36.182 25.3065 36.4069 25.2046 36.6721 25.2896C37.0436 25.4089 37.1645 25.7719 36.9157 26.0696C36.7001 26.3283 36.4377 26.5519 36.2366 26.8198C35.5206 27.774 35.1681 28.8562 35.1355 30.0362C35.1299 30.2373 35.1341 30.4961 35.3773 30.5537C35.5943 30.6049 35.6937 30.3814 35.8006 30.2236C36.1577 29.696 36.5264 29.1757 37.0417 28.7807C37.9893 28.0542 38.8766 28.2138 39.5184 29.2087C39.7419 29.5552 39.9506 29.9141 40.2474 30.2113C40.555 30.5194 40.7791 30.5336 41.1198 30.2671C41.8069 29.7303 42.1462 29.0221 42.2004 28.1736C42.2125 27.9816 42.1934 27.7772 42.458 27.7306C42.6947 27.6889 42.9453 27.8257 43.041 28.0552C43.1764 28.3802 43.104 28.7067 42.9999 29.0176C42.7152 29.8684 42.234 30.5939 41.5054 31.149C41.3266 31.2852 41.1301 31.395 40.9107 31.4562C40.3655 31.608 39.9114 31.4347 39.5076 30.9323C39.3191 30.6977 39.1772 30.4353 39.0222 30.1806C38.9064 29.99 38.7795 29.8085 38.6114 29.6585C38.2478 29.3335 37.8987 29.3326 37.5374 29.6617C37.2392 29.9338 37.0217 30.2689 36.7995 30.5994C36.5857 30.9172 36.3869 31.2464 36.1189 31.5252C35.4613 32.2097 34.5674 32.0026 34.2603 31.1005C34.1277 30.7114 34.1086 30.31 34.1025 29.9562L34.103 29.9566Z" fill="#C0C0C0"/>
<path d="M8.94174 31.8133C8.66262 31.8083 8.34055 31.7703 8.03809 31.6332C7.65815 31.4613 7.42804 31.1632 7.33562 30.7736C7.28147 30.5464 7.16898 30.4138 6.94774 30.3155C6.50338 30.1189 6.19485 29.7866 6.06696 29.3115C6.01095 29.1044 6.03242 28.9033 6.10757 28.7067C6.15004 28.596 6.21352 28.4927 6.35588 28.5051C6.48938 28.5169 6.52765 28.6239 6.54586 28.7327C6.61027 29.1104 6.77924 29.4016 7.17038 29.5433C7.35849 29.6115 7.46164 29.5936 7.54659 29.3957C7.74077 28.9417 8.01055 28.5325 8.40683 28.2193C8.74804 27.9496 9.12425 27.7685 9.58121 27.7996C10.048 27.8316 10.3481 28.1119 10.3756 28.5677C10.4074 29.0962 10.2118 29.5401 9.80479 29.884C9.42111 30.2081 8.98235 30.4285 8.47171 30.4925C8.4129 30.4998 8.33589 30.4833 8.32048 30.5647C8.30741 30.6337 8.36669 30.6744 8.4115 30.7147C8.55947 30.8463 8.74524 30.8669 8.93288 30.8806C9.44585 30.9186 9.91541 30.7778 10.3668 30.5519C11.2382 30.1153 12.0886 29.6412 12.941 29.1703C13.3293 28.9559 13.7354 28.8512 14.1914 28.9133C15.0885 29.0359 15.2734 30.0947 14.8313 30.6685C14.584 30.9899 14.2586 31.2249 13.8409 31.3081C13.7242 31.3314 13.6084 31.3332 13.4964 31.2907C13.3484 31.2345 13.2458 31.1357 13.2271 30.9753C13.2089 30.8194 13.2948 30.7124 13.4236 30.6397C13.6117 30.5332 13.8073 30.439 13.9772 30.3037C14.085 30.2177 14.1835 30.1153 14.1144 29.9736C14.0514 29.8442 13.9114 29.8117 13.7741 29.8227C13.6257 29.8341 13.4913 29.8977 13.3582 29.9617C12.3276 30.4596 11.3577 31.0708 10.2982 31.5166C9.87667 31.6935 9.44725 31.8019 8.94081 31.8128L8.94174 31.8133ZM9.63955 28.8672C9.63955 28.6875 9.5308 28.5942 9.35343 28.6486C8.90207 28.7876 8.62201 29.115 8.41477 29.5109C8.36763 29.6005 8.38676 29.6846 8.51979 29.6672C8.91654 29.616 9.26801 29.4706 9.5294 29.1616C9.59894 29.0798 9.63862 28.9778 9.63955 28.8667V28.8672Z" fill="#C0C0C0"/>
<path d="M45.2959 28.5096C45.5069 28.5064 45.7165 28.511 45.9144 28.596C46.0801 28.6673 46.1972 28.7793 46.2355 28.9599C46.3069 29.2992 46.2047 29.4208 45.8556 29.4126C45.5036 29.4043 45.1559 29.4331 44.8212 29.5483C44.4609 29.6727 44.2037 29.9004 44.1202 30.278C44.0459 30.6141 44.2448 30.7873 44.5724 30.6708C44.7778 30.5976 44.9515 30.4655 45.1302 30.3434C45.6306 30.0019 46.1529 29.7052 46.7732 29.6233C47.2545 29.5598 47.7035 29.6238 48.09 29.9388C48.1198 29.963 48.1525 29.984 48.1843 30.0055C48.5805 30.2712 48.5768 30.2611 48.9829 30.0055C49.8165 29.4811 50.6861 29.0294 51.6654 28.8178C51.8185 28.7848 51.9734 28.772 52.1288 28.7839C52.4229 28.8068 52.5951 29.0011 52.5811 29.2859C52.5671 29.5671 52.3986 29.7038 52.0999 29.7303C51.1034 29.8181 50.2268 30.1962 49.4552 30.8143C49.227 30.9972 49.0123 31.1974 48.743 31.3264C48.3261 31.5252 48.0704 31.4658 47.8533 31.0676C47.5004 30.4207 47.0108 30.4211 46.4876 30.7032C46.032 30.9487 45.5956 31.2276 45.1508 31.4923C44.8086 31.6962 44.432 31.7374 44.0478 31.6898C43.4849 31.6203 43.1358 31.1974 43.126 30.6054C43.1078 29.4962 44.1304 28.5087 45.2969 28.5091L45.2959 28.5096Z" fill="#C0C0C0"/>
<path d="M17.7533 28.5087C17.947 28.5018 18.1482 28.5151 18.3395 28.5914C18.5682 28.6829 18.698 28.8735 18.6933 29.1058C18.6887 29.3385 18.5897 29.4249 18.3479 29.4139C17.9722 29.397 17.5997 29.4244 17.2445 29.5525C16.873 29.6869 16.5934 29.9178 16.5504 30.3324C16.5178 30.6461 16.69 30.7736 16.9943 30.6749C17.189 30.6118 17.3486 30.4892 17.5143 30.3754C18.0263 30.0238 18.5575 29.7152 19.1932 29.6247C19.6861 29.5547 20.137 29.6293 20.5319 29.9429C20.58 29.9813 20.6323 30.0147 20.6841 30.0485C21.0038 30.2552 21.0556 30.2442 21.3707 30.0407C22.2183 29.4926 23.1094 29.0345 24.1115 28.8155C24.2646 28.7821 24.4196 28.7679 24.5745 28.7835C24.8565 28.8118 25.0296 29.0084 25.017 29.2749C25.0039 29.5598 24.8406 29.7042 24.5451 29.728C23.6219 29.8016 22.8004 30.1386 22.0624 30.679C21.7646 30.8971 21.5065 31.1673 21.1662 31.3305C20.7704 31.5202 20.4792 31.458 20.2911 31.0777C19.9732 30.4353 19.4318 30.4156 18.8894 30.7165C18.4301 30.9711 17.9853 31.2514 17.5311 31.5156C17.1862 31.7164 16.8053 31.742 16.4239 31.6789C15.8774 31.5883 15.5735 31.1737 15.56 30.5715C15.5362 29.5182 16.6368 28.4419 17.7523 28.5087H17.7533Z" fill="#C0C0C0"/>
<path d="M41.7093 35.0091C41.4699 35.2029 41.335 35.4713 41.1366 35.6875C40.941 35.9006 40.7651 36.131 40.5774 36.3518C40.4645 36.4853 40.3809 36.4122 40.2988 36.3107C39.9898 35.9289 39.6799 35.5485 39.3676 35.1695C39.3209 35.1128 39.292 35.0324 39.1991 35.0223C39.1351 35.0786 39.1655 35.1512 39.1655 35.2153C39.1636 36.0601 39.1538 36.9055 39.1706 37.7504C39.1762 38.0201 39.0157 37.9689 38.857 37.9776C38.6847 37.9867 38.5746 37.9803 38.5774 37.7467C38.5914 36.5973 38.5881 35.4475 38.5792 34.2981C38.5778 34.1034 38.6282 34.0604 38.8327 34.033C39.2229 33.9804 39.3583 34.2725 39.517 34.4837C39.7765 34.8294 40.0915 35.1298 40.3291 35.4909C40.3865 35.5783 40.4738 35.6011 40.5555 35.501C40.6521 35.383 40.7511 35.2669 40.8491 35.1499C41.1273 34.8175 41.405 34.4842 41.6846 34.1532C41.7635 34.0599 42.171 33.9973 42.2723 34.0576C42.3376 34.0965 42.3283 34.1605 42.3283 34.2204C42.3283 35.4155 42.3269 36.6111 42.3315 37.8062C42.332 37.9392 42.2816 37.9858 42.1546 37.9749C42.1318 37.973 42.108 37.9762 42.0846 37.9767C41.8609 37.981 41.7492 37.8709 41.7495 37.6466C41.7495 36.8168 41.7495 35.987 41.7485 35.1572C41.7485 35.1147 41.7686 35.0671 41.7079 35.0095L41.7093 35.0091Z" fill="#C0C0C0"/>
<path d="M48.5936 34.9748C48.5936 35.9362 48.595 36.8259 48.5913 37.7156C48.5913 37.7988 48.652 37.9241 48.5362 37.958C48.3976 37.9982 48.2426 37.9941 48.0993 37.957C48.0391 37.9415 48.054 37.8688 48.054 37.8162C48.054 36.6133 48.054 35.4105 48.054 34.2076C48.054 34.1395 48.0456 34.048 48.1409 34.0503C48.3028 34.0544 48.476 33.9868 48.617 34.1482C49.157 34.7663 49.7064 35.3771 50.252 35.9911C50.554 36.3313 50.8551 36.6719 51.1524 37.0074C51.257 36.9631 51.2196 36.8941 51.2201 36.8397C51.2215 35.987 51.2313 35.1339 51.2145 34.2817C51.2094 34.0298 51.3405 34.048 51.5156 34.0394C51.7088 34.0298 51.7891 34.0682 51.7867 34.284C51.7755 35.4105 51.7839 36.5375 51.7774 37.6644C51.7769 37.7646 51.8605 37.9355 51.7055 37.9584C51.5296 37.9845 51.326 38.0485 51.1673 37.8601C50.871 37.5085 50.5587 37.1698 50.253 36.8259C49.7624 36.2732 49.2718 35.7205 48.7803 35.1682C48.7365 35.1188 48.6884 35.0731 48.5936 34.9757V34.9748Z" fill="#C0C0C0"/>
<path d="M61.6125 37.9585C61.3735 38.0165 61.2564 37.9351 61.1822 37.7335C61.0879 37.477 60.9548 37.2338 60.8466 36.9819C60.7924 36.8557 60.7187 36.7931 60.5679 36.7963C60.1249 36.8054 59.6815 36.8054 59.2386 36.7972C59.1051 36.7949 59.0425 36.8484 58.9972 36.9595C58.8787 37.2484 58.7555 37.5356 58.6304 37.8222C58.5744 37.9507 58.1169 38.0458 58.0166 37.9525C57.9708 37.91 58.0049 37.8716 58.0226 37.8304C58.5473 36.6129 59.0729 35.3959 59.5928 34.1761C59.653 34.0348 59.752 34.022 59.8869 34.0166C60.0391 34.0101 60.1081 34.0742 60.166 34.2003C60.7163 35.4064 61.2783 36.6075 61.8193 37.8176C61.9504 38.1112 61.6466 37.8958 61.613 37.958L61.6125 37.9585ZM59.8846 34.8953C59.6848 35.3634 59.5158 35.7607 59.345 36.1571C59.3076 36.244 59.303 36.3034 59.4281 36.3021C59.7459 36.2989 60.0638 36.2989 60.3817 36.2984C60.4722 36.2984 60.5138 36.2728 60.4694 36.1763C60.2822 35.7708 60.0983 35.3634 59.885 34.8953H59.8846Z" fill="#C0C0C0"/>
<path d="M46.8474 37.974C46.6789 38.0178 46.5716 37.9324 46.4983 37.7444C46.3937 37.4752 46.2533 37.2191 46.1398 36.953C46.0894 36.8351 46.0157 36.7962 45.8906 36.7976C45.4476 36.8026 45.0042 36.8049 44.5612 36.7962C44.4217 36.7935 44.3484 36.8442 44.3003 36.9658C44.1939 37.2342 44.08 37.5003 43.9689 37.7673C43.898 37.9378 43.4952 38.0645 43.3411 37.9644C43.2753 37.9218 43.3136 37.8747 43.3346 37.8258C43.8555 36.6152 44.3773 35.4055 44.894 34.193C44.9561 34.0471 45.0541 34.0197 45.2026 34.0156C45.3585 34.011 45.4229 34.0828 45.4789 34.2049C46.0091 35.3693 46.5422 36.5324 47.0747 37.6955C47.1597 37.8811 47.0841 37.9738 46.8479 37.9735L46.8474 37.974ZM45.1713 34.9505C44.9953 35.3606 44.8245 35.7579 44.6537 36.1557C44.6149 36.2458 44.6271 36.3006 44.7456 36.2993C45.0565 36.2961 45.3673 36.2924 45.6777 36.2988C45.8257 36.3015 45.8042 36.2321 45.765 36.1447C45.6423 35.8741 45.5228 35.602 45.3925 35.335C45.3309 35.2089 45.3113 35.0575 45.1713 34.9505Z" fill="#C0C0C0"/>
<path d="M55.0466 36.0067C55.0466 35.4283 55.0531 34.85 55.0424 34.2716C55.0391 34.0924 55.0867 34.0321 55.2762 34.0389C55.63 34.0517 55.6291 34.0407 55.6286 34.3877C55.6277 35.3387 55.6319 36.2901 55.623 37.2411C55.6216 37.4057 55.6744 37.4491 55.834 37.4464C56.2998 37.4381 56.7661 37.4496 57.2324 37.4409C57.3911 37.4381 57.4555 37.477 57.4457 37.6439C57.4257 37.9904 57.519 37.9735 57.1111 37.9744C56.5052 37.9758 55.8989 37.9689 55.293 37.9781C55.1082 37.9808 55.0363 37.9415 55.0414 37.7408C55.0564 37.1629 55.0466 36.5846 55.0466 36.0062V36.0067Z" fill="#C0C0C0"/>
<path d="M53.6813 36.0423C53.6813 36.6129 53.6743 37.1834 53.6855 37.7536C53.6888 37.9241 53.6421 37.9959 53.4666 37.9748C53.4129 37.9684 53.3574 37.9671 53.3037 37.9744C53.1412 37.9959 53.0922 37.936 53.0936 37.7723C53.1011 36.601 53.1048 35.4297 53.0918 34.2583C53.089 34.0064 53.2346 34.0444 53.3886 34.0425C53.5487 34.0407 53.6934 34.0165 53.6874 34.2629C53.672 34.8559 53.6822 35.4493 53.6822 36.0428H53.6808L53.6813 36.0423Z" fill="#C0C0C0"/>
<path d="M63.9967 26.3028C63.9967 26.3943 63.9986 26.4857 63.9963 26.5767C63.9944 26.6498 63.951 26.6905 63.8786 26.6882C63.8128 26.6864 63.7872 26.6398 63.7876 26.5785C63.7876 26.525 63.7942 26.4711 63.7862 26.4189C63.7764 26.3549 63.8217 26.2694 63.7465 26.2306C63.6719 26.1922 63.6448 26.2768 63.6047 26.3161C63.5192 26.3988 63.4698 26.3408 63.4175 26.2768C63.3895 26.2425 63.3619 26.194 63.3073 26.2192C63.2555 26.2429 63.2718 26.2973 63.2714 26.3412C63.2704 26.4249 63.2728 26.5086 63.2714 26.5927C63.2704 26.632 63.2583 26.6713 63.2088 26.6727C63.1598 26.6741 63.1426 26.6366 63.1426 26.5963C63.1426 26.3984 63.1281 26.1986 63.1519 26.0034C63.1687 25.8625 63.2812 25.9055 63.3288 25.9823C63.4721 26.2146 63.5948 26.1917 63.7283 25.9782C63.7671 25.9165 63.8301 25.8863 63.9094 25.9115C63.993 25.9384 64.0033 26.0002 63.9995 26.0742C63.9953 26.1501 63.9986 26.2265 63.9986 26.3024H63.9972L63.9967 26.3028Z" fill="#C0C0C0"/>
<path d="M62.3551 25.9531C62.5647 25.8557 62.7617 25.9 62.9535 25.9C62.9787 25.9 63.0156 25.9233 63.003 25.9613C62.9974 25.9787 62.9726 26.0024 62.9572 26.002C62.7061 25.9951 62.7575 26.1725 62.7556 26.317C62.7542 26.408 62.7551 26.4985 62.7523 26.5895C62.7514 26.6288 62.7369 26.6718 62.6921 26.6731C62.6468 26.6745 62.6324 26.6315 62.6305 26.5927C62.6277 26.5323 62.6305 26.4715 62.6291 26.4112C62.6249 26.2182 62.7019 25.9823 62.3551 25.9535V25.9531Z" fill="#C0C0C0"/>
</g>
<defs>
<clipPath id="clip0_636_6862">
<rect width="64" height="38" fill="white"/>
</clipPath>
</defs>
</svg>
