<svg width="60" height="40" viewBox="0 0 60 40" fill="none" xmlns="http://www.w3.org/2000/svg">
<g clip-path="url(#clip0_636_6899)">
<path d="M39.1088 20.159C39.5059 19.5579 39.9031 18.9568 40.2997 18.3553C40.5734 17.9402 40.8472 17.5256 41.121 17.1105C41.2218 16.9702 41.3311 16.8348 41.4208 16.6874C41.5477 16.4794 41.7397 16.31 41.7929 16.0583C41.7568 16.0217 41.5988 15.8473 41.5447 15.7941C40.6963 14.9604 39.699 14.3474 38.627 13.8471C36.8936 13.0385 35.0625 12.5487 33.1902 12.2038C29.4447 11.514 25.6666 11.3761 21.8709 11.5591C20.7443 11.6132 19.6346 11.8223 18.5135 11.9246C17.102 12.0534 15.6981 12.0559 14.3192 11.6554C13.2211 11.3365 12.3015 10.7204 11.4567 9.97298C10.6384 9.2496 9.85768 8.4811 8.94863 7.86601C8.67336 7.68002 8.39006 7.50557 8.10576 7.26595C8.52293 7.26595 8.94011 7.26945 9.35728 7.26544C12.0624 7.23787 14.766 7.28951 17.466 7.45594C21.6007 7.7111 25.7017 8.21441 29.733 9.19596C33.3592 10.0793 36.846 11.321 40.0575 13.256C41.7076 14.2501 43.2259 15.4141 44.5797 16.7892C45.8859 18.1157 47.2572 19.3734 48.6225 20.6377C48.7138 20.7219 48.799 20.8122 48.8873 20.8999C48.8763 20.9169 48.8652 20.934 48.8542 20.951C47.3796 20.0136 45.9039 19.0792 44.4333 18.1357C44.2708 18.0314 44.145 18.0144 43.961 18.0956C42.3559 18.8014 40.7454 19.4942 39.1364 20.191C39.1284 20.1785 39.1194 20.1675 39.1083 20.158L39.1088 20.159Z" fill="#C0C0C0"/>
<path d="M21.8855 17.4735C20.489 19.1844 19.1352 20.8432 17.7819 22.502C17.5332 22.8068 17.5337 22.8093 17.2845 22.5035C15.9874 20.9149 14.6913 19.3263 13.3946 17.7376C13.354 17.688 13.3094 17.6409 13.2352 17.5567C13.2297 17.6775 13.2236 17.7552 13.2226 17.8334C13.1986 19.8597 13.171 21.8864 13.1559 23.9127C13.1544 24.1202 13.1018 24.1874 12.8932 24.1714C12.6445 24.1523 12.3918 24.1543 12.1426 24.1714C11.9596 24.1834 11.9059 24.1358 11.9079 23.9433C11.9185 22.8259 11.913 21.708 11.913 20.5906C11.913 19.1313 11.917 17.6715 11.9084 16.2122C11.9074 16.0257 11.9511 15.9701 12.1406 15.9771C12.5407 15.9926 12.9423 15.9936 13.342 15.9771C13.5325 15.969 13.6453 16.0377 13.7576 16.1826C14.9635 17.7467 16.1754 19.3067 17.3858 20.8673C17.431 20.9254 17.4796 20.9806 17.5378 21.0508C18.3445 20.0747 19.1398 19.1127 19.9355 18.1507C20.4986 17.4695 21.0632 16.7897 21.6232 16.1064C21.6919 16.0222 21.7606 15.9781 21.8739 15.9801C22.241 15.9866 22.6085 15.9896 22.9755 15.9791C23.1285 15.9751 23.151 16.0377 23.1505 16.1706C23.135 18.7728 23.1224 21.3746 23.1149 23.9769C23.1149 24.1308 23.0728 24.1784 22.9184 24.1714C22.6436 24.1588 22.3668 24.1538 22.0925 24.1724C21.8995 24.1854 21.8624 24.1227 21.8634 23.9388C21.8764 21.8955 21.8799 19.8521 21.886 17.8088C21.886 17.7186 21.886 17.6289 21.886 17.473L21.8855 17.4735Z" fill="#C0C0C0"/>
<path d="M10.2909 24.1674C9.87072 24.1674 9.4721 24.1624 9.07398 24.1704C8.95264 24.1729 8.92005 24.0992 8.87743 24.0175C8.61169 23.5097 8.33992 23.0049 8.0812 22.4936C8.01351 22.3592 7.9418 22.3041 7.78236 22.3051C6.06303 22.3136 4.3437 22.3151 2.62437 22.3081C2.44437 22.3071 2.36414 22.3682 2.29344 22.5251C2.07232 23.0169 1.82864 23.4992 1.60551 23.9904C1.54634 24.1203 1.48216 24.1764 1.33174 24.1724C0.898022 24.1609 0.464304 24.1684 0.0290821 24.1684C-0.00501369 24.0782 0.0641806 24.0255 0.0962707 23.9669C1.51124 21.3701 2.93023 18.7759 4.3427 16.1776C4.41991 16.0353 4.49763 15.9716 4.66711 15.9781C5.04216 15.9927 5.41822 15.9876 5.79377 15.9796C5.91812 15.9771 5.98882 16.0147 6.04799 16.1265C7.4419 18.7634 8.83983 21.3987 10.2362 24.0346C10.2548 24.0697 10.2668 24.1083 10.2909 24.1679V24.1674ZM2.9919 21.1435H7.49154C6.71837 19.777 5.96024 18.4365 5.18907 17.074C4.44599 18.45 3.72195 19.7915 2.9924 21.1435H2.9919Z" fill="#C0C0C0"/>
<path d="M41.7934 16.0588C41.7402 16.31 41.5482 16.4799 41.4213 16.688C41.3316 16.8354 41.2218 16.9702 41.1215 17.1111C39.3455 16.6619 37.6994 16.904 36.311 18.1513C34.9672 19.3579 35.0921 21.2057 36.5506 22.3151C37.5886 23.1047 38.7839 23.3543 40.0635 23.239C41.118 23.1438 42.0701 22.7873 42.8679 22.0705C42.9441 22.0023 43.0053 22.0113 43.091 22.0504C43.3708 22.1772 43.6516 22.3031 43.9389 22.4114C44.1089 22.4755 44.0863 22.5292 43.9815 22.643C43.3212 23.3588 42.5194 23.8546 41.5913 24.1248C39.5019 24.7329 37.5289 24.5068 35.7705 23.1623C34.6909 22.3367 34.0792 21.2288 34.1715 19.8382C34.2582 18.5278 34.9537 17.5412 36.0081 16.8053C37.2601 15.9315 38.6641 15.6222 40.1773 15.7405C40.6858 15.7801 41.669 16.0022 41.7934 16.0598V16.0588Z" fill="#C0C0C0"/>
<path d="M25.9704 20.0848C25.9704 18.8005 25.9739 17.5161 25.9664 16.2318C25.9654 16.0453 25.997 15.9611 26.2071 15.9776C26.4643 15.9977 26.7255 15.9977 26.9823 15.9776C27.2004 15.9611 27.237 16.0448 27.2365 16.2443C27.229 18.4044 27.2355 20.564 27.2265 22.7242C27.2255 22.9437 27.2776 22.9974 27.4977 22.9954C29.4667 22.9748 31.4363 22.9713 33.4053 22.9513C33.6199 22.9493 33.6731 23.0079 33.658 23.2119C33.639 23.4691 33.6475 23.7288 33.656 23.9869C33.6605 24.1188 33.6344 24.1724 33.4835 24.1754C31.0637 24.2256 28.6444 24.2361 26.2241 24.2105C26.0928 24.209 25.9684 24.2321 25.9704 24.0125C25.9815 22.7031 25.9759 21.3942 25.9759 20.0848H25.9699H25.9704Z" fill="#C0C0C0"/>
<path d="M6.94701 25.3539C6.94701 25.8913 6.94952 26.4287 6.944 26.9656C6.943 27.0493 7.00918 27.1837 6.8382 27.1932C6.64667 27.2038 6.70934 27.0569 6.70884 26.9646C6.70483 26.3395 6.70383 25.7139 6.70984 25.0888C6.71035 25.008 6.63965 24.8767 6.81664 24.8642C6.95553 24.8546 7.04127 24.8817 7.09493 25.0336C7.31053 25.6427 7.54168 26.2463 7.77985 26.8854C8.0125 26.2548 8.23914 25.6592 8.44973 25.0577C8.50288 24.9053 8.57308 24.8441 8.73303 24.8642C8.92105 24.8877 8.83932 25.0281 8.84033 25.1148C8.84785 25.7399 8.84484 26.3656 8.84384 26.9907C8.84384 27.0854 8.87693 27.2048 8.70996 27.1942C8.55302 27.1847 8.60968 27.0654 8.60918 26.9882C8.60467 26.4408 8.60667 25.8928 8.56856 25.3354C8.38154 25.8437 8.20053 26.3545 8.00247 26.8589C7.95434 26.9807 7.99295 27.1962 7.77483 27.1897C7.5828 27.1837 7.60787 26.9867 7.56174 26.8699C7.36167 26.3656 7.17816 25.8547 6.98863 25.3464L6.94701 25.3544V25.3539Z" fill="#C0C0C0"/>
<path d="M32.385 25.7054C32.4236 25.6337 32.3624 25.4873 32.5309 25.5144C32.6738 25.5375 32.6086 25.6443 32.6086 25.7099C32.6106 26.2263 32.6146 26.7436 32.5955 27.2595C32.5835 27.5908 32.3644 27.8059 32.033 27.8625C31.6308 27.9312 31.3019 27.8074 31.1881 27.5422C31.1645 27.487 31.0978 27.4164 31.1956 27.3783C31.2498 27.3572 31.3129 27.3572 31.3671 27.4304C31.5531 27.6826 31.8234 27.7547 32.0992 27.6434C32.3338 27.5487 32.418 27.3607 32.3845 26.9757C32.2235 27.1517 32.0405 27.2449 31.8083 27.2319C31.4599 27.2123 31.2438 27.0404 31.1395 26.702C31.0813 26.513 31.0793 26.322 31.1074 26.1335C31.1981 25.5214 31.8469 25.2232 32.3845 25.7054H32.385ZM32.4201 26.3486C32.4191 25.9064 32.2265 25.6643 31.8735 25.6613C31.5687 25.6583 31.4057 25.8007 31.331 26.1335C31.2448 26.517 31.3771 26.894 31.6379 27.0068C32.06 27.1898 32.4216 26.8855 32.4206 26.3486H32.4201Z" fill="#C0C0C0"/>
<path d="M1.01084 26.4859C0.662861 26.4859 0.427032 26.6487 0.303351 26.9742C0.285802 27.0208 0.265746 27.0664 0.251205 27.1141C0.219616 27.2163 0.13538 27.2028 0.0661853 27.1882C-0.0626766 27.1612 0.0340952 27.075 0.048636 27.0358C0.299841 26.3596 0.559571 25.6868 0.813785 25.0116C0.849385 24.9173 0.885486 24.8612 1.00482 24.8617C1.12516 24.8622 1.15825 24.9244 1.19285 25.0161C1.44355 25.6838 1.69777 26.3506 1.94797 27.0183C1.96803 27.0714 2.04875 27.1486 1.94998 27.1852C1.86624 27.2163 1.76295 27.2103 1.73888 27.0795C1.73136 27.0394 1.7098 27.0023 1.69526 26.9632C1.5786 26.645 1.35063 26.4859 1.01134 26.4859H1.01084ZM0.567593 26.2764C0.823813 26.2764 1.04744 26.2704 1.27007 26.2789C1.40294 26.2839 1.43102 26.2413 1.38389 26.122C1.26054 25.8082 1.1412 25.4928 1.00131 25.1279C0.849886 25.5289 0.714506 25.8879 0.567593 26.2764Z" fill="#C0C0C0"/>
<path d="M33.9027 26.0377C33.8952 25.3875 34.1444 24.9805 34.6278 24.8441C35.1412 24.6987 35.6837 24.9514 35.7865 25.386C35.8 25.4442 35.8447 25.5274 35.7534 25.5555C35.6727 25.5805 35.6035 25.5655 35.5594 25.4592C35.4125 25.1068 35.2229 24.996 34.8469 25.0145C34.542 25.0296 34.3043 25.2055 34.2036 25.5169C34.0988 25.8407 34.0973 26.1726 34.196 26.4979C34.3043 26.8548 34.5621 27.0498 34.906 27.0554C35.2595 27.0614 35.4726 26.908 35.593 26.5305C35.6235 26.4352 35.6591 26.4102 35.7444 26.4197C35.8828 26.4347 35.8121 26.5355 35.8025 26.5906C35.7449 26.917 35.5438 27.125 35.2304 27.2128C34.5405 27.4063 33.9619 26.9887 33.9037 26.2623C33.8977 26.1881 33.9027 26.1124 33.9027 26.0377Z" fill="#C0C0C0"/>
<path d="M25.2875 26.9898C24.9526 27.2534 24.6191 27.3006 24.3534 27.1442C24.0771 26.9812 23.9227 26.5747 23.9934 26.1691C24.044 25.8784 24.1588 25.6252 24.4647 25.5169C24.7665 25.4102 25.0348 25.4673 25.295 25.742C25.295 25.4698 25.295 25.2422 25.295 25.0146C25.295 24.9364 25.2915 24.8647 25.4063 24.8652C25.5257 24.8662 25.5116 24.9459 25.5116 25.0191C25.5121 25.6778 25.5131 26.3371 25.5101 26.9958C25.5101 27.0685 25.5568 27.1742 25.4234 27.1923C25.281 27.2113 25.294 27.0995 25.2875 26.9903V26.9898ZM25.3211 26.3451C25.3131 26.2849 25.3056 26.1852 25.285 26.0879C25.2263 25.8092 25.0403 25.6603 24.7585 25.6608C24.4752 25.6608 24.2992 25.8062 24.2305 26.0879C24.1859 26.2699 24.1864 26.4504 24.2346 26.6288C24.2867 26.8228 24.3925 26.9702 24.6021 27.0259C25.0142 27.1356 25.299 26.883 25.3216 26.3446L25.3211 26.3451Z" fill="#C0C0C0"/>
<path d="M20.0704 26.4222C20.0704 26.5721 20.0679 26.722 20.0719 26.8714C20.0734 26.924 20.0463 26.9977 20.1255 27.0183C20.2012 27.0378 20.2915 27.0483 20.2418 27.1546C20.1962 27.2534 20.0578 27.2393 20.0267 27.1962C19.8432 26.9375 19.6823 27.1356 19.5023 27.1912C19.2746 27.2619 19.035 27.2674 18.8424 27.0945C18.7045 26.9706 18.6594 26.8067 18.7095 26.6182C18.7672 26.4022 18.9282 26.3114 19.1227 26.2713C19.2847 26.2377 19.4536 26.2377 19.6171 26.2082C19.7274 26.1881 19.8543 26.1716 19.8472 26.0046C19.8402 25.8517 19.8006 25.7259 19.6371 25.6758C19.3624 25.5915 19.1252 25.6773 18.9948 25.9379C18.9452 26.0372 18.8805 26.0312 18.8173 26.0106C18.7376 25.9846 18.7848 25.9144 18.8003 25.8633C18.8855 25.582 19.2049 25.4221 19.5775 25.4717C19.8919 25.5138 20.0533 25.6833 20.0684 25.9981C20.0749 26.1395 20.0694 26.2808 20.0694 26.4227H20.0704V26.4222ZM19.5329 26.3721C19.401 26.3866 19.214 26.3816 19.0545 26.4899C18.876 26.6112 18.861 26.8558 19.0224 26.9751C19.2781 27.1651 19.7565 26.9882 19.8312 26.6759C19.9009 26.3861 19.8698 26.348 19.5324 26.3721H19.5329Z" fill="#C0C0C0"/>
<path d="M13.6799 26.4052C13.53 26.4052 13.3786 26.4172 13.2296 26.4022C13.0411 26.3827 13.0416 26.4899 13.0727 26.6138C13.1299 26.8393 13.2532 27.0103 13.5024 27.0414C13.7371 27.0709 13.9371 27.0098 14.0294 26.7677C14.0685 26.6644 14.1452 26.6363 14.2219 26.6739C14.3272 26.7255 14.236 26.8093 14.2114 26.8634C14.0896 27.1276 13.8629 27.2279 13.5841 27.2329C13.2803 27.2384 13.0431 27.1191 12.9253 26.8328C12.8045 26.5386 12.8009 26.2313 12.9087 25.9305C13.0386 25.567 13.3996 25.3886 13.7747 25.4933C14.1046 25.5856 14.3493 25.9726 14.2971 26.3095C14.2826 26.4042 14.2244 26.4057 14.1547 26.4057C13.9963 26.4052 13.8379 26.4057 13.6794 26.4057L13.6799 26.4052ZM13.5821 26.2192C13.698 26.2192 13.8148 26.2117 13.9301 26.2212C14.0645 26.2328 14.0891 26.1701 14.057 26.0603C13.9978 25.8578 13.891 25.6974 13.6629 25.6663C13.4382 25.6357 13.2537 25.7039 13.1369 25.9094C12.998 26.1541 13.0341 26.2187 13.3089 26.2187C13.4001 26.2187 13.4909 26.2187 13.5821 26.2187V26.2192Z" fill="#C0C0C0"/>
<path d="M26.7085 26.4052C26.5837 26.4052 26.4588 26.4052 26.3335 26.4052C26.0607 26.4057 26.0522 26.4187 26.1374 26.6834C26.2086 26.9055 26.3625 27.0333 26.5917 27.0488C26.8063 27.0634 26.9948 26.9872 27.0725 26.7716C27.1126 26.6608 27.1858 26.6398 27.257 26.6739C27.3433 26.716 27.2841 26.8007 27.257 26.8639C27.1492 27.111 26.9026 27.2433 26.5796 27.2308C26.2718 27.2188 26.0446 27.0669 25.9499 26.7907C25.8556 26.516 25.8536 26.2342 25.9399 25.957C26.0527 25.5931 26.4137 25.3955 26.7887 25.4828C27.1327 25.563 27.3884 25.9495 27.3413 26.3004C27.3288 26.3941 27.2826 26.4057 27.2094 26.4052C27.0429 26.4042 26.876 26.4052 26.7095 26.4052H26.7085ZM26.5902 26.2192C26.7145 26.2192 26.8399 26.2122 26.9637 26.2212C27.0901 26.2302 27.1237 26.1866 27.0946 26.0653C27.0435 25.8532 26.9301 25.7028 26.7065 25.6683C26.4703 25.6317 26.2828 25.7124 26.1695 25.9339C26.0416 26.1846 26.0622 26.2192 26.3405 26.2197C26.4237 26.2197 26.5064 26.2197 26.5897 26.2197L26.5902 26.2192Z" fill="#C0C0C0"/>
<path d="M37.6753 26.3811C37.6603 26.9341 37.399 27.2243 36.9132 27.2273C36.5692 27.2294 36.312 27.0945 36.2177 26.8098C36.0914 26.4278 36.0623 26.0332 36.3441 25.7014C36.5682 25.4377 36.8761 25.4166 37.1904 25.5174C37.5194 25.6227 37.6873 25.9325 37.6753 26.3817V26.3811ZM37.4607 26.3626C37.4622 25.9681 37.3048 25.7149 37.0275 25.6673C36.6976 25.6106 36.4579 25.7676 36.3731 26.0959C36.2714 26.4914 36.4148 26.9095 36.6875 27.0113C36.7031 27.0168 36.7201 27.0178 36.7362 27.0218C37.1679 27.1386 37.4582 26.8739 37.4602 26.3621L37.4607 26.3626Z" fill="#C0C0C0"/>
<path d="M9.2585 26.343C9.25248 25.6718 9.71428 25.3098 10.3049 25.5154C10.4694 25.5725 10.5988 25.6753 10.6725 25.8317C10.8329 26.1736 10.8389 26.524 10.677 26.8644C10.5346 27.1631 10.2202 27.2824 9.82108 27.2153C9.52575 27.1656 9.29761 26.9045 9.26 26.5666C9.25198 26.4929 9.259 26.4172 9.259 26.3425L9.2585 26.343ZM10.5687 26.3485C10.5662 26.2904 10.5662 26.2317 10.5602 26.1736C10.5271 25.8748 10.3415 25.6808 10.0743 25.6627C9.75991 25.6417 9.58191 25.7735 9.49165 26.0853C9.43148 26.2934 9.44251 26.4989 9.51321 26.6984C9.5779 26.8824 9.70425 27.0007 9.90882 27.0348C10.3205 27.103 10.5697 26.8473 10.5692 26.348L10.5687 26.3485Z" fill="#C0C0C0"/>
<path d="M22.2906 26.3281C22.2906 26.1035 22.2891 25.8784 22.2916 25.6538C22.2921 25.6007 22.269 25.5265 22.3573 25.5175C22.4205 25.5109 22.4871 25.4959 22.5022 25.6002C22.5227 25.7435 22.5869 25.6418 22.6275 25.6102C22.773 25.4974 22.9364 25.4528 23.1179 25.4683C23.4258 25.4949 23.6108 25.6703 23.6218 25.9792C23.6349 26.3366 23.6258 26.695 23.6299 27.0529C23.6309 27.1392 23.6178 27.1998 23.5115 27.1968C23.4102 27.1938 23.4173 27.1256 23.4173 27.0575C23.4173 26.7497 23.4228 26.4414 23.4148 26.1336C23.4057 25.7821 23.31 25.6698 23.0387 25.6638C22.7223 25.6568 22.5393 25.8152 22.5227 26.1381C22.5077 26.4288 22.5167 26.7206 22.5122 27.0118C22.5112 27.089 22.5433 27.1908 22.4099 27.1958C22.2595 27.2008 22.2921 27.089 22.2911 27.0033C22.2891 26.7787 22.2906 26.5536 22.2906 26.3291V26.3281Z" fill="#C0C0C0"/>
<path d="M29.6272 25.7024C29.7987 25.5374 29.9937 25.4432 30.2334 25.4688C30.5222 25.4993 30.7042 25.6547 30.7208 25.9415C30.7423 26.3155 30.7313 26.6909 30.7368 27.0659C30.7378 27.1456 30.7158 27.1932 30.6275 27.1947C30.5152 27.1962 30.5172 27.1221 30.5172 27.0423C30.5172 26.7255 30.5232 26.4087 30.5132 26.0924C30.5037 25.7796 30.4169 25.6783 30.1788 25.6638C29.8734 25.6447 29.6859 25.7756 29.6367 26.0548C29.5801 26.3771 29.6232 26.7035 29.6102 27.0278C29.6071 27.0965 29.6397 27.1867 29.5184 27.1942C29.3885 27.2023 29.3976 27.1155 29.3976 27.0288C29.3986 26.5872 29.3956 26.1455 29.4006 25.7039C29.4016 25.6352 29.3464 25.5319 29.4888 25.5134C29.6478 25.4928 29.5741 25.6332 29.6267 25.7024H29.6272Z" fill="#C0C0C0"/>
<path d="M15.1902 26.914C15.3591 26.4638 15.5171 26.0638 15.657 25.6577C15.7041 25.5209 15.7743 25.4948 15.9227 25.5334C15.66 26.2317 15.4023 26.926 15.1365 27.6168C15.0623 27.8098 14.9039 27.8875 14.6968 27.871C14.6281 27.8655 14.585 27.8474 14.5845 27.7712C14.5845 27.694 14.6246 27.686 14.6943 27.677C14.965 27.6414 15.131 27.3381 15.0297 27.0674C14.8387 26.5576 14.6426 26.0497 14.4486 25.5409C14.606 25.4758 14.6707 25.5324 14.7198 25.6693C14.8617 26.0663 15.0172 26.4588 15.1902 26.9135V26.914Z" fill="#C0C0C0"/>
<path d="M21.6117 27.0118C21.4838 27.1292 21.3505 27.2174 21.172 27.2294C20.7428 27.2585 20.5312 27.0715 20.5272 26.6399C20.5241 26.315 20.5256 25.9902 20.5272 25.6653C20.5272 25.5972 20.4991 25.5119 20.6264 25.5129C20.7523 25.514 20.7262 25.5967 20.7262 25.6663C20.7277 25.9746 20.7247 26.2824 20.7277 26.5908C20.7307 26.9056 20.8375 27.0379 21.0937 27.0545C21.375 27.0725 21.6102 26.89 21.6262 26.6108C21.6438 26.3035 21.6318 25.9947 21.6358 25.6869C21.6368 25.6127 21.5992 25.5129 21.7416 25.514C21.8885 25.515 21.8408 25.6207 21.8413 25.6909C21.8449 26.124 21.8459 26.5572 21.8403 26.9903C21.8393 27.0605 21.8965 27.1672 21.7636 27.1918C21.6187 27.2189 21.6578 27.08 21.6112 27.0123L21.6117 27.0118Z" fill="#C0C0C0"/>
<path d="M40.0435 25.7064C40.1989 25.543 40.3774 25.4563 40.6 25.4668C40.9294 25.4828 41.112 25.6438 41.127 25.9711C41.1435 26.328 41.138 26.6865 41.143 27.0439C41.144 27.1246 41.142 27.1963 41.0312 27.1943C40.9199 27.1923 40.9234 27.1181 40.9234 27.0394C40.9239 26.7231 40.9234 26.4072 40.9224 26.0909C40.9219 25.8879 40.8928 25.7024 40.6401 25.6658C40.3378 25.6217 40.1327 25.737 40.0595 26.0042C40.0334 26.0989 40.0224 26.2002 40.0199 26.2985C40.0144 26.523 40.0254 26.7481 40.0144 26.9722C40.0104 27.0509 40.0911 27.1973 39.9096 27.1913C39.7546 27.1858 39.8173 27.0574 39.8163 26.9812C39.8103 26.5652 39.8138 26.1491 39.8138 25.733C39.8138 25.7164 39.8123 25.6994 39.8138 25.6829C39.8213 25.6092 39.7777 25.5104 39.9211 25.5119C40.074 25.5139 39.9818 25.6362 40.0445 25.7054L40.0435 25.7064Z" fill="#C0C0C0"/>
<path d="M39.1389 27.0088C39.0266 27.0855 38.9348 27.1848 38.8 27.2159C38.3447 27.3201 38.0609 27.1151 38.0443 26.6494C38.0323 26.316 38.0408 25.9822 38.0403 25.6483C38.0403 25.5811 38.0318 25.517 38.1356 25.5134C38.2479 25.5099 38.2524 25.5721 38.2519 25.6553C38.2504 25.9721 38.2489 26.2895 38.2524 26.6063C38.2559 26.9071 38.3412 27.0194 38.5783 27.0514C38.8311 27.085 39.0432 26.9552 39.1199 26.7121C39.2046 26.4429 39.1424 26.1651 39.1595 25.8919C39.163 25.8338 39.1505 25.7731 39.1625 25.7175C39.178 25.6443 39.0928 25.5165 39.2603 25.5165C39.4277 25.5165 39.3565 25.6453 39.3575 25.717C39.3641 26.1421 39.3636 26.5677 39.3575 26.9933C39.3565 27.0615 39.4187 27.1698 39.2803 27.1923C39.1304 27.2169 39.18 27.081 39.1384 27.0093L39.1389 27.0088Z" fill="#C0C0C0"/>
<path d="M17.1191 26.0217C17.1191 25.6973 17.1171 25.373 17.1206 25.0487C17.1216 24.9705 17.0724 24.8557 17.2354 24.8637C17.3768 24.8707 17.3367 24.9705 17.3372 25.0426C17.3397 25.6166 17.3457 26.1906 17.3347 26.7641C17.3312 26.9391 17.3813 26.9947 17.5558 26.9852C17.8215 26.9712 18.0883 26.9807 18.3545 26.9822C18.4328 26.9827 18.528 26.9556 18.526 27.0935C18.524 27.2133 18.4443 27.1967 18.3716 27.1967C18.0056 27.1977 17.639 27.1897 17.273 27.2008C17.1216 27.2053 17.1156 27.1331 17.1171 27.0193C17.1216 26.6864 17.1186 26.3541 17.1186 26.0212L17.1191 26.0217Z" fill="#C0C0C0"/>
<path d="M41.5041 26.3651C41.5096 25.6809 41.9794 25.3019 42.5319 25.5219C42.7115 25.5931 42.8353 25.721 42.8874 25.912C42.902 25.9666 42.9426 26.0288 42.8564 26.0538C42.7902 26.0729 42.7225 26.0714 42.6989 25.9826C42.6924 25.9591 42.6814 25.936 42.6703 25.914C42.5791 25.729 42.4277 25.6528 42.2246 25.6613C41.8906 25.6753 41.6991 25.9546 41.7157 26.4103C41.7302 26.8043 41.9513 27.0629 42.2677 27.0474C42.4783 27.0369 42.6347 26.9341 42.6964 26.7276C42.727 26.6258 42.7822 26.5807 42.8719 26.6153C42.9747 26.6549 42.912 26.7416 42.8915 26.8033C42.7897 27.1071 42.5174 27.2539 42.1303 27.2209C41.8109 27.1933 41.5697 26.9502 41.5191 26.5987C41.5071 26.5165 41.5086 26.4328 41.5046 26.3661L41.5041 26.3651Z" fill="#C0C0C0"/>
<path d="M11.385 25.7039C11.6111 25.4663 11.8789 25.4041 12.1792 25.5225C12.3552 25.5916 12.4615 25.7225 12.463 25.921C12.466 26.2955 12.468 26.6699 12.4705 27.0444C12.4705 27.1191 12.4826 27.1998 12.3627 27.1928C12.2444 27.1858 12.2664 27.1021 12.2659 27.0304C12.2649 26.7226 12.2649 26.4143 12.2649 26.1065C12.2649 25.905 12.2419 25.716 11.9962 25.6673C11.7044 25.6097 11.4873 25.725 11.3995 25.9852C11.3178 26.2283 11.3744 26.4804 11.3609 26.7281C11.3544 26.8524 11.3584 26.9777 11.3599 27.1026C11.3609 27.1863 11.3068 27.1913 11.2436 27.1928C11.1754 27.1943 11.1593 27.1547 11.1593 27.0986C11.1593 26.5993 11.1598 26.1 11.1593 25.6007C11.1593 25.5375 11.1874 25.522 11.2481 25.5144C11.405 25.4949 11.3318 25.6368 11.385 25.7049V25.7039Z" fill="#C0C0C0"/>
<path d="M2.4564 25.7164C2.63791 25.5204 2.83295 25.4467 3.0631 25.4703C3.37748 25.5024 3.54245 25.6783 3.54646 25.9937C3.55047 26.327 3.55197 26.6604 3.54646 26.9938C3.54495 27.068 3.60813 27.1993 3.44317 27.1903C3.28573 27.1818 3.35291 27.0549 3.35091 26.9797C3.34339 26.6965 3.3494 26.4133 3.3474 26.1295C3.34489 25.7931 3.25564 25.6753 2.99842 25.6618C2.68253 25.6453 2.46793 25.8072 2.44988 26.1075C2.43183 26.4062 2.44587 26.7075 2.44135 27.0073C2.44035 27.081 2.48297 27.1863 2.34358 27.1918C2.19917 27.1973 2.24129 27.089 2.24079 27.0163C2.23778 26.5747 2.23728 26.133 2.24179 25.6914C2.2423 25.6307 2.19065 25.535 2.314 25.5154C2.46542 25.4914 2.43183 25.6107 2.4569 25.7164H2.4564Z" fill="#C0C0C0"/>
<path d="M4.05288 26.3867C4.05288 26.2453 4.0594 26.1029 4.05088 25.9621C4.04335 25.8407 4.12709 25.6668 3.87939 25.6658C3.81672 25.6658 3.81421 25.5239 3.8809 25.5264C4.14013 25.5359 4.02781 25.3515 4.05288 25.2377C4.06993 25.1605 3.99672 25.0361 4.15066 25.0271C4.31061 25.0176 4.25695 25.1439 4.25996 25.2221C4.26548 25.3825 4.21032 25.5796 4.49462 25.5179C4.53724 25.5084 4.57485 25.5314 4.57685 25.5856C4.57986 25.6658 4.52922 25.6888 4.46404 25.6783C4.26147 25.6457 4.25645 25.766 4.25996 25.9169C4.26748 26.2247 4.26147 26.5335 4.26297 26.8413C4.26347 26.9767 4.28002 27.104 4.47055 27.0544C4.53022 27.0389 4.57084 27.0479 4.57585 27.1145C4.57886 27.1577 4.5598 27.1912 4.51568 27.2128C4.3081 27.3141 4.07344 27.1928 4.05689 26.9617C4.04335 26.7712 4.05388 26.5787 4.05388 26.3872H4.05188L4.05288 26.3867Z" fill="#C0C0C0"/>
<path d="M43.9745 26.0172C43.9745 25.6838 43.9745 25.3499 43.9745 25.0166C43.9745 24.9414 43.963 24.8657 44.0813 24.8642C44.2031 24.8627 44.1866 24.9429 44.1866 25.0156C44.1871 25.6908 44.1866 26.3666 44.1866 27.0418C44.1866 27.117 44.1991 27.1982 44.0818 27.1972C43.9695 27.1962 43.973 27.1215 43.9735 27.0428C43.9745 26.7009 43.9735 26.359 43.9735 26.0172H43.9745Z" fill="#C0C0C0"/>
<path d="M27.9184 25.7215C28.0267 25.5786 28.1526 25.4903 28.316 25.4708C28.3747 25.4638 28.4379 25.4608 28.4374 25.5495C28.4374 25.6067 28.4499 25.6708 28.3647 25.6808C27.9219 25.7335 27.8998 26.0603 27.8973 26.3987C27.8958 26.6063 27.8993 26.8138 27.8958 27.0218C27.8948 27.0965 27.9304 27.2018 27.788 27.1928C27.6501 27.1838 27.6938 27.079 27.6933 27.0058C27.6903 26.5742 27.6888 26.142 27.6948 25.7104C27.6958 25.6437 27.6336 25.5395 27.773 25.5149C27.946 25.4838 27.8627 25.6442 27.9179 25.722L27.9184 25.7215Z" fill="#C0C0C0"/>
<path d="M4.91129 26.3471C4.91129 26.1225 4.91129 25.8984 4.91129 25.6738C4.91129 25.5891 4.90076 25.5059 5.03263 25.5094C5.14745 25.5129 5.14144 25.5836 5.14144 25.6603C5.14144 26.1175 5.14094 26.5747 5.14144 27.0313C5.14144 27.1181 5.14645 27.2048 5.0206 27.2003C4.89123 27.1958 4.91229 27.1 4.91179 27.0193C4.91079 26.7947 4.91179 26.5706 4.91179 26.3461L4.91129 26.3471Z" fill="#C0C0C0"/>
<path d="M43.5087 26.3696C43.5087 26.5942 43.5087 26.8182 43.5087 27.0428C43.5087 27.1205 43.5117 27.1967 43.4024 27.2017C43.2775 27.2068 43.2785 27.1235 43.2785 27.0353C43.2795 26.5781 43.2785 26.1209 43.279 25.6642C43.279 25.589 43.2685 25.5154 43.3853 25.5108C43.5152 25.5058 43.5097 25.585 43.5092 25.6723C43.5077 25.9049 43.5092 26.1375 43.5092 26.3706L43.5087 26.3696Z" fill="#C0C0C0"/>
<path d="M28.7397 26.3169C28.7397 26.0918 28.7397 25.8673 28.7397 25.6422C28.7397 25.574 28.7327 25.5118 28.837 25.5123C28.9358 25.5123 28.9418 25.5635 28.9413 25.6382C28.9398 26.1129 28.9403 26.5876 28.9413 27.0624C28.9413 27.1351 28.9368 27.1927 28.8405 27.1962C28.7392 27.1997 28.7392 27.1371 28.7392 27.0669C28.7397 26.8172 28.7392 26.5671 28.7392 26.3174L28.7397 26.3169Z" fill="#C0C0C0"/>
<path d="M5.91611 26.2473C6.00737 26.2473 6.09913 26.2473 6.19038 26.2473C6.25557 26.2473 6.3032 26.2608 6.30169 26.3426C6.30069 26.4087 6.28766 26.4584 6.20893 26.4584C6.00135 26.4584 5.79377 26.4584 5.58568 26.4579C5.50195 26.4579 5.50095 26.3987 5.50044 26.337C5.49994 26.2729 5.53253 26.2488 5.5917 26.2488C5.6995 26.2488 5.80781 26.2488 5.91561 26.2488V26.2478L5.91611 26.2473Z" fill="#C0C0C0"/>
<path d="M5.13993 25.0146C5.13993 25.0938 5.15347 25.1675 5.03664 25.172C4.9128 25.1771 4.90578 25.1074 4.91079 25.0166C4.9148 24.9435 4.89976 24.8668 5.01508 24.8617C5.13943 24.8562 5.14495 24.9304 5.13993 25.0146Z" fill="#C0C0C0"/>
<path d="M43.5087 25.0347C43.5162 25.1104 43.5062 25.17 43.3974 25.172C43.267 25.1745 43.28 25.0918 43.2795 25.0086C43.279 24.9294 43.2826 24.8627 43.3924 24.8617C43.5217 24.8602 43.5102 24.9449 43.5092 25.0347H43.5087Z" fill="#C0C0C0"/>
<path d="M28.7402 25.0171C28.7402 24.9374 28.7237 24.8587 28.8465 24.8652C28.9709 24.8718 28.9358 24.958 28.9408 25.0252C28.9463 25.1024 28.9513 25.1725 28.8325 25.169C28.7021 25.165 28.7512 25.0743 28.7402 25.0171Z" fill="#C0C0C0"/>
<path d="M39.1369 20.192C39.1143 20.2056 39.0913 20.2171 39.0742 20.1865C39.0732 20.1845 39.0968 20.1685 39.1088 20.1584C39.1199 20.168 39.1289 20.1795 39.1369 20.1915V20.192Z" fill="#C0C0C0"/>
<path d="M48.9384 20.951C48.961 20.9591 48.9811 20.9736 48.961 20.9962C48.955 21.0032 48.9244 20.9886 48.9048 20.9841C48.9159 20.9731 48.9274 20.9621 48.9384 20.951Z" fill="#C0C0C0"/>
<path d="M48.8878 20.9009L48.9384 20.951C48.9274 20.962 48.9159 20.9731 48.9048 20.9841C48.8883 20.9736 48.8712 20.963 48.8547 20.952C48.8657 20.935 48.8768 20.9179 48.8878 20.9009Z" fill="#C0C0C0"/>
<path d="M41.5482 15.9906C41.5482 15.9906 41.7076 16.0142 41.7929 16.0588C41.8781 16.1034 41.2694 16.2132 41.2694 16.2132L41.5482 15.9911V15.9906Z" fill="#C0C0C0"/>
<path d="M41.47 16.6137L41.7934 16.0582H41.8957C41.8957 16.0582 41.9623 15.984 41.9217 16.1695C41.8811 16.355 41.8019 16.5039 41.8019 16.5039L41.5672 16.6413L41.4705 16.6132L41.47 16.6137Z" fill="#C0C0C0"/>
<path d="M40.8347 17.5451L41.7934 16.0587L42.4597 16.8016L41.2398 17.4754L40.8347 17.5451Z" fill="#C0C0C0"/>
<path d="M58.6131 24.3864C57.7211 23.3096 56.6787 22.3837 55.6593 21.4347C54.3862 20.2506 53.1448 19.033 52.2437 17.531C51.101 15.6261 49.671 13.9623 48.0645 12.4453C43.7529 8.37324 38.8842 5.23909 33.4229 3.10053C33.4123 3.09602 33.4023 3.09151 33.3918 3.0875C32.0886 2.53807 30.7113 2.08288 29.3013 1.7064C27.2952 1.1294 25.2619 0.695777 23.1686 0.522326C23.1034 0.516812 23.0387 0.511799 22.9735 0.506285C19.5785 0.0831846 16.3509 -0.0150709 13.8639 0.00147211H13.8619C12.4575 0.0109969 11.2892 0.0566155 10.4609 0.101231L3.07764 0.318797C2.22023 0.330327 1.36283 0.341857 0.504917 0.353387C0.506923 0.371935 0.504917 0.382964 0.50943 0.386473C0.535503 0.406525 0.561576 0.42758 0.590658 0.442619C1.48316 0.892288 2.11043 1.59211 2.5281 2.49094C2.70008 2.8604 2.87056 3.23137 3.05558 3.59431C3.43164 4.33123 4.03132 4.77889 4.8411 4.95084C5.26779 5.04158 5.70151 5.06012 6.13373 5.08569C8.07618 5.20099 10.0206 5.19096 11.9651 5.18996C15.0112 5.18896 18.0572 5.14635 21.1008 5.33534C23.1455 5.46217 25.1642 5.74891 27.1563 6.21713C31.9532 7.34557 36.5296 9.06403 40.9139 11.3134C43.2921 12.5336 45.409 14.0791 47.2327 16.0316C48.0184 16.8728 48.8191 17.7005 49.6163 18.5306C51.0434 20.0165 52.5882 21.354 54.3908 22.3787C55.6307 23.084 56.8221 23.867 57.9192 24.7849C58.6302 25.3795 59.3186 25.9991 59.991 26.6628C59.995 26.5986 59.9975 26.5575 60 26.5164C59.6054 25.7619 59.1576 25.0436 58.6131 24.3859V24.3864Z" fill="#C0C0C0"/>
<path d="M45.9861 27.6514C46.0102 27.6268 46.0343 27.6023 46.0583 27.5772L46.9489 26.6628L44.7602 28.4415C44.0302 29.0054 43.28 29.5428 42.4913 30.0281C40.3313 31.358 38.0489 31.8333 35.5498 31.1731C32.4772 30.361 29.3745 29.6887 26.189 29.4962C24.3093 29.3824 22.437 29.4586 20.5793 29.7925C18.0733 30.2426 15.7121 31.1109 13.4463 32.2549C10.5687 33.7072 7.91974 35.5149 5.35504 37.4534C4.76488 37.8996 4.18225 38.3557 3.55148 38.8415C4.72226 39.1428 5.82235 39.4446 6.93197 39.7063C8.07468 39.976 9.23193 40.1138 10.4027 39.8787C10.6534 39.8286 10.8936 39.7724 11.1032 39.5859C13.1765 37.7431 15.3652 36.0603 17.7433 34.616C20.6284 32.864 23.7377 32.0955 27.0981 32.2343C29.6262 32.3386 32.1282 32.7206 34.6488 32.8955C35.7068 32.9687 36.7642 33.0008 37.8202 32.8464C39.3871 32.6168 40.7941 31.9982 42.0862 31.1044C43.4726 30.1459 44.68 28.9864 45.8518 27.7878L45.9856 27.6504L45.9861 27.6514Z" fill="#C0C0C0"/>
</g>
<defs>
<clipPath id="clip0_636_6899">
<rect width="60" height="40" fill="white"/>
</clipPath>
</defs>
</svg>
