<svg width="53" height="40" viewBox="0 0 53 40" fill="none" xmlns="http://www.w3.org/2000/svg">
<path d="M27.8748 40C27.4467 39.664 27.0173 39.3292 26.5906 38.9915C26.3179 38.7757 26.0483 38.556 25.7522 38.3177C25.7079 38.4666 25.7371 38.586 25.7385 38.7028C25.7411 38.9411 25.7482 39.179 25.7548 39.4174C25.7646 39.7864 25.7721 39.7964 26.1709 39.9275H25.1324C25.4897 39.8997 25.4228 39.6288 25.4295 39.4117C25.4467 38.8777 25.4525 38.3437 25.4644 37.8097C25.4658 37.7463 25.445 37.6595 25.5065 37.6287C25.5853 37.5887 25.6358 37.676 25.6893 37.7185C26.302 38.2035 26.9129 38.6906 27.5246 39.1768C27.5809 39.2216 27.6388 39.2628 27.7212 39.3245C27.7212 39.0948 27.7238 38.8912 27.7203 38.688C27.7172 38.5074 27.7013 38.3272 27.7022 38.147C27.703 37.9182 27.715 37.6899 27.3786 37.6764H28.3024C27.9704 37.729 28.0377 37.9894 28.024 38.2052C27.9863 38.8026 28.0306 39.403 27.9629 40H27.8744H27.8748Z" fill="#C0C0C0"/>
<path d="M19.5915 10.8247C17.6265 10.8182 16.0625 9.28692 16.0692 7.37579C16.0758 5.45902 17.6468 3.92473 19.5986 3.92821C21.5596 3.93168 23.1116 5.47508 23.1046 7.4153C23.0975 9.30732 21.5278 10.8312 19.5919 10.8251L19.5915 10.8247Z" fill="#C0C0C0"/>
<path d="M33.6534 11.7898C35.6194 11.7972 37.1767 13.341 37.1669 15.273C37.1576 17.1611 35.5724 18.7071 33.6583 18.6958C31.6738 18.6837 30.1227 17.1476 30.1307 15.2022C30.1382 13.3267 31.7322 11.7828 33.6539 11.7902L33.6534 11.7898Z" fill="#C0C0C0"/>
<path d="M26.6132 22.6192C24.6132 22.6001 23.0767 21.0598 23.0988 19.0965C23.12 17.2271 24.7278 15.7037 26.6597 15.7223C28.618 15.7414 30.1537 17.2961 30.1351 19.2398C30.1169 21.114 28.5291 22.6375 26.6127 22.6192H26.6132Z" fill="#C0C0C0"/>
<path d="M30.1364 3.45932C30.1329 5.37045 28.5499 6.91212 26.603 6.90083C24.6614 6.88954 23.0948 5.34527 23.0992 3.4476C23.1037 1.50782 24.6809 -0.00562822 26.6924 1.57339e-05C28.5906 0.00565968 30.1395 1.56165 30.1364 3.45932Z" fill="#C0C0C0"/>
<path d="M33.6561 10.8247C31.7097 10.8282 30.132 9.29387 30.1302 7.39533C30.128 5.47465 31.6951 3.92907 33.645 3.92821C35.6034 3.92734 37.1612 5.45641 37.1665 7.38491C37.1718 9.29039 35.6096 10.8212 33.6561 10.8251V10.8247Z" fill="#C0C0C0"/>
<path d="M26.6229 7.86551C28.5702 7.8616 30.1324 9.39068 30.1355 11.3035C30.1386 13.2351 28.5738 14.7637 26.5946 14.7629C24.6743 14.762 23.1006 13.2116 23.0997 11.3196C23.0988 9.4011 24.661 7.86898 26.6229 7.86551Z" fill="#C0C0C0"/>
<path d="M23.1041 15.2543C23.105 17.1576 21.5331 18.6967 19.5893 18.6963C17.6486 18.6954 16.0705 17.1524 16.0678 15.2534C16.0656 13.3401 17.6437 11.7876 19.5897 11.7894C21.5446 11.7911 23.1032 13.3276 23.1041 15.2543Z" fill="#C0C0C0"/>
<path d="M35.8044 26.089C36.784 26.0877 37.7623 26.0542 38.7411 26.1632C40.5481 26.3638 41.8885 27.5021 42.1962 29.1441C42.5609 31.0912 41.7176 33.5971 38.6641 34.1042C37.8487 34.2397 37.0328 34.2132 36.2183 34.1368C35.4379 34.0634 34.6583 34.0834 33.8774 34.1008C33.7716 34.1029 33.5928 34.1576 33.5932 33.9948C33.5932 33.8746 33.7672 33.9011 33.8704 33.8937C34.2847 33.8646 34.3604 33.8021 34.429 33.4C34.4874 33.0571 34.4994 32.7093 34.5007 32.3637C34.5078 30.7161 34.506 29.0685 34.5043 27.4209C34.5043 27.2264 34.4879 27.0311 34.4711 26.837C34.4401 26.481 34.2922 26.3356 33.9314 26.2995C33.8071 26.2869 33.6818 26.2809 33.5574 26.2678C33.495 26.2613 33.4069 26.2687 33.4171 26.1727C33.4259 26.0911 33.5052 26.0864 33.572 26.0833C33.653 26.0794 33.734 26.0807 33.815 26.0807C34.4781 26.079 35.1413 26.1237 35.8044 26.0898V26.089ZM35.8779 30.3228C35.8934 30.8872 35.85 31.8914 35.9186 32.8947C35.9412 33.226 36.0966 33.4343 36.41 33.5372C36.5211 33.5737 36.6349 33.6063 36.7499 33.628C37.2927 33.7296 37.8363 33.6979 38.3777 33.6206C39.5702 33.45 40.406 32.6985 40.684 31.5558C40.7681 31.2102 40.7951 30.8572 40.8062 30.503C40.8358 29.5274 40.6424 28.6096 39.9668 27.8607C38.9562 26.7406 37.6278 26.5018 36.1842 26.6247C35.954 26.6442 35.8735 26.7549 35.8752 26.9794C35.8836 27.9476 35.8788 28.9153 35.8788 30.3228H35.8779Z" fill="#C0C0C0"/>
<path d="M4.26041 34.2484C2.79516 34.1876 1.43306 33.5481 0.553021 32.1028C-0.392971 30.549 -0.0994786 28.584 1.23872 27.2395C3.001 25.469 6.04482 25.3813 7.83543 27.0497C9.59462 28.6886 9.58222 31.34 7.80578 32.9663C6.86908 33.8238 5.75354 34.2375 4.26041 34.2484ZM7.57381 30.3384C7.56939 29.8921 7.53442 29.4827 7.44057 29.0798C7.1037 27.6363 5.98595 26.3256 4.12583 26.4259C3.09883 26.4814 2.32903 26.939 1.93018 27.8746C1.43615 29.0338 1.44279 30.2355 1.85448 31.4112C2.23518 32.4974 2.95674 33.2963 4.13557 33.6063C5.67475 34.0109 6.92441 33.3184 7.37284 31.8245C7.52202 31.3274 7.55611 30.8177 7.57426 30.3384H7.57381Z" fill="#C0C0C0"/>
<path d="M14.5627 30.0501C14.5804 31.2158 14.5207 32.319 14.6132 33.4205C14.638 33.7157 14.792 33.8455 15.1037 33.8802C15.2498 33.8967 15.3972 33.9024 15.5437 33.9149C15.5981 33.9197 15.6513 33.9397 15.6455 34.0039C15.6406 34.0578 15.603 34.0956 15.5428 34.0999C15.499 34.1029 15.4543 34.1034 15.4105 34.1029C14.4605 34.0938 13.5101 34.0769 12.5601 34.1029C12.5158 34.1042 12.4715 34.1021 12.4277 34.0999C12.3613 34.0964 12.3113 34.0669 12.3104 33.997C12.3095 33.9314 12.3662 33.918 12.4184 33.9123C12.5061 33.9028 12.5942 33.8971 12.6823 33.8911C12.9616 33.8715 13.0572 33.7951 13.1302 33.5294C13.2002 33.2759 13.2033 33.0145 13.2086 32.7553C13.2471 30.8698 13.2427 28.9843 13.2148 27.0992C13.2148 27.0775 13.2135 27.0558 13.2126 27.0341C13.1834 26.4424 13.0581 26.3234 12.4578 26.2882C12.3489 26.2817 12.1515 26.3477 12.1568 26.1732C12.1617 26.0208 12.3494 26.0864 12.4538 26.0872C13.3525 26.0933 14.2507 26.1211 15.1493 26.0842C15.2152 26.0816 15.2821 26.0855 15.3476 26.0933C15.395 26.0985 15.4286 26.1293 15.433 26.178C15.4379 26.2292 15.4047 26.2604 15.3569 26.2678C15.2626 26.2817 15.167 26.29 15.0723 26.3008C14.792 26.3316 14.6375 26.4532 14.6114 26.7124C14.5154 27.668 14.584 28.6257 14.5649 29.5734C14.6362 29.5995 14.6592 29.5635 14.6818 29.54C15.4937 28.6921 16.352 27.8876 17.1152 26.9955C17.2046 26.8913 17.2883 26.778 17.3511 26.6573C17.4335 26.4992 17.4459 26.3464 17.2192 26.2843C17.1568 26.2674 17.1139 26.2361 17.1285 26.1615C17.1413 26.0955 17.1913 26.0894 17.2444 26.0872C17.2958 26.0851 17.3476 26.0807 17.3989 26.0837C18.128 26.1246 18.8567 26.102 19.5857 26.0837C19.6517 26.082 19.7185 26.0837 19.7836 26.0942C19.831 26.1015 19.8571 26.1432 19.8571 26.1892C19.8571 26.2283 19.8292 26.2561 19.7916 26.2674C19.7566 26.2778 19.7199 26.2861 19.6836 26.2874C19.0297 26.306 18.5185 26.6264 18.0714 27.051C17.2723 27.8099 16.491 28.5871 15.6964 29.3507C15.592 29.4515 15.6012 29.5144 15.6889 29.6125C16.7925 30.8451 17.8934 32.0798 19.1395 33.1791C19.5849 33.5715 20.0935 33.8542 20.7079 33.9106C20.7664 33.9158 20.8562 33.9076 20.8469 34.0079C20.8394 34.093 20.7695 34.1029 20.6995 34.1025C20.1028 34.0995 19.5056 34.1094 18.9093 34.0886C18.456 34.073 18.082 33.8537 17.7495 33.5637C17.0368 32.9416 16.4445 32.2105 15.8182 31.5102C15.4056 31.0496 15.0112 30.5733 14.5632 30.051L14.5627 30.0501Z" fill="#C0C0C0"/>
<path d="M45.5051 34.1029C45.1076 34.1029 44.7096 34.1038 44.3121 34.1025C44.2258 34.1025 44.1138 34.1177 44.112 33.9931C44.1103 33.8885 44.224 33.9019 44.2833 33.905C44.9527 33.9397 45.2462 33.5264 45.4653 32.9932C46.3768 30.7734 47.2971 28.5571 48.2152 26.3399C48.2594 26.2335 48.3037 26.1241 48.3679 26.029C48.452 25.9044 48.5697 25.901 48.6547 26.0234C48.7322 26.1354 48.7875 26.2639 48.8402 26.3898C49.6955 28.4377 50.5481 30.4865 51.4024 32.5348C51.5277 32.8352 51.6609 33.1317 51.8438 33.4048C52.0523 33.7157 52.3285 33.9032 52.7211 33.895C52.78 33.8937 52.8389 33.9024 52.8973 33.9071C52.9518 33.9115 52.9978 33.9219 53 33.9918C53.0027 34.0717 52.9549 34.0895 52.8889 34.0921C52.8225 34.0947 52.7566 34.1008 52.6902 34.1003C51.9606 34.0977 51.2315 34.0943 50.502 34.0895C50.4361 34.0895 50.3692 34.0821 50.3046 34.0704C50.2515 34.0608 50.1762 34.0786 50.162 33.9992C50.1479 33.918 50.2187 33.9097 50.2723 33.8911C50.4122 33.8429 50.4201 33.7435 50.375 33.6288C50.0996 32.9294 49.8212 32.2313 49.5481 31.5315C49.5095 31.4325 49.4431 31.4043 49.3453 31.4047C48.5937 31.4077 47.8424 31.4112 47.0908 31.4095C46.9938 31.4095 46.9403 31.4451 46.9075 31.5284C46.6698 32.1336 46.3829 32.7206 46.209 33.3484C46.1005 33.7396 46.2227 33.8867 46.6331 33.9015C46.6844 33.9032 46.7371 33.8976 46.7876 33.9058C46.8442 33.9154 46.9376 33.8867 46.9257 33.9944C46.9173 34.0704 46.865 34.1034 46.7862 34.1016C46.4918 34.0943 46.197 34.0882 45.9026 34.083C45.7703 34.0808 45.6379 34.083 45.5051 34.083V34.1029ZM48.224 28.0969C47.8787 29.0017 47.552 29.8587 47.224 30.7148C47.1722 30.8498 47.2484 30.8559 47.352 30.8555C47.9341 30.8529 48.5162 30.8481 49.0983 30.8564C49.2687 30.8585 49.2541 30.7938 49.2112 30.6784C48.9943 30.0962 48.7849 29.5109 48.5644 28.93C48.4648 28.6678 48.3883 28.3952 48.224 28.0969Z" fill="#C0C0C0"/>
<path d="M23.9474 34.0686C23.4999 34.1038 23.0877 34.1081 22.6752 34.1012C22.5937 34.0999 22.4923 34.1047 22.4941 33.9953C22.4959 33.898 22.599 33.9002 22.6667 33.9037C23.3077 33.9362 23.6176 33.5585 23.8332 33.0341C24.7478 30.8082 25.6703 28.5853 26.5902 26.3612C26.6234 26.2809 26.653 26.1988 26.6933 26.1224C26.7367 26.0403 26.7779 25.9448 26.8921 25.94C27.0209 25.9344 27.0621 26.0421 27.1085 26.1285C27.1634 26.2301 27.2068 26.3382 27.2511 26.445C28.1072 28.4998 28.9624 30.5551 29.819 32.6099C29.9385 32.8969 30.0727 33.1769 30.2506 33.4361C30.4551 33.7343 30.7283 33.898 31.0997 33.8945C31.1656 33.8941 31.232 33.9011 31.298 33.9076C31.3529 33.9128 31.4029 33.9336 31.4038 33.9957C31.4047 34.0474 31.3573 34.0673 31.3148 34.0782C31.2657 34.0908 31.2139 34.1012 31.163 34.1012C30.3896 34.0977 29.6158 34.093 28.8425 34.0864C28.7765 34.086 28.7106 34.0734 28.6451 34.0634C28.6048 34.0574 28.5499 34.0708 28.5392 34.0118C28.5277 33.9488 28.5738 33.9128 28.6229 33.9011C28.8265 33.8524 28.8018 33.7252 28.7455 33.5833C28.479 32.9116 28.2108 32.2409 27.9487 31.5675C27.9022 31.4481 27.8367 31.4047 27.7048 31.4056C26.9753 31.4108 26.2462 31.4064 25.5167 31.406C25.4295 31.406 25.3409 31.393 25.2984 31.5045C25.0607 32.1323 24.7553 32.7358 24.5875 33.3883C24.4963 33.7439 24.6189 33.8889 24.9926 33.8993C25.0439 33.9006 25.0966 33.8963 25.147 33.9037C25.2121 33.9132 25.3104 33.8824 25.3064 33.9987C25.3029 34.0995 25.225 34.1047 25.1475 34.1029C24.8531 34.0969 24.5583 34.0908 24.2639 34.083C24.1462 34.0799 24.0284 34.073 23.9465 34.0695L23.9474 34.0686ZM26.6632 28.1655C26.6389 28.1612 26.6141 28.1564 26.5897 28.152C26.2489 29.0421 25.9084 29.9321 25.5609 30.8394H27.6601C27.3223 29.9338 26.993 29.0494 26.6632 28.1655Z" fill="#C0C0C0"/>
<path d="M19.5362 39.3596C19.8766 38.81 20.2037 38.2808 20.5326 37.7528C20.5694 37.6938 20.5906 37.5957 20.6747 37.6039C20.7814 37.6143 20.7597 37.7264 20.7739 37.7963C20.8792 38.3272 20.9828 38.8582 21.0771 39.3909C21.1267 39.6709 21.1772 39.9353 21.5822 39.9101C21.2639 39.9661 20.9642 39.9622 20.6641 39.9145C20.6132 39.9062 20.626 39.8667 20.6269 39.8302C20.6336 39.3726 20.4751 38.9394 20.4352 38.4879C20.3308 38.4805 20.321 38.5612 20.2914 38.6085C20.0426 39.0006 19.8004 39.3965 19.5525 39.789C19.4375 39.9713 19.4038 39.9696 19.279 39.7986C18.9757 39.3822 18.7243 38.9342 18.4166 38.4479C18.3427 38.9003 18.2768 39.2997 18.2126 39.6991C18.1971 39.7968 18.252 39.8446 18.344 39.8654C18.3967 39.8776 18.4658 39.8515 18.5043 39.9383H17.6145C17.9669 39.8576 17.9173 39.5524 17.9687 39.3101C18.0793 38.7878 18.1776 38.263 18.2807 37.7389C18.2918 37.6829 18.2896 37.6139 18.3631 37.6017C18.4375 37.5892 18.4578 37.6595 18.4875 37.7059C18.7942 38.19 19.0997 38.675 19.4056 39.159C19.4436 39.2194 19.4839 39.2784 19.5371 39.3592L19.5362 39.3596Z" fill="#C0C0C0"/>
<path d="M35.6233 39.9145C35.3263 39.9739 35.0355 39.9627 34.7451 39.9388C34.6942 39.9344 34.6357 39.9292 34.68 39.8498C34.7132 39.7907 34.6769 39.7382 34.649 39.6874C34.5561 39.5177 34.5348 39.252 34.3688 39.1925C34.1214 39.1039 33.831 39.1569 33.5587 39.1716C33.4857 39.1755 33.4622 39.2272 33.4357 39.2793C33.387 39.3761 33.3325 39.4708 33.2887 39.5702C33.1802 39.8155 33.1904 39.835 33.4379 39.9314H32.5127C32.9691 39.8606 33.0173 39.446 33.1873 39.1412C33.4308 38.7049 33.6495 38.2551 33.8823 37.8127C33.9235 37.7342 33.9368 37.6048 34.051 37.6113C34.1554 37.6174 34.1776 37.7407 34.2201 37.8214C34.5131 38.3793 34.804 38.9381 35.0939 39.4977C35.2055 39.7126 35.3427 39.8928 35.6229 39.9149L35.6233 39.9145ZM33.9496 38.2248C33.815 38.4996 33.6999 38.7349 33.572 38.9958C33.7938 38.9958 33.9819 38.991 34.1696 38.9975C34.3064 39.0023 34.2909 38.9441 34.248 38.8564C34.1537 38.6628 34.0638 38.4674 33.9496 38.2248Z" fill="#C0C0C0"/>
<path d="M22.7097 39.9362H21.7947L21.7646 39.8789C22.1293 39.9067 22.2148 39.6423 22.333 39.4143C22.6127 38.8747 22.8912 38.3342 23.1696 37.7936C23.2095 37.7164 23.2422 37.6083 23.3312 37.6031C23.4135 37.5987 23.4304 37.7129 23.4653 37.7785C23.715 38.2443 23.9536 38.7158 24.209 39.1786C24.3772 39.4829 24.4578 39.8754 24.9253 39.9249C24.6145 39.9722 24.3184 39.9596 24.0222 39.9453C23.9726 39.9427 23.9262 39.9236 23.9594 39.868C24.0085 39.7855 23.9514 39.7287 23.9204 39.6687C23.835 39.5029 23.8093 39.2533 23.6442 39.1933C23.3945 39.1035 23.1059 39.1634 22.8341 39.1664C22.7615 39.1673 22.7385 39.2255 22.7128 39.2763C22.6641 39.3731 22.6167 39.4708 22.5711 39.5693C22.4923 39.7407 22.5387 39.8628 22.7101 39.9357L22.7097 39.9362ZM23.5849 38.998C23.4711 38.7358 23.3728 38.4961 23.2174 38.2452C23.1077 38.4744 23.0142 38.675 22.9155 38.8729C22.873 38.958 22.8704 39.0032 22.989 38.9997C23.1772 38.9945 23.3657 38.9984 23.5849 38.9984V38.998Z" fill="#C0C0C0"/>
<path d="M30.3799 39.8849C30.6818 39.8967 30.7154 39.7408 30.7128 39.5355C30.707 39.0813 30.7168 38.6272 30.7194 38.1727C30.7209 37.9278 30.5994 37.762 30.3551 37.6751H31.5494C31.5481 37.6842 31.5463 37.7077 31.5441 37.7077C31.2652 37.7138 31.2218 37.8826 31.228 38.1132C31.2404 38.5599 31.2373 39.0071 31.2373 39.4543C31.2373 39.6423 31.3073 39.7573 31.5184 39.7547C31.5915 39.7538 31.665 39.7764 31.7376 39.7747C31.9868 39.7677 32.2471 39.7786 32.3644 39.4638C32.4538 39.8246 32.3746 39.9331 32.051 39.9379C31.5733 39.9449 31.0957 39.9514 30.618 39.957C30.5547 39.9579 30.487 39.9731 30.3799 39.8849Z" fill="#C0C0C0"/>
<path d="M28.8146 37.6656H29.8682C29.5348 37.7324 29.5999 37.9881 29.5986 38.2074C29.5964 38.6181 29.5884 39.0292 29.6021 39.4395C29.6172 39.8832 29.5964 39.8242 29.974 39.8993C29.8646 39.9574 29.0209 39.9739 28.7982 39.9036C29.0957 39.8928 29.0815 39.6996 29.082 39.5103C29.0837 39.0566 29.0899 38.6025 29.0926 38.1488C29.0935 37.9426 29.136 37.7085 28.8142 37.666L28.8146 37.6656Z" fill="#C0C0C0"/>
<path d="M36.9766 38.3906C37.4246 38.3902 37.746 38.7001 37.7482 39.1347C37.7504 39.5628 37.421 39.8906 36.9854 39.8949C36.5468 39.8993 36.197 39.5732 36.1957 39.1586C36.1944 38.7249 36.5339 38.391 36.977 38.3906H36.9766ZM36.626 39.5511C36.7198 39.4417 36.6973 39.3314 36.7004 39.2259C36.7039 39.1178 36.7185 39.0054 36.6946 38.9025C36.6543 38.7292 36.7278 38.691 36.8801 38.711C36.9527 38.7206 37.0271 38.7214 37.0979 38.7375C37.2466 38.7713 37.3051 38.8912 37.2285 38.998C37.0789 39.2068 37.2298 39.3132 37.3462 39.4308C37.4498 39.5355 37.5299 39.5203 37.5773 39.3648C37.661 39.09 37.5773 38.7857 37.3577 38.6233C37.1329 38.4566 36.8425 38.4483 36.6171 38.6025C36.383 38.7622 36.2785 39.0726 36.3781 39.3544C36.4582 39.581 36.6216 39.7356 36.8668 39.7755C37.0815 39.8107 37.2758 39.7608 37.4547 39.5654C37.302 39.5537 37.2001 39.5237 37.1289 39.4269C37.0718 39.3492 37.0195 39.1951 36.9235 39.2407C36.8163 39.291 36.8982 39.4304 36.9235 39.5307C36.9244 39.5346 36.9173 39.5402 36.9089 39.552H36.6269L36.626 39.5511ZM36.8752 38.9667C36.9168 39.014 36.8256 39.1365 36.9748 39.1287C37.0731 39.1234 37.0837 39.0475 37.0824 38.9724C37.0811 38.886 37.0421 38.8017 36.9545 38.7974C36.8279 38.7909 36.9093 38.9038 36.8752 38.9672V38.9667Z" fill="#C0C0C0"/>
</svg>
