<svg width="70" height="32" viewBox="0 0 70 32" fill="none" xmlns="http://www.w3.org/2000/svg">
<path d="M3.20775 25.5938C3.21706 25.5697 3.2287 25.5538 3.22948 25.5365C3.23258 25.4821 3.23336 25.4278 3.23336 25.3735C3.22948 17.9968 3.22638 10.6194 3.22172 3.24273C3.22172 3.23745 3.21551 3.23292 3.21163 3.22839C3.20775 3.22386 3.20309 3.22009 3.19843 3.21632C2.93533 3.18311 0.141256 3.19519 0 3.23216V25.5938H3.20775Z" fill="white"/>
<path d="M16.3974 25.5923C16.4013 25.4897 16.4083 25.3954 16.4083 25.301C16.4083 18.0383 16.4083 10.7756 16.4083 3.51365C16.4083 3.45932 16.4114 3.40498 16.4067 3.35065C16.4028 3.30537 16.3912 3.26009 16.3826 3.21179H13.1578C13.1144 3.39819 13.1206 25.461 13.1617 25.5916H16.3974V25.5923Z" fill="white"/>
<path d="M6.55225 12.8131V32H9.80889V12.8131H6.55225Z" fill="white"/>
<path d="M9.80811 9.57193V0H6.56544C6.5212 0.197717 6.53051 9.43684 6.57553 9.57193H9.80734H9.80811Z" fill="white"/>
<path d="M68.1561 14.9329V8.92138C68.3074 8.88139 69.7549 8.87233 69.9994 8.90629V17.996C69.9497 18.0013 69.8969 18.0126 69.8441 18.0126C69.3722 18.0141 68.9011 18.0088 68.4292 18.0164C68.2996 18.0186 68.2275 17.9666 68.1553 17.873C66.6721 15.9698 65.1858 14.0681 63.7003 12.1656C63.6452 12.0947 63.5885 12.0245 63.4985 11.9603C63.4946 12.0162 63.4868 12.072 63.4868 12.1271C63.483 13.4598 63.4799 14.7933 63.4768 16.126C63.4752 16.6686 63.4752 17.2119 63.4737 17.7545C63.4737 17.8315 63.4659 17.9085 63.462 17.9801C63.2905 18.0239 61.7988 18.0247 61.6265 17.9824V8.89874C61.6955 8.89497 61.7553 8.88893 61.8151 8.88818C62.2745 8.88742 62.7332 8.89195 63.1927 8.88516C63.3184 8.88289 63.3945 8.9244 63.469 9.02099C64.9607 10.934 66.4555 12.844 67.9504 14.754C68.0024 14.8204 68.0544 14.8853 68.1072 14.951L68.1568 14.9321L68.1561 14.9329Z" fill="white"/>
<path d="M51.2106 18.0013H49.3696V8.90032C49.4356 8.89654 49.4954 8.889 49.5551 8.889C50.0084 8.88824 50.4616 8.89503 50.9141 8.88447C51.0562 8.88145 51.1384 8.93126 51.2207 9.03691C52.7047 10.9401 54.1925 12.8403 55.6796 14.742C55.7347 14.8122 55.7906 14.8816 55.8682 14.9443C55.9023 14.6522 55.8938 14.3662 55.8953 14.0802C55.8969 13.7965 55.8953 13.5135 55.8953 13.2297V9.77344C55.8953 9.48592 55.8953 9.1984 55.8953 8.89956H57.7449V17.9976C57.6851 18.0036 57.6308 18.0134 57.5772 18.0134C57.1053 18.0149 56.6342 18.0104 56.1623 18.0172C56.042 18.0187 55.9714 17.9749 55.9015 17.8851C54.4067 15.9668 52.9096 14.0508 51.4124 12.1347C51.3643 12.0736 51.3154 12.0132 51.2587 11.943C51.1951 12.0215 51.216 12.0955 51.216 12.1634C51.2129 13.2373 51.2122 14.3104 51.2106 15.3842C51.2098 16.1864 51.2091 16.9886 51.2083 17.7908C51.2083 17.8557 51.2083 17.9206 51.2083 18.0013H51.2106Z" fill="white"/>
<path d="M34.096 17.9825C33.9524 18.0203 32.55 18.0316 32.2659 17.9969C32.262 17.9259 32.255 17.8505 32.2543 17.775C32.2543 16.6891 32.2543 15.6031 32.2543 14.5172V14.2651C31.8615 14.2312 31.4851 14.2531 31.1095 14.2493C30.7307 14.2455 30.352 14.2485 29.974 14.2485H27.7007V18.0021H25.8814C25.8333 17.8588 25.8263 9.09053 25.8752 8.89885H27.6968C27.6984 9.14034 27.6999 9.37956 27.7007 9.61878C27.7007 9.8663 27.7007 10.1131 27.7007 10.3606V12.5415C27.8575 12.5823 32.0043 12.5913 32.238 12.5528C32.2426 12.4827 32.2527 12.4072 32.2527 12.3317C32.2535 11.2699 32.2527 10.2082 32.2527 9.14637C32.2527 9.0694 32.2527 8.99167 32.2527 8.88753C32.8759 8.88677 33.4798 8.88677 34.0945 8.88753V17.9818L34.096 17.9825Z" fill="white"/>
<path d="M46.5237 18.0058H44.543C44.2721 17.3048 44.0028 16.6067 43.7288 15.8981C43.6567 15.8943 43.5899 15.8876 43.5232 15.8876C42.3194 15.8876 41.1148 15.8876 39.9111 15.8876C39.8862 15.8876 39.8614 15.8906 39.8365 15.8876C39.7341 15.877 39.6829 15.92 39.6472 16.0158C39.4811 16.4634 39.3064 16.9086 39.1341 17.3538C39.062 17.5402 38.9882 17.7251 38.9184 17.9123C38.8951 17.9757 38.8617 18.0141 38.7864 18.0141C38.1849 18.0126 37.5842 18.0141 36.9819 18.0141C36.9936 17.8693 40.4505 9.19309 40.6103 8.89954H42.8774C44.0866 11.9196 45.3005 14.9495 46.5245 18.0066L46.5237 18.0058ZM43.0792 14.2085C42.6298 13.0305 42.1867 11.8744 41.7156 10.7197C41.579 11.0095 41.4664 11.2993 41.3539 11.5891C41.2429 11.8766 41.1319 12.1641 41.0209 12.4517C40.9076 12.7445 40.7912 13.0365 40.6817 13.3308C40.5739 13.6206 40.4443 13.9028 40.3565 14.2085H43.0784H43.0792Z" fill="white"/>
<path d="M37.5376 24.4972V25.5198H36.9741V22.6876C36.9881 22.6778 36.9974 22.6642 37.0075 22.6642C37.3847 22.668 37.7642 22.6506 38.1391 22.6838C38.5605 22.7208 38.8143 23.0121 38.8384 23.4234C38.8601 23.7879 38.7732 24.1071 38.4154 24.3274C38.5861 24.7206 38.7546 25.1115 38.9315 25.519H38.3036C38.219 25.3221 38.1306 25.1176 38.0429 24.9131C38.0118 24.8406 37.9831 24.7674 37.952 24.695C37.8832 24.5325 37.7451 24.4666 37.5376 24.4972ZM37.5516 23.1396V23.9992C37.6719 24.0007 37.7875 24.0097 37.9024 24.003C38.1011 23.9901 38.219 23.8996 38.2439 23.7101C38.2602 23.5834 38.2423 23.4475 38.2144 23.3207C38.1934 23.2234 38.1088 23.1502 38.0025 23.1427C37.8566 23.1321 37.7091 23.1396 37.5523 23.1396H37.5516Z" fill="white"/>
<path d="M27.2934 24.3305C27.4657 24.7259 27.6349 25.1123 27.8111 25.5168H27.1809C27.0373 25.1825 26.8883 24.8346 26.7385 24.4837H26.4358C26.3947 24.827 26.4405 25.1697 26.4071 25.5175H25.8824C25.8351 25.3908 25.8242 22.8748 25.8762 22.6514C26.2946 22.6725 26.723 22.6023 27.1421 22.705C27.4828 22.788 27.6877 23.0408 27.7079 23.3849C27.7164 23.5275 27.7079 23.6747 27.6831 23.8158C27.6435 24.0422 27.4929 24.2014 27.2934 24.3305ZM26.4327 23.9962C26.5235 24 26.6019 24.0075 26.6803 24.0067C27.0148 24.0037 27.1405 23.8807 27.1336 23.5562C27.132 23.474 27.125 23.3827 27.0862 23.3125C27.049 23.2446 26.9768 23.1714 26.9046 23.1502C26.7525 23.1065 26.591 23.1163 26.4319 23.1404V23.9962H26.4327Z" fill="white"/>
<path d="M36.0366 24.1071C36.0157 24.3365 36.0172 24.5622 35.9706 24.778C35.8224 25.4632 35.0633 25.7877 34.4316 25.4459C34.1654 25.3017 34.0195 25.0693 33.9504 24.7893C33.9232 24.6791 33.9038 24.5629 33.9054 24.4505C33.9108 24.1199 33.9007 23.7864 33.948 23.4611C34.0024 23.0891 34.2088 22.797 34.5984 22.6748C35.1231 22.5095 35.7898 22.6695 35.9652 23.4151C36.018 23.6415 36.0149 23.88 36.0366 24.1079V24.1071ZM35.4328 24.1064C35.4328 23.9683 35.4437 23.8287 35.4297 23.6921C35.4165 23.5683 35.3893 23.4415 35.3428 23.3261C35.2776 23.1653 35.141 23.0914 34.9609 23.0921C34.7816 23.0921 34.6411 23.1631 34.579 23.3261C34.5301 23.4536 34.496 23.5924 34.489 23.7275C34.475 23.9796 34.4766 24.2331 34.489 24.4852C34.4952 24.609 34.5247 24.7357 34.5682 24.8527C34.6326 25.0233 34.7801 25.1002 34.9617 25.1017C35.1441 25.1025 35.2892 25.0255 35.3544 24.8542C35.3948 24.7486 35.4204 24.6346 35.4305 24.5222C35.4437 24.3848 35.4336 24.246 35.4336 24.1071L35.4328 24.1064Z" fill="white"/>
<path d="M44.3432 23.4831H43.8116C43.7984 23.434 43.7852 23.3774 43.7689 23.3216C43.7231 23.1722 43.6144 23.0869 43.46 23.0771C43.3117 23.068 43.1829 23.1405 43.1286 23.2642C43.0641 23.4099 43.0882 23.5578 43.2194 23.6559C43.321 23.7321 43.4406 23.7864 43.5554 23.8445C43.6874 23.9109 43.8294 23.96 43.9544 24.0362C44.3052 24.2498 44.4441 24.5728 44.3316 25.0271C44.247 25.3697 43.9691 25.5214 43.6315 25.5546C43.4623 25.5712 43.2822 25.5568 43.1169 25.5161C42.7017 25.4134 42.4572 25.0852 42.4541 24.6513H43.0114C43.0246 24.7139 43.0346 24.7788 43.0517 24.8414C43.1177 25.0791 43.4444 25.1976 43.6556 25.0618C43.831 24.9493 43.8317 24.6113 43.6455 24.4747C43.5477 24.4037 43.4289 24.36 43.3203 24.3034C43.1619 24.2211 42.992 24.1555 42.8492 24.0528C42.5628 23.8476 42.465 23.5623 42.5387 23.222C42.5798 23.0356 42.6831 22.8869 42.846 22.7865C43.2062 22.5654 43.5826 22.5488 43.9567 22.745C44.2314 22.8892 44.3774 23.1805 44.3417 23.48L44.3432 23.4831Z" fill="white"/>
<path d="M33.0229 23.483H32.492C32.4788 23.4332 32.4656 23.3766 32.4486 23.3215C32.4028 23.1714 32.2949 23.0868 32.1389 23.077C31.9906 23.068 31.8618 23.1404 31.8075 23.2642C31.7431 23.4098 31.7679 23.5577 31.8983 23.6558C31.9999 23.7321 32.1195 23.7864 32.2343 23.8445C32.3663 23.9109 32.5083 23.96 32.6333 24.0362C32.9849 24.2497 33.1222 24.5727 33.0105 25.027C32.9266 25.3696 32.648 25.5213 32.3104 25.5545C32.1412 25.5711 31.9611 25.5568 31.7958 25.516C31.3798 25.4126 31.1377 25.0874 31.1338 24.6512H31.6903C31.7035 24.7138 31.7136 24.7787 31.7306 24.8421C31.7958 25.0791 32.1241 25.1976 32.3352 25.0625C32.5114 24.9493 32.5114 24.612 32.3251 24.4754C32.2274 24.4044 32.1086 24.3607 31.9999 24.3041C31.8416 24.2218 31.6716 24.1562 31.5288 24.0535C31.2417 23.8483 31.1454 23.5623 31.2192 23.2227C31.2657 23.0083 31.3953 22.8506 31.5894 22.7488C31.9154 22.5774 32.2537 22.5639 32.589 22.7201C32.8902 22.8597 33.0609 23.1638 33.0229 23.4823V23.483Z" fill="white"/>
<path d="M28.6634 25.5304V22.6891C28.793 22.6476 30.0596 22.6348 30.3189 22.6733C30.367 22.8106 30.3344 22.9518 30.3375 23.1193C29.9673 23.1238 29.611 23.1283 29.2455 23.1336V23.8128C29.5427 23.8573 29.8408 23.8083 30.1512 23.8437V24.2686C29.8516 24.2739 29.552 24.2792 29.247 24.2845V25.061H30.3282V25.5236C29.781 25.5379 29.2323 25.5259 28.6626 25.5311L28.6634 25.5304Z" fill="white"/>
<path d="M39.6504 23.1262V22.6681H41.6668V23.1035C41.4409 23.1586 41.2034 23.0997 40.9504 23.1435C40.9419 23.542 40.9473 23.9374 40.9465 24.3328C40.9458 24.7237 40.9465 25.1139 40.9465 25.5169H40.3699C40.3637 24.7275 40.3714 23.9419 40.366 23.1345C40.2325 23.1314 40.1168 23.1277 40.002 23.1262C39.8918 23.1247 39.7808 23.1262 39.6512 23.1262H39.6504Z" fill="white"/>
</svg>
