<svg width="60" height="40" viewBox="0 0 60 40" fill="none" xmlns="http://www.w3.org/2000/svg">
<g clip-path="url(#clip0_976_643)">
<path d="M39.1085 20.1589C39.5056 19.5578 39.9028 18.9568 40.2994 18.3552C40.5731 17.9401 40.8469 17.5256 41.1207 17.1105C41.2215 16.9701 41.3308 16.8348 41.4205 16.6874C41.5474 16.4793 41.7394 16.3099 41.7926 16.0582C41.7565 16.0216 41.5985 15.8472 41.5444 15.7941C40.696 14.9604 39.6987 14.3473 38.6267 13.847C36.8933 13.0384 35.0622 12.5486 33.1899 12.2037C29.4444 11.5139 25.6663 11.3761 21.8706 11.559C20.744 11.6132 19.6343 11.8222 18.5132 11.9245C17.1017 12.0533 15.6978 12.0558 14.3189 11.6553C13.2208 11.3365 12.3013 10.7204 11.4564 9.97292C10.6381 9.24954 9.85739 8.48104 8.94834 7.86594C8.67306 7.67996 8.38977 7.50551 8.10547 7.26588C8.52264 7.26588 8.93981 7.26939 9.35698 7.26538C12.0621 7.23781 14.7657 7.28945 17.4658 7.45588C21.6004 7.71104 25.7014 8.21435 29.7327 9.1959C33.3589 10.0792 36.8457 11.3209 40.0572 13.256C41.7073 14.25 43.2256 15.4141 44.5794 16.7891C45.8856 18.1156 47.2569 19.3734 48.6222 20.6376C48.7135 20.7219 48.7987 20.8121 48.887 20.8998C48.876 20.9169 48.8649 20.9339 48.8539 20.951C47.3793 20.0135 45.9036 19.0791 44.433 18.1356C44.2705 18.0314 44.1447 18.0143 43.9607 18.0955C42.3557 18.8014 40.7451 19.4942 39.1361 20.191C39.1281 20.1785 39.1191 20.1674 39.108 20.1579L39.1085 20.1589Z" fill="#D5142F"/>
<path d="M21.8853 17.4734C20.4889 19.1843 19.1351 20.8432 17.7818 22.502C17.5331 22.8068 17.5336 22.8093 17.2844 22.5035C15.9872 20.9148 14.6911 19.3262 13.3944 17.7376C13.3538 17.688 13.3092 17.6408 13.235 17.5566C13.2295 17.6774 13.2235 17.7551 13.2225 17.8333C13.1984 19.8596 13.1708 21.8864 13.1558 23.9126C13.1543 24.1202 13.1016 24.1874 12.893 24.1713C12.6443 24.1523 12.3916 24.1543 12.1424 24.1713C11.9594 24.1833 11.9058 24.1357 11.9078 23.9432C11.9183 22.8258 11.9128 21.7079 11.9128 20.5905C11.9128 19.1312 11.9168 17.6714 11.9083 16.2121C11.9073 16.0256 11.9509 15.97 12.1404 15.977C12.5405 15.9925 12.9422 15.9936 13.3418 15.977C13.5323 15.969 13.6451 16.0377 13.7575 16.1825C14.9633 17.7466 16.1753 19.3067 17.3857 20.8672C17.4308 20.9254 17.4794 20.9805 17.5376 21.0507C18.3443 20.0747 19.1396 19.1127 19.9353 18.1507C20.4984 17.4694 21.063 16.7896 21.6231 16.1063C21.6917 16.0221 21.7604 15.978 21.8738 15.98C22.2408 15.9865 22.6083 15.9895 22.9753 15.979C23.1283 15.975 23.1508 16.0377 23.1503 16.1705C23.1348 18.7728 23.1223 21.3745 23.1147 23.9768C23.1147 24.1307 23.0726 24.1783 22.9182 24.1713C22.6434 24.1588 22.3666 24.1538 22.0924 24.1723C21.8993 24.1854 21.8622 24.1227 21.8632 23.9387C21.8763 21.8954 21.8798 19.8521 21.8858 17.8088C21.8858 17.7185 21.8858 17.6288 21.8858 17.4729L21.8853 17.4734Z" fill="white"/>
<path d="M10.2906 24.1673C9.87038 24.1673 9.47176 24.1623 9.07364 24.1704C8.9523 24.1729 8.91971 24.0992 8.87709 24.0175C8.61135 23.5096 8.33958 23.0048 8.08086 22.4935C8.01317 22.3591 7.94146 22.304 7.78202 22.305C6.06269 22.3135 4.34336 22.315 2.62403 22.308C2.44403 22.307 2.3638 22.3682 2.2931 22.5251C2.07198 23.0169 1.8283 23.4991 1.60517 23.9904C1.546 24.1202 1.48182 24.1764 1.3314 24.1724C0.897683 24.1608 0.463965 24.1683 0.0287426 24.1683C-0.0053532 24.0781 0.0638411 24.0255 0.0959312 23.9668C1.5109 21.3701 2.92989 18.7758 4.34236 16.1776C4.41957 16.0352 4.49729 15.9715 4.66677 15.9781C5.04182 15.9926 5.41788 15.9876 5.79343 15.9796C5.91778 15.9771 5.98848 16.0146 6.04765 16.1264C7.44156 18.7633 8.83949 21.3986 10.2359 24.0345C10.2545 24.0696 10.2665 24.1082 10.2906 24.1678V24.1673ZM2.99156 21.1435H7.4912C6.71803 19.7769 5.9599 18.4364 5.18873 17.0739C4.44565 18.45 3.72161 19.7915 2.99206 21.1435H2.99156Z" fill="white"/>
<path d="M41.7932 16.0588C41.74 16.3099 41.548 16.4799 41.4211 16.6879C41.3314 16.8353 41.2215 16.9701 41.1213 17.111C39.3453 16.6618 37.6992 16.904 36.3108 18.1512C34.967 19.3579 35.0918 21.2057 36.5504 22.315C37.5883 23.1046 38.7837 23.3542 40.0633 23.2389C41.1178 23.1437 42.0699 22.7873 42.8677 22.0704C42.9439 22.0022 43.0051 22.0113 43.0908 22.0504C43.3706 22.1772 43.6514 22.303 43.9387 22.4113C44.1087 22.4755 44.0861 22.5291 43.9813 22.6429C43.3209 23.3588 42.5192 23.8545 41.5911 24.1247C39.5017 24.7328 37.5287 24.5067 35.7702 23.1622C34.6907 22.3366 34.079 21.2287 34.1712 19.8381C34.258 18.5277 34.9534 17.5411 36.0079 16.8052C37.2599 15.9314 38.6639 15.6221 40.1771 15.7404C40.6855 15.78 41.6688 16.0021 41.7932 16.0598V16.0588Z" fill="white"/>
<path d="M25.9703 20.0847C25.9703 18.8004 25.9739 17.5161 25.9663 16.2317C25.9653 16.0452 25.9969 15.961 26.207 15.9776C26.4642 15.9976 26.7255 15.9976 26.9822 15.9776C27.2003 15.961 27.2369 16.0447 27.2364 16.2443C27.2289 18.4044 27.2354 20.564 27.2264 22.7241C27.2254 22.9437 27.2775 22.9973 27.4976 22.9953C29.4667 22.9748 31.4362 22.9712 33.4052 22.9512C33.6198 22.9492 33.673 23.0078 33.6579 23.2119C33.6389 23.469 33.6474 23.7287 33.6559 23.9869C33.6604 24.1187 33.6344 24.1724 33.4834 24.1754C31.0636 24.2255 28.6444 24.236 26.2241 24.2105C26.0927 24.209 25.9683 24.232 25.9703 24.0125C25.9814 22.7031 25.9759 21.3941 25.9759 20.0847H25.9698H25.9703Z" fill="white"/>
<path d="M6.94698 25.3539C6.94698 25.8913 6.94949 26.4287 6.94397 26.9656C6.94297 27.0493 7.00916 27.1837 6.83818 27.1932C6.64664 27.2038 6.70932 27.0569 6.70881 26.9646C6.7048 26.3395 6.7038 25.7139 6.70982 25.0888C6.71032 25.008 6.63962 24.8767 6.81662 24.8642C6.95551 24.8546 7.04125 24.8817 7.0949 25.0336C7.3105 25.6427 7.54165 26.2463 7.77982 26.8854C8.01248 26.2548 8.23911 25.6592 8.4497 25.0577C8.50285 24.9053 8.57305 24.8441 8.733 24.8642C8.92103 24.8877 8.8393 25.0281 8.8403 25.1148C8.84782 25.7399 8.84481 26.3656 8.84381 26.9907C8.84381 27.0854 8.8769 27.2048 8.70993 27.1942C8.55299 27.1847 8.60965 27.0654 8.60915 26.9882C8.60464 26.4408 8.60664 25.8928 8.56854 25.3354C8.38151 25.8437 8.2005 26.3545 8.00245 26.8589C7.95431 26.9807 7.99292 27.1962 7.77481 27.1897C7.58277 27.1837 7.60784 26.9867 7.56171 26.8699C7.36165 26.3656 7.17813 25.8547 6.9886 25.3464L6.94698 25.3544V25.3539Z" fill="white"/>
<path d="M32.385 25.7054C32.4236 25.6337 32.3625 25.4873 32.5309 25.5144C32.6738 25.5374 32.6086 25.6442 32.6086 25.7099C32.6107 26.2262 32.6147 26.7435 32.5956 27.2594C32.5836 27.5908 32.3645 27.8058 32.033 27.8625C31.6309 27.9311 31.302 27.8073 31.1882 27.5421C31.1646 27.487 31.0979 27.4163 31.1957 27.3782C31.2498 27.3571 31.313 27.3571 31.3672 27.4303C31.5532 27.6825 31.8234 27.7547 32.0992 27.6434C32.3339 27.5486 32.4181 27.3607 32.3845 26.9757C32.2236 27.1516 32.0405 27.2449 31.8084 27.2318C31.4599 27.2123 31.2438 27.0403 31.1395 26.7019C31.0814 26.513 31.0794 26.322 31.1074 26.1335C31.1982 25.5214 31.847 25.2231 32.3845 25.7054H32.385ZM32.4201 26.3485C32.4191 25.9064 32.2266 25.6642 31.8736 25.6612C31.5687 25.6582 31.4058 25.8006 31.3311 26.1335C31.2448 26.517 31.3772 26.8939 31.6379 27.0067C32.0601 27.1897 32.4216 26.8854 32.4206 26.3485H32.4201Z" fill="white"/>
<path d="M1.01073 26.4859C0.66275 26.4859 0.426921 26.6486 0.303241 26.9741C0.285691 27.0208 0.265635 27.0664 0.251094 27.114C0.219506 27.2163 0.135269 27.2027 0.0660746 27.1882C-0.0627872 27.1611 0.0339845 27.0749 0.0485254 27.0358C0.299731 26.3595 0.55946 25.6868 0.813674 25.0115C0.849274 24.9173 0.885375 24.8611 1.00471 24.8616C1.12505 24.8621 1.15814 24.9243 1.19274 25.016C1.44344 25.6838 1.69766 26.3505 1.94786 27.0182C1.96792 27.0714 2.04864 27.1486 1.94986 27.1852C1.86613 27.2163 1.76284 27.2102 1.73877 27.0794C1.73125 27.0393 1.70969 27.0022 1.69515 26.9631C1.57849 26.6449 1.35001 26.4859 1.01073 26.4859ZM0.567483 26.2763C0.823702 26.2763 1.04733 26.2703 1.26996 26.2788C1.40283 26.2838 1.43091 26.2412 1.38377 26.1219C1.26043 25.8081 1.14109 25.4928 1.0012 25.1278C0.849775 25.5289 0.714395 25.8878 0.567483 26.2763Z" fill="white"/>
<path d="M33.9028 26.0377C33.8953 25.3875 34.1445 24.9805 34.6279 24.8441C35.1413 24.6987 35.6838 24.9514 35.7866 25.386C35.8002 25.4442 35.8448 25.5274 35.7535 25.5555C35.6728 25.5805 35.6036 25.5655 35.5595 25.4592C35.4126 25.1068 35.223 24.996 34.847 25.0145C34.5421 25.0296 34.3045 25.2055 34.2037 25.5169C34.0989 25.8407 34.0974 26.1726 34.1962 26.4979C34.3045 26.8548 34.5622 27.0498 34.9062 27.0554C35.2596 27.0614 35.4727 26.908 35.5931 26.5305C35.6237 26.4352 35.6593 26.4102 35.7445 26.4197C35.8829 26.4347 35.8122 26.5355 35.8027 26.5906C35.745 26.917 35.5439 27.125 35.2306 27.2128C34.5406 27.4063 33.962 26.9887 33.9038 26.2623C33.8978 26.1881 33.9028 26.1124 33.9028 26.0377Z" fill="white"/>
<path d="M25.2873 26.9896C24.9523 27.2533 24.6189 27.3004 24.3532 27.144C24.0769 26.9811 23.9224 26.5746 23.9931 26.169C24.0438 25.8782 24.1586 25.6251 24.4645 25.5168C24.7663 25.41 25.0346 25.4672 25.2948 25.7419C25.2948 25.4697 25.2948 25.2421 25.2948 25.0145C25.2948 24.9363 25.2913 24.8646 25.4061 24.8651C25.5255 24.8661 25.5114 24.9458 25.5114 25.019C25.5119 25.6777 25.5129 26.3369 25.5099 26.9957C25.5099 27.0683 25.5565 27.1741 25.4232 27.1922C25.2808 27.2112 25.2938 27.0994 25.2873 26.9901V26.9896ZM25.3209 26.345C25.3129 26.2848 25.3053 26.185 25.2848 26.0878C25.2261 25.8091 25.0401 25.6602 24.7583 25.6607C24.475 25.6607 24.299 25.8061 24.2303 26.0878C24.1857 26.2698 24.1862 26.4502 24.2343 26.6287C24.2865 26.8227 24.3923 26.9701 24.6019 27.0257C25.014 27.1355 25.2988 26.8829 25.3214 26.3445L25.3209 26.345Z" fill="white"/>
<path d="M20.0701 26.4222C20.0701 26.5721 20.0676 26.722 20.0716 26.8714C20.0731 26.924 20.046 26.9977 20.1253 27.0183C20.201 27.0378 20.2912 27.0483 20.2416 27.1546C20.196 27.2534 20.0576 27.2393 20.0265 27.1962C19.843 26.9375 19.682 27.1356 19.502 27.1912C19.2744 27.2619 19.0347 27.2674 18.8422 27.0945C18.7043 26.9706 18.6592 26.8067 18.7093 26.6182C18.767 26.4022 18.9279 26.3114 19.1225 26.2713C19.2844 26.2377 19.4534 26.2377 19.6168 26.2082C19.7271 26.1881 19.854 26.1716 19.847 26.0046C19.84 25.8517 19.8004 25.7259 19.6369 25.6758C19.3621 25.5915 19.125 25.6773 18.9946 25.9379C18.945 26.0372 18.8803 26.0312 18.8171 26.0106C18.7374 25.9846 18.7845 25.9144 18.8 25.8633C18.8853 25.582 19.2047 25.4221 19.5772 25.4717C19.8916 25.5138 20.0531 25.6833 20.0681 25.9981C20.0746 26.1395 20.0691 26.2808 20.0691 26.4227H20.0701V26.4222ZM19.5326 26.3721C19.4007 26.3866 19.2137 26.3816 19.0543 26.4899C18.8758 26.6112 18.8607 26.8558 19.0222 26.9751C19.2779 27.1651 19.7562 26.9882 19.8309 26.6759C19.9006 26.3861 19.8695 26.348 19.5321 26.3721H19.5326Z" fill="white"/>
<path d="M13.6799 26.4052C13.5299 26.4052 13.3785 26.4172 13.2296 26.4021C13.0411 26.3826 13.0416 26.4899 13.0726 26.6137C13.1298 26.8393 13.2532 27.0102 13.5024 27.0413C13.737 27.0709 13.9371 27.0097 14.0293 26.7676C14.0684 26.6643 14.1452 26.6363 14.2219 26.6739C14.3272 26.7255 14.2359 26.8092 14.2113 26.8633C14.0895 27.1275 13.8629 27.2278 13.5841 27.2328C13.2802 27.2383 13.0431 27.119 12.9252 26.8328C12.8044 26.5385 12.8009 26.2312 12.9087 25.9304C13.0386 25.567 13.3996 25.3885 13.7746 25.4933C14.1045 25.5855 14.3492 25.9725 14.2971 26.3094C14.2825 26.4042 14.2244 26.4057 14.1547 26.4057C13.9962 26.4052 13.8378 26.4057 13.6794 26.4057L13.6799 26.4052ZM13.5821 26.2192C13.6979 26.2192 13.8147 26.2117 13.9301 26.2212C14.0644 26.2327 14.089 26.17 14.0569 26.0603C13.9977 25.8577 13.8909 25.6973 13.6628 25.6662C13.4382 25.6357 13.2537 25.7038 13.1368 25.9094C12.9979 26.154 13.034 26.2187 13.3088 26.2187C13.4001 26.2187 13.4908 26.2187 13.5821 26.2187V26.2192Z" fill="white"/>
<path d="M26.7084 26.4052C26.5835 26.4052 26.4587 26.4052 26.3333 26.4052C26.0605 26.4057 26.052 26.4187 26.1373 26.6834C26.2085 26.9055 26.3624 27.0333 26.5915 27.0488C26.8061 27.0634 26.9947 26.9872 27.0724 26.7716C27.1125 26.6608 27.1857 26.6398 27.2569 26.6739C27.3431 26.716 27.284 26.8007 27.2569 26.8639C27.1491 27.111 26.9024 27.2433 26.5795 27.2308C26.2716 27.2188 26.0445 27.0669 25.9497 26.7907C25.8555 26.516 25.8535 26.2342 25.9397 25.957C26.0525 25.5931 26.4135 25.3955 26.7886 25.4828C27.1326 25.563 27.3883 25.9495 27.3411 26.3004C27.3286 26.3941 27.2825 26.4057 27.2093 26.4052C27.0428 26.4042 26.8758 26.4052 26.7094 26.4052H26.7084ZM26.59 26.2192C26.7144 26.2192 26.8397 26.2122 26.9636 26.2212C27.0899 26.2302 27.1235 26.1866 27.0944 26.0653C27.0433 25.8532 26.93 25.7028 26.7064 25.6683C26.4702 25.6317 26.2827 25.7124 26.1693 25.9339C26.0415 26.1846 26.062 26.2192 26.3403 26.2197C26.4236 26.2197 26.5063 26.2197 26.5895 26.2197L26.59 26.2192Z" fill="white"/>
<path d="M37.6752 26.3811C37.6601 26.934 37.3989 27.2243 36.913 27.2273C36.5691 27.2293 36.3119 27.0944 36.2176 26.8097C36.0912 26.4277 36.0622 26.0332 36.3439 25.7013C36.5681 25.4376 36.8759 25.4166 37.1903 25.5173C37.5192 25.6226 37.6872 25.9324 37.6752 26.3816V26.3811ZM37.4606 26.3625C37.4621 25.968 37.3046 25.7149 37.0274 25.6672C36.6974 25.6106 36.4578 25.7675 36.373 26.0958C36.2712 26.4914 36.4146 26.9095 36.6874 27.0112C36.7029 27.0167 36.72 27.0177 36.736 27.0218C37.1678 27.1386 37.4581 26.8739 37.4601 26.362L37.4606 26.3625Z" fill="white"/>
<path d="M9.2582 26.343C9.25218 25.6718 9.71398 25.3098 10.3046 25.5154C10.4691 25.5725 10.5985 25.6753 10.6722 25.8317C10.8326 26.1736 10.8386 26.524 10.6767 26.8644C10.5343 27.1631 10.2199 27.2824 9.82078 27.2153C9.52545 27.1656 9.29731 26.9045 9.2597 26.5666C9.25168 26.4929 9.2582 26.4177 9.2582 26.343ZM10.5684 26.3485C10.5659 26.2904 10.5659 26.2317 10.5599 26.1736C10.5268 25.8748 10.3412 25.6808 10.074 25.6627C9.75961 25.6417 9.58161 25.7735 9.49136 26.0853C9.43119 26.2934 9.44222 26.4989 9.51292 26.6984C9.5776 26.8824 9.70395 27.0007 9.90853 27.0348C10.3202 27.103 10.5689 26.8478 10.5684 26.3485Z" fill="white"/>
<path d="M22.2904 26.3279C22.2904 26.1034 22.2889 25.8783 22.2914 25.6537C22.2919 25.6005 22.2688 25.5264 22.3571 25.5173C22.4203 25.5108 22.4869 25.4958 22.502 25.6C22.5225 25.7434 22.5867 25.6417 22.6273 25.6101C22.7727 25.4973 22.9362 25.4527 23.1177 25.4682C23.4256 25.4948 23.6106 25.6702 23.6216 25.979C23.6347 26.3365 23.6256 26.6949 23.6297 27.0528C23.6307 27.139 23.6176 27.1997 23.5113 27.1967C23.41 27.1937 23.4171 27.1255 23.4171 27.0573C23.4171 26.7495 23.4226 26.4412 23.4146 26.1334C23.4055 25.782 23.3098 25.6697 23.0385 25.6637C22.7221 25.6567 22.5391 25.8151 22.5225 26.1379C22.5075 26.4287 22.5165 26.7205 22.512 27.0117C22.511 27.0889 22.5431 27.1907 22.4097 27.1957C22.2593 27.2007 22.2919 27.0889 22.2909 27.0032C22.2889 26.7786 22.2904 26.5535 22.2904 26.3289V26.3279Z" fill="white"/>
<path d="M29.6269 25.7023C29.7984 25.5374 29.9935 25.4431 30.2332 25.4687C30.522 25.4993 30.704 25.6547 30.7205 25.9414C30.7421 26.3154 30.7311 26.6909 30.7366 27.0658C30.7376 27.1456 30.7155 27.1932 30.6273 27.1947C30.5149 27.1962 30.5169 27.122 30.5169 27.0423C30.5169 26.7255 30.523 26.4086 30.5129 26.0923C30.5034 25.7795 30.4167 25.6782 30.1785 25.6637C29.8731 25.6447 29.6856 25.7755 29.6365 26.0547C29.5798 26.3771 29.6229 26.7034 29.6099 27.0277C29.6069 27.0964 29.6395 27.1867 29.5181 27.1942C29.3883 27.2022 29.3973 27.1155 29.3973 27.0287C29.3983 26.5871 29.3953 26.1455 29.4003 25.7038C29.4013 25.6351 29.3462 25.5319 29.4886 25.5133C29.6475 25.4928 29.5738 25.6331 29.6264 25.7023H29.6269Z" fill="white"/>
<path d="M15.1898 26.914C15.3588 26.4638 15.5167 26.0638 15.6566 25.6577C15.7038 25.5209 15.774 25.4948 15.9224 25.5334C15.6596 26.2317 15.4019 26.926 15.1362 27.6168C15.062 27.8098 14.9035 27.8875 14.6964 27.871C14.6277 27.8655 14.5846 27.8474 14.5841 27.7712C14.5841 27.694 14.6242 27.686 14.6939 27.677C14.9647 27.6414 15.1307 27.3381 15.0294 27.0674C14.8383 26.5576 14.6423 26.0497 14.4482 25.5409C14.6057 25.4758 14.6704 25.5324 14.7195 25.6693C14.8614 26.0663 15.0168 26.4588 15.1898 26.9135V26.914Z" fill="white"/>
<path d="M21.6116 27.0117C21.4837 27.129 21.3504 27.2173 21.1719 27.2293C20.7426 27.2584 20.5311 27.0714 20.527 26.6398C20.524 26.3149 20.5255 25.9901 20.527 25.6652C20.527 25.597 20.499 25.5118 20.6263 25.5128C20.7522 25.5138 20.7261 25.5965 20.7261 25.6662C20.7276 25.9745 20.7246 26.2823 20.7276 26.5906C20.7306 26.9054 20.8374 27.0378 21.0936 27.0543C21.3749 27.0724 21.6101 26.8899 21.6261 26.6107C21.6437 26.3034 21.6316 25.9946 21.6357 25.6868C21.6367 25.6126 21.5991 25.5128 21.7415 25.5138C21.8884 25.5148 21.8407 25.6206 21.8412 25.6908C21.8447 26.1239 21.8457 26.557 21.8402 26.9902C21.8392 27.0604 21.8964 27.1671 21.7635 27.1917C21.6186 27.2188 21.6577 27.0799 21.6111 27.0122L21.6116 27.0117Z" fill="white"/>
<path d="M40.0435 25.7063C40.199 25.5429 40.3775 25.4562 40.6001 25.4667C40.9295 25.4827 41.112 25.6436 41.1271 25.971C41.1436 26.3279 41.1381 26.6863 41.1431 27.0438C41.1441 27.1245 41.1421 27.1962 41.0313 27.1942C40.92 27.1922 40.9235 27.118 40.9235 27.0393C40.924 26.7229 40.9235 26.4071 40.9225 26.0908C40.922 25.8878 40.8929 25.7023 40.6402 25.6657C40.3379 25.6216 40.1328 25.7369 40.0596 26.0041C40.0335 26.0988 40.0225 26.2001 40.02 26.2983C40.0144 26.5229 40.0255 26.748 40.0144 26.9721C40.0104 27.0508 40.0912 27.1972 39.9097 27.1912C39.7547 27.1856 39.8174 27.0573 39.8164 26.9811C39.8104 26.565 39.8139 26.149 39.8139 25.7329C39.8139 25.7163 39.8124 25.6993 39.8139 25.6827C39.8214 25.609 39.7778 25.5103 39.9212 25.5118C40.0741 25.5138 39.9819 25.6361 40.0445 25.7053L40.0435 25.7063Z" fill="white"/>
<path d="M39.1386 27.0087C39.0263 27.0854 38.9346 27.1847 38.7997 27.2158C38.3444 27.32 38.0606 27.115 38.0441 26.6493C38.032 26.3159 38.0406 25.982 38.0401 25.6482C38.0401 25.581 38.0315 25.5168 38.1353 25.5133C38.2476 25.5098 38.2522 25.572 38.2517 25.6552C38.2502 25.972 38.2486 26.2893 38.2522 26.6062C38.2557 26.9069 38.3409 27.0192 38.5781 27.0513C38.8308 27.0849 39.0429 26.9551 39.1196 26.7119C39.2043 26.4427 39.1422 26.165 39.1592 25.8918C39.1627 25.8337 39.1502 25.773 39.1622 25.7174C39.1778 25.6442 39.0925 25.5163 39.26 25.5163C39.4275 25.5163 39.3563 25.6452 39.3573 25.7169C39.3638 26.142 39.3633 26.5676 39.3573 26.9932C39.3563 27.0614 39.4184 27.1696 39.28 27.1922C39.1301 27.2168 39.1798 27.0809 39.1381 27.0092L39.1386 27.0087Z" fill="white"/>
<path d="M17.119 26.0216C17.119 25.6973 17.1169 25.3729 17.1205 25.0486C17.1215 24.9704 17.0723 24.8556 17.2353 24.8636C17.3767 24.8706 17.3366 24.9704 17.3371 25.0426C17.3396 25.6166 17.3456 26.1906 17.3346 26.7641C17.331 26.939 17.3812 26.9947 17.5557 26.9851C17.8214 26.9711 18.0882 26.9806 18.3544 26.9821C18.4326 26.9826 18.5279 26.9556 18.5259 27.0934C18.5239 27.2132 18.4442 27.1967 18.3715 27.1967C18.0054 27.1977 17.6389 27.1897 17.2729 27.2007C17.1215 27.2052 17.1154 27.133 17.1169 27.0192C17.1215 26.6864 17.1184 26.354 17.1184 26.0211L17.119 26.0216Z" fill="white"/>
<path d="M41.5039 26.365C41.5094 25.6807 41.9792 25.3017 42.5318 25.5218C42.7113 25.593 42.8351 25.7208 42.8873 25.9118C42.9018 25.9665 42.9424 26.0286 42.8562 26.0537C42.79 26.0728 42.7223 26.0712 42.6988 25.9825C42.6922 25.959 42.6812 25.9359 42.6702 25.9138C42.5789 25.7289 42.4275 25.6527 42.2244 25.6612C41.8905 25.6752 41.699 25.9544 41.7155 26.4101C41.73 26.8042 41.9512 27.0628 42.2675 27.0473C42.4781 27.0368 42.6346 26.934 42.6963 26.7275C42.7268 26.6257 42.782 26.5806 42.8717 26.6152C42.9745 26.6548 42.9119 26.7415 42.8913 26.8032C42.7895 27.1069 42.5173 27.2538 42.1302 27.2207C41.8108 27.1932 41.5696 26.95 41.5189 26.5986C41.5069 26.5164 41.5084 26.4327 41.5044 26.366L41.5039 26.365Z" fill="white"/>
<path d="M11.3848 25.7038C11.6109 25.4662 11.8787 25.404 12.179 25.5223C12.355 25.5915 12.4613 25.7224 12.4628 25.9209C12.4658 26.2953 12.4679 26.6698 12.4704 27.0443C12.4704 27.119 12.4824 27.1997 12.3626 27.1927C12.2442 27.1857 12.2663 27.1019 12.2658 27.0303C12.2648 26.7225 12.2648 26.4142 12.2648 26.1064C12.2648 25.9048 12.2417 25.7158 11.996 25.6672C11.7042 25.6096 11.4871 25.7249 11.3994 25.985C11.3176 26.2282 11.3743 26.4803 11.3607 26.728C11.3542 26.8523 11.3582 26.9776 11.3597 27.1024C11.3607 27.1862 11.3066 27.1912 11.2434 27.1927C11.1752 27.1942 11.1592 27.1546 11.1592 27.0984C11.1592 26.5991 11.1597 26.0998 11.1592 25.6005C11.1592 25.5374 11.1873 25.5218 11.2479 25.5143C11.4049 25.4948 11.3317 25.6366 11.3848 25.7048V25.7038Z" fill="white"/>
<path d="M2.45636 25.7164C2.63786 25.5204 2.83291 25.4467 3.06306 25.4702C3.37744 25.5023 3.54241 25.6783 3.54642 25.9936C3.55043 26.327 3.55193 26.6603 3.54642 26.9937C3.54491 27.0679 3.60809 27.1992 3.44313 27.1902C3.28568 27.1817 3.35287 27.0549 3.35087 26.9797C3.34335 26.6964 3.34936 26.4132 3.34736 26.1295C3.34485 25.7931 3.2556 25.6753 2.99838 25.6617C2.68249 25.6452 2.46789 25.8071 2.44984 26.1074C2.43179 26.4062 2.44583 26.7075 2.44131 27.0072C2.44031 27.0809 2.48293 27.1862 2.34354 27.1917C2.19913 27.1972 2.24125 27.0889 2.24075 27.0163C2.23774 26.5746 2.23724 26.133 2.24175 25.6913C2.24225 25.6307 2.19061 25.5349 2.31396 25.5154C2.46538 25.4913 2.43179 25.6106 2.45686 25.7164H2.45636Z" fill="white"/>
<path d="M4.05279 26.3866C4.05279 26.2452 4.05931 26.1029 4.05078 25.962C4.04326 25.8407 4.127 25.6667 3.8793 25.6657C3.81663 25.6657 3.81412 25.5239 3.88081 25.5264C4.14004 25.5359 4.02772 25.3514 4.05279 25.2376C4.06984 25.1604 3.99663 25.0361 4.15056 25.0271C4.31051 25.0175 4.25686 25.1439 4.25987 25.2221C4.26539 25.3825 4.21023 25.5795 4.49453 25.5178C4.53715 25.5083 4.57476 25.5314 4.57676 25.5855C4.57977 25.6657 4.52913 25.6888 4.46394 25.6783C4.26138 25.6457 4.25636 25.766 4.25987 25.9169C4.26739 26.2247 4.26138 26.5335 4.26288 26.8413C4.26338 26.9766 4.27993 27.104 4.47046 27.0543C4.53013 27.0388 4.57074 27.0478 4.57576 27.1145C4.57877 27.1576 4.55971 27.1912 4.51559 27.2127C4.30801 27.314 4.07335 27.1927 4.0568 26.9616C4.04326 26.7711 4.05379 26.5786 4.05379 26.3871H4.05179L4.05279 26.3866Z" fill="white"/>
<path d="M43.9743 26.0172C43.9743 25.6838 43.9743 25.3499 43.9743 25.0166C43.9743 24.9414 43.9627 24.8657 44.0811 24.8642C44.2029 24.8627 44.1864 24.9429 44.1864 25.0156C44.1869 25.6908 44.1864 26.3666 44.1864 27.0418C44.1864 27.117 44.1989 27.1982 44.0816 27.1972C43.9693 27.1962 43.9728 27.1215 43.9733 27.0428C43.9743 26.7009 43.9733 26.359 43.9733 26.0172H43.9743Z" fill="white"/>
<path d="M27.9182 25.7214C28.0265 25.5785 28.1524 25.4903 28.3159 25.4707C28.3745 25.4637 28.4377 25.4607 28.4372 25.5494C28.4372 25.6066 28.4497 25.6708 28.3645 25.6808C27.9217 25.7334 27.8997 26.0603 27.8972 26.3986C27.8957 26.6062 27.8992 26.8137 27.8957 27.0218C27.8947 27.0965 27.9303 27.2017 27.7879 27.1927C27.65 27.1837 27.6936 27.0789 27.6931 27.0057C27.6901 26.5741 27.6886 26.142 27.6946 25.7104C27.6956 25.6437 27.6334 25.5394 27.7728 25.5149C27.9458 25.4838 27.8626 25.6442 27.9177 25.7219L27.9182 25.7214Z" fill="white"/>
<path d="M4.91113 26.347C4.91113 26.1224 4.91113 25.8983 4.91113 25.6738C4.91113 25.589 4.9006 25.5058 5.03247 25.5093C5.14729 25.5128 5.14128 25.5835 5.14128 25.6602C5.14128 26.1174 5.14078 26.5746 5.14128 27.0313C5.14128 27.118 5.14629 27.2047 5.02044 27.2002C4.89107 27.1957 4.91213 27.1 4.91163 27.0192C4.91063 26.7947 4.91163 26.5706 4.91163 26.346L4.91113 26.347Z" fill="white"/>
<path d="M43.5085 26.3696C43.5085 26.5942 43.5085 26.8182 43.5085 27.0428C43.5085 27.1205 43.5115 27.1967 43.4022 27.2017C43.2773 27.2068 43.2783 27.1235 43.2783 27.0353C43.2793 26.5781 43.2783 26.1209 43.2788 25.6642C43.2788 25.589 43.2683 25.5154 43.3851 25.5108C43.515 25.5058 43.5095 25.585 43.509 25.6723C43.5075 25.9049 43.509 26.1375 43.509 26.3706L43.5085 26.3696Z" fill="white"/>
<path d="M28.7398 26.3169C28.7398 26.0918 28.7398 25.8673 28.7398 25.6422C28.7398 25.574 28.7327 25.5118 28.837 25.5123C28.9358 25.5123 28.9418 25.5635 28.9413 25.6382C28.9398 26.1129 28.9403 26.5876 28.9413 27.0624C28.9413 27.1351 28.9368 27.1927 28.8405 27.1962C28.7393 27.1997 28.7393 27.1371 28.7393 27.0669C28.7398 26.8172 28.7393 26.5671 28.7393 26.3174L28.7398 26.3169Z" fill="white"/>
<path d="M5.91616 26.2473C6.00742 26.2473 6.09918 26.2473 6.19043 26.2473C6.25561 26.2473 6.30325 26.2608 6.30174 26.3425C6.30074 26.4087 6.28771 26.4583 6.20898 26.4583C6.0014 26.4583 5.79382 26.4583 5.58573 26.4578C5.502 26.4578 5.501 26.3986 5.50049 26.337C5.49999 26.2728 5.53258 26.2488 5.59175 26.2488C5.69955 26.2488 5.80786 26.2488 5.91566 26.2488V26.2478L5.91616 26.2473Z" fill="white"/>
<path d="M5.13993 25.0145C5.13993 25.0937 5.15346 25.1674 5.03664 25.1719C4.91279 25.1769 4.90577 25.1073 4.91078 25.0165C4.91479 24.9433 4.89975 24.8666 5.01508 24.8616C5.13943 24.8561 5.14494 24.9303 5.13993 25.0145Z" fill="white"/>
<path d="M43.5086 25.0346C43.5161 25.1103 43.5061 25.17 43.3973 25.172C43.2669 25.1745 43.28 25.0918 43.2795 25.0085C43.279 24.9293 43.2825 24.8627 43.3923 24.8617C43.5216 24.8601 43.5101 24.9449 43.5091 25.0346H43.5086Z" fill="white"/>
<path d="M28.74 25.017C28.74 24.9373 28.7235 24.8586 28.8463 24.8651C28.9707 24.8716 28.9356 24.9579 28.9406 25.025C28.9461 25.1022 28.9511 25.1724 28.8323 25.1689C28.7019 25.1649 28.751 25.0742 28.74 25.017Z" fill="white"/>
<path d="M39.1369 20.192C39.1144 20.2055 39.0913 20.217 39.0742 20.1865C39.0732 20.1845 39.0968 20.1684 39.1088 20.1584C39.1199 20.1679 39.1289 20.1794 39.1369 20.1915V20.192Z" fill="white"/>
<path d="M48.9384 20.951C48.9609 20.959 48.981 20.9735 48.9609 20.9961C48.9549 21.0031 48.9243 20.9886 48.9048 20.9841C48.9158 20.973 48.9274 20.962 48.9384 20.951Z" fill="white"/>
<path d="M48.8876 20.9008L48.9382 20.9509C48.9272 20.962 48.9157 20.973 48.9046 20.984C48.8881 20.9735 48.871 20.963 48.8545 20.952C48.8655 20.9349 48.8766 20.9179 48.8876 20.9008Z" fill="white"/>
<path d="M41.5483 15.9906C41.5483 15.9906 41.7078 16.0142 41.793 16.0588C41.8782 16.1034 41.2695 16.2132 41.2695 16.2132L41.5483 15.9911V15.9906Z" fill="white"/>
<path d="M41.4697 16.6137L41.7931 16.0582H41.8954C41.8954 16.0582 41.9621 15.984 41.9215 16.1695C41.8809 16.355 41.8017 16.5039 41.8017 16.5039L41.567 16.6413L41.4702 16.6132L41.4697 16.6137Z" fill="white"/>
<path d="M40.8345 17.5451L41.7932 16.0588L42.4595 16.8017L41.2396 17.4755L40.8345 17.5451Z" fill="#D5142F"/>
<path d="M58.6131 24.3864C57.7211 23.3096 56.6787 22.3837 55.6593 21.4348C54.3862 20.2507 53.1447 19.033 52.2437 17.5311C51.101 15.6262 49.671 13.9623 48.0645 12.4454C43.7528 8.3733 38.8842 5.23915 33.4228 3.10059C33.4123 3.09608 33.4023 3.09157 33.3917 3.08756C32.0886 2.53813 30.7112 2.08294 29.3013 1.70647C27.2951 1.12947 25.2619 0.695838 23.1685 0.522387C23.1033 0.516873 23.0387 0.51186 22.9735 0.506346C19.5785 0.0832456 16.3509 -0.0150099 13.8639 0.00153315H13.8619C12.4575 0.0110579 11.2892 0.0566765 10.4608 0.101293L3.07761 0.318858C2.2202 0.330388 1.36279 0.341918 0.504883 0.353448C0.506888 0.371996 0.504883 0.383025 0.509395 0.386534C0.535469 0.406586 0.561542 0.427641 0.590624 0.44268C1.48313 0.892349 2.11039 1.59217 2.52806 2.49101C2.70005 2.86047 2.87053 3.23143 3.05555 3.59437C3.4316 4.33129 4.03129 4.77895 4.84106 4.9509C5.26776 5.04164 5.70148 5.06018 6.13369 5.08575C8.07615 5.20105 10.0206 5.19103 11.9651 5.19002C15.0111 5.18902 18.0572 5.14641 21.1007 5.3354C23.1455 5.46223 25.1641 5.74898 27.1562 6.21719C31.9532 7.34563 36.5296 9.06409 40.9139 11.3134C43.292 12.5336 45.409 14.0791 47.2326 16.0317C48.0183 16.8729 48.8191 17.7005 49.6163 18.5307C51.0433 20.0166 52.5882 21.354 54.3907 22.3787C55.6307 23.084 56.8221 23.8671 57.9191 24.785C58.6301 25.3795 59.3186 25.9991 59.9909 26.6628C59.995 26.5987 59.9975 26.5576 60 26.5165C59.6054 25.762 59.1576 25.0436 58.6131 24.3859V24.3864Z" fill="#0043B0"/>
<path d="M45.9859 27.6514C46.01 27.6268 46.0341 27.6023 46.0581 27.5772L46.9486 26.6628L44.76 28.4415C44.0299 29.0054 43.2798 29.5428 42.4911 30.0281C40.3311 31.358 38.0486 31.8333 35.5496 31.1731C32.477 30.361 29.3743 29.6887 26.1888 29.4962C24.3091 29.3824 22.4368 29.4586 20.5791 29.7925C18.0731 30.2426 15.7119 31.1109 13.4461 32.2549C10.5685 33.7072 7.91954 35.5149 5.35483 37.4534C4.76468 37.8996 4.18204 38.3557 3.55127 38.8415C4.72206 39.1428 5.82215 39.4446 6.93176 39.7063C8.07447 39.976 9.23172 40.1138 10.4025 39.8787C10.6532 39.8286 10.8934 39.7724 11.103 39.5859C13.1763 37.7431 15.3649 36.0603 17.7431 34.616C20.6282 32.864 23.7375 32.0955 27.0979 32.2343C29.626 32.3386 32.128 32.7206 34.6486 32.8955C35.7066 32.9687 36.764 33.0008 37.82 32.8464C39.3869 32.6168 40.7939 31.9982 42.086 31.1044C43.4724 30.1459 44.6798 28.9864 45.8516 27.7878L45.9854 27.6504L45.9859 27.6514Z" fill="#FDD714"/>
<rect width="0.2" height="1" transform="matrix(-1 0 0 1 42 16)" fill="#D5142F"/>
</g>
<defs>
<clipPath id="clip0_976_643">
<rect width="60" height="40" fill="white"/>
</clipPath>
</defs>
</svg>
