<svg width="64" height="38" viewBox="0 0 64 38" fill="none" xmlns="http://www.w3.org/2000/svg">
<g clip-path="url(#clip0_976_607)">
<path d="M27.644 6.25764C28.0637 6.5507 28.4585 6.84101 28.8095 7.18711C29.6128 7.97942 30.1085 8.94227 30.4413 9.9961C30.7937 11.1116 30.9034 12.2624 30.9562 13.4209C30.9977 14.3335 31.0057 15.2479 31.0841 16.1586C31.0971 16.3099 31.1195 16.4613 31.1475 16.6108C31.2717 17.2705 32.075 17.607 32.6585 17.2458C32.7364 17.1973 32.8046 17.1009 32.8904 17.2527C32.9166 17.2988 32.9927 17.2316 33.0426 17.1918C33.5845 16.7653 33.8165 16.1609 34.0167 15.5446C34.3206 14.6101 34.4779 13.6459 34.6049 12.6748C34.6478 12.3447 34.6581 12.0109 34.7267 11.6841C34.7626 11.5144 34.6128 11.3809 34.6459 11.2026C34.8014 10.3587 34.7785 9.4877 35.0469 8.66018C35.2326 8.08915 35.5589 7.64613 36.161 7.43033C36.6012 7.27215 36.9555 7.40565 37.2603 7.70831C37.728 8.17281 37.9394 8.77494 38.1457 9.37386C38.4822 10.3523 38.6773 11.3604 38.7884 12.3858C38.7992 12.4837 38.766 12.6355 38.8916 12.6579C38.9943 12.6762 39.0363 12.534 39.0788 12.4508C39.3182 11.9849 39.4498 11.4847 39.5502 10.9749C39.6743 10.3445 39.7094 9.70487 39.7192 9.06617C39.7383 7.83175 39.4064 6.67642 38.857 5.57048C38.2213 4.29034 37.3321 3.19262 36.3543 2.15571C36.26 2.05558 36.148 1.96963 36.091 1.83933C36.0266 1.69166 36.0836 1.61896 36.2395 1.61668C36.414 1.61393 36.548 1.7136 36.6805 1.80595C37.587 2.43917 38.3688 3.19399 39.0073 4.08917C40.0006 5.48178 40.5724 7.02709 40.719 8.71596C40.8786 10.5548 40.5323 12.3077 39.7178 13.9723C39.4484 14.5223 39.1464 15.0536 38.7698 15.54C38.5793 15.7855 38.3609 16.0393 38.0005 15.9446C37.6673 15.8568 37.5856 15.5478 37.5478 15.2616C37.4848 14.787 37.4633 14.307 37.4185 13.8301C37.3326 12.9194 37.193 12.0178 36.9102 11.1427C36.8775 11.0417 36.8299 10.9452 36.7842 10.8488C36.752 10.7806 36.7193 10.7006 36.6194 10.7175C36.5172 10.7349 36.5204 10.8218 36.5144 10.8972C36.4668 11.4893 36.4458 12.0832 36.3725 12.6734C36.1732 14.2736 35.8049 15.823 34.9419 17.2207C34.5129 17.9151 33.9719 18.5067 33.2242 18.888C32.0988 19.4623 30.3867 19.3489 29.6702 17.6362C29.2245 16.5714 29.0215 15.4545 28.8487 14.3266C28.6275 12.8819 28.2952 11.4678 27.5432 10.1845C27.2366 9.66143 26.8879 9.16767 26.3222 8.87415C25.4783 8.43616 24.4701 8.58612 23.8199 9.26825C23.4493 9.65686 23.3134 10.1543 23.2901 10.6718C23.2364 11.8619 23.4838 13.0053 23.9282 14.1053C24.5097 15.5437 25.5077 16.6812 26.6979 17.6714C26.858 17.8045 27.0172 17.9384 27.1679 18.0811C27.2594 18.168 27.4032 18.269 27.3224 18.4043C27.2366 18.5483 27.0807 18.4583 26.964 18.4126C26.3987 18.1899 25.8764 17.8886 25.3788 17.5471C24.042 16.6286 23.004 15.4545 22.2623 14.029C21.6499 12.8517 21.2919 11.6031 21.2163 10.2846C21.058 7.51629 21.9127 5.08448 23.8367 3.04586C25.3303 1.46352 27.1819 0.489697 29.3589 0.133544C31.0827 -0.148543 32.7677 0.0192462 34.4097 0.597137C34.7015 0.700006 34.9909 0.815218 35.2508 0.986208C35.3255 1.03558 35.424 1.08999 35.3941 1.1988C35.3633 1.31219 35.248 1.3259 35.1491 1.3419C35.0973 1.35013 35.0422 1.33459 34.9881 1.3323C34.0079 1.28704 33.0281 1.25961 32.0633 1.48318C31.9224 1.51564 31.7067 1.51152 31.689 1.68708C31.6736 1.8407 31.8818 1.88322 31.9989 1.94814C32.4928 2.222 32.981 2.50454 33.4253 2.85155C33.9953 3.29594 34.5138 3.78788 34.7916 4.46864C35.0992 5.22255 34.7883 5.90697 34.0251 6.22015C33.3395 6.50178 32.6188 6.58316 31.8888 6.64442C30.6649 6.74637 29.4719 6.56578 28.2835 6.3125C28.1099 6.27547 27.9306 6.26084 27.7537 6.24026C27.7183 6.23615 27.6804 6.25124 27.644 6.25764ZM31.0766 4.69358C31.3343 4.69861 31.5914 4.69495 31.8407 4.63186C32.0083 4.58934 32.2421 4.58706 32.285 4.39366C32.3322 4.18107 32.1207 4.06494 31.9686 3.95567C31.5228 3.63655 31.0421 3.37184 30.5398 3.14919C30.1944 2.99603 29.8388 2.83692 29.4439 2.9814C29.1391 3.09295 28.8389 3.22188 28.5785 3.41481C28.396 3.55014 28.1761 3.6489 28.0571 3.85738C27.9591 4.02928 28.0076 4.19296 28.1878 4.23639C29.1381 4.46453 30.0927 4.66752 31.0761 4.69267L31.0766 4.69358Z" fill="url(#paint0_radial_976_607)"/>
<path d="M23.3884 37.3828C24.0572 37.3718 24.7252 37.3535 25.3917 37.295C25.5093 37.2849 25.7166 37.2123 25.7371 37.3522C25.7562 37.4806 25.5345 37.4847 25.4164 37.5094C24.9067 37.6178 24.3868 37.6594 23.8687 37.7106C22.7778 37.8185 21.6847 37.8784 20.5892 37.93C17.6701 38.0686 14.8046 37.7609 11.9928 36.9887C10.383 36.5466 8.90895 35.8292 7.59221 34.8102C6.95228 34.315 6.28248 33.8537 5.68643 33.3083C4.7417 32.4437 3.92347 31.4667 3.15471 30.4504C3.10384 30.3832 3.05623 30.3132 3.00488 30.2465C2.81024 29.9927 2.78597 29.9909 2.56333 30.2355C2.48584 30.3205 2.4121 30.4111 2.35188 30.5075C2.02888 31.0269 1.70402 31.5458 1.39269 32.072C1.23959 32.3308 1.21065 32.6156 1.27086 32.9128C1.33248 33.2173 1.1411 33.4464 0.821373 33.4697C0.2972 33.5081 -0.103282 33.0157 0.0236776 32.4904C0.1343 32.0332 0.356478 31.624 0.581457 31.2148C1.01928 30.4175 1.55839 29.6777 1.97521 28.868C2.03589 28.7505 2.03215 28.665 1.96447 28.553C1.77077 28.2321 1.59106 27.9015 1.49818 27.5362C1.4487 27.3419 1.40996 27.1366 1.59013 26.9821C1.77823 26.8207 1.97474 26.9158 2.15631 27.0018C2.35795 27.0973 2.56613 27.1527 2.78737 27.1216C3.10757 27.0763 3.37176 26.9762 3.57807 26.6776C4.59514 25.205 5.74057 23.8357 7.11938 22.6685C7.31776 22.5007 7.55067 22.3704 7.77332 22.2319C8.05197 22.0582 8.25408 22.0678 8.47906 22.3114C8.95936 22.8317 9.23195 23.4425 9.21888 24.1558C9.21514 24.3761 9.18714 24.5956 9.13486 24.8118C9.05178 25.157 8.88374 25.4386 8.59435 25.6654C7.66316 26.3955 6.59615 26.8907 5.52913 27.3854C5.07964 27.5938 4.63248 27.8028 4.21706 28.0748C3.81985 28.3354 3.63081 28.7355 3.43477 29.1328C3.36942 29.2649 3.48145 29.3641 3.54539 29.4633C4.02056 30.2044 4.63015 30.8308 5.28268 31.4224C6.99569 32.9755 8.96123 34.1404 11.0901 35.0538C12.2892 35.5686 13.5346 35.9467 14.8107 36.2339C16.3039 36.5699 17.8036 36.8698 19.3233 37.0664C20.6732 37.2406 22.0263 37.3672 23.3888 37.38L23.3884 37.3828ZM6.00196 25.7674C6.31982 25.6617 6.59381 25.4898 6.85893 25.3093C7.28789 25.018 7.69163 24.6943 7.94089 24.2307C7.9913 24.137 8.14346 24.0136 8.01137 23.9162C7.89748 23.8321 7.74344 23.9089 7.62815 23.9967C7.55487 24.0524 7.48206 24.1105 7.41344 24.1713C7.08484 24.4625 6.78378 24.7803 6.49439 25.1081C6.31329 25.3129 6.12192 25.5118 6.00196 25.7669V25.7674Z" fill="#D61628"/>
<path d="M20.9832 26.6013C22.6864 26.6452 24.3826 26.7906 26.0816 26.8857C26.3841 26.9026 26.687 26.9149 26.989 26.9342C27.1608 26.9451 27.2849 26.8711 27.3946 26.7499C27.6252 26.4943 27.8142 26.2036 28.0976 25.9923C28.3655 25.7925 28.5933 25.7468 28.7478 25.8872C28.9363 26.0591 28.9475 26.3691 28.773 26.6201C28.7557 26.6452 28.7319 26.6667 28.7179 26.6937C28.674 26.7769 28.5153 26.8203 28.5732 26.9245C28.6189 27.0073 28.7585 26.9716 28.856 26.9794C29.5861 27.0347 30.3165 27.0068 31.047 26.9858C31.5007 26.9726 31.7215 27.1111 31.8727 27.5056C32.0165 27.881 31.819 28.159 31.412 28.1238C31.0564 28.0927 30.7035 28.0314 30.3506 27.9743C29.5244 27.8403 28.6922 27.8769 27.8609 27.8851C27.7279 27.8865 27.6191 27.9354 27.5407 28.0428C27.0819 28.6701 26.6786 29.3262 26.4335 30.065C26.3869 30.2054 26.3467 30.359 26.4896 30.465C26.6315 30.5702 26.7818 30.4939 26.9026 30.4161C27.1752 30.241 27.4282 30.0367 27.7022 29.8643C28.1816 29.563 28.6927 29.456 29.2238 29.7299C29.7485 30.0005 30.0136 30.829 29.7588 31.3515C29.6108 31.6547 29.3237 31.7772 29.0292 31.662C28.7608 31.5573 28.6605 31.3461 28.7557 31.0759C28.8094 30.9236 28.8887 30.7654 28.7351 30.6319C28.5821 30.4989 28.4103 30.5629 28.253 30.6324C27.8656 30.8034 27.5762 31.1138 27.2242 31.3374C26.9311 31.5239 26.6296 31.6611 26.2706 31.6583C25.7745 31.6547 25.4337 31.3525 25.4039 30.8623C25.3717 30.3338 25.5154 29.8378 25.7203 29.355C25.9173 28.8905 26.182 28.4589 26.4102 28.0099C26.5227 27.7882 26.5157 27.7649 26.2734 27.7411C26.0727 27.7214 25.8692 27.7036 25.669 27.7159C24.5558 27.785 23.4481 27.6286 22.3377 27.6359C21.105 27.6442 19.869 27.4581 18.6396 27.6954C18.3926 27.7429 18.1546 27.667 17.9502 27.5372C17.7728 27.4243 17.6216 27.2734 17.678 27.0274C17.7326 26.7901 17.9324 26.6045 18.1849 26.6009C18.7212 26.5926 19.2576 26.6018 19.7943 26.6027C20.1906 26.6036 20.5869 26.6027 20.9832 26.6027V26.6013Z" fill="#D61628"/>
<path d="M55.6572 30.2557C55.3529 30.482 55.1666 30.7339 54.9585 30.9657C54.7279 31.2227 54.5085 31.4919 54.1906 31.6565C53.5717 31.9766 52.9444 31.6456 52.8912 30.9634C52.8478 30.407 52.9691 29.8753 53.1456 29.3495C53.4975 28.3003 54.1048 27.3923 54.7535 26.5058C54.8894 26.3202 55.0317 26.1387 55.1643 25.9508C55.2628 25.8109 55.3991 25.7281 55.5601 25.6865C55.7426 25.6394 55.9139 25.6541 56.0483 25.8104C56.1748 25.9576 56.1403 26.1108 56.0661 26.2594C55.8663 26.659 55.5727 26.9968 55.2969 27.3452C54.7442 28.0429 54.3115 28.8027 54.0268 29.6417C53.9404 29.8959 53.89 30.1579 53.8709 30.4249C53.8648 30.514 53.8541 30.6224 53.9582 30.6644C54.0506 30.7019 54.1178 30.626 54.1776 30.567C54.4567 30.2914 54.7265 30.0061 55.0145 29.7395C55.7202 29.0871 56.5342 28.6359 57.506 28.4882C57.8552 28.4352 58.2024 28.432 58.5483 28.5083C58.8517 28.5755 58.9773 28.7204 58.9301 28.9527C58.8811 29.1959 58.6328 29.3623 58.3658 29.3002C58.0634 29.2298 57.7651 29.2133 57.4673 29.2988C57.0724 29.4122 56.7331 29.5969 56.5954 30.0134C56.5786 30.0637 56.5646 30.1163 56.559 30.1684C56.5109 30.642 56.7779 30.8546 57.2082 30.6384C58.055 30.2132 58.8596 29.7231 59.4296 28.9436C59.5042 28.8411 59.5355 28.7246 59.5673 28.6066C59.7633 27.8678 60.0004 27.144 60.3986 26.4816C60.5605 26.2123 60.7505 25.9613 60.9596 25.7258C61.025 25.6522 61.1066 25.5891 61.1907 25.5361C61.348 25.4373 61.5193 25.3903 61.6985 25.479C61.8829 25.5704 61.9202 25.7377 61.9258 25.9224C61.9356 26.2594 61.7587 26.5355 61.6243 26.8245C61.2205 27.6936 60.6427 28.4649 60.168 29.2938C59.9383 29.6952 60.0055 30.1176 60.1712 30.5277C60.2347 30.685 60.3468 30.7152 60.5101 30.6516C60.6814 30.5849 60.8859 30.4966 61.0194 30.6909C61.151 30.8825 61.0422 31.0754 60.9204 31.2368C60.568 31.705 59.9603 31.6259 59.6811 31.0796C59.5589 30.84 59.4688 30.5899 59.4333 30.3224C59.4244 30.2571 59.4361 30.1693 59.3568 30.1455C59.2765 30.1217 59.2424 30.2086 59.1939 30.252C58.6869 30.7047 58.1562 31.1244 57.5345 31.4206C57.3445 31.5112 57.1476 31.5806 56.9403 31.6186C56.2411 31.7475 55.7235 31.3667 55.6586 30.6727C55.6474 30.5529 55.6572 30.4313 55.6572 30.2543V30.2557Z" fill="#D61628"/>
<path d="M34.103 29.9566C34.1917 28.7327 34.4293 27.5984 35.0235 26.5601C35.268 26.1327 35.5584 25.7367 35.9747 25.4496C36.182 25.3065 36.4069 25.2046 36.6721 25.2896C37.0436 25.4089 37.1645 25.7719 36.9157 26.0696C36.7001 26.3283 36.4377 26.5519 36.2366 26.8198C35.5206 27.774 35.1682 28.8562 35.1355 30.0362C35.1299 30.2373 35.1341 30.4961 35.3773 30.5537C35.5943 30.6049 35.6937 30.3814 35.8006 30.2236C36.1577 29.696 36.5264 29.1757 37.0417 28.7807C37.9893 28.0542 38.8766 28.2138 39.5184 29.2087C39.742 29.5552 39.9506 29.9141 40.2475 30.2113C40.5551 30.5194 40.7791 30.5336 41.1198 30.2671C41.8069 29.7303 42.1462 29.0221 42.2004 28.1736C42.2125 27.9816 42.1934 27.7772 42.458 27.7306C42.6947 27.6889 42.9453 27.8257 43.041 28.0552C43.1764 28.3802 43.104 28.7067 42.9999 29.0176C42.7152 29.8684 42.234 30.5939 41.5054 31.149C41.3266 31.2852 41.1301 31.395 40.9107 31.4562C40.3655 31.608 39.9114 31.4347 39.5076 30.9323C39.3191 30.6977 39.1772 30.4353 39.0222 30.1806C38.9064 29.99 38.7795 29.8085 38.6115 29.6585C38.2478 29.3335 37.8987 29.3326 37.5374 29.6617C37.2392 29.9338 37.0217 30.2689 36.7995 30.5994C36.5857 30.9172 36.3869 31.2464 36.1189 31.5252C35.4613 32.2097 34.5674 32.0026 34.2603 31.1005C34.1277 30.7114 34.1086 30.31 34.1025 29.9562L34.103 29.9566Z" fill="#D61628"/>
<path d="M8.94154 31.8133C8.66241 31.8083 8.34035 31.7703 8.03789 31.6332C7.65794 31.4613 7.42783 31.1632 7.33541 30.7736C7.28127 30.5464 7.16878 30.4138 6.94753 30.3155C6.50318 30.1189 6.19465 29.7866 6.06675 29.3115C6.01074 29.1044 6.03221 28.9033 6.10736 28.7067C6.14984 28.596 6.21332 28.4927 6.35568 28.5051C6.48917 28.5169 6.52745 28.6239 6.54565 28.7327C6.61006 29.1104 6.77903 29.4016 7.17018 29.5433C7.35828 29.6115 7.46144 29.5936 7.54639 29.3957C7.74056 28.9417 8.01035 28.5325 8.40663 28.2193C8.74783 27.9496 9.12404 27.7685 9.581 27.7996C10.0478 27.8316 10.3479 28.1119 10.3754 28.5677C10.4072 29.0962 10.2116 29.5401 9.80458 29.884C9.4209 30.2081 8.98215 30.4285 8.47151 30.4925C8.4127 30.4998 8.33568 30.4833 8.32028 30.5647C8.30721 30.6337 8.36649 30.6744 8.4113 30.7147C8.55926 30.8463 8.74503 30.8669 8.93267 30.8806C9.44564 30.9186 9.9152 30.7778 10.3666 30.5519C11.238 30.1153 12.0884 29.6412 12.9407 29.1703C13.3291 28.9559 13.7352 28.8512 14.1912 28.9133C15.0883 29.0359 15.2732 30.0947 14.8311 30.6685C14.5837 30.9899 14.2584 31.2249 13.8407 31.3081C13.724 31.3314 13.6082 31.3332 13.4962 31.2907C13.3482 31.2345 13.2455 31.1357 13.2269 30.9753C13.2087 30.8194 13.2946 30.7124 13.4234 30.6397C13.6115 30.5332 13.8071 30.439 13.977 30.3037C14.0848 30.2177 14.1833 30.1153 14.1142 29.9736C14.0512 29.8442 13.9111 29.8117 13.7739 29.8227C13.6255 29.8341 13.4911 29.8977 13.358 29.9617C12.3274 30.4596 11.3575 31.0708 10.2979 31.5166C9.87646 31.6935 9.44704 31.8019 8.9406 31.8128L8.94154 31.8133ZM9.63935 28.8672C9.63935 28.6875 9.53059 28.5942 9.35322 28.6486C8.90186 28.7876 8.62181 29.115 8.41456 29.5109C8.36742 29.6005 8.38656 29.6846 8.51958 29.6672C8.91633 29.616 9.2678 29.4706 9.52919 29.1616C9.59874 29.0798 9.63841 28.9778 9.63935 28.8667V28.8672Z" fill="#D61628"/>
<path d="M45.2957 28.5096C45.5067 28.5064 45.7163 28.511 45.9142 28.596C46.0799 28.6673 46.197 28.7793 46.2353 28.9599C46.3067 29.2992 46.2045 29.4208 45.8553 29.4126C45.5034 29.4043 45.1557 29.4331 44.821 29.5483C44.4607 29.6727 44.2035 29.9004 44.1199 30.278C44.0457 30.6141 44.2446 30.7873 44.5722 30.6708C44.7776 30.5976 44.9512 30.4655 45.13 30.3434C45.6304 30.0019 46.1527 29.7052 46.773 29.6233C47.2542 29.5598 47.7033 29.6238 48.0897 29.9388C48.1196 29.963 48.1523 29.984 48.184 30.0055C48.5803 30.2712 48.5766 30.2611 48.9827 30.0055C49.8163 29.4811 50.6859 29.0294 51.6651 28.8178C51.8182 28.7848 51.9732 28.772 52.1286 28.7839C52.4227 28.8068 52.5949 29.0011 52.5809 29.2859C52.5669 29.5671 52.3984 29.7038 52.0997 29.7303C51.1031 29.8181 50.2266 30.1962 49.455 30.8143C49.2268 30.9972 49.0121 31.1974 48.7427 31.3264C48.3259 31.5252 48.0701 31.4658 47.8531 31.0676C47.5002 30.4207 47.0106 30.4211 46.4873 30.7032C46.0318 30.9487 45.5954 31.2276 45.1505 31.4923C44.8084 31.6962 44.4317 31.7374 44.0476 31.6898C43.4847 31.6203 43.1355 31.1974 43.1257 30.6054C43.1075 29.4962 44.1302 28.5087 45.2966 28.5091L45.2957 28.5096Z" fill="#D61628"/>
<path d="M17.7533 28.5087C17.947 28.5018 18.1481 28.5151 18.3395 28.5914C18.5682 28.6829 18.698 28.8735 18.6933 29.1058C18.6887 29.3385 18.5897 29.4249 18.3479 29.4139C17.9722 29.397 17.5997 29.4244 17.2445 29.5525C16.873 29.6869 16.5934 29.9178 16.5504 30.3324C16.5177 30.6461 16.69 30.7736 16.9943 30.6749C17.1889 30.6118 17.3486 30.4892 17.5143 30.3754C18.0263 30.0238 18.5575 29.7152 19.1932 29.6247C19.6861 29.5547 20.137 29.6293 20.5319 29.9429C20.58 29.9813 20.6322 30.0147 20.6841 30.0485C21.0038 30.2552 21.0556 30.2442 21.3707 30.0407C22.2183 29.4926 23.1094 29.0345 24.1115 28.8155C24.2646 28.7821 24.4195 28.7679 24.5745 28.7835C24.8564 28.8118 25.0296 29.0084 25.017 29.2749C25.0039 29.5598 24.8406 29.7042 24.5451 29.728C23.6219 29.8016 22.8004 30.1386 22.0624 30.679C21.7646 30.8971 21.5065 31.1673 21.1662 31.3305C20.7704 31.5202 20.4791 31.458 20.291 31.0777C19.9732 30.4353 19.4317 30.4156 18.8894 30.7165C18.4301 30.9711 17.9852 31.2514 17.5311 31.5156C17.1861 31.7164 16.8053 31.742 16.4239 31.6789C15.8773 31.5883 15.5735 31.1737 15.5599 30.5715C15.5361 29.5182 16.6368 28.4419 17.7523 28.5087H17.7533Z" fill="#D61628"/>
<path d="M41.7092 35.0091C41.4697 35.2029 41.3348 35.4713 41.1365 35.6875C40.9409 35.9006 40.7649 36.131 40.5773 36.3518C40.4643 36.4853 40.3808 36.4122 40.2986 36.3107C39.9896 35.9289 39.6797 35.5485 39.3674 35.1695C39.3208 35.1128 39.2918 35.0324 39.1989 35.0223C39.135 35.0786 39.1653 35.1512 39.1653 35.2153C39.1635 36.0601 39.1537 36.9055 39.1705 37.7504C39.1761 38.0201 39.0155 37.9689 38.8568 37.9776C38.6846 37.9867 38.5744 37.9803 38.5772 37.7467C38.5912 36.5973 38.5879 35.4475 38.5791 34.2981C38.5777 34.1034 38.6281 34.0604 38.8325 34.033C39.2227 33.9804 39.3581 34.2725 39.5168 34.4837C39.7763 34.8294 40.0914 35.1298 40.329 35.4909C40.3864 35.5783 40.4737 35.6011 40.5553 35.501C40.652 35.383 40.7509 35.2669 40.8489 35.1499C41.1271 34.8175 41.4048 34.4842 41.6844 34.1532C41.7633 34.0599 42.1708 33.9973 42.2721 34.0576C42.3374 34.0965 42.3281 34.1605 42.3281 34.2204C42.3281 35.4155 42.3267 36.6111 42.3314 37.8062C42.3318 37.9392 42.2814 37.9858 42.1545 37.9749C42.1316 37.973 42.1078 37.9762 42.0844 37.9767C41.8607 37.981 41.749 37.8709 41.7493 37.6466C41.7493 36.8168 41.7493 35.987 41.7484 35.1572C41.7484 35.1147 41.7684 35.0671 41.7078 35.0095L41.7092 35.0091Z" fill="#C0C0C0"/>
<path d="M48.5935 34.9748C48.5935 35.9362 48.5949 36.8259 48.5911 37.7156C48.5911 37.7988 48.6518 37.9241 48.5361 37.958C48.3974 37.9982 48.2425 37.9941 48.0992 37.957C48.039 37.9415 48.0539 37.8688 48.0539 37.8162C48.0539 36.6133 48.0539 35.4105 48.0539 34.2076C48.0539 34.1395 48.0455 34.048 48.1407 34.0503C48.3027 34.0544 48.4758 33.9868 48.6168 34.1482C49.1568 34.7663 49.7062 35.3771 50.2519 35.9911C50.5539 36.3313 50.8549 36.6719 51.1523 37.0074C51.2568 36.9631 51.2195 36.8941 51.2199 36.8397C51.2213 35.987 51.2311 35.1339 51.2143 34.2817C51.2092 34.0298 51.3404 34.048 51.5154 34.0394C51.7086 34.0298 51.7889 34.0682 51.7866 34.284C51.7754 35.4105 51.7838 36.5375 51.7772 37.6644C51.7768 37.7646 51.8603 37.9355 51.7054 37.9584C51.5294 37.9845 51.3259 38.0485 51.1672 37.8601C50.8708 37.5085 50.5585 37.1698 50.2528 36.8259C49.7622 36.2732 49.2717 35.7205 48.7802 35.1682C48.7363 35.1188 48.6882 35.0731 48.5935 34.9757V34.9748Z" fill="#C0C0C0"/>
<path d="M61.6124 37.9585C61.3735 38.0165 61.2563 37.9351 61.1821 37.7335C61.0878 37.477 60.9548 37.2338 60.8465 36.9819C60.7923 36.8557 60.7186 36.7931 60.5678 36.7963C60.1249 36.8054 59.6815 36.8054 59.2385 36.7972C59.105 36.7949 59.0425 36.8484 58.9972 36.9595C58.8786 37.2484 58.7554 37.5356 58.6303 37.8222C58.5743 37.9507 58.1169 38.0458 58.0165 37.9525C57.9708 37.91 58.0048 37.8716 58.0226 37.8304C58.5472 36.6129 59.0728 35.3959 59.5928 34.1761C59.653 34.0348 59.7519 34.022 59.8868 34.0166C60.039 34.0101 60.1081 34.0742 60.166 34.2003C60.7163 35.4064 61.2783 36.6075 61.8192 37.8176C61.9504 38.1112 61.6465 37.8958 61.6129 37.958L61.6124 37.9585ZM59.8845 34.8953C59.6847 35.3634 59.5158 35.7607 59.3449 36.1571C59.3076 36.244 59.3029 36.3034 59.428 36.3021C59.7459 36.2989 60.0637 36.2989 60.3816 36.2984C60.4722 36.2984 60.5137 36.2728 60.4694 36.1763C60.2822 35.7708 60.0983 35.3634 59.885 34.8953H59.8845Z" fill="#C0C0C0"/>
<path d="M46.8473 37.974C46.6788 38.0178 46.5715 37.9324 46.4982 37.7444C46.3937 37.4752 46.2532 37.2191 46.1397 36.953C46.0893 36.8351 46.0156 36.7962 45.8905 36.7976C45.4475 36.8026 45.0041 36.8049 44.5611 36.7962C44.4216 36.7935 44.3483 36.8442 44.3002 36.9658C44.1938 37.2342 44.0799 37.5003 43.9688 37.7673C43.8979 37.9378 43.4951 38.0645 43.341 37.9644C43.2752 37.9218 43.3135 37.8747 43.3345 37.8258C43.8554 36.6152 44.3772 35.4055 44.8939 34.193C44.956 34.0471 45.054 34.0197 45.2025 34.0156C45.3584 34.011 45.4228 34.0828 45.4788 34.2049C46.009 35.3693 46.5421 36.5324 47.0747 37.6955C47.1596 37.8811 47.084 37.9738 46.8478 37.9735L46.8473 37.974ZM45.1712 34.9505C44.9952 35.3606 44.8244 35.7579 44.6536 36.1557C44.6148 36.2458 44.627 36.3006 44.7455 36.2993C45.0564 36.2961 45.3672 36.2924 45.6776 36.2988C45.8256 36.3015 45.8041 36.2321 45.7649 36.1447C45.6422 35.8741 45.5227 35.602 45.3925 35.335C45.3308 35.2089 45.3112 35.0575 45.1712 34.9505Z" fill="#C0C0C0"/>
<path d="M55.0464 36.0067C55.0464 35.4283 55.0529 34.85 55.0422 34.2716C55.0389 34.0924 55.0865 34.0321 55.2761 34.0389C55.6299 34.0517 55.6289 34.0407 55.6285 34.3877C55.6275 35.3387 55.6317 36.2901 55.6229 37.2411C55.6215 37.4057 55.6742 37.4491 55.8338 37.4464C56.2997 37.4381 56.766 37.4496 57.2323 37.4409C57.391 37.4381 57.4554 37.477 57.4456 37.6439C57.4255 37.9904 57.5188 37.9735 57.1109 37.9744C56.505 37.9758 55.8987 37.9689 55.2929 37.9781C55.108 37.9808 55.0361 37.9415 55.0413 37.7408C55.0562 37.1629 55.0464 36.5846 55.0464 36.0062V36.0067Z" fill="#C0C0C0"/>
<path d="M53.6814 36.0423C53.6814 36.6129 53.6744 37.1834 53.6856 37.7536C53.6888 37.9241 53.6421 37.9959 53.4666 37.9748C53.413 37.9684 53.3574 37.9671 53.3037 37.9744C53.1413 37.9959 53.0923 37.936 53.0937 37.7723C53.1012 36.601 53.1049 35.4297 53.0918 34.2583C53.089 34.0064 53.2347 34.0444 53.3887 34.0425C53.5488 34.0407 53.6935 34.0165 53.6874 34.2629C53.672 34.8559 53.6823 35.4493 53.6823 36.0428H53.6809L53.6814 36.0423Z" fill="#C0C0C0"/>
<path d="M63.9967 26.3028C63.9967 26.3943 63.9986 26.4857 63.9962 26.5767C63.9944 26.6498 63.951 26.6905 63.8786 26.6882C63.8128 26.6864 63.7871 26.6398 63.7876 26.5785C63.7876 26.525 63.7941 26.4711 63.7862 26.4189C63.7764 26.3549 63.8217 26.2694 63.7465 26.2306C63.6718 26.1922 63.6448 26.2768 63.6046 26.3161C63.5192 26.3988 63.4697 26.3408 63.4175 26.2768C63.3895 26.2425 63.3619 26.194 63.3073 26.2192C63.2555 26.2429 63.2718 26.2973 63.2714 26.3412C63.2704 26.4249 63.2728 26.5086 63.2714 26.5927C63.2704 26.632 63.2583 26.6713 63.2088 26.6727C63.1598 26.6741 63.1425 26.6366 63.1425 26.5963C63.1425 26.3984 63.1281 26.1986 63.1519 26.0034C63.1687 25.8625 63.2812 25.9055 63.3288 25.9823C63.4721 26.2146 63.5948 26.1917 63.7283 25.9782C63.7671 25.9165 63.8301 25.8863 63.9094 25.9115C63.993 25.9384 64.0032 26.0002 63.9995 26.0742C63.9953 26.1501 63.9986 26.2265 63.9986 26.3024H63.9972L63.9967 26.3028Z" fill="#C0C0C0"/>
<path d="M62.355 25.9531C62.5646 25.8557 62.7615 25.9 62.9534 25.9C62.9786 25.9 63.0154 25.9233 63.0028 25.9613C62.9972 25.9787 62.9725 26.0024 62.9571 26.002C62.706 25.9951 62.7573 26.1725 62.7555 26.317C62.7541 26.408 62.755 26.4985 62.7522 26.5895C62.7513 26.6288 62.7368 26.6718 62.692 26.6731C62.6467 26.6745 62.6322 26.6315 62.6304 26.5927C62.6276 26.5323 62.6304 26.4715 62.629 26.4112C62.6248 26.2182 62.7018 25.9823 62.355 25.9535V25.9531Z" fill="#C0C0C0"/>
</g>
<defs>
<radialGradient id="paint0_radial_976_607" cx="0" cy="0" r="1" gradientUnits="userSpaceOnUse" gradientTransform="translate(30.9773 9.59954) rotate(90) scale(9.40046 9.57638)">
<stop stop-color="#D41D35"/>
<stop offset="1" stop-color="#A41724"/>
</radialGradient>
<clipPath id="clip0_976_607">
<rect width="64" height="38" fill="white"/>
</clipPath>
</defs>
</svg>
