<svg width="40" height="40" viewBox="0 0 40 40" fill="none" xmlns="http://www.w3.org/2000/svg">
<g clip-path="url(#clip0_636_6883)">
<path d="M0 19.6147C0.0363469 19.2598 0.0695673 18.9045 0.109432 18.5499C0.14187 18.2595 0.166102 17.9671 0.261463 17.6872C0.282568 17.6258 0.302109 17.5633 0.328686 17.5046C0.5198 17.0856 0.820737 16.9171 1.18968 17.0207C1.57738 17.1294 1.83532 17.5277 1.78491 17.9389C1.67118 18.8693 1.59848 19.8031 1.61373 20.7401C1.6532 23.1458 2.15541 25.4474 3.18602 27.629C3.66518 28.6438 4.23188 29.6062 4.85837 30.5362C4.96233 30.6902 5.07646 30.7442 5.25858 30.7434C6.23448 30.7379 7.21076 30.7309 8.18666 30.7504C10.4179 30.7946 12.6495 30.7602 14.8811 30.784C15.0773 30.786 15.1641 30.7215 15.2278 30.5358C15.7374 29.0465 16.2588 27.561 16.7755 26.0736C16.8615 25.8262 16.9572 25.5862 17.1503 25.3978C17.4309 25.1237 17.7674 25.0401 18.0961 25.1843C18.49 25.3575 18.7878 25.63 18.7851 26.0889C18.7824 26.5959 18.6757 27.0958 18.6131 27.5989C18.4795 28.6759 18.3396 29.7524 18.2043 30.8294C18.0644 31.945 17.9261 33.0606 17.7885 34.1767C17.6525 35.2798 17.5196 36.3829 17.3824 37.4861C17.2781 38.3246 17.1694 39.1623 17.0627 40H16.7505C16.3534 39.9335 15.9544 39.878 15.56 39.799C11.2703 38.9359 7.72353 36.7926 4.84391 33.5266C3.28021 31.7531 2.08233 29.7493 1.24127 27.536C0.667924 26.0271 0.278269 24.4729 0.105523 22.8663C0.0699581 22.5379 0.0351745 22.2088 0 21.88C0 21.1252 0 20.37 0 19.6151V19.6147Z" fill="#C0C0C0"/>
<path d="M25.3791 18.9631C26.8651 19.32 28.3025 19.6647 29.767 20.0166C29.6794 20.108 29.5899 20.1057 29.5133 20.1237C28.1904 20.4368 26.8666 20.7475 25.5433 21.0587C25.5179 21.0646 25.4913 21.0669 25.4675 21.0767C25.4276 21.0931 25.3647 21.0829 25.3545 21.1361C25.3448 21.1873 25.3999 21.21 25.4343 21.2366C25.7328 21.4668 26.0322 21.6967 26.332 21.9257C26.937 22.3878 27.5428 22.8487 28.1474 23.3107C28.1982 23.3494 28.2443 23.3947 28.3154 23.4577C28.129 23.4952 27.9723 23.4499 27.8199 23.4338C26.8115 23.3287 25.8044 23.2122 24.7968 23.0996C24.771 23.0969 24.7444 23.0926 24.719 23.0949C24.6702 23.0992 24.6065 23.0668 24.5783 23.1262C24.5565 23.1719 24.6034 23.2095 24.6264 23.247C24.8773 23.6504 25.1286 24.0534 25.3807 24.4561C25.8853 25.2609 26.3906 26.0654 26.8936 26.8714C26.9296 26.9293 26.9823 26.9821 26.9874 27.0829C26.6224 26.8183 26.2749 26.5607 25.9212 26.3117C25 25.6632 24.0687 25.0299 23.0084 24.6214C22.6977 24.5018 22.3772 24.4197 22.0395 24.4205C21.5721 24.422 21.2333 24.6331 21.0093 25.0389C20.7396 25.5287 20.6537 26.0705 20.5837 26.6123C20.4262 27.8374 20.3863 29.0746 20.2265 30.2997C20.1784 30.6671 20.1174 31.033 20.0604 31.3993C20.0545 31.4356 20.053 31.4786 19.9963 31.5087C19.9083 31.1573 19.8786 30.802 19.8364 30.4502C19.6852 29.1852 19.6391 27.9097 19.4773 26.6455C19.4143 26.1545 19.3217 25.669 19.1263 25.2089C18.8519 24.5632 18.3454 24.2899 17.6525 24.4162C16.9334 24.5471 16.3084 24.8962 15.696 25.2695C14.8725 25.7714 14.1038 26.3512 13.3452 26.9453C13.2799 26.9965 13.2115 27.0438 13.1146 27.0704C13.1842 26.95 13.2526 26.8292 13.3241 26.71C13.9967 25.5885 14.6705 24.4674 15.3423 23.3451C15.3767 23.288 15.4564 23.227 15.4017 23.1575C15.3595 23.1035 15.2794 23.143 15.2165 23.1528C14.0213 23.3373 12.8262 23.5222 11.6306 23.7063C11.6001 23.711 11.5685 23.7071 11.4852 23.7071C12.5639 22.8569 13.6063 22.0356 14.6963 21.1768C13.1115 20.8218 11.5865 20.4802 10.0306 20.1315C10.1068 20.0611 10.1775 20.0576 10.2401 20.0435C11.6427 19.7292 13.0462 19.4165 14.4489 19.1022C14.5157 19.0874 14.6165 19.0991 14.6353 19.0252C14.6552 18.9459 14.554 18.9185 14.5009 18.8786C13.5672 18.1824 12.6311 17.4894 11.6971 16.794C11.6369 16.7494 11.5614 16.7177 11.5126 16.6008C12.8559 16.7846 14.1753 16.9648 15.5569 17.1532C14.7299 15.8241 13.933 14.5439 13.1361 13.2637L13.1787 13.2211C14.4551 14.0013 15.7316 14.782 17.0498 15.5876C16.8658 14.2656 16.6883 12.9905 16.5105 11.7157L16.559 11.6938C17.3738 12.6766 18.1891 13.6597 19.0384 14.6835C19.3452 12.5413 19.6449 10.4488 19.9447 8.35669H19.9971C20.3238 10.4523 20.6505 12.5483 20.9769 14.6448C20.9937 14.651 21.0105 14.6573 21.0273 14.6635C21.8027 13.6933 22.5777 12.7231 23.3613 11.7423C23.418 11.8369 23.393 11.9159 23.3859 11.9886C23.3066 12.7907 23.223 13.5925 23.1401 14.3942C23.1084 14.6979 23.074 15.0017 23.0432 15.3054C23.0381 15.3558 23.0182 15.4211 23.0608 15.4543C23.1206 15.5012 23.1682 15.436 23.2144 15.4074C24.3392 14.7147 25.4628 14.0209 26.5868 13.3274C26.6802 13.2696 26.7744 13.2129 26.9061 13.1843C26.1092 14.4681 25.3123 15.7518 24.4896 17.0777C25.8001 16.9155 27.0601 16.7599 28.3201 16.604L28.349 16.6567C27.3716 17.4159 26.3945 18.175 25.3784 18.9639L25.3791 18.9631Z" fill="#C0C0C0"/>
<path d="M39.9981 20.3982C39.9973 23.5735 39.3645 26.3063 38.1381 28.9054C37.0387 31.2356 35.5414 33.2773 33.6502 35.0215C30.9555 37.5069 27.8187 39.1342 24.2008 39.7999C23.8495 39.8644 23.4934 39.9043 23.1409 39.9617C22.9803 39.9879 22.8994 39.9383 22.8794 39.7686C22.763 38.7812 22.6418 37.7938 22.5203 36.8068C22.3839 35.697 22.2459 34.588 22.1083 33.4782C21.9727 32.3817 21.8383 31.2849 21.7007 30.1884C21.5655 29.1114 21.4255 28.0349 21.2895 26.9579C21.252 26.6616 21.2075 26.3646 21.1942 26.0667C21.1774 25.6887 21.4666 25.3119 21.8676 25.1481C22.2252 25.0015 22.5711 25.0867 22.8599 25.3881C23.0318 25.5675 23.1213 25.7895 23.2007 26.0178C23.6806 27.4008 24.1613 28.7835 24.6401 30.1669C24.7722 30.5487 25.0371 30.7395 25.4347 30.7395C27.2829 30.7372 29.1311 30.7521 30.9789 30.7259C32.2476 30.7079 33.5162 30.7122 34.7848 30.702C34.9118 30.7008 35.0029 30.6696 35.0799 30.5578C36.4173 28.615 37.4381 26.5291 37.9564 24.2154C38.1756 23.2362 38.2948 22.2448 38.3449 21.2414C38.4011 20.1124 38.3171 18.9937 38.1928 17.8749C38.1549 17.5333 38.3652 17.1623 38.6677 17.0251C39.0147 16.8676 39.3434 16.9618 39.5521 17.2811C39.7815 17.6322 39.8191 18.0375 39.866 18.4374C39.9539 19.1872 40.0121 19.9389 39.9981 20.397V20.3982Z" fill="#C0C0C0"/>
<path d="M25.4413 29.5559C25.6172 29.4449 25.743 29.3667 25.8677 29.2866C28.4616 27.6197 30.0785 25.2884 30.6276 22.2433C30.8093 21.2347 30.839 20.2149 30.7288 19.193C30.7085 19.0042 30.721 18.8162 30.7734 18.6321C30.8648 18.3104 31.0837 18.1243 31.4127 18.0895C31.7281 18.0563 32.0005 18.2064 32.1479 18.4961C32.2987 18.7924 32.339 19.1168 32.3695 19.4401C32.5837 21.7065 32.1913 23.8577 31.1337 25.881C30.4411 27.2058 29.5485 28.3847 28.5226 29.4668C28.4577 29.5352 28.3905 29.5844 28.2881 29.5844C27.3903 29.5821 26.4922 29.5833 25.5945 29.5825C25.5644 29.5825 25.5339 29.5723 25.4409 29.5559H25.4413Z" fill="#C0C0C0"/>
<path d="M14.4876 29.5898C14.4297 29.6336 14.3758 29.6218 14.3254 29.6218C13.4667 29.6226 12.6077 29.6218 11.749 29.6234C11.6396 29.6234 11.5497 29.6023 11.47 29.5179C9.98798 27.9492 8.78228 26.2081 8.09677 24.1386C7.64262 22.7673 7.49763 21.3577 7.57618 19.9231C7.59963 19.4966 7.62113 19.0643 7.77824 18.6566C7.95646 18.1945 8.37543 18.0034 8.81511 18.1953C9.15513 18.3435 9.24736 18.6519 9.2544 18.9826C9.26104 19.2938 9.22899 19.6057 9.21258 19.9173C9.1348 21.3992 9.35406 22.8365 9.88363 24.2215C10.7477 26.4825 12.2595 28.1989 14.3176 29.4494C14.377 29.4854 14.4485 29.5093 14.488 29.5898H14.4876Z" fill="#C0C0C0"/>
<path d="M9.22236 29.6226C8.91673 29.6226 8.61071 29.6191 8.30508 29.6242C8.1894 29.6262 8.11162 29.5882 8.04557 29.4909C6.76171 27.6044 5.72992 25.6026 5.24842 23.3514C4.96117 22.0071 4.87675 20.6502 5.01979 19.2801C5.05614 18.9303 5.07763 18.5792 5.20934 18.2489C5.37544 17.8318 5.70726 17.6633 6.13013 17.7728C6.42247 17.8486 6.57137 18.0558 6.64016 18.3326C6.69292 18.5437 6.66361 18.7563 6.65814 18.9713C6.61437 20.6444 6.63 22.3143 7.05365 23.9506C7.41595 25.3501 8.08505 26.599 8.91986 27.7674C9.32475 28.3342 9.75935 28.8772 10.2065 29.4108C10.2498 29.4628 10.3366 29.5155 10.2991 29.5875C10.2631 29.6563 10.1685 29.6199 10.1005 29.6207C9.80781 29.6238 9.51509 29.6223 9.22236 29.6219V29.6226Z" fill="#C0C0C0"/>
<path d="M30.7577 29.5836C30.465 29.5836 30.1723 29.5856 29.8795 29.5821C29.8119 29.5813 29.7169 29.6184 29.6822 29.5473C29.6474 29.4758 29.733 29.4226 29.7767 29.3706C30.2231 28.8366 30.6553 28.2917 31.0633 27.7272C32.1514 26.2219 32.9077 24.5781 33.1683 22.7256C33.2879 21.8746 33.3481 21.0193 33.3368 20.1597C33.3305 19.6789 33.3602 19.1973 33.3024 18.7173C33.2836 18.5606 33.3106 18.405 33.3512 18.2537C33.4415 17.9183 33.6721 17.7318 34.0258 17.7013C34.3244 17.6755 34.591 17.8331 34.7332 18.1224C34.8766 18.414 34.9142 18.7318 34.9486 19.0484C35.2854 22.1553 34.5425 25.0218 33.0163 27.714C32.6857 28.2972 32.3296 28.864 31.9579 29.4218C31.8813 29.5367 31.7965 29.5907 31.6554 29.5864C31.3565 29.5774 31.0571 29.5836 30.7581 29.5836H30.7577Z" fill="#C0C0C0"/>
<path d="M37.5354 20.2977C37.5483 23.0047 36.9656 25.3732 35.9366 27.6424C35.6622 28.2475 35.3578 28.8366 35.0353 29.4171C34.9661 29.5421 34.8817 29.5883 34.7406 29.5863C34.2005 29.5797 33.6604 29.584 33.1203 29.5832C33.0632 29.5832 32.9878 29.6047 32.9546 29.5543C32.9108 29.4886 32.9796 29.4343 33.0136 29.3827C33.6358 28.4351 34.2165 27.4645 34.6937 26.4341C35.3198 25.0815 35.7056 23.6665 35.842 22.1799C35.9577 20.918 35.9182 19.6601 35.8033 18.4014C35.7861 18.213 35.7912 18.0242 35.8432 17.8397C35.9393 17.4976 36.1621 17.3158 36.5173 17.2904C36.8491 17.267 37.1227 17.4402 37.254 17.7584C37.428 18.1813 37.4416 18.6336 37.4854 19.0788C37.5319 19.5514 37.5448 20.0268 37.5362 20.2977H37.5354Z" fill="#C0C0C0"/>
<path d="M2.44971 20.5286C2.43759 19.7535 2.48176 18.9814 2.6076 18.2161C2.62871 18.0886 2.66896 17.9631 2.71352 17.8412C2.84015 17.4929 3.11451 17.3072 3.45804 17.3287C3.83246 17.3522 4.05796 17.5523 4.15137 17.9291C4.2354 18.268 4.15723 18.6038 4.13574 18.9388C4.07868 19.8352 4.04702 20.73 4.09783 21.6286C4.15333 22.6133 4.29637 23.5812 4.5633 24.5303C4.96351 25.9524 5.62284 27.2557 6.39081 28.5082C6.58115 28.8189 6.78125 29.1234 6.97549 29.4319C7.00519 29.4792 7.06577 29.5276 7.0306 29.5874C6.99659 29.6453 6.92429 29.6215 6.8684 29.6218C6.31538 29.6234 5.76197 29.6203 5.20895 29.6246C5.08975 29.6254 5.01862 29.5816 4.96038 29.4788C3.98097 27.7463 3.22355 25.927 2.80536 23.9752C2.56227 22.8397 2.42939 21.692 2.4501 20.529L2.44971 20.5286Z" fill="#C0C0C0"/>
<path d="M31.8806 5.04967C31.8806 6.49445 30.7253 7.66795 29.3035 7.66677C27.882 7.6656 26.7342 6.49172 26.7357 5.04146C26.7373 3.60411 27.8797 2.45994 29.3124 2.46033C30.7433 2.46072 31.8802 3.60724 31.8806 5.05006V5.04967ZM29.3187 3.79956C28.6011 3.79839 28.0458 4.34057 28.0419 5.04615C28.038 5.74861 28.6176 6.32167 29.3261 6.31542C30.0249 6.30877 30.601 5.73649 30.6002 5.04889C30.5994 4.35934 30.0265 3.80113 29.3187 3.79995V3.79956Z" fill="#C0C0C0"/>
<path d="M33.5166 9.79366C33.132 10.07 32.7466 10.3448 32.3632 10.6224C32.0123 10.8765 32.0131 10.878 31.7602 10.5325C31.6144 10.3327 31.4749 10.1283 31.3229 9.93399C31.2248 9.80851 31.2369 9.73268 31.3705 9.6373C32.5461 8.79881 33.7167 7.95407 34.8892 7.11128C35.0107 7.02411 35.1366 6.94241 35.253 6.84859C35.3468 6.77315 35.4168 6.76846 35.4992 6.86618C35.9065 7.34817 36.3067 7.83445 36.6623 8.35748C37.1044 9.00755 36.9437 9.78037 36.3141 10.2549C35.8522 10.6032 35.3324 10.7596 34.7551 10.6282C34.6046 10.5938 34.5593 10.6654 34.5065 10.7721C34.2017 11.3905 33.8941 12.0077 33.5869 12.625C33.4806 12.8388 33.4783 12.8392 33.3317 12.6414C33.123 12.3592 32.919 12.073 32.706 11.7939C32.6282 11.6919 32.6227 11.6082 32.6849 11.4941C32.9526 11.0031 33.2109 10.5071 33.472 10.0122C33.5041 9.95119 33.5322 9.88826 33.5619 9.82611L33.5162 9.79405L33.5166 9.79366ZM35.527 9.05837C35.5325 8.88598 35.4523 8.74643 35.3554 8.61352C35.2944 8.53065 35.2276 8.51658 35.142 8.58499C34.8942 8.78396 34.6445 8.98019 34.3932 9.17486C34.3182 9.2331 34.3076 9.27845 34.3924 9.33748C34.5546 9.45084 34.7274 9.53684 34.9263 9.55638C35.2362 9.58648 35.5282 9.34256 35.527 9.05837Z" fill="#C0C0C0"/>
<path d="M10.7466 7.47602C10.7466 7.50025 10.7431 7.51471 10.747 7.52605C10.8857 7.93064 10.6719 8.14993 10.3448 8.32584C10.174 8.4177 10.02 8.54123 9.8594 8.65185C9.6679 8.78359 9.64679 8.77694 9.60028 8.55686C9.45763 7.88334 9.31537 7.20942 9.1735 6.5355C8.96871 5.56293 8.77173 4.58841 8.55521 3.61858C8.50753 3.40475 8.55013 3.28631 8.74007 3.17842C8.99958 3.03105 9.24385 2.85671 9.4889 2.68549C9.5952 2.61122 9.67415 2.60496 9.78124 2.69135C11.0862 3.74445 12.3943 4.79324 13.7028 5.84204C13.8052 5.92413 13.8376 5.98628 13.7028 6.07384C13.414 6.26148 13.1298 6.45654 12.8492 6.65668C12.7464 6.72978 12.6577 6.73643 12.5749 6.64456C12.3247 6.36663 12.0844 6.41549 11.8053 6.61994C11.5232 6.82672 11.2124 6.99559 10.9084 7.17033C10.7775 7.24538 10.7149 7.33764 10.7462 7.47562L10.7466 7.47602ZM9.96492 4.43009L9.9321 4.45511C10.047 4.94022 10.1627 5.42533 10.2756 5.91084C10.2956 5.99566 10.3217 6.04804 10.4175 5.98706C10.6418 5.84399 10.867 5.70209 11.0929 5.56137C11.1609 5.51915 11.1636 5.48319 11.1018 5.42924C10.7216 5.09737 10.3436 4.76314 9.96492 4.4297V4.43009Z" fill="#C0C0C0"/>
<path d="M17.5173 0.00273498C17.7053 0.00703492 17.8936 -0.0058649 18.0816 0.0257983C18.2176 0.0484707 18.2505 0.109061 18.2227 0.240013C18.1594 0.538664 18.1027 0.838878 18.0551 1.14066C18.0328 1.28021 17.9734 1.30757 17.8424 1.27591C17.4993 1.19304 17.1522 1.14183 16.8017 1.23095C15.8961 1.4612 15.6069 2.23479 15.7605 2.96891C15.8899 3.58771 16.566 3.99503 17.2398 3.8977C17.6191 3.84271 17.7798 3.62745 17.7217 3.25193C17.6888 3.04006 17.6568 2.82819 17.6208 2.61671C17.6068 2.53384 17.6208 2.47559 17.7143 2.45839C18.0402 2.39858 18.3658 2.3376 18.6917 2.27858C18.7836 2.26177 18.8195 2.31649 18.834 2.39819C18.9598 3.10182 19.0868 3.80505 19.2131 4.50829C19.2287 4.59429 19.2029 4.65996 19.1212 4.70257C17.9742 5.29831 16.5359 5.43864 15.4572 4.58178C14.094 3.49898 14.2574 1.64453 15.2262 0.770079C15.7808 0.268549 16.455 0.0601978 17.1859 0.00390769C17.2957 -0.00469219 17.4067 0.00273498 17.5173 0.00273498Z" fill="#C0C0C0"/>
<path d="M4.88651 7.38574C5.98512 7.40138 6.81641 8.19921 6.86058 9.25153C6.87934 9.69676 6.73786 10.0994 6.45451 10.4442C6.3439 10.579 6.36344 10.6537 6.50649 10.7471C6.78437 10.9281 7.04622 11.1333 7.32254 11.3167C7.45464 11.4042 7.45893 11.4754 7.3624 11.5946C7.17832 11.8221 7.00401 12.0578 6.83322 12.2951C6.75036 12.41 6.6847 12.4405 6.553 12.3444C5.27694 11.4117 3.99581 10.4856 2.71507 9.55878C2.63339 9.49975 2.57516 9.45167 2.6498 9.34104C3.01757 8.79573 3.39238 8.25628 3.86762 7.79619C4.16465 7.50849 4.52812 7.39395 4.8869 7.38574H4.88651ZM5.53372 9.32619C5.53763 9.0291 5.36488 8.81919 5.05847 8.74804C4.82945 8.69488 4.52929 8.84929 4.42142 9.06624C4.37374 9.1624 4.43667 9.19484 4.49529 9.2355C4.67663 9.36098 4.85602 9.49076 5.04206 9.60881C5.15383 9.67996 5.27655 9.84922 5.38208 9.78863C5.51652 9.71123 5.51027 9.50561 5.53372 9.34534C5.5345 9.33909 5.53372 9.33244 5.5345 9.3258L5.53372 9.32619Z" fill="#C0C0C0"/>
<path d="M24.1465 0.196184C24.4334 0.177811 24.7273 0.231365 25.0219 0.287655C25.1767 0.317364 25.2236 0.390854 25.1904 0.54487C25.1067 0.932646 25.0301 1.32199 24.9578 1.71172C24.9309 1.85635 24.8777 1.87942 24.7484 1.80866C24.3751 1.60383 23.9839 1.48538 23.5505 1.5792C23.0768 1.68162 22.7266 2.04829 22.6594 2.52441C22.5769 3.10803 22.7837 3.55131 23.2531 3.78859C23.588 3.95785 23.9425 4.01023 24.3141 3.9602C24.5565 3.92736 24.5823 3.95355 24.5354 4.1877C24.4677 4.52583 24.39 4.86162 24.331 5.20092C24.2997 5.38074 24.2407 5.45188 24.0378 5.41553C23.373 5.29669 22.725 5.14385 22.174 4.72285C21.737 4.38941 21.4959 3.93791 21.4076 3.40589C21.3067 2.79843 21.3333 2.19487 21.5995 1.62924C21.9793 0.820457 22.6625 0.411572 23.511 0.238402C23.7162 0.196575 23.9237 0.188757 24.1473 0.196184H24.1465Z" fill="#C0C0C0"/>
</g>
<defs>
<clipPath id="clip0_636_6883">
<rect width="40" height="40" fill="white"/>
</clipPath>
</defs>
</svg>
