<svg width="70" height="32" viewBox="0 0 70 32" fill="none" xmlns="http://www.w3.org/2000/svg">
<path d="M3.20775 25.5938C3.21706 25.5697 3.2287 25.5538 3.22948 25.5365C3.23258 25.4821 3.23336 25.4278 3.23336 25.3735C3.22948 17.9968 3.22638 10.6194 3.22172 3.24273C3.22172 3.23745 3.21551 3.23292 3.21163 3.22839C3.20775 3.22386 3.20309 3.22009 3.19843 3.21632C2.93533 3.18311 0.141256 3.19519 0 3.23216V25.5938H3.20775Z" fill="#C0C0C0"/>
<path d="M16.3973 25.5923C16.4012 25.4897 16.4082 25.3954 16.4082 25.301C16.4082 18.0383 16.4082 10.7756 16.4082 3.51365C16.4082 3.45932 16.4113 3.40498 16.4066 3.35065C16.4027 3.30537 16.3911 3.26009 16.3826 3.21179H13.1577C13.1143 3.39819 13.1205 25.461 13.1616 25.5916H16.3973V25.5923Z" fill="#C0C0C0"/>
<path d="M6.55209 12.8131V32H9.80874V12.8131H6.55209Z" fill="#C0C0C0"/>
<path d="M9.80797 9.57193V0H6.56529C6.52105 0.197717 6.53037 9.43684 6.57538 9.57193H9.80719H9.80797Z" fill="#C0C0C0"/>
<path d="M68.1559 14.9329V8.92138C68.3072 8.88139 69.7547 8.87233 69.9992 8.90629V17.996C69.9495 18.0013 69.8968 18.0126 69.844 18.0126C69.3721 18.0141 68.901 18.0088 68.4291 18.0164C68.2995 18.0186 68.2273 17.9666 68.1551 17.873C66.6719 15.9698 65.1856 14.0681 63.7001 12.1656C63.645 12.0947 63.5884 12.0245 63.4983 11.9603C63.4945 12.0162 63.4867 12.072 63.4867 12.1271C63.4828 13.4598 63.4797 14.7933 63.4766 16.126C63.475 16.6686 63.475 17.2119 63.4735 17.7545C63.4735 17.8315 63.4657 17.9085 63.4619 17.9801C63.2903 18.0239 61.7986 18.0247 61.6263 17.9824V8.89874C61.6954 8.89497 61.7551 8.88893 61.8149 8.88818C62.2744 8.88742 62.7331 8.89195 63.1925 8.88516C63.3183 8.88289 63.3943 8.9244 63.4688 9.02099C64.9606 10.934 66.4554 12.844 67.9502 14.754C68.0022 14.8204 68.0542 14.8853 68.107 14.951L68.1567 14.9321L68.1559 14.9329Z" fill="#C0C0C0"/>
<path d="M51.2107 18.0013H49.3697V8.90032C49.4356 8.89654 49.4954 8.889 49.5552 8.889C50.0084 8.88824 50.4617 8.89503 50.9142 8.88447C51.0562 8.88145 51.1385 8.93126 51.2207 9.03691C52.7047 10.9401 54.1925 12.8403 55.6796 14.742C55.7347 14.8122 55.7906 14.8816 55.8682 14.9443C55.9024 14.6522 55.8938 14.3662 55.8954 14.0802C55.8969 13.7965 55.8954 13.5135 55.8954 13.2297V9.77344C55.8954 9.48592 55.8954 9.1984 55.8954 8.89956H57.7449V17.9976C57.6851 18.0036 57.6308 18.0134 57.5773 18.0134C57.1054 18.0149 56.6343 18.0104 56.1624 18.0172C56.0421 18.0187 55.9714 17.9749 55.9016 17.8851C54.4068 15.9668 52.9096 14.0508 51.4124 12.1347C51.3643 12.0736 51.3154 12.0132 51.2588 11.943C51.1951 12.0215 51.2161 12.0955 51.2161 12.1634C51.213 13.2373 51.2122 14.3104 51.2107 15.3842C51.2099 16.1864 51.2091 16.9886 51.2083 17.7908C51.2083 17.8557 51.2083 17.9206 51.2083 18.0013H51.2107Z" fill="#C0C0C0"/>
<path d="M34.0962 17.9825C33.9526 18.0203 32.5501 18.0316 32.2661 17.9969C32.2622 17.9259 32.2552 17.8505 32.2544 17.775C32.2544 16.6891 32.2544 15.6031 32.2544 14.5172V14.2651C31.8617 14.2312 31.4853 14.2531 31.1096 14.2493C30.7309 14.2455 30.3521 14.2485 29.9742 14.2485H27.7009V18.0021H25.8816C25.8335 17.8588 25.8265 9.09053 25.8754 8.89885H27.697C27.6986 9.14034 27.7001 9.37956 27.7009 9.61878C27.7009 9.8663 27.7009 10.1131 27.7009 10.3606V12.5415C27.8577 12.5823 32.0045 12.5913 32.2381 12.5528C32.2428 12.4827 32.2529 12.4072 32.2529 12.3317C32.2537 11.2699 32.2529 10.2082 32.2529 9.14637C32.2529 9.0694 32.2529 8.99167 32.2529 8.88753C32.8761 8.88677 33.48 8.88677 34.0946 8.88753V17.9818L34.0962 17.9825Z" fill="#C0C0C0"/>
<path d="M46.5236 18.0058H44.5429C44.2721 17.3048 44.0027 16.6067 43.7288 15.8981C43.6566 15.8943 43.5898 15.8876 43.5231 15.8876C42.3193 15.8876 41.1148 15.8876 39.911 15.8876C39.8861 15.8876 39.8613 15.8906 39.8365 15.8876C39.734 15.877 39.6828 15.92 39.6471 16.0158C39.481 16.4634 39.3064 16.9086 39.1341 17.3538C39.0619 17.5402 38.9882 17.7251 38.9183 17.9123C38.895 17.9757 38.8617 18.0141 38.7864 18.0141C38.1849 18.0126 37.5841 18.0141 36.9819 18.0141C36.9935 17.8693 40.4504 9.19309 40.6103 8.89954H42.8774C44.0866 11.9196 45.3004 14.9495 46.5244 18.0066L46.5236 18.0058ZM43.0791 14.2085C42.6298 13.0305 42.1866 11.8744 41.7155 10.7197C41.5789 11.0095 41.4664 11.2993 41.3538 11.5891C41.2428 11.8766 41.1318 12.1641 41.0209 12.4517C40.9075 12.7445 40.7911 13.0365 40.6817 13.3308C40.5738 13.6206 40.4442 13.9028 40.3565 14.2085H43.0784H43.0791Z" fill="#C0C0C0"/>
<path d="M37.5376 24.4972V25.5198H36.9741V22.6876C36.9881 22.6778 36.9974 22.6642 37.0075 22.6642C37.3847 22.668 37.7642 22.6506 38.1391 22.6838C38.5605 22.7208 38.8143 23.0121 38.8384 23.4234C38.8601 23.7879 38.7732 24.1071 38.4154 24.3274C38.5861 24.7206 38.7545 25.1115 38.9315 25.519H38.3036C38.219 25.3221 38.1305 25.1176 38.0428 24.9131C38.0118 24.8406 37.9831 24.7674 37.952 24.695C37.8832 24.5325 37.7451 24.4666 37.5376 24.4972ZM37.5515 23.1396V23.9992C37.6718 24.0007 37.7875 24.0097 37.9024 24.003C38.101 23.9901 38.219 23.8996 38.2439 23.7101C38.2601 23.5834 38.2423 23.4475 38.2144 23.3207C38.1934 23.2234 38.1088 23.1502 38.0025 23.1427C37.8566 23.1321 37.7091 23.1396 37.5523 23.1396H37.5515Z" fill="#C0C0C0"/>
<path d="M27.2934 24.3305C27.4657 24.7259 27.6349 25.1123 27.8111 25.5168H27.1809C27.0373 25.1825 26.8883 24.8346 26.7385 24.4837H26.4358C26.3947 24.827 26.4405 25.1697 26.4071 25.5175H25.8824C25.8351 25.3908 25.8242 22.8748 25.8762 22.6514C26.2945 22.6725 26.723 22.6023 27.1421 22.705C27.4828 22.788 27.6877 23.0408 27.7079 23.3849C27.7164 23.5275 27.7079 23.6747 27.683 23.8158C27.6435 24.0422 27.4929 24.2014 27.2934 24.3305ZM26.4327 23.9962C26.5235 24 26.6019 24.0075 26.6803 24.0067C27.0148 24.0037 27.1405 23.8807 27.1335 23.5562C27.132 23.474 27.125 23.3827 27.0862 23.3125C27.0489 23.2446 26.9768 23.1714 26.9046 23.1502C26.7525 23.1065 26.591 23.1163 26.4319 23.1404V23.9962H26.4327Z" fill="#C0C0C0"/>
<path d="M36.0365 24.1071C36.0156 24.3365 36.0171 24.5622 35.9705 24.778C35.8223 25.4632 35.0632 25.7877 34.4315 25.4459C34.1653 25.3017 34.0194 25.0693 33.9503 24.7893C33.9231 24.6791 33.9037 24.5629 33.9053 24.4505C33.9107 24.1199 33.9006 23.7864 33.9479 23.4611C34.0023 23.0891 34.2087 22.797 34.5983 22.6748C35.123 22.5095 35.7897 22.6695 35.9651 23.4151C36.0179 23.6415 36.0148 23.88 36.0365 24.1079V24.1071ZM35.4327 24.1064C35.4327 23.9683 35.4436 23.8287 35.4296 23.6921C35.4164 23.5683 35.3892 23.4415 35.3427 23.3261C35.2775 23.1653 35.1409 23.0914 34.9608 23.0921C34.7815 23.0921 34.641 23.1631 34.5789 23.3261C34.53 23.4536 34.4959 23.5924 34.4889 23.7275C34.4749 23.9796 34.4765 24.2331 34.4889 24.4852C34.4951 24.609 34.5246 24.7357 34.5681 24.8527C34.6325 25.0233 34.78 25.1002 34.9616 25.1017C35.144 25.1025 35.2891 25.0255 35.3543 24.8542C35.3947 24.7486 35.4203 24.6346 35.4304 24.5222C35.4436 24.3848 35.4335 24.246 35.4335 24.1071L35.4327 24.1064Z" fill="#C0C0C0"/>
<path d="M44.3434 23.4831H43.8118C43.7986 23.434 43.7854 23.3774 43.7691 23.3216C43.7233 23.1722 43.6147 23.0869 43.4602 23.0771C43.312 23.068 43.1831 23.1405 43.1288 23.2642C43.0644 23.4099 43.0884 23.5578 43.2196 23.6559C43.3213 23.7321 43.4408 23.7864 43.5557 23.8445C43.6876 23.9109 43.8297 23.96 43.9546 24.0362C44.3054 24.2498 44.4443 24.5728 44.3318 25.0271C44.2472 25.3697 43.9694 25.5214 43.6317 25.5546C43.4625 25.5712 43.2825 25.5568 43.1172 25.5161C42.7019 25.4134 42.4575 25.0852 42.4543 24.6513H43.0116C43.0248 24.7139 43.0349 24.7788 43.052 24.8414C43.1179 25.0791 43.4447 25.1976 43.6558 25.0618C43.8312 24.9493 43.832 24.6113 43.6457 24.4747C43.5479 24.4037 43.4292 24.36 43.3205 24.3034C43.1622 24.2211 42.9922 24.1555 42.8494 24.0528C42.563 23.8476 42.4652 23.5623 42.5389 23.222C42.5801 23.0356 42.6833 22.8869 42.8463 22.7865C43.2064 22.5654 43.5828 22.5488 43.9569 22.745C44.2317 22.8892 44.3776 23.1805 44.3419 23.48L44.3434 23.4831Z" fill="#C0C0C0"/>
<path d="M33.0228 23.483H32.4919C32.4787 23.4332 32.4655 23.3766 32.4485 23.3215C32.4027 23.1714 32.2948 23.0868 32.1388 23.077C31.9906 23.068 31.8617 23.1404 31.8074 23.2642C31.743 23.4098 31.7678 23.5577 31.8982 23.6558C31.9999 23.7321 32.1194 23.7864 32.2343 23.8445C32.3662 23.9109 32.5082 23.96 32.6332 24.0362C32.9848 24.2497 33.1222 24.5727 33.0104 25.027C32.9266 25.3696 32.6479 25.5213 32.3103 25.5545C32.1411 25.5711 31.9611 25.5568 31.7957 25.516C31.3797 25.4126 31.1376 25.0874 31.1337 24.6512H31.6902C31.7034 24.7138 31.7135 24.7787 31.7305 24.8421C31.7957 25.0791 32.124 25.1976 32.3352 25.0625C32.5113 24.9493 32.5113 24.612 32.3251 24.4754C32.2273 24.4044 32.1085 24.3607 31.9999 24.3041C31.8415 24.2218 31.6716 24.1562 31.5288 24.0535C31.2416 23.8483 31.1453 23.5623 31.2191 23.2227C31.2656 23.0083 31.3953 22.8506 31.5893 22.7488C31.9153 22.5774 32.2537 22.5639 32.5889 22.7201C32.8901 22.8597 33.0608 23.1638 33.0228 23.4823V23.483Z" fill="#C0C0C0"/>
<path d="M28.6633 25.5304V22.6891C28.7929 22.6476 30.0595 22.6348 30.3188 22.6733C30.3669 22.8106 30.3343 22.9518 30.3374 23.1193C29.9672 23.1238 29.6109 23.1283 29.2454 23.1336V23.8128C29.5426 23.8573 29.8407 23.8083 30.1511 23.8437V24.2686C29.8515 24.2739 29.552 24.2792 29.2469 24.2845V25.061H30.3281V25.5236C29.7809 25.5379 29.2322 25.5259 28.6625 25.5311L28.6633 25.5304Z" fill="#C0C0C0"/>
<path d="M39.6502 23.1262V22.6681H41.6666V23.1035C41.4407 23.1586 41.2032 23.0997 40.9502 23.1435C40.9417 23.542 40.9471 23.9374 40.9463 24.3328C40.9455 24.7237 40.9463 25.1139 40.9463 25.5169H40.3697C40.3634 24.7275 40.3712 23.9419 40.3658 23.1345C40.2323 23.1314 40.1166 23.1277 40.0018 23.1262C39.8916 23.1247 39.7806 23.1262 39.651 23.1262H39.6502Z" fill="#C0C0C0"/>
</svg>
