<svg width="53" height="32" viewBox="0 0 53 32" fill="none" xmlns="http://www.w3.org/2000/svg">
<path d="M38.5992 17.0744V12.5845H41.1321V14.5072C41.2376 14.5189 41.3171 14.5345 41.3953 14.5345C42.4571 14.5358 43.5203 14.5448 44.5822 14.5345C47.274 14.5046 49.7 12.5261 50.285 9.89281C51.025 6.56327 48.9339 3.34912 45.5789 2.66973C45.2545 2.6036 44.9183 2.57119 44.5874 2.5673C43.5255 2.55433 42.4623 2.56211 41.4005 2.56341C41.3288 2.56341 41.2585 2.57119 41.1503 2.57897V4.5199H38.6305C38.5693 4.29301 38.551 0.478554 38.6097 0.0403192C38.6527 0.0325399 38.7009 0.0156847 38.7491 0.0156847C40.7699 0.0156847 42.7907 -0.028398 44.8102 0.0312433C48.6199 0.144043 51.9279 2.90181 52.7774 6.59957C53.8341 11.201 51.0315 15.7325 46.4323 16.8566C45.8342 17.0031 45.2258 17.0861 44.6095 17.0874C42.693 17.0874 40.7777 17.0874 38.8611 17.0874C38.7803 17.0874 38.6996 17.0796 38.6005 17.0757L38.5992 17.0744Z" fill="#C0C0C0"/>
<path d="M16.3051 4.51262C16.2154 4.5191 16.1349 4.52947 16.0544 4.52947C15.1905 4.52947 14.3253 4.52688 13.4613 4.53336C13.2899 4.53466 13.1712 4.48151 13.0472 4.36095C11.6649 3.00238 9.9911 2.40736 8.04957 2.58366C5.24542 2.83904 2.96359 5.0856 2.63252 7.83903C2.26321 10.9036 4.35115 13.7983 7.44416 14.4037C9.57035 14.8198 11.4301 14.2598 12.9905 12.7794C13.1553 12.6225 13.3083 12.5461 13.5405 12.5499C14.3516 12.5629 15.1641 12.5551 15.9766 12.5551H16.2919C16.1718 13.1605 14.9887 14.5709 13.9652 15.3332C12.1819 16.6606 10.1652 17.2362 7.94405 17.0547C3.69034 16.7073 0.222747 13.329 0.0103916 8.95778C-0.203283 4.58132 2.90291 0.919155 7.0511 0.156905C11.7453 -0.705163 15.1932 2.15846 16.3077 4.51391L16.3051 4.51262Z" fill="#C0C0C0"/>
<path d="M19.4438 4.6402C20.5349 2.41548 23.3595 -0.0741955 27.3137 0.00169284C31.1206 0.0749185 33.8231 2.56193 34.8107 4.63488C34.7098 4.64287 34.6182 4.65485 34.5279 4.65618C33.6691 4.65751 32.809 4.65219 31.9502 4.66017C31.763 4.66151 31.6383 4.59627 31.5095 4.46579C29.0778 2.00275 25.2045 1.99476 22.7728 4.44982C22.6241 4.60026 22.4795 4.66151 22.2737 4.65884C21.4468 4.64952 20.6185 4.65618 19.7916 4.65485C19.688 4.65485 19.5845 4.64553 19.4451 4.63887L19.4438 4.6402Z" fill="#C0C0C0"/>
<path d="M19.4438 12.7616C19.5962 12.7541 19.697 12.7441 19.7991 12.7441C20.625 12.7441 21.4523 12.7491 22.2783 12.7392C22.4957 12.7367 22.6481 12.7977 22.8059 12.9421C24.1873 14.221 25.8565 14.7801 27.7815 14.6083C29.2239 14.48 30.4622 13.9047 31.487 12.9397C31.6328 12.8027 31.7733 12.7354 31.9828 12.7379C32.8194 12.7479 33.6572 12.7417 34.4938 12.7429C34.5959 12.7429 34.6966 12.7529 34.8107 12.7578C33.8256 14.6992 31.0163 17.1935 26.9052 17.0839C25.1048 17.0366 23.4754 16.5173 22.0171 15.5285C20.9472 14.8026 20.0987 13.8923 19.4438 12.7603V12.7616Z" fill="#C0C0C0"/>
<path d="M45.8923 24.359H45.3261C45.4198 23.7907 45.5533 23.2429 45.6635 22.6919C45.7746 22.1359 45.8957 21.5824 46.015 21.019H46.7155C46.9849 21.8088 47.2568 22.606 47.5287 23.4024L47.566 23.4073C47.8421 22.6093 48.1173 21.8121 48.3934 21.014H49.0889C49.3202 22.1211 49.5515 23.2281 49.7869 24.3524H49.2049C49.0342 23.4957 48.8634 22.6382 48.6926 21.7807L48.6487 21.7741C48.3519 22.6333 48.0551 23.4924 47.7567 24.3566H47.3356C47.0405 23.4966 46.7437 22.6324 46.4477 21.7675L46.408 21.7691C46.2372 22.6275 46.0664 23.485 45.8923 24.3582V24.359Z" fill="#C0C0C0"/>
<path d="M29.1279 24.3334V21.0396C29.1494 21.0273 29.1602 21.0149 29.171 21.0149C29.7189 21.0223 30.2727 20.9876 30.8148 21.0487C31.6297 21.1404 32.1495 21.7774 32.1777 22.5961C32.2158 23.7072 31.4042 24.264 30.683 24.3318C30.1782 24.3789 29.6667 24.3524 29.1577 24.3582C29.1527 24.3582 29.1478 24.3508 29.1279 24.3343V24.3334ZM29.7455 23.8047C30.0605 23.8204 30.3514 23.8262 30.6374 23.7659C31.1033 23.6676 31.4324 23.4148 31.5236 22.9241C31.5452 22.8084 31.5452 22.6878 31.5394 22.5696C31.5145 22.0781 31.2385 21.7402 30.7626 21.6171C30.4319 21.5312 30.0953 21.5659 29.7463 21.5667V23.8047H29.7455Z" fill="#C0C0C0"/>
<path d="M19.2671 20.9537C20.2346 20.9562 21.003 21.727 21.0014 22.6936C20.9997 23.6535 20.2188 24.421 19.2497 24.4161C18.2948 24.4111 17.523 23.6378 17.5221 22.6861C17.5221 21.7253 18.3014 20.9513 19.2671 20.9537ZM20.412 22.6927C20.4145 22.0541 19.9088 21.5428 19.2713 21.5395C18.6379 21.5362 18.1132 22.0484 18.1066 22.6771C18.0999 23.3024 18.6214 23.8254 19.2555 23.8295C19.8955 23.8345 20.4103 23.328 20.4128 22.6927H20.412Z" fill="#C0C0C0"/>
<path d="M36.2032 24.3665C36.0051 24.3665 35.8592 24.359 35.7149 24.3689C35.5947 24.3764 35.5218 24.3334 35.458 24.2318C35.2217 23.8576 34.9713 23.4924 34.7384 23.1173C34.6621 22.9951 34.5767 22.9414 34.4342 22.9563C34.3305 22.967 34.2244 22.9587 34.0926 22.9587C34.0835 23.4321 34.0926 23.8898 34.0868 24.3557H33.5289V21.0396C33.5455 21.0264 33.5513 21.019 33.5563 21.019C34.0976 21.0115 34.6414 20.9669 35.1802 21.0454C35.5359 21.0975 35.8128 21.2751 35.928 21.6402C36.0523 22.0335 35.9446 22.4746 35.6486 22.7059C35.5326 22.7968 35.3867 22.8513 35.2374 22.9323C35.5483 23.3941 35.8633 23.8617 36.204 24.3681L36.2032 24.3665ZM34.11 22.4341C34.3156 22.4341 34.5071 22.4341 34.6978 22.4341C34.7832 22.4341 34.8702 22.4358 34.9548 22.4251C35.0261 22.416 35.0973 22.3961 35.1637 22.3689C35.3013 22.311 35.3817 22.2061 35.4057 22.0566C35.4521 21.7724 35.3286 21.5783 35.0451 21.5171C34.7392 21.451 34.4308 21.4932 34.11 21.4833V22.4341Z" fill="#C0C0C0"/>
<path d="M37.6581 21.0173H39.7927V21.5312H38.2085V22.435C38.6271 22.4779 39.0483 22.4284 39.4802 22.4622V22.943C39.2787 22.9571 39.069 22.948 38.8601 22.9497C38.6487 22.9513 38.4373 22.9497 38.201 22.9497C38.187 23.2545 38.1936 23.547 38.1961 23.8559H39.8259C39.8781 24.0236 39.8491 24.1798 39.8491 24.3326C39.7073 24.3739 37.9333 24.3863 37.6581 24.3475V21.0173Z" fill="#C0C0C0"/>
<path d="M3.19494 23.4255C3.14934 23.5147 3.12116 23.5792 3.08551 23.6386C2.53507 24.5375 1.28248 24.6895 0.530597 23.9493C-0.40615 23.0281 -0.0472023 21.4279 1.18383 21.0305C1.91748 20.7943 2.7133 21.0909 3.09214 21.7452C3.12447 21.8005 3.14769 21.86 3.18913 21.9484C2.9794 21.9484 2.79703 21.9533 2.61548 21.9451C2.57154 21.9426 2.52015 21.9038 2.48782 21.8666C2.20596 21.5394 1.61822 21.404 1.15731 21.6683C0.709656 21.9252 0.482516 22.4457 0.600231 22.9563C0.713801 23.4495 1.14073 23.8187 1.64309 23.8402C1.95313 23.8543 2.23332 23.756 2.453 23.5312C2.52927 23.4528 2.60553 23.4189 2.71247 23.4239C2.86252 23.4305 3.01339 23.4255 3.19577 23.4255H3.19494Z" fill="#C0C0C0"/>
<path d="M44.3446 24.359H43.7734C43.6847 24.1533 43.5894 23.9509 43.5098 23.7427C43.4651 23.6246 43.3971 23.5874 43.2727 23.5899C42.8425 23.5965 42.4114 23.5965 41.9812 23.5899C41.8709 23.5883 41.8129 23.6246 41.7731 23.7254C41.6877 23.9385 41.5924 24.1484 41.5012 24.3599H40.9922C40.9972 24.2202 42.1453 21.5304 42.4247 21.0082H42.8964C43.378 22.1235 43.8563 23.2289 44.3446 24.3599V24.359ZM42.0608 23.0579C42.4131 23.0984 43.0555 23.0851 43.2031 23.0339C43.0216 22.6085 42.84 22.1847 42.6585 21.7608L42.6154 21.7642C42.433 22.1896 42.2514 22.6151 42.0616 23.0579H42.0608Z" fill="#C0C0C0"/>
<path d="M22.0965 21.0173H24.2435V21.5419C23.989 21.5436 23.7337 21.5452 23.4784 21.5461C23.2206 21.5461 22.9628 21.5461 22.6908 21.5461V22.4251C23.0838 22.454 23.4842 22.4209 23.8929 22.4441V22.9637H22.6792V24.3533H22.0965V21.0173Z" fill="#C0C0C0"/>
<path d="M50.741 23.8352C50.8654 23.713 50.9814 23.5981 51.1074 23.4734C51.1655 23.5288 51.2144 23.5791 51.2666 23.6271C51.4647 23.8072 51.6927 23.9261 51.9671 23.8947C52.0798 23.8815 52.2025 23.8377 52.2929 23.7716C52.5117 23.6105 52.5225 23.3197 52.3235 23.1347C52.2431 23.0595 52.142 23.0025 52.0425 22.9521C51.895 22.8786 51.7366 22.8257 51.5899 22.7514C51.4606 22.6861 51.3288 22.6175 51.2185 22.5258C50.7717 22.1524 50.7999 21.5056 51.2699 21.1611C51.5501 20.9554 51.8676 20.9207 52.1975 20.976C52.4429 21.0173 52.6609 21.1264 52.8674 21.3131C52.8151 21.3792 52.7646 21.4452 52.7132 21.5089C52.6634 21.57 52.6129 21.6295 52.5581 21.6947C52.4877 21.6518 52.428 21.6113 52.3642 21.5774C52.1569 21.4651 51.9397 21.4312 51.7142 21.5155C51.5683 21.57 51.4689 21.6691 51.4473 21.8311C51.4266 21.9888 51.5062 22.1012 51.6305 22.178C51.759 22.2573 51.8983 22.3209 52.0342 22.387C52.1826 22.4597 52.3385 22.5176 52.4819 22.5994C52.8947 22.8348 53.0597 23.1843 52.9801 23.6246C52.9063 24.0286 52.5946 24.3367 52.1561 24.3995C51.5866 24.4805 51.1199 24.2797 50.741 23.8361V23.8352Z" fill="#C0C0C0"/>
<path d="M11.4291 22.335C11.5684 22.1145 11.6911 21.9203 11.8138 21.7253C11.9439 21.5188 12.0749 21.3123 12.2026 21.1033C12.2399 21.043 12.2797 21.0041 12.3584 21.0058C12.5499 21.0107 12.7414 21.0074 12.9702 21.0074C12.9221 21.0892 12.889 21.1504 12.8517 21.2074C12.5068 21.732 12.1636 22.2566 11.8146 22.7778C11.745 22.8811 11.7118 22.9844 11.7143 23.1091C11.7201 23.452 11.7168 23.7956 11.716 24.1385C11.716 24.2095 11.7102 24.2806 11.7069 24.3566H11.1232C11.1191 24.2839 11.1125 24.2203 11.1125 24.1567C11.1116 23.8138 11.1075 23.4701 11.1141 23.1273C11.1166 22.9893 11.0835 22.8745 11.0055 22.758C10.6623 22.2483 10.3266 21.7336 9.98921 21.2206C9.95024 21.1619 9.91543 21.1 9.86652 21.0198H10.6134C10.8762 21.4436 11.1465 21.879 11.4291 22.335Z" fill="#C0C0C0"/>
<path d="M6.28948 21.5626V21.0404C6.43124 21 8.69518 20.9901 8.93227 21.0314V21.5518H7.91842V24.3565C7.71201 24.3747 7.52466 24.3731 7.31659 24.3565V21.5642H6.28865L6.28948 21.5626Z" fill="#C0C0C0"/>
<path d="M4.92331 24.3574H4.34883V21.0198H4.90342C4.94653 21.157 4.96476 23.9526 4.92249 24.3574H4.92331Z" fill="#C0C0C0"/>
<path d="M31.6115 31.4084H31.609V29.8983H31.2766V31.6877H32.4977V31.4084H31.6115Z" fill="#C0C0C0"/>
<path d="M28.9554 29.9024H28.6786V31.6877H28.9554V29.9024Z" fill="#C0C0C0"/>
<path d="M26.0167 29.8875V31.2061L25.9297 31.0697C25.9131 31.0491 25.899 31.0284 25.8857 31.0078C25.8343 30.926 25.7829 30.8434 25.7324 30.7608L25.7274 30.7525L25.7224 30.7451L25.235 29.9388L25.2134 29.9024H25.2126L25.2026 29.8875H24.7782V31.6869H25.1189V30.3684C25.1753 30.4543 25.2101 30.5055 25.2424 30.5575C25.4231 30.85 25.603 31.1424 25.7838 31.4349C25.8012 31.463 25.8161 31.4869 25.8302 31.5092L25.8327 31.5125C25.8509 31.5415 25.8675 31.5662 25.8824 31.5869L25.9487 31.686H26.3591V29.8867H26.0184L26.0167 29.8875Z" fill="#C0C0C0"/>
<path d="M20.9856 31.6862C21.0437 31.5507 21.0992 31.4202 21.1581 31.2822H21.6157C21.6845 31.2822 21.7533 31.2822 21.8212 31.2814C21.8246 31.2814 21.8279 31.2822 21.8312 31.2822H21.9149C21.9149 31.2822 22.0774 31.6473 22.094 31.6862H22.4554L22.3825 31.5259C22.1893 31.0732 21.9962 30.6196 21.7997 30.1686L21.6836 29.8926L21.5593 29.8943C21.5095 29.8902 21.4573 29.8959 21.4059 29.8959C21.1473 30.5023 20.8779 31.0823 20.6341 31.687H20.984L20.9856 31.6862ZM21.5386 30.2925C21.5966 30.4437 21.648 30.58 21.6985 30.7138L21.8171 31.0071L21.6331 31.0046C21.5369 31.0096 21.4424 31.0038 21.3413 31.0013H21.265C21.357 30.7626 21.4391 30.5502 21.5386 30.2933V30.2925Z" fill="#C0C0C0"/>
<path d="M35.1686 31.6862C35.2267 31.5507 35.2822 31.4202 35.3411 31.2822H35.7987C35.8675 31.2822 35.9363 31.2822 36.0043 31.2814C36.0076 31.2814 36.0109 31.2822 36.0142 31.2822H36.0979C36.0979 31.2822 36.2604 31.6473 36.277 31.6862H36.6384L36.5655 31.5259C36.3723 31.0732 36.1792 30.6196 35.9827 30.1686L35.8666 29.8926L35.7423 29.8943C35.6926 29.8902 35.6403 29.8959 35.5889 29.8959C35.3303 30.5023 35.0609 31.0823 34.8172 31.687H35.167L35.1686 31.6862ZM35.7216 30.2925C35.7796 30.4437 35.831 30.58 35.8816 30.7138L36.0001 31.0071L35.8161 31.0046C35.7199 31.0096 35.6254 31.0038 35.5243 31.0013H35.448C35.54 30.7626 35.6221 30.5502 35.7216 30.2933V30.2925Z" fill="#C0C0C0"/>
<path d="M17.8073 29.8881L17.7476 30.0558C17.615 30.4168 17.4824 30.7753 17.3381 31.1686C17.1939 30.7762 17.0612 30.4168 16.9286 30.0558L16.8689 29.8881H16.3616V31.6882H16.6782V30.549L16.6741 30.24L17.0936 31.3239C17.14 31.4461 17.1872 31.5676 17.2337 31.6907H17.4409C17.4882 31.5676 17.5346 31.4461 17.581 31.3239L18.0005 30.24L17.9963 30.549V31.6882H18.313V29.8881H17.8057H17.8073Z" fill="#C0C0C0"/>
</svg>
