<svg width="22" height="20" viewBox="0 0 22 20" fill="none" xmlns="http://www.w3.org/2000/svg">
<path fill-rule="evenodd" clip-rule="evenodd" d="M3 5.75C2.30964 5.75 1.75 6.30964 1.75 7V17C1.75 17.6904 2.30964 18.25 3 18.25H19C19.6904 18.25 20.25 17.6904 20.25 17V7C20.25 6.30964 19.6904 5.75 19 5.75H3ZM0.25 7C0.25 5.48122 1.48122 4.25 3 4.25H19C20.5188 4.25 21.75 5.48122 21.75 7V17C21.75 18.5188 20.5188 19.75 19 19.75H3C1.48122 19.75 0.25 18.5188 0.25 17V7Z" fill="#FFD78E"/>
<path fill-rule="evenodd" clip-rule="evenodd" d="M7.05546 1.05546C7.57118 0.539731 8.27065 0.25 9 0.25H13C13.7293 0.25 14.4288 0.539731 14.9445 1.05546C15.4603 1.57118 15.75 2.27065 15.75 3V19C15.75 19.4142 15.4142 19.75 15 19.75C14.5858 19.75 14.25 19.4142 14.25 19V3C14.25 2.66848 14.1183 2.35054 13.8839 2.11612C13.6495 1.8817 13.3315 1.75 13 1.75H9C8.66848 1.75 8.35054 1.8817 8.11612 2.11612C7.8817 2.35054 7.75 2.66848 7.75 3V19C7.75 19.4142 7.41421 19.75 7 19.75C6.58579 19.75 6.25 19.4142 6.25 19V3C6.25 2.27065 6.53973 1.57118 7.05546 1.05546Z" fill="#FFD78E"/>
</svg>
