<svg width="24" height="24" viewBox="0 0 24 24" fill="none" xmlns="http://www.w3.org/2000/svg">
<path fill-rule="evenodd" clip-rule="evenodd" d="M8 9.80701C8 9.39279 8.44772 9.05701 9 9.05701H15C15.5523 9.05701 16 9.39279 16 9.80701C16 10.2212 15.5523 10.557 15 10.557H9C8.44772 10.557 8 10.2212 8 9.80701Z" fill="#FFD78E"/>
<path fill-rule="evenodd" clip-rule="evenodd" d="M11.0814 21.1569C11.6372 21.6156 12.4407 21.6142 12.995 21.1535L22.9589 12.8712C23.5038 12.4183 23.6574 11.6458 23.3273 11.0188L19.2633 3.3011C19.0038 2.80842 18.4928 2.5 17.936 2.5H6.1362C5.58333 2.5 5.07527 2.80413 4.81411 3.29144L0.677926 11.0091C0.340323 11.6391 0.494046 12.4197 1.04528 12.8746L11.0814 21.1569ZM17.936 4H6.1362L2.00002 11.7177L12.0361 20L22 11.7177L17.936 4Z" fill="#FFD78E"/>
</svg>
