<svg width="24" height="24" viewBox="0 0 24 24" fill="none" xmlns="http://www.w3.org/2000/svg">
<path fill-rule="evenodd" clip-rule="evenodd" d="M1.25 2C1.25 1.58579 1.58579 1.25 2 1.25H12C12.1989 1.25 12.3897 1.32902 12.5303 1.46967L21.1219 10.0612C21.6341 10.5765 21.9216 11.2735 21.9216 12C21.9216 12.7265 21.6341 13.4235 21.1219 13.9388L20.59 13.41L21.1203 13.9403L13.9506 21.11C13.6952 21.3657 13.3919 21.5686 13.0581 21.7069C12.7242 21.8453 12.3664 21.9166 12.005 21.9166C11.6436 21.9166 11.2858 21.8453 10.9519 21.7069C10.6182 21.5686 10.315 21.3659 10.0597 21.1104C10.0596 21.1103 10.0598 21.1105 10.0597 21.1104L1.46998 12.5306C1.32914 12.39 1.25 12.1991 1.25 12V2ZM20.0587 12.8807C20.0589 12.8805 20.0585 12.8809 20.0587 12.8807C20.2911 12.6465 20.4216 12.33 20.4216 12C20.4216 11.67 20.2911 11.3535 20.0587 11.1193C20.0585 11.1191 20.0589 11.1195 20.0587 11.1193L11.6893 2.75H2.75V11.6891L11.12 20.0494C11.2361 20.1656 11.3746 20.2584 11.5263 20.3213C11.6781 20.3842 11.8407 20.4166 12.005 20.4166C12.1693 20.4166 12.3319 20.3842 12.4837 20.3213C12.6354 20.2584 12.7733 20.1662 12.8894 20.05L20.0587 12.8807Z" fill="#FFD78E"/>
<path fill-rule="evenodd" clip-rule="evenodd" d="M6 7C6 6.44772 6.44772 6 7 6H7.01C7.56228 6 8.01 6.44772 8.01 7C8.01 7.55228 7.56228 8 7.01 8H7C6.44772 8 6 7.55228 6 7Z" fill="#FFD78E"/>
</svg>
