<svg width="24" height="20" viewBox="0 0 24 20" fill="none" xmlns="http://www.w3.org/2000/svg">
<path fill-rule="evenodd" clip-rule="evenodd" d="M1.39124 13.3912C2.28204 12.5004 3.49022 12 4.75 12H12.75C14.0098 12 15.218 12.5004 16.1088 13.3912C16.9996 14.282 17.5 15.4902 17.5 16.75V18.75C17.5 19.1642 17.1642 19.5 16.75 19.5C16.3358 19.5 16 19.1642 16 18.75V16.75C16 15.888 15.6576 15.0614 15.0481 14.4519C14.4386 13.8424 13.612 13.5 12.75 13.5H4.75C3.88805 13.5 3.0614 13.8424 2.4519 14.4519C1.84241 15.0614 1.5 15.888 1.5 16.75V18.75C1.5 19.1642 1.16421 19.5 0.75 19.5C0.335786 19.5 0 19.1642 0 18.75V16.75C0 15.4902 0.500445 14.282 1.39124 13.3912Z" fill="#FFD78E"/>
<path fill-rule="evenodd" clip-rule="evenodd" d="M8.75 1.5C6.95507 1.5 5.5 2.95507 5.5 4.75C5.5 6.54493 6.95507 8 8.75 8C10.5449 8 12 6.54493 12 4.75C12 2.95507 10.5449 1.5 8.75 1.5ZM4 4.75C4 2.12665 6.12665 0 8.75 0C11.3734 0 13.5 2.12665 13.5 4.75C13.5 7.37335 11.3734 9.5 8.75 9.5C6.12665 9.5 4 7.37335 4 4.75Z" fill="#FFD78E"/>
<path fill-rule="evenodd" clip-rule="evenodd" d="M19.0238 12.6925C19.1274 12.2914 19.5364 12.0503 19.9375 12.1538C20.9565 12.4169 21.8593 13.011 22.5041 13.8428C23.1489 14.6746 23.4992 15.697 23.5 16.7494V18.75C23.5 19.1642 23.1642 19.5 22.75 19.5C22.3358 19.5 22 19.1642 22 18.75V16.7506V16.7506C21.9994 16.0306 21.7597 15.3309 21.3186 14.7618C20.8774 14.1927 20.2597 13.7862 19.5625 13.6062C19.1614 13.5026 18.9203 13.0936 19.0238 12.6925Z" fill="#FFD78E"/>
<path fill-rule="evenodd" clip-rule="evenodd" d="M15.0234 0.693971C15.1262 0.292701 15.5348 0.0506965 15.936 0.153438C16.9578 0.415045 17.8634 1.00927 18.5101 1.84243C19.1568 2.67559 19.5078 3.7003 19.5078 4.755C19.5078 5.8097 19.1568 6.83441 18.5101 7.66757C17.8634 8.50073 16.9578 9.09496 15.936 9.35656C15.5348 9.4593 15.1262 9.2173 15.0234 8.81603C14.9207 8.41476 15.1627 8.00618 15.564 7.90344C16.2631 7.72444 16.8827 7.31787 17.3252 6.74781C17.7677 6.17775 18.0078 5.47664 18.0078 4.755C18.0078 4.03336 17.7677 3.33225 17.3252 2.76219C16.8827 2.19213 16.2631 1.78556 15.564 1.60656C15.1627 1.50382 14.9207 1.09524 15.0234 0.693971Z" fill="#FFD78E"/>
</svg>
